<?xml version="1.0" encoding="utf-8"?>
<!-- Generator: Adobe Illustrator 23.0.2, SVG Export Plug-In . SVG Version: 6.00 Build 0)  -->
<svg version="1.1"
	 id="svg8" inkscape:version="1.0.1 (3bc2e813f5, 2020-09-07)" sodipodi:docname="A proposl.svg" xmlns:cc="http://creativecommons.org/ns#" xmlns:dc="http://purl.org/dc/elements/1.1/" xmlns:inkscape="http://www.inkscape.org/namespaces/inkscape" xmlns:rdf="http://www.w3.org/1999/02/22-rdf-syntax-ns#" xmlns:sodipodi="http://sodipodi.sourceforge.net/DTD/sodipodi-0.dtd" xmlns:svg="http://www.w3.org/2000/svg"
	 xmlns="http://www.w3.org/2000/svg" xmlns:xlink="http://www.w3.org/1999/xlink" x="0px" y="0px" viewBox="0 0 344.8 344.8"
	 style="enable-background:new 0 0 344.8 344.8;" xml:space="preserve">
<style type="text/css">
	.st0{fill:#002B54;}
	.st1{fill:#00A4E4;}
</style>
<sodipodi:namedview  bordercolor="#666666" borderopacity="1.0" id="base" inkscape:current-layer="g856" inkscape:cx="327.19934" inkscape:cy="329.8003" inkscape:document-rotation="0" inkscape:document-units="mm" inkscape:pageopacity="0.0" inkscape:pageshadow="2" inkscape:window-height="1017" inkscape:window-maximized="1" inkscape:window-width="1920" inkscape:window-x="-8" inkscape:window-y="-8" inkscape:zoom="0.98994949" pagecolor="#ffffff" showgrid="false">
	</sodipodi:namedview>
<g id="layer1" inkscape:groupmode="layer" inkscape:label="Calque 1">
	<g id="g860" transform="matrix(0.35211268,0,0,0.35211268,-16.623995,-1.3690492)">
		<g id="g856" transform="matrix(0.95970886,0,0,0.95970886,57.774339,-24.840895)">
			<path id="path840" class="st0" d="M1009.5,539.6c0.6,280.3-228.2,510.2-509.1,510.8C217.8,1051-10.7,822.8-11,539
				C-11.6,260.4,217.5,30.5,496.4,29.9C780.1,29.7,1008.9,256.7,1009.5,539.6L1009.5,539.6z M498.4,64
				C235.9,64,23.3,277.7,23.3,541.6c0,259.4,214,474.5,471.7,474.8c266.5,0,480.8-211.7,480.5-475.4C975.5,277.4,762,64,498.4,64
				L498.4,64z"/>
			<path id="path844" class="st1" d="M414.2,574.8c-42.5-5.1-68.6-32.6-68-70.3c0.6-35.4,29.5-65.2,64.9-66
				c30.9-0.9,61.8-0.9,92.4,0c43.4,1.4,79.9,37.4,80.5,80.8c0.9,92.1,0.9,184.3,0,276.4c-0.6,47.6-41.4,85.9-87.6,84.8
				c-45.9-1.1-81.9-39.1-82.2-87c-0.3-68.6,0-137.5,0-206.1C414.2,583.3,414.2,579.3,414.2,574.8L414.2,574.8z M550.3,657.2
				c0-44.5,0.3-89.3,0-133.8c-0.3-27.2-20.7-49.9-47.3-50.7c-30-0.9-60.1-0.6-90.4,0c-18.4,0.3-32.6,15.9-32.3,34
				c0,17.6,14.2,32.3,31.7,33.7c6,0.3,11.9,0,18.1,0.3c11.3,0.6,17.3,6.8,18.1,18.1c0.3,3.1,0,6.2,0,9.6c0,75.7,0,151.7,0,227.3
				c0,24.4,15.6,43.7,38.8,49.6c21.8,5.4,44.5-4.3,55.3-25.5c4.5-9.1,7.4-20.1,7.7-30.3C550.8,745.1,550.3,701.2,550.3,657.2
				L550.3,657.2z"/>
			<path id="path846" class="st0" d="M57.3,526.3c2.8-169.2,114.8-331.7,272.1-394c19-7.7,38.6-13.6,58.1-19.6
				c13.9-4.3,23-0.3,26.1,10.2c3.1,10.5-3.1,18.7-17.9,22.7c-92.7,25.2-168.4,75.7-225.4,153.4c-51,69.2-76.8,147.4-79.1,233.3
				c0,1.4,0,2.8,0,4.3c-0.3,13.3-6.8,21-17.3,21c-10.5-0.3-16.7-7.9-16.7-21.5C57.3,532.5,57.3,529.4,57.3,526.3L57.3,526.3z"/>
			<path id="path848" class="st1" d="M499.2,234c46.5,0,85,37.7,85.3,83.9c0.3,47.6-38,86.2-85.3,86.2c-46.5,0-84.5-38-84.8-84.5
				C414.2,272.6,452.2,234.3,499.2,234L499.2,234z M499.5,268.3c-28.3,0-51.3,23.2-51,51.3c0.3,27.8,23.2,50.5,51,50.5
				c28.1,0,51-23,51-51.3C550.3,291,527,268,499.5,268.3L499.5,268.3z"/>
			<path id="path850" class="st0" d="M484.8,132c-7.9,0.6-13.3,1.4-18.4,1.4c-10.5,0-17.6-6.2-18.1-15.3
				c-0.9-9.9,5.1-17.3,15.9-18.4c11.6-1.1,23.2-1.4,34.9-1.4c10.2,0,17,7.1,17.3,16.2c0.3,9.6-6.8,17-17.3,17.6
				C493.3,132.3,487.6,132,484.8,132z"/>
		</g>
	</g>
</g>
</svg>
