<?xml version="1.0" encoding="utf-8"?>
<!-- Generator: Adobe Illustrator 23.0.2, SVG Export Plug-In . SVG Version: 6.00 Build 0)  -->
<svg version="1.1"
	 id="svg8" inkscape:version="1.0.1 (3bc2e813f5, 2020-09-07)" sodipodi:docname="Aide sur Manarl.svg" xmlns:cc="http://creativecommons.org/ns#" xmlns:dc="http://purl.org/dc/elements/1.1/" xmlns:inkscape="http://www.inkscape.org/namespaces/inkscape" xmlns:rdf="http://www.w3.org/1999/02/22-rdf-syntax-ns#" xmlns:sodipodi="http://sodipodi.sourceforge.net/DTD/sodipodi-0.dtd" xmlns:svg="http://www.w3.org/2000/svg"
	 xmlns="http://www.w3.org/2000/svg" xmlns:xlink="http://www.w3.org/1999/xlink" x="0px" y="0px" viewBox="0 0 359.5 367.8"
	 style="enable-background:new 0 0 359.5 367.8;" xml:space="preserve">
<style type="text/css">
	.st0{fill:#002B54;}
	.st1{fill:#00A4E4;}
</style>
<sodipodi:namedview  bordercolor="#666666" borderopacity="1.0" id="base" inkscape:current-layer="g854" inkscape:cx="327.19934" inkscape:cy="370.2064" inkscape:document-rotation="0" inkscape:document-units="mm" inkscape:pageopacity="0.0" inkscape:pageshadow="2" inkscape:window-height="1017" inkscape:window-maximized="1" inkscape:window-width="1920" inkscape:window-x="-8" inkscape:window-y="-8" inkscape:zoom="0.98994949" pagecolor="#ffffff" showgrid="false">
	</sodipodi:namedview>
<g id="layer1" inkscape:groupmode="layer" inkscape:label="Calque 1">
	<g id="g860" transform="matrix(0.35211268,0,0,0.35211268,-16.623995,-1.3690492)">
		<g id="g856" transform="matrix(0.95970886,0,0,0.95970886,57.774339,-24.840895)">
			<g id="g854" transform="matrix(1.0018229,0,0,0.99948036,-37.907448,-101.29083)">
				<path id="path840" class="st0" d="M37,1219.7c-3.4-5.7-9.6-11.6-9.6-17.3c-0.3-41.1-1.4-82.2,1.4-123
					c6.8-108.3,95.8-205.2,202.7-223.1c2.8-0.6,5.7-0.9,8.2-1.4c13.3-2.8,24.4-0.3,36,9.1c64.1,51.9,157.9,54.7,223.7,5.4
					c19.8-14.7,37.4-16.7,59.8-11.6c114.8,26.1,195.3,123,197.9,240.9c0.9,34,0,68,0.3,102c0,8.8-3.4,14.7-10.2,19.6
					C510.3,1219.7,273.6,1219.7,37,1219.7L37,1219.7z M410.8,1008.5c0-10.2-9.1-18.4-19.6-18.1c-9.9,0.3-18.1,8.8-18.1,18.4
					c0,9.9,8.2,17.9,18.4,18.1C402.3,1026.9,410.8,1018.7,410.8,1008.5z M410.8,1072.9c0.3-10.2-8.5-18.7-19-18.7
					c-9.9,0-18.4,8.2-18.7,17.9c-0.3,9.9,7.7,18.1,17.9,18.7C401.8,1091,410.6,1083.1,410.8,1072.9L410.8,1072.9z"/>
				<path id="path842" class="st0" d="M172.4,598.1c0.3-120.8,98.1-218.6,219.1-218.8c121.3,0,220,98.1,219.7,219.4
					c0,122.2-98.1,219.4-220.8,219.1C270,817.7,172.4,719.4,172.4,598.1L172.4,598.1z"/>
				<path id="path844" class="st1" d="M1088.6,345.5c0.9,112.8-85.3,207.2-194.5,217.7c-47.1,4.5-90.7-5.4-131.5-28.6
					c-5.7-3.1-9.9-3.4-15.6-0.6c-24.9,11.6-50.2,23-75.4,34.3c-7.7,3.7-15.3,6.2-22.4-0.9c-6.8-6.8-3.7-14.2-0.3-21.5
					c11.9-24.4,23.5-49,35.7-73.4c2.8-6,3.1-10.5-0.3-16.4c-75.1-133.2,2.6-295.7,153.6-321.7c122.5-21.3,241.5,72.9,249.2,196.7
					C1087.8,336.7,1088.3,342.6,1088.6,345.5z M913.1,407.3c0-21.3,0-42.5,0-63.8c-0.3-25.5-16.4-42.5-40-42.5
					c-23.5,0-40.8,17.6-40.8,42.2c-0.3,42.5-0.3,85,0,127.6c0,24.4,17.6,42.8,40.5,43.1c23,0.3,40.3-17.9,40.5-42.8
					C913.4,449.8,913.1,428.5,913.1,407.3L913.1,407.3z M921.1,237.5c0-25.8-21.3-47.3-47.1-47.3c-27.8-0.3-49.9,21.3-49.6,48.5
					c0.3,25.8,22.4,47.9,48.2,47.9C899.5,286.2,921.1,264.4,921.1,237.5z"/>
				<path id="path846" class="st0" d="M426.8,1012.1c0,13.8-12.9,24.9-29.2,24.9c-15.5,0-28-11.1-28-24.6c0-13,12.5-24.6,27.5-24.9
					C413,986.8,426.8,998.3,426.8,1012.1L426.8,1012.1z"/>
				<path id="path848" class="st0" d="M429,1076.8c-0.5,13.3-14.8,23.7-32.4,23.3c-16.7-0.4-29.6-11.5-29.2-24.4
					c0.5-12.9,14.4-23.3,30.6-23.3C415.1,1052.1,429.5,1063.5,429,1076.8L429,1076.8z"/>
			</g>
		</g>
	</g>
</g>
</svg>
