<?xml version="1.0" encoding="utf-8"?>
<!-- Generator: Adobe Illustrator 23.0.2, SVG Export Plug-In . SVG Version: 6.00 Build 0)  -->
<svg version="1.1"
	 id="svg8" inkscape:version="1.0.1 (3bc2e813f5, 2020-09-07)" sodipodi:docname="Gestion compte.svg" xmlns:cc="http://creativecommons.org/ns#" xmlns:dc="http://purl.org/dc/elements/1.1/" xmlns:inkscape="http://www.inkscape.org/namespaces/inkscape" xmlns:rdf="http://www.w3.org/1999/02/22-rdf-syntax-ns#" xmlns:sodipodi="http://sodipodi.sourceforge.net/DTD/sodipodi-0.dtd" xmlns:svg="http://www.w3.org/2000/svg"
	 xmlns="http://www.w3.org/2000/svg" xmlns:xlink="http://www.w3.org/1999/xlink" x="0px" y="0px" viewBox="0 0 381.1 368.5"
	 style="enable-background:new 0 0 381.1 368.5;" xml:space="preserve">
<style type="text/css">
	.st0{fill:#002B54;}
	.st1{fill:#00A4E4;}
</style>
<sodipodi:namedview  bordercolor="#666666" borderopacity="1.0" id="base" inkscape:current-layer="layer1-8" inkscape:cx="297.0755" inkscape:cy="579.98867" inkscape:document-rotation="0" inkscape:document-units="mm" inkscape:pageopacity="0.0" inkscape:pageshadow="2" inkscape:window-height="1017" inkscape:window-maximized="1" inkscape:window-width="1920" inkscape:window-x="-8" inkscape:window-y="-8" inkscape:zoom="0.98994949" pagecolor="#ffffff" showgrid="false">
	</sodipodi:namedview>
<g id="layer1" inkscape:groupmode="layer" inkscape:label="Calque 1">
	<g id="g945" transform="matrix(0.26458333,0,0,0.26458333,26.294626,2.3086488)">
		<g id="layer1-8" transform="matrix(1.2775314,0,0,1.2771994,-148.4701,4.4320158)" inkscape:label="Calque 1">
			<g id="g868" transform="matrix(1.5012607,0,0,1.5012607,-122.77152,-187.46105)">
				<g id="g866">
					<path id="path842" class="st0" d="M232.9,118.6c36.9,0,73.7,0.3,110.6-0.3c8.5,0,13.9,2.8,18.1,9.9c6.8,11.3,15,21.5,21.3,32.9
						c4.8,8.8,11.3,10.8,20.7,10.8c145.1-0.3,290.6-0.3,435.7-0.3c18.7,0,19.6,0.9,19.6,19.8c0,13.3,0,26.9,0,40.3
						c0,6.2-1.7,11.9-8.8,12.2c-7.1,0-9.1-5.4-9.1-11.9c0-9.6-0.6-19.3,0.3-28.6c0.6-9.4-2.3-12.8-12.5-12.8
						c-43.7,0.6-87,0.3-130.7,0.3c-100.3,0-200.4-0.3-300.8,0.3c-11.9,0-20.1-3.4-26.1-14.2c-6.5-11.3-14.5-21.8-21.3-32.9
						c-3.4-5.7-7.7-8.2-14.7-8.2c-66.3,0.3-132.4,0.3-198.7,0c-8.8,0-11.9,2.8-11.6,11.6c0.3,27.5,0,55.3,0.3,82.8
						c0,6.8-0.6,13.9-9.4,13.6c-7.9-0.3-8.5-7.1-8.5-13.3c0-32.9,0.3-65.8,0-98.9c0-10.2,4.3-13.6,14.2-13.6
						C158.7,118.9,195.8,118.6,232.9,118.6L232.9,118.6z"/>
					<path id="path846" class="st0" d="M638.3,326.9c42.8,0,85.6,0,128.7,0c12.2,0,15,2.8,15,14.7c0,69.4,0,138.9,0,208.3
						c0,12.8-2.6,15.3-15.6,15.3c-85.6,0-171.5,0-257.1,0c-12.8,0-14.7-2-14.7-15c0-69.7,0-139.5,0-209.5c0-12.2,2-14.2,14.2-14.2
						C551.8,326.9,595.2,326.9,638.3,326.9L638.3,326.9z M637.7,547.7c37.4,0,75.1-0.3,112.5,0.3c10.2,0,13.6-3.4,13.6-13.3
						c-0.3-58.7-0.3-117.6,0-176.3c0-10.2-3.4-13.6-13.6-13.3c-75.1,0.3-150.2,0.3-225.4,0c-10.2,0-13.3,3.4-13.3,13.3
						c0.3,58.7,0.3,117.6,0,176.3c0,10.2,3.1,13.6,13.3,13.3C562.6,547.5,600.3,547.7,637.7,547.7z"/>
					<path id="path848" class="st0" d="M637.7,588.3c42.8,0,85.6,0,128.4,0c13.9,0,15.9,2,15.9,16.2c0,43.1,0,86.5,0,129.5
						c0,13-3.4,16.4-16.2,16.4c-85,0-169.8,0-254.8,0c-13.6,0-16.4-2.6-16.4-15.9c0-43.9,0-87.9,0-131.8c0-13,1.4-14.5,14.7-14.5
						C552.1,588.3,594.9,588.3,637.7,588.3z M638,731.1c38.3,0,76.5-0.3,114.8,0.3c8.5,0,11.1-2.8,11.1-10.8
						c-0.3-34.3-0.3-68.6,0-102.9c0-7.9-2.6-11.3-11.1-11.3c-76.5,0.3-153.1,0.3-229.3,0c-8.8,0-11.6,3.1-11.6,11.9
						c0.3,34,0.3,68,0,102c0,8.8,2.6,11.6,11.3,11.3C561.8,730.9,600,731.1,638,731.1L638,731.1z"/>
					<path id="path854" class="st0" d="M712.3,448.8c-0.3,53.6-52.7,90.1-102.9,70.6c-9.4-3.7-17.3-4.3-26.1,0
						c-2.6,1.1-5.1,2.3-7.9,2.8c-9.1,2.3-15.9-4-12.2-12.2c7.1-15,4.3-28.1,0-43.1c-11.3-41.7,15.3-82.8,57.8-92.4
						c40.3-9.1,81.4,18.1,90.1,59.5C712.3,438.9,712,444,712.3,448.8z M591.5,494.2c6.5,2,13.6,3.7,20.4,6.5
						c13.6,5.7,27.5,7.1,41.4,3.1c31.7-9.4,48.8-43.1,37.7-74.3c-11.1-31.2-45.6-46.8-76-34c-30.3,12.5-43.9,47.9-30,78
						C587.6,480.3,589.3,487.6,591.5,494.2L591.5,494.2z"/>
					<path id="path856" class="st1" d="M627.8,681.3c22.4,0,44.5,0,66.9,0c3.1,0,6.8-0.9,9.4,0.6c3.1,1.7,7.4,5.4,7.4,8.2
						c0,3.1-3.7,7.7-6.8,8.8c-4,1.7-9.1,0.9-13.6,0.9c-44.2,0-88.4,0-132.7,0c-2.8,0-6.5,1.1-8.2-0.3c-3.4-2.6-6-6.5-9.1-9.6
						c3.1-2.6,6-7.4,9.4-7.7c9.9-1.1,19.8-0.6,29.8-0.6C595.8,681.3,611.7,681.3,627.8,681.3L627.8,681.3z"/>
					<path id="path858" class="st1" d="M578.5,637.6c7.7,0,15.6-1.1,23.2,0.3c4.5,0.9,8.2,5.7,12.5,8.8c-3.7,3.4-7.4,9.4-11.6,9.6
						c-16.7,1.1-33.7,0.6-50.7,0.3c-6,0-11.3-2.6-10.8-10.2c0.6-7.4,6-8.8,11.9-9.1C561.5,637.3,570,637.6,578.5,637.6L578.5,637.6z
						"/>
				</g>
			</g>
			<path id="path901" class="st0" d="M123.5,933.6c-3.8-4.7-5.5-8.1-3.8-8.9c3.8-2.1,3.4-604.7-0.4-606s4.7-17.4,9.8-17.9
				c1.7,0,6-0.4,9.4-0.9c11.1-1.3,406.8-0.9,411.9,0.4c12.8,3.4,11.9-14.5,11.9,320.9c0,304.3,0,308.5-4.7,312.8
				c-2.6,2.1-3.8,5.1-3.4,6c0.9,1.3-90.2,1.7-211.5,1.7l-212.8-0.4L123.5,933.6z M525.7,621.2v-286h-186h-186v286v286h186h186
				L525.7,621.2z"/>
			<path id="path903" sodipodi:nodetypes="cccccccccccccccccccccccccc" class="st1" d="M400.6,777.4c-70.7-25.3-154.7-108.9-197-163
				c-18.8-27.5-23.7-62.8-16.3-90.3c8.4-23.2,37.8-56.2,58.9-64.5c16.4,6.5,78.6,62.7,82.9,73.5c0,0.9,1.7,4.7,3.4,8.1
				c6.4,12.3,2.1,30.2-9.8,39.2c-7.7,6-8.5,8.1-4.7,12.3c11.1,10.1,45.6,65.2,59.1,51.8c14-13.7,21.5-22.2,35.2-18.6
				c33.5,30.8,89,74.1,86,99.6c-0.4,3-9.7,10.7-22.5,23.8C456.3,768.9,423.1,782.1,400.6,777.4L400.6,777.4z M458.4,713.6
				c0-0.9-11.5-13.2-25.5-27.7l-25.5-26c-20,26.6-46.8,24.8-64.3,6.8c-19.1-20.2-53.1-48.4-61.3-68.1c-7.7-15.1,4.5-33.1,15.7-43
				c0.9-2.1-7.2-12.3-24.7-29.8l-26-26.4c-10,11.6-23.3,25.8-26.4,38.3c-11.4,48.8,46.2,94.7,76.7,125c55.7,55.7,90,75.5,95.1,76.4
				C418.7,750.2,441.7,731.8,458.4,713.6L458.4,713.6z"/>
			<path id="path904" sodipodi:nodetypes="cscccsscccccc" class="st0" d="M1053.9,1080.2c-21.3,0-68.8-0.1-105.5-0.2l-66.8-0.1
				l-4.6-13.4l4.6-13.4l4.5,0c18.9,0,154.3-0.2,179.2-0.3l32.3,0.6l2.4,13l-2.4,13.1l-3-0.2
				C1093.5,1079.5,1075.4,1079.6,1053.9,1080.2L1053.9,1080.2z"/>
			<path id="path906" sodipodi:nodetypes="ssscccssscccsss" class="st0" d="M49,1078.8c-4.3-0.9-6.5-2.3-8.2-5.3
				c-1.4-2.6-1.5-21.5-1.7-375.7l-0.2-373h13h13v359.7c0,392.5-0.4,363.6,4.7,367c2.3,1.5,16.7,1.5,406.8,1.8l404.5,0.2l0,13.1
				l0.6,13.4l-415.1-0.5C238.5,1079.2,50.7,1079.1,49,1078.8L49,1078.8z"/>
			<path id="path914" sodipodi:nodetypes="ccssssssscccscsssssscc" class="st0" d="M1097.6,1066.6v-13.1h18.6
				c11.3,0,19.7-1.1,21.4-2.9c2.2-2.2,2.9-95.8,2.9-406.8c0-364.1-0.4-404.3-3.7-407.7c-3.4-3.4-55-3.7-533.1-3.7
				c-360.4,0-530.9,0.8-534,2.5c-4.3,2.3-4.6,5.4-4.6,45.2l0,44.7l-13,0.7l-13.1-0.7l0.3-56.5c0.3-56.5,2.6-55.7,2.6-55.7
				s253.1-2.8,559.8-2.8c454.3,0,558.2,0.6,560.7,3.1c2.5,2.5,3.2,82.7,3.6,426c0.4,285.2-0.2,425.4-1.9,430.4
				c-1.3,4.1-4.1,8.2-6.1,8.9s-16.4,1.4-32,1.4h-28.4L1097.6,1066.6z"/>
			<path id="path920" sodipodi:nodetypes="cccccscc" class="st1" d="M829.7,502.6c-12.1-9-6.3-54.9-6.2-65.3c0.7-3.4,9.3-10,12.5-10
				c4.3,0.6,8.4,5.3,10.8,8.6c1.9,21.5,0.7,41.9-0.7,63.1l-4.9,5.2c-2.5,2.7-4.8,4-5.1,4C834.2,506.9,831.2,503.8,829.7,502.6
				L829.7,502.6z"/>
			<path id="path922" sodipodi:nodetypes="cccsssc" class="st1" d="M833.7,545.3c-3.2-3.2-8.4-8.2-11.2-11.9c3.1-3,6.4-6.2,9.9-8.6
				c3.1-2.8,3-4.2,10,1.8c3.5,3,8.1,8,7.8,8.2c-1.2,1.1-7.9,7.4-9.5,8.2C837.9,544.4,835.7,547,833.7,545.3L833.7,545.3z"/>
		</g>
	</g>
</g>
</svg>
