<?xml version="1.0" encoding="utf-8"?>
<!-- Generator: Adobe Illustrator 23.0.2, SVG Export Plug-In . SVG Version: 6.00 Build 0)  -->
<svg version="1.1"
	 id="svg8" inkscape:version="1.0.1 (3bc2e813f5, 2020-09-07)" sodipodi:docname="Opération.svg" xmlns:cc="http://creativecommons.org/ns#" xmlns:dc="http://purl.org/dc/elements/1.1/" xmlns:inkscape="http://www.inkscape.org/namespaces/inkscape" xmlns:rdf="http://www.w3.org/1999/02/22-rdf-syntax-ns#" xmlns:sodipodi="http://sodipodi.sourceforge.net/DTD/sodipodi-0.dtd" xmlns:svg="http://www.w3.org/2000/svg"
	 xmlns="http://www.w3.org/2000/svg" xmlns:xlink="http://www.w3.org/1999/xlink" x="0px" y="0px" viewBox="0 0 367.7 368.4"
	 style="enable-background:new 0 0 367.7 368.4;" xml:space="preserve">
<style type="text/css">
	.st0{fill:#00A4E4;}
	.st1{fill:#002B54;}
</style>
<sodipodi:namedview  bordercolor="#666666" borderopacity="1.0" id="base" inkscape:current-layer="g854" inkscape:cx="348.74096" inkscape:cy="505.10936" inkscape:document-rotation="0" inkscape:document-units="mm" inkscape:pageopacity="0.0" inkscape:pageshadow="2" inkscape:window-height="1017" inkscape:window-maximized="1" inkscape:window-width="1920" inkscape:window-x="-8" inkscape:window-y="-8" inkscape:zoom="0.98994949" pagecolor="#ffffff" showgrid="false">
	</sodipodi:namedview>
<g id="layer1" inkscape:groupmode="layer" inkscape:label="Calque 1">
	<g id="g854" transform="matrix(0.33783784,0,0,0.33783784,-6.9543121,-31.535233)">
		<path id="path840" class="st0" d="M594.9,93.6c21,2.8,42,4.8,62.9,8.2c82.8,13.9,157.9,45.9,225.9,95c3.1,2.3,6.2,4.5,11.6,7.9
			c0-12.2,0-22.4,0-32.9c0-10.2-0.3-20.7,0-30.9c0.9-19,14.5-32.9,32-32.6c17.9,0,31.2,13.9,31.5,33.2c0.3,44.2,0.3,88.4,0,132.9
			c0,16.7-8.5,28.1-24.4,31.7c-45.9,10.8-91.8,21-137.8,30.6c-16.2,3.4-32.3-8.5-36-24.4c-3.7-17.3,6.5-34,24.1-38
			c22.7-5.4,45.6-10.2,68.3-15.3c1.1-0.3,2-0.6,4.8-1.4c-3.4-2.8-6-5.1-8.5-6.8c-95-68.6-200.7-99.8-317.5-91.8
			c-209.2,14.2-384.1,161-433.4,364.5c-29.8,122.2-13,239,47.6,349.2c3.1,6,6.8,11.9,8.2,18.1c3.7,15.6-4.3,30.3-18.7,36.3
			c-14.7,6-31.7,1.4-39.4-13.6c-14.7-28.6-29.5-57.3-41.4-87C36.2,779.9,26,730.6,22.3,680.1c-0.3-2.8-1.1-5.4-1.7-8.2
			c0-22.1,0-43.9,0-66c0.6-3.4,1.4-6.8,1.7-10.2c3.7-24.9,6-49.9,11.1-74.6c46.8-215.7,221.7-383,438.5-419.5
			c21-3.4,42-5.7,62.9-8.2C555.2,93.6,575,93.6,594.9,93.6L594.9,93.6z"/>
		<path id="path844" class="st1" d="M462.8,390.7c2.3-18.1,4.5-34.6,6.5-51c2.6-20.1,14.5-31.2,34.6-31.5c40.8-0.3,81.4,0,122.2,0
			c20.4,0,32.3,11.1,34.9,31.2c2,16.4,4.3,32.9,6.5,51.3c12.5-9.6,23.8-18.4,35.1-27.2c23.8-18.7,36.6-17.9,57.8,3.4
			c26.1,26.1,52.2,52.2,78.2,78.2c17.9,17.9,18.7,32,3.1,52.2c-9.4,12.2-19,24.4-29.5,38c18.4,2.3,35.1,4.5,51.9,6.8
			c19.6,2.6,30.6,14.7,30.6,34.3c0.3,40.8,0,81.4,0,122.2c0,20.4-10.8,32.3-30.9,35.1c-16.4,2.3-32.9,4.3-51.3,6.5
			c4,5.1,6.8,9.1,9.9,13c7.9,10.2,15.9,19.8,23.2,30.3c9.9,13.9,9.6,29.5-2.3,41.7c-30,30.6-60.1,60.9-91,91
			c-12.5,12.2-28.3,12.2-42.5,1.4c-13.6-10.2-26.9-20.7-40.5-30.9c-0.3-0.3-0.6,0-2.3,0c-2,16.2-4.3,32.3-6.2,48.8
			c-2.6,21-14.5,31.7-35.1,31.7c-40.3,0-80.8,0-121,0c-21,0-32.9-11.1-35.4-31.7c-2-16.4-4.3-32.6-6.5-50.7
			c-14.2,11.1-26.9,21-39.7,30.6c-18.1,13.6-33.2,12.8-49-3.1c-28.1-28.1-56.1-56.1-84.2-84.2c-15.3-15.6-16.2-30.6-2.8-48.2
			c9.9-12.8,19.8-25.5,30.9-40c-17.9-2.3-34-4.5-50.2-6.5c-21.3-2.6-32-14.5-32-36c0-40,0-79.9,0-120.2c0-21.5,11.1-33.2,32.6-35.7
			c16.2-2,32-4.3,49.9-6.5c-10.5-13.6-20.1-26.1-29.8-38.6c-15-19.6-14.2-33.7,3.4-51.3c26.9-27.2,54.1-54.1,81.1-81.1
			c17.6-17.6,31.7-18.4,51.3-3.4C436.7,370.6,449.2,380.2,462.8,390.7L462.8,390.7z M529.7,372.6c-2,15.3-3.7,29.5-5.4,43.9
			c-1.7,15-9.4,25.5-24.1,30.6c-7.9,2.8-15.9,6.2-23.5,9.9c-13.9,6.8-26.6,5.1-38.6-4.5c-11.6-9.4-23.2-18.1-34.6-26.9
			c-17,17-33.4,33.4-50.5,50.5c9.1,11.6,18.4,23.5,27.5,35.7c8.5,11.1,10.5,23,4.3,35.7c-3.4,7.4-6.8,14.7-9.4,22.4
			c-5.7,17.9-17.9,26.1-36,27.5c-13,0.9-25.8,3.1-39.1,4.8c0,24.1,0,47.6,0,71.1c16.2,2.3,31.5,4.3,47.1,6.2
			c13.3,1.7,21.5,9.6,26.4,21.8c3.1,8.2,6.2,16.4,10.2,24.4c7.4,14.7,5.4,27.8-4.8,40.5c-9.1,11.1-17.6,22.7-25.8,33.2
			c17.3,17.3,33.7,33.7,50.5,50.7c11.1-8.5,23-17.6,34.6-26.9c11.6-9.4,24.1-10.8,37.7-4.3c7.1,3.4,14.2,6.5,21.5,8.8
			c17.3,5.7,25.8,17.6,27.2,35.1c1.1,13.3,3.1,26.6,4.8,40c24.4,0,47.9,0,71.4,0c2-15.6,3.7-30.3,5.7-45.1
			c2-14.5,9.6-23.8,23.2-28.6c7.9-2.8,15.9-6.2,23.5-9.9c14.2-7.1,27.2-5.4,39.4,4.5c11.3,9.4,23.2,18.1,33.2,25.8
			c17.6-17.6,34-34,50.7-50.7c-8.5-10.8-17.6-22.7-26.6-34.3c-9.1-11.3-10.8-23.5-4.5-36.6c3.4-7.1,6.8-14.2,9.1-21.5
			c5.7-18.4,18.1-26.9,36.9-28.1c13-0.9,25.8-3.1,38.8-4.8c0-24.1,0-47.3,0-71.1c-16.2-2.3-32-4-47.6-6.2c-12.8-1.7-21-9.4-25.8-21
			c-3.7-8.8-7.1-17.9-11.1-26.4c-6.5-13.6-4.8-26.1,4.5-37.7c9.4-11.6,18.1-23.5,26.1-33.7c-17.3-17.3-33.7-33.7-50.7-50.7
			c-10.8,8.2-22.4,17.3-34.3,26.4c-11.3,8.8-23.5,10.5-36.9,4.3c-6.2-3.1-12.8-6.5-19.6-8.2c-19.8-5.7-28.9-18.4-30-38.8
			c-0.6-12.5-3.1-24.9-4.8-37.7C576.7,372.6,553.8,372.6,529.7,372.6L529.7,372.6z"/>
		<path id="path846" class="st0" d="M235.2,1070.7c0,18.7,0,35.4,0,52.4c0,5.4,0.3,10.8-0.6,15.9c-2.6,17-17,28.9-33.2,28.1
			c-16.7-1.1-29.5-13.9-29.8-31.5c-0.3-39.4-0.3-78.5-0.3-117.9c0-6,0-12.2,0-18.1c0.6-15.3,8.8-26.6,23.8-30
			c46.2-10.8,92.4-21,138.9-30.9c15.6-3.4,31.7,8.5,35.1,24.1c4,17-6,34-23.5,38.3c-22.7,5.7-45.6,10.2-68.3,15.3
			c-1.1,0.3-2.6,0.6-7.4,2c21,13.3,38.6,26.1,57.5,36.9c286,161.6,643.5-1.4,708.7-323.4c23.2-114.8,5.1-223.9-51-326.6
			c-2-3.7-4.3-7.4-6.2-11.1c-8.5-16.7-3.1-35.7,12.5-43.9c15.3-8.2,33.7-2.8,43.1,13c20.4,34.6,36.9,70.9,48.8,109.1
			c87.9,279.5-55,575.7-330.5,676.1c-178,64.9-347.5,40-504.3-67.5C244.8,1077.5,240.8,1074.7,235.2,1070.7L235.2,1070.7z"/>
		<path id="path850" class="st1" d="M427.1,637.3c0-76.3,62.6-138,139.2-137.8c75.7,0.3,137.5,62.6,137.2,138.6
			c-0.3,76.3-62.6,138-139.2,137.8C488.6,775.6,427.1,713.3,427.1,637.3z M565.1,712.1c40.8,0,74.6-33.4,74.6-74.3
			c0-41.1-33.2-74.6-74.3-74.6c-40.8,0-74.6,33.4-74.6,74.3C490.9,678.7,524.3,712.1,565.1,712.1z"/>
	</g>
</g>
</svg>
