<?xml version="1.0" encoding="utf-8"?>
<!-- Generator: Adobe Illustrator 18.1.1, SVG Export Plug-In . SVG Version: 6.00 Build 0)  -->
<svg version="1.1"
	 id="svg8" xmlns:dc="http://purl.org/dc/elements/1.1/" xmlns:cc="http://creativecommons.org/ns#" xmlns:rdf="http://www.w3.org/1999/02/22-rdf-syntax-ns#" xmlns:svg="http://www.w3.org/2000/svg" xmlns:sodipodi="http://sodipodi.sourceforge.net/DTD/sodipodi-0.dtd" xmlns:inkscape="http://www.inkscape.org/namespaces/inkscape" sodipodi:docname="11 - Comptabilité.svg" inkscape:version="1.0.1 (3bc2e813f5, 2020-09-07)"
	 xmlns="http://www.w3.org/2000/svg" xmlns:xlink="http://www.w3.org/1999/xlink" x="0px" y="0px" viewBox="39.9 153.3 459 458"
	 enable-background="new 39.9 153.3 459 458" xml:space="preserve">
<sodipodi:namedview  id="base" inkscape:window-maximized="0" inkscape:document-rotation="0" inkscape:cy="562.37539" inkscape:cx="287.44955" inkscape:zoom="0.98994949" borderopacity="1.0" showgrid="false" bordercolor="#666666" pagecolor="#ffffff" inkscape:window-y="0" inkscape:window-x="78" inkscape:window-height="1032" inkscape:window-width="1438" inkscape:current-layer="g918" inkscape:document-units="mm" inkscape:pageshadow="2" inkscape:pageopacity="0.0">
	</sodipodi:namedview>
<g id="layer1" inkscape:label="Calque 1" inkscape:groupmode="layer">
	<g id="layer1-0" transform="matrix(0.26458333,0,0,0.26458333,16.559885,38.860247)" inkscape:label="Calque 1">
		<g id="g918" transform="matrix(0.33854167,0,0,0.33775006,16.258928,-24.059088)">
			<path id="path840" fill=" var(--principal)" d="M2394.1,1351.5c112,34.9,189.6,102.6,206.6,224.2c5.1,36.3,1.4,73.4,1.4,117.4
				c24.1,0,42.8,0,62.6,0c318.9,0,636.7-1.4,955.8,1.4c24.1,0,56.1,13.3,73.4,30.6c340.4,337.6,678,676.6,1015.7,1015.7
				c14.5,14.5,28.3,38.6,28.3,59c1.4,419.2,1.4,836.8,1.4,1256c0,7.9-1.4,15.9-2.8,26.9c-56.1,0-109.1,0-168.1,0
				c0-396.6,0-791.7,0-1192c-343.3,0-680.9,0-1022.5,0c0-343.3,0-682.3,0-1022.5c-313.5,0-623.3,0-940.8,0c0,18.7,0,37.1,0,57.5
				c0,680.9,0,1361.5,0,2042.4c0,189.6-101.2,289.7-291.1,289.7c-421.8,0-843.3,0-1266.8,0c-20.1,0-38.6,0-62.6,0
				c0,684.6,0,1364.3,0,2047.5c1192,0,2384.2,0,3581.3,0c0-336.2,0-673.8,0-1017.1c59,0,112,0,169.5,0c0,395.1,0,788.9,0,1188
				c-1306.8,0-2613.5,0-3924.6,0c0-738.4,0-1474.9,0-2218.4c-114.8,0-224.2,5.1-332.5-2.8c-53.3-4.3-116.2-17.3-157.3-49.3
				c-46.5-36.3-73.4-98.9-108.3-149.4c0-831.7,0-1662,0-2491.9c30.6-109.1,101.2-178.9,209.5-210.9
				C1079.1,1351.5,1737.6,1351.5,2394.1,1351.5L2394.1,1351.5z M382.6,2803.7c0,385.8,0,770.5,0,1156c0,100.3,24.1,125.3,123,125.3
				c600.9,0,1201.3,0,1800.9,0c102.6,0,126.7-24.1,126.7-125.3c0-770.5,0-1541.8,0-2312.2c0-100.3-25.5-125.3-123-125.3
				c-601.8,0-1204.2,0-1806,0c-96.1,0-121.6,25.5-121.6,121.6C382.6,2029.6,382.6,2416.5,382.6,2803.7z M4421.4,2714.7
				c-233.6-234.1-470.8-471.4-703-702.7c0,224.2,0,463.5,0,702.1C3958.5,2714.7,4195.8,2714.7,4421.4,2714.7z"/>
			<path id="path842" fill=" var(--principal)" d="M5337.3,4295c-20.1,84.2-76.3,144-136.1,204.4c-459.2,457.8-916.7,916.7-1377.4,1375.1
				c-26.9,26.9-59,47.9-93.3,64.1c-129.5,61.2-260.5,120.2-390,180.3c-41.4,20.1-79.9,25.5-114.8-9.4
				c-34.9-34.9-28.3-74.8-7.9-116.2c1.4-1.4,1.4-2.8,2.8-4.3c66.9-145.4,117.4-301.9,206.6-431.4c88.2-126.7,214.9-227.1,326-337.6
				c376.2-376.2,752.9-752.9,1127.9-1127.9c98.9-97.5,229.9-114.8,337.6-46.5c66.9,42.8,96.1,106.9,117.4,178.9
				C5337.3,4248.5,5337.3,4270.9,5337.3,4295L5337.3,4295z M4652.4,4559.2c-13.3,14.5-22.7,26.9-33.4,37.1
				c-326.8,326.8-651.1,655.4-980.8,978.5c-85.3,82.8-118.8,188.2-166.7,291.1c91-45.1,189.6-66.9,264.2-142.6
				c331.1-333.9,665-665.9,998.4-996.9c14.5-14.5,30.6-25.5,46.5-37.1C4735.5,4643.4,4696.4,4604.3,4652.4,4559.2L4652.4,4559.2z
				 M5082.4,4376.4c33.4-41.4,94.7-66.9,78.5-132.4c-6.5-26.9-37.1-59-62.6-66.9c-66.9-18.7-96.1,41.4-133.2,76.3
				C5003.4,4295,5041.1,4333.6,5082.4,4376.4L5082.4,4376.4z M4838.1,4383.2c-21.3,18.7-41.4,36.3-54.7,49.3
				c41.4,44.2,77.1,84.2,113.4,124.4c21.3-18.7,40-36.3,59-52.2C4915.2,4461.7,4878.1,4423.2,4838.1,4383.2z"/>
			<path id="path846" fill=" var(--principal)" d="M3032.1,5280.1c0,468.6-381.8,854.1-851.8,855.5c-472.3,1.4-856.9-381.8-856.9-854.1
				c0-472.3,383.2-856.9,855.5-855.5C2647.5,4426.8,3030.7,4811.5,3032.1,5280.1L3032.1,5280.1z M2859.8,5286.9
				c6.5-372.5-297.6-683.2-672.9-690.2c-371.1-6.5-686,296.2-692.8,665c-6.5,383.2,291.1,695.6,670.1,702.1
				C2542,5972.9,2854.1,5669.6,2859.8,5286.9z"/>
			<path id="path848" fill=" var(--principal)" d="M3288.4,3996c0-57.5,0-109.1,0-164.4c340.4,0,679.5,0,1021.3,0c0,54.7,0,108.3,0,164.4
				C3970.1,3996,3631.1,3996,3288.4,3996L3288.4,3996z"/>
			<path id="path850" fill=" var(--principal)" d="M4310.6,3488.9c0,57.5,0,109.1,0,165.3c-340.4,0-678,0-1019.9,0c0-54.7,0-108.3,0-165.3
				C3629.7,3488.9,3967.9,3488.9,4310.6,3488.9z"/>
			<path id="path852" fill=" var(--principal)" d="M3289.8,4339c0-54.7,0-106.9,0-163c340.4,0,679.5,0,1021.3,0c0,54.7,0,106.9,0,163
				C3970.1,4339,3631.1,4339,3289.8,4339L3289.8,4339z"/>
			<path id="path854" fill=" var(--principal)" d="M3289.8,3311.4c0-54.7,0-106.9,0-163c339,0,676.6,0,1018.5,0c0,52.2,0,105.4,0,163
				C3970.1,3311.4,3631.1,3311.4,3289.8,3311.4L3289.8,3311.4z"/>
			<path id="path856" fill=" var(--principal)" d="M2947.9,3996c0-56.1,0-109.1,0-164.4c56.1,0,109.1,0,165.3,0c0,56.1,0,108.3,0,164.4
				C3059.9,3996,3005.2,3996,2947.9,3996z"/>
			<path id="path858" fill=" var(--principal)" d="M3112.1,3654.1c-56.1,0-109.1,0-164.4,0c0-54.7,0-108.3,0-164.4c53.3,0,106.9,0,164.4,0
				C3112.1,3543.6,3112.1,3596.6,3112.1,3654.1z"/>
			<path id="path860" fill=" var(--principal)" d="M2949.4,3145.6c56.1,0,106.9,0,163,0c0,54.7,0,108.3,0,165.3c-52.2,0-105.4,0-163,0
				C2949.4,3257.5,2949.4,3204.5,2949.4,3145.6L2949.4,3145.6z"/>
			<path id="path862" fill=" var(--principal)" d="M2947.9,4173.4c54.7,0,108.3,0,164.4,0c0,54.7,0,108.3,0,165.3c-53.3,0-106.9,0-164.4,0
				C2947.9,4282.8,2947.9,4229.5,2947.9,4173.4z"/>
			<path id="path876" fill=" var(--principal)" d="M472.2,2201.9c0-197.9,0-391.2,0-590.2c623.3,0,1245.5,0,1871.4,0c0,195,0,391.2,0,590.2
				C1721.4,2201.9,1099.5,2201.9,472.2,2201.9z M2173.8,1782.7c-513.6,0-1021.3,0-1528.4,0c0,85.3,0,166.7,0,248
				c512.8,0,1019.9,0,1528.4,0C2173.8,1947.1,2173.8,1867.2,2173.8,1782.7z"/>
			<path id="path878" fill=" var(--principal)" d="M2004.3,4001.1c-36.3-1.4-73.4-1.4-109.1-5.1c-78.5-10.8-137.5-72-141.2-150.8
				c-4.3-61.2-2.8-123-1.4-185.7c2.8-98.9,66.9-166.7,165.3-172.3c60.4-4.3,120.2-2.8,180.3,0c97.5,5.1,163,74.8,166.7,172.3
				c1.4,52.2,1.4,102.6,0,155.1c-1.4,114.8-69.2,182.8-184.3,185.7c-25.5,0-49.3,0-74.8,0
				C2004.3,3999.7,2004.3,4001.1,2004.3,4001.1L2004.3,4001.1z M2089.3,3660.6c-56.1,0-109.1,0-164.4,0c0,57.5,0,110.6,0,164.4
				c56.1,0,109.1,0,164.4,0C2089.3,3768.9,2089.3,3716.8,2089.3,3660.6z"/>
			<path id="path880" fill=" var(--principal)" d="M1152.5,3740.9c0-26.9,0-53.3,0-79.9c1.4-97.5,65.5-168.1,164.4-173.8
				c61.2-4.3,124.4-4.3,185.7,0c97.5,6.5,161.6,77.1,163,174.6c1.4,56.1,1.4,113.4,0,169.5c-2.8,88.2-64.1,156.5-150.8,164.4
				c-66.9,5.1-133.2,5.1-200.1,1.4c-96.1-5.1-157.3-76.3-160.2-170.9C1152.5,3798.1,1152.5,3770.3,1152.5,3740.9z M1490.1,3826.5
				c0-56.1,0-109.1,0-165.3c-56.1,0-110.6,0-164.4,0c0,57.5,0,110.6,0,165.3C1383.8,3826.5,1435.7,3826.5,1490.1,3826.5z"/>
			<path id="path882" fill=" var(--principal)" d="M1064.6,3742.3c0,33.4,1.4,66.9,0,100.3c-5.1,78.5-61.2,145.4-140.3,152.2
				c-76.3,6.5-153.6,6.5-229.9,0c-78.5-6.5-137.5-74.8-141.2-157.3c-2.8-61.2-2.8-123,0-185.7c4.3-93.3,72-160.2,168.1-165.3
				c59-2.8,117.4-2.8,174.6,0c100.3,5.1,165.3,73.4,168.1,174.6C1066,3689,1066,3715.3,1064.6,3742.3
				C1066,3742.3,1064.6,3742.3,1064.6,3742.3L1064.6,3742.3z M725.6,3825c59,0,112,0,165.3,0c0-56.1,0-109.1,0-163
				c-57.5,0-110.6,0-165.3,0C725.6,3716.8,725.6,3767.5,725.6,3825z"/>
			<path id="path884" fill=" var(--principal)" d="M1409.3,2802.9c-32,0-64.1,1.4-94.7,0c-88.2-4.3-157.3-73.4-160.2-161.6
				c-2.8-61.2-1.4-123,0-185.7c2.8-91,72-161.6,163-164.4c61.2-1.4,123-1.4,185.7,0c91,2.8,160.2,73.4,163,164.4
				c1.4,60.4,1.4,120.2,0,180.3c-2.8,93.3-72,163-165.3,166.7C1469.1,2803.7,1438.5,2803.7,1409.3,2802.9L1409.3,2802.9z
				 M1490.1,2630.5c0-59,0-113.4,0-165.3c-56.1,0-109.1,0-164.4,0c0,56.1,0,110.6,0,165.3
				C1382.4,2630.5,1434.2,2630.5,1490.1,2630.5z"/>
			<path id="path886" fill=" var(--principal)" d="M811.2,2292.6c32,0,64.1-1.4,94.7,0c84.2,4.3,153.6,69.2,157.3,152.2
				c4.3,68.3,4.3,136.1,0,205.8c-4.3,85.3-74.8,150.8-163,153.6c-60.4,1.4-120.2,1.4-180.3,0c-93.3-2.8-163-72-166.7-165.3
				c-2.8-60.4-2.8-120.2,0-180.3c4.3-96.1,76.3-163,172.3-165.3C755.1,2291.2,782.8,2291.2,811.2,2292.6
				C811.2,2291.2,811.2,2292.6,811.2,2292.6L811.2,2292.6z M891.1,2630.5c0-57.5,0-112,0-164.4c-57.5,0-110.6,0-164.4,0
				c0,57.5,0,109.1,0,164.4C782.8,2630.5,835.3,2630.5,891.1,2630.5z"/>
			<path id="path888" fill=" var(--principal)" d="M1752,2543.8c0-29.2-1.4-60.4,0-89.6c5.1-92.4,73.4-158.7,165.3-161.6
				c59-1.4,116.2-1.4,174.6,0c94.7,1.4,165.3,68.3,170.9,161.6c4.3,61.2,4.3,124.4,0,185.7c-5.1,96.1-76.3,163-173.8,164.4
				c-54.7,1.4-109.1,1.4-165.3,0c-100.3-1.4-168.1-69.2-172.3-169.5C1749.2,2603.6,1750.6,2573,1752,2543.8
				C1750.6,2543.8,1750.6,2543.8,1752,2543.8L1752,2543.8z M1924.4,2629.1c59,0,112,0,165.3,0c0-56.1,0-109.1,0-164.4
				c-56.1,0-109.1,0-165.3,0C1924.4,2520.5,1924.4,2573,1924.4,2629.1z"/>
			<path id="path890" fill=" var(--principal)" d="M1410.2,2890.7c32,0,64.1-1.4,94.7,0c89.6,5.1,155.1,73.4,158.7,163
				c2.8,59,1.4,116.2,0,174.6c-1.4,97.5-68.3,168.1-165.3,173.8c-60.4,2.8-120.2,2.8-180.3,0c-96.1-4.3-164.4-74.8-165.3-172.3
				c-1.4-56.1-1.4-113.4,0-169.5c2.8-97.5,69.2-165.3,166.7-169.5C1350.3,2889.3,1379.5,2890.7,1410.2,2890.7z M1490.1,3229.8
				c0-59,0-112,0-165.3c-56.1,0-108.3,0-164.4,0c0,56.1,0,109.1,0,165.3C1381,3229.8,1434.2,3229.8,1490.1,3229.8z"/>
			<path id="path892" fill=" var(--principal)" d="M809.8,2890.7c32,0,64.1-1.4,94.7,0c89.6,5.1,156.5,70.6,160.2,161.6
				c2.8,60.4,2.8,120.2,0,180.3c-2.8,97.5-70.6,165.3-166.7,169.5c-59,2.8-116.2,2.8-174.6,0c-98.9-4.3-166.7-74.8-169.5-174.6
				c-1.4-52.2-1.4-102.6,0-155.1c1.4-110.6,69.2-178.9,181.7-181.7C760.5,2889.3,785.7,2889.3,809.8,2890.7z M727,3228.4
				c59,0,110.6,0,164.4,0c0-57.5,0-110.6,0-164.4c-56.1,0-109.1,0-164.4,0C727,3120.1,727,3172.5,727,3228.4z"/>
			<path id="path894" fill=" var(--principal)" d="M1750.6,3142.7c0-29.2-1.4-60.4,0-89.6c5.1-93.3,70.6-158.7,164.4-161.6
				c60.4-2.8,120.2-2.8,180.3,0c94.7,4.3,163,69.2,166.7,165.3c2.8,60.4,2.8,120.2,0,180.3c-5.1,96.1-74.8,163-172.3,166.7
				c-54.7,1.4-109.1,1.4-165.3,0c-102.6-2.8-170.9-70.6-173.8-174.6C1750.6,3198.9,1750.6,3171.1,1750.6,3142.7z M1924.4,3228.4
				c57.5,0,110.6,0,164.4,0c0-56.1,0-109.1,0-163c-57.5,0-110.6,0-164.4,0C1924.4,3121.5,1924.4,3173.9,1924.4,3228.4z"/>
			<path id="path896" fill=" var(--principal)" d="M2261.7,5708.7c0,25.5,0,52.2,0,84.2c-56.1,0-109.1,0-161.6,0c-2.8-2.8-6.5-5.1-5.1-7.9
				c9.4-62.6-20.1-89.6-79.9-108.3c-100.3-33.4-168.1-102.6-181.7-221.7c53.3,0,104-1.4,153.6,1.4c7.9,0,17.3,7.9,24.1,14.5
				c72,77.1,217.4,92.4,301.9,32c44.2-30.6,46.5-70.6,0-93.3c-45.1-21.3-97.5-34.9-146.8-38.6c-77.1-7.9-152.2-22.7-217.4-65.5
				c-153.6-102.6-152.2-286.9,5.1-385.8c40-25.5,86.7-40,136.1-61.2c1.4-24.1,2.8-53.3,4.3-84.2c56.1,0,108.3,0,165.3,0
				c1.4,30.6,2.8,60.4,4.3,91c84.2,22.7,164.4,53.3,213.7,129.5c21.3,32,30.6,70.6,50.7,118.8c-65.5,0-116.2,0-166.7,0
				c-6.5,0-13.3-7.9-18.7-13.3c-70.6-77.1-214.9-93.3-301.9-33.4c-46.5,32-49.3,70.6,1.4,96.1c41.4,21.3,91,32,137.5,36.3
				c76.3,6.5,148.3,18.7,213.7,60.4c163,100.3,165.3,294,1.4,393.7C2357.8,5671,2312.7,5685.7,2261.7,5708.7L2261.7,5708.7z"/>
		</g>
	</g>
</g>
</svg>
