<?xml version="1.0" encoding="utf-8"?>
<!-- Generator: Adobe Illustrator 18.1.1, SVG Export Plug-In . SVG Version: 6.00 Build 0)  -->
<svg version="1.1"
     id="svg8" xmlns:dc="http://purl.org/dc/elements/1.1/" xmlns:cc="http://creativecommons.org/ns#" xmlns:rdf="http://www.w3.org/1999/02/22-rdf-syntax-ns#" xmlns:svg="http://www.w3.org/2000/svg" xmlns:sodipodi="http://sodipodi.sourceforge.net/DTD/sodipodi-0.dtd" xmlns:inkscape="http://www.inkscape.org/namespaces/inkscape" sodipodi:docname="1 - DashboardComponent.svg" inkscape:version="1.0.1 (3bc2e813f5, 2020-09-07)"
     xmlns="http://www.w3.org/2000/svg" xmlns:xlink="http://www.w3.org/1999/xlink" x="0px" y="0px" viewBox="57 19.8 459 459"
     enable-background="new 57 19.8 459 459" xml:space="preserve">
<sodipodi:namedview  id="base" inkscape:window-maximized="1" inkscape:document-rotation="0" inkscape:cy="560" inkscape:cx="400" inkscape:zoom="0.35" borderopacity="1.0" showgrid="false" bordercolor="#666666" pagecolor="#ffffff" inkscape:window-y="-8" inkscape:window-x="-8" inkscape:window-height="1009" inkscape:window-width="1920" inkscape:current-layer="g854" inkscape:document-units="mm" inkscape:pageshadow="2" inkscape:pageopacity="0.0">
	</sodipodi:namedview>
  <g id="layer1" inkscape:label="Calque 1" inkscape:groupmode="layer">
	<g id="layer1-5" transform="matrix(0.26458333,0,0,0.26458333,22.604708,-8.0330902)" inkscape:label="Calque 1">
		<g id="layer1-2" transform="matrix(0.26458333,0,0,0.26458333,12.153825,19.176623)" inkscape:label="Calque 1">
			<g id="g856">
				<g id="g854">
					<path id="path836" fill=" var(--principal)" d="M6606,327.7c15.6,5.4,30.6,11.9,46.5,16.7c208.3,61.5,349.8,242.6,349.8,459.5
						c1.7,955.6,1.7,1912,0,2867.5c0,273.3-211.5,478.2-493.2,479.9c-531.2,1.7-1061.6,0-1594.5,0c-138.6,0-276.4,1.7-416.7,0
						c-295.1-3.7-500.3-204.7-500.3-500.3c-1.7-940.5-1.7-1881.1,0-2823.6c0-254,138.6-426.9,388.9-493.2c5.4-1.7,11.9-5.4,16.7-8.5
						C5137.9,327.7,5872.1,327.7,6606,327.7L6606,327.7z M4407.7,2234c0,464.3,0,930.3,0,1394.6c0,93.8,18.7,112.5,110.8,112.5
						c655.7,0,1309,0,1964.7,0c92.1,0,110.8-18.7,110.8-112.5c0-924.9,0-1850.5,0-2777.1c0-100.6-13.9-116.2-114.5-116.2
						c-652.3,0-1306.2,0-1957.6,0c-97.5,0-114.5,16.7-114.5,116.2C4407.7,1313.9,4407.7,1772.8,4407.7,2234L4407.7,2234z"/>
          <path id="path838" fill=" var(--principal)" d="M447.2,3464.8c15.6-42.8,25.8-87.3,44.5-126.4c87.3-179.4,233.6-278.1,431.7-278.1
						c682.9-3.7,1365.7-5.4,2048.6,0c284.9,1.7,479.9,213.2,479.9,505.1c1.7,597.3,0,1194.8,0,1792.1c0,334.8,0,669,0,1005.7
						c0,320.9-199.8,520.7-519,520.7c-652.3,0-1306.2,0-1957.6,0c-281.8,0-437.1-116.2-520.7-387.2c-1.7-3.7-5.4-6.5-8.5-8.5
						C447.2,5478.6,447.2,4471.7,447.2,3464.8z M857.3,4964.9c0,468,0,934,0,1401.2c0,87.3,18.7,106,104,106
						c658.8,0,1317.5,0,1976.9,0c85.6,0,104-20.4,104-106c0-930.3,0-1859,0-2789.3c0-90.4-20.4-108.9-107.7-108.9
						c-657.1,0-1314.4,0-1969.5,0c-88.4,0-107.7,18.7-107.7,108.9C857.3,4040,857.3,4502.3,857.3,4964.9L857.3,4964.9z"/>
          <path id="path840" fill=" var(--principal)" d="M3046.8,327.7c80.2,39.1,167.5,66.9,237.3,117.9c119.3,90.4,169.2,222.2,169.2,370.2
						c1.7,402.8,3.7,805.6,0,1210.4c-1.7,281.8-204.7,484.7-486.4,486.4c-676.3,3.7-1351.8,1.7-2028.2,0
						c-240.9,0-417.8-145.1-478.2-375.9c-3.7-10.2-8.5-20.4-11.9-28.9c0-460.6,0-921.8,0-1382.5c8.5-22.4,16.7-42.8,24.1-64.9
						c42.5-129.3,126.4-225.1,249.2-284.6c39.1-18.7,81.9-32.6,122.7-47.6C1579.3,327.7,2313.2,327.7,3046.8,327.7L3046.8,327.7z
						 M1951.5,737c-327.7,0-657.1,0-985,0c-92.1,0-108.9,16.7-108.9,107.7c0,384.1,0,768.5,0,1150.6c0,88.4,18.7,107.7,108.9,107.7
						c657.1,0,1312.7,0,1969.5,0c85.6,0,107.7-20.4,107.7-104c0-386.1,0-771.3,0-1157.4c0-85.6-20.4-104-106-104
						C2608.3,737,2280.9,737,1951.5,737L1951.5,737z"/>
          <path id="path844" fill=" var(--principal)" d="M5503.6,6882c-333.1,0-665.9,0-998.4,0c-302.2,0-507.1-203-507.1-505.1
						c-1.7-392.6-1.7-785.2,0-1177.8c1.7-298.8,204.7-503.4,501.7-503.4c667.3-1.7,1334.8-1.7,2002.1,0
						c298.8,0,500.3,206.6,500.3,505.1c0,392.6,0,785.2,0,1177.8c0,298.8-203,501.7-501.7,503.4
						C6167.2,6882,5835.8,6882,5503.6,6882L5503.6,6882z M5499.9,6472.1c327.7,0,657.1,0,985,0c92.1,0,108.9-16.7,108.9-107.7
						c0-384.1,0-768.5,0-1152c0-88.4-18.7-107.7-108.9-107.7c-654,0-1309,0-1963,0c-93.8,0-112.5,18.7-112.5,110.8
						c0,382.4,0,762.8,0,1145.2c0,92.1,18.7,108.9,114.5,108.9C4846,6472.1,5173.7,6472.1,5499.9,6472.1L5499.9,6472.1z"/>
				</g>
			</g>
		</g>
	</g>
</g>
</svg>
