<?xml version="1.0" encoding="utf-8"?>
<!-- Generator: Adobe Illustrator 18.1.1, SVG Export Plug-In . SVG Version: 6.00 Build 0)  -->
<svg version="1.1"
	 id="svg8" xmlns:dc="http://purl.org/dc/elements/1.1/" xmlns:cc="http://creativecommons.org/ns#" xmlns:rdf="http://www.w3.org/1999/02/22-rdf-syntax-ns#" xmlns:svg="http://www.w3.org/2000/svg" xmlns:sodipodi="http://sodipodi.sourceforge.net/DTD/sodipodi-0.dtd" xmlns:inkscape="http://www.inkscape.org/namespaces/inkscape" sodipodi:docname="3 - Clients.svg" inkscape:version="1.0.1 (3bc2e813f5, 2020-09-07)"
	 xmlns="http://www.w3.org/2000/svg" xmlns:xlink="http://www.w3.org/1999/xlink" x="0px" y="0px" viewBox="39.9 2.5 459.1 459.4"
	 enable-background="new 39.9 2.5 459.1 459.4" xml:space="preserve">
<sodipodi:namedview  id="base" inkscape:window-maximized="1" inkscape:document-rotation="0" inkscape:cy="560" inkscape:cx="400" inkscape:zoom="0.35" borderopacity="1.0" showgrid="false" bordercolor="#666666" pagecolor="#ffffff" inkscape:window-y="-8" inkscape:window-x="-8" inkscape:window-height="1009" inkscape:window-width="1920" inkscape:current-layer="g852" inkscape:document-units="mm" inkscape:pageshadow="2" inkscape:pageopacity="0.0">
	</sodipodi:namedview>
<g id="layer1" inkscape:label="Calque 1" inkscape:groupmode="layer">
	<g id="layer1-8" transform="matrix(0.26458333,0,0,0.26458333,16.553685,-14.055272)" inkscape:label="Calque 1">
		<g id="layer1-4" transform="matrix(0.26458333,0,0,0.26458333,35.845373,11.205105)" inkscape:label="Calque 1">
			<g id="g854">
				<g id="g852">
					<path id="path836" fill=" var(--principal)" d="M3634.2,194.6c124.7,24.1,253.1,41.1,376.2,73.4c808.4,223.7,1379.1,929.5,1435.2,1763.2
						c57.8,871.7-460.1,1671-1276.2,1975.2c-15.6,5.4-32.6,13.9-47.6,17c-61.5,13.9-112.8-15.6-133.2-71.7
						c-17-53,5.4-106,61.5-131.5c30.6-15.6,65.2-22.4,94.1-39.1c131.5-73.4,263.3-148.8,392.9-225.4c17-10.2,36.3-34.3,37.4-53
						c28.9-401.4-176-698.5-468.3-840.8c-37.4-18.7-66.9-18.7-104.3,5.4c-345.3,203.2-691.9,203.2-1035.5,0
						c-39.1-24.1-68-24.1-104.3-3.7c-297.1,153.9-451,396.9-471.4,731.3c-6.5,102.6,22.4,170.6,112.8,217.1
						c121,61.5,241.2,124.7,362.3,187.9c12.2,5.4,24.1,8.5,36.3,13.9c70,28.9,100.6,85.6,77.1,145.1
						c-24.1,59.8-81.9,83.9-153.6,57.8c-246-87.3-468.3-218.8-659.3-394.9c-1063-968.3-782.6-2680.7,527.8-3261.3
						c186.2-82.2,381-135.2,584.2-153.9c17-1.7,32.6-6.5,49.3-12.2C3429.2,194.6,3531.9,194.6,3634.2,194.6z M4791,3313.2
						c589.6-640.6,627-1770.2-153.6-2465.3C3885.6,179.8,2703,294.3,2091,1097.4c-594.1,780.7-368.8,1768.5,80.2,2207.3
						c47.6-368.8,232.7-644.3,562.4-828.9c-174.3-211.5-256.3-451-233.9-720.9c22.4-271.8,139.7-499.2,348.4-676.9
						c352.1-299.1,871.7-307.6,1237-24.1c182.6,143.4,304.4,328,355.7,555c71.7,319.5-5.4,608.3-210.3,864.3
						C4557.1,2662.1,4741.4,2937.6,4791,3313.2L4791,3313.2z M3476.9,1067.9c-420.1,1.7-765.6,350.1-763.7,770.5
						c3.7,417.3,348.4,762,765.6,762c420.1,0,767.3-348.4,767.3-767.3C4245.9,1413.2,3897,1066.5,3476.9,1067.9L3476.9,1067.9z"/>
					<path id="path838" fill=" var(--principal)" d="M199.4,4398.1c44.5-106,128.4-141.7,235.6-153.6c169.5-18.7,338.2-47.6,507.4-70
						c41.1-5.4,63.2-22.4,80.2-59.8c80.2-165.8,163.8-328,244.1-491.8c39.1-80.2,95.8-131.5,187.9-131.5
						c90.4,0,150,49.3,189.9,129.5c81.9,167.5,165.8,331.7,247.7,499.2c15.6,30.6,32.6,47.6,70,53c187.9,24.1,376.2,53,563.5,81.9
						c81.9,12.2,119.3,57.8,110.8,128.4c-8.5,65.2-65.2,98.9-145.1,87.3c-198.4-28.9-396.6-59.8-596.1-83.9
						c-87.3-10.2-141.7-44.5-179.7-126.7c-78.2-172.3-167.5-339.9-256.3-519.6c-13.9,25.8-24.1,42.8-34.3,61.5
						c-81.9,162.1-162.1,324.9-242.9,487c-25.8,53-61.5,81.9-121,90.4c-194.7,25.8-387.5,56.7-582.8,83.9
						c-6.5,1.7-15.6,3.7-22.4,5.4c49.3,51.3,94.1,102.6,141.7,148.8c97.5,95.8,196.4,191.1,294.2,285.2
						c39.1,37.4,53,78.2,42.8,133.2c-36.3,198.4-68,397.7-106,611.7c28.9-13.9,49.3-24.1,68-34.3
						c160.4-83.9,323.2-165.8,481.6-251.4c53-27.2,98.9-28.9,150-1.7c189.9,100.6,382.7,200.1,572.6,299.1
						c71.7,37.4,94.1,98.9,63.2,157.3c-30.6,57.8-94.1,71.7-165.8,34.3c-163.8-85.6-329.7-170.6-493.8-258
						c-36.3-18.7-63.2-20.4-98.9-1.7c-160.4,87.3-324.9,169.5-487,256.3c-80.2,42.8-157.3,53-233.9-1.7
						c-76.5-55-90.4-134.9-75.4-222.5c30.6-179.7,59.8-356.9,94.1-536.6c8.5-42.8-3.7-66.9-32.6-94.1
						c-121-114.5-241.2-229-358.6-346.7c-42.8-42.8-77.1-95.8-114.5-143.4C199.4,4466.9,199.4,4432.6,199.4,4398.1L199.4,4398.1z"/>
					<path id="path840" fill=" var(--principal)" d="M2446.7,6539.4c30.6-182.6,59.8-353.8,90.4-522.7c13.9-81.9,32.6-163.8,41.1-246
						c3.7-28.9-10.2-68-28.9-87.3c-167.5-165.8-336.5-328-507.4-489c-73.4-68-110.8-148.8-81.9-246
						c28.9-98.9,104.3-143.4,204.9-157.3c230.7-30.6,460.1-66.9,690.2-97.5c49.3-6.5,81.9-24.1,106-73.4
						c100.6-210.3,208.6-415.3,309.3-623.9c42.8-87.3,106-145.1,206.6-147.1c104.3-1.7,169.5,56.7,211.5,147.1
						c102.6,208.6,208.6,415.3,309.3,625c22.4,46.5,51.3,65.2,100.6,71.7c239.2,32.6,476.8,68,716,102.6
						c90.4,13.9,155.6,61.5,184.5,147.1c28.9,88.7,6.5,169.5-61.5,233.9c-174.3,169.5-350.1,338.2-526.1,505.7
						c-30.6,28.9-37.4,56.7-28.9,95.8c41.1,229,80.2,458.1,121,687.1c17,97.5,5.4,184.5-78.2,247.7c-85.6,63.2-174.3,53-264.8,5.4
						c-208.6-110.8-420.1-218.8-628.7-329.7c-36.3-18.7-63.2-18.7-100.6,0c-217.1,114.5-434,227.3-652.8,339.9
						c-116.2,59.8-241.2,25.8-299.1-81.9C2461.8,6609.1,2455.3,6568.3,2446.7,6539.4L2446.7,6539.4z M4287,6534
						c-1.7-25.8-1.7-42.8-5.4-57.8c-41.1-244.1-81.9-489-128.4-731.1c-13.9-75.4,5.4-124.7,57.8-176
						c176-165.8,348.4-335.1,522.7-500.9c17-15.6,39.1-24.1,59.8-36.3c-25.8-22.4-36.3-27.2-46.5-27.2
						c-249.4-36.3-497.2-73.4-746.9-106c-80.2-10.2-129.5-41.1-165.8-116.2c-102.6-217.1-213.4-432.3-321.2-647.4
						c-10.2-18.7-20.4-37.4-36.3-65.2c-124.7,249.4-244.1,483.3-358.6,720.9c-30.6,65.2-75.4,97.5-145.1,106
						c-187.9,24.1-376.2,53-563.5,78.2c-77.1,10.2-151.9,24.1-249.4,37.4c34.3,27.2,53,41.1,70,57.8
						c177.7,170.6,353.8,341.9,531.8,511.1c42.8,41.1,59.8,85.6,49.3,143.4c-20.4,104.3-37.4,210.3-56.7,314.6
						c-27.2,160.4-55,323.2-85.6,495.5c27.2-13.9,46.5-22.4,65.2-30.6c218.8-114.5,440.5-225.4,657.6-343.6
						c63.2-34.3,118.2-34.3,179.7,0c126.7,70,256.3,134.9,386.4,201.3C4064.5,6418,4172.5,6472.5,4287,6534L4287,6534z"/>
					<path id="path842" fill=" var(--principal)" d="M6128.4,5642.2c-36.3-208.6-66.9-405.1-104.3-597.8c-12.2-65.2,5.4-110.8,51.3-153.6
						c128.4-121,254.3-246,382.7-368.8c15.6-15.6,34.3-25.8,51.3-37.4c-3.7-6.5-5.4-12.2-8.5-18.7c-121-17-241.2-36.3-362.3-53
						c-80.2-12.2-160.4-25.8-241.2-34.3c-59.8-6.5-95.8-36.3-121-88.7c-80.2-162.1-160.4-324.9-242.9-487
						c-8.5-18.7-20.4-36.3-34.3-61.5c-90.4,180.9-179.7,353.8-263.3,528.1c-32.6,70-78.2,104.3-153.6,112.8
						c-210.3,25.8-418.4,59.8-627,88.7c-70,10.2-124.7-27.2-133.2-88.7c-8.5-65.2,25.8-114.5,97.5-124.7
						c191.1-28.9,384.7-55,575.7-87.3c25.8-3.7,56.7-27.2,68-51.3c85.6-162.1,165.8-326,246-491.8c39.1-81.9,97.5-134.9,191.1-134.9
						s150,56.7,189.9,136.9c78.2,162.1,162.1,324.9,241.2,487c18.7,37.4,39.1,53,80.2,57.8c187.9,25.8,376.2,55,563.5,81.9
						c83.9,12.2,141.7,55,169.5,136.9c27.2,81.9,3.7,151.9-56.7,210.3c-134.9,131.5-270.1,261.6-405.1,391.2
						c-28.9,27.2-39.1,51.3-32.6,94.1c34.3,177.7,63.2,356.9,94.1,536.6c22.4,136.9-37.4,239.2-157.3,254.3
						c-46.5,6.5-102.6-8.5-145.1-28.9c-163.8-80.2-326-167.5-489-254.3c-37.4-20.4-66.9-22.4-106-1.7
						c-155.6,83.9-314.6,163.8-470.3,246c-13.9,6.5-25.8,15.6-39.1,20.4c-59.8,27.2-121,8.5-148.8-44.5
						c-28.9-55-12.2-116.2,46.5-147.1c203.2-108,406.8-215.1,613.7-317.8c30.6-15.6,85.6-8.5,119.3,8.5
						c163.8,80.2,326,167.5,489,253.1C6080.8,5618.1,6099.5,5626.6,6128.4,5642.2L6128.4,5642.2z"/>
					<path id="path850" fill=" var(--principal)" d="M2903.1,5348.2c-80.2,0-124.7-37.4-129.5-95.8c-6.5-61.5,30.6-110.8,95.8-121
						c98.9-15.6,198.4-28.9,297.1-41.1c39.1-5.4,59.8-20.4,77.1-56.7c42.8-90.4,87.3-179.7,133.2-268.2
						c36.3-68,94.1-90.4,151.9-61.5c57.8,28.9,77.1,90.4,42.8,159c-57.8,121-118.2,241.2-180.9,358.6
						c-15.6,28.9-49.3,57.8-80.2,65.2C3171.3,5310.8,3029,5329.5,2903.1,5348.2z"/>
				</g>
			</g>
		</g>
	</g>
</g>
</svg>
