<?xml version="1.0" encoding="utf-8"?>
<!-- Generator: Adobe Illustrator 18.1.1, SVG Export Plug-In . SVG Version: 6.00 Build 0)  -->
<svg version="1.1"
	 id="svg8" xmlns:dc="http://purl.org/dc/elements/1.1/" xmlns:cc="http://creativecommons.org/ns#" xmlns:rdf="http://www.w3.org/1999/02/22-rdf-syntax-ns#" xmlns:svg="http://www.w3.org/2000/svg" xmlns:sodipodi="http://sodipodi.sourceforge.net/DTD/sodipodi-0.dtd" xmlns:inkscape="http://www.inkscape.org/namespaces/inkscape" sodipodi:docname="Indicateurs.svg" inkscape:version="1.0.1 (3bc2e813f5, 2020-09-07)"
	 xmlns="http://www.w3.org/2000/svg" xmlns:xlink="http://www.w3.org/1999/xlink" x="0px" y="0px"
	 viewBox="165.8 231.4 267.2 267.4" enable-background="new 165.8 231.4 267.2 267.4" xml:space="preserve">
<sodipodi:namedview  id="base" inkscape:cy="560" inkscape:cx="400" inkscape:zoom="0.35" borderopacity="1.0" showgrid="false" bordercolor="#666666" pagecolor="#ffffff" inkscape:window-y="0" inkscape:window-x="272" inkscape:window-height="1032" inkscape:window-width="1438" inkscape:current-layer="layer1" inkscape:document-units="mm" inkscape:pageshadow="2" inkscape:pageopacity="0.0" inkscape:window-maximized="0" inkscape:document-rotation="0">
	</sodipodi:namedview>
<g id="layer1" inkscape:label="Calque 1" inkscape:groupmode="layer">
	<g id="layer1-4" transform="matrix(0.26458333,0,0,0.26458333,60.982367,90.429956)" inkscape:label="Calque 1">
		<g id="g876" transform="matrix(0.33801352,0,0,0.33792566,11.158917,-4.8917524)">
			<path id="path840" fill="#797979" d="M2887.3,4243.3c62.6,57.8,105.2,125.3,122.2,207.2c5.7,25.8,7.9,51.3,8.8,77.1
				c0.9,33.7-17.6,53.9-50.7,53.9c-222.5,0.9-445.9,0.9-668.4,0c-33.7,0-50.7-21-50.7-57c-0.9-176.9,143.1-343,319.7-370.5
				c12.2-1.7,24.1-6.5,35.4-4.8c38.6,6.5,54.7-12.2,65.2-46.5c9.6-32,24.1-63.5,37.7-98.1c-12.2-0.9-21.8-1.7-30.6-1.7
				c-253.1,0-506.3,0-759.4-0.9c-20.1,0-32,5.7-44.2,22.4c-98.1,148.5-149.4,311.8-154.2,490.1c-1.7,51.3-15.3,65.8-66.6,65.8
				c-85.9,0-172.6,0-258.8,0c-43.4,0-60.4-17-60.4-60.4c1.7-168.7,35.4-330.2,99.5-486.1c3.1-7.4,6.5-14.5,8.8-22.4
				c0.9-1.7,0-4,0-11.3c-30.6,0-61.8,4-91.6-0.9c-126.1-17.6-209.8-117.4-209.8-246.6c0-429.2,0-857.5,0-1286.4
				c0-205.8,0-411.3,0-618c0-155.1,101.2-257.1,255.4-257.1c825.2,0,1651.2,0,2476.3,0c154.2,0,256.3,102,256.3,256.3
				c0,632.4,0,1265.7,0,1897.8c0,152.8-102,255.4-254.8,255.4c-16.2,0-32,0-51.3,0c7.4,18.4,12.8,33.7,19.3,49.9
				c60.4,149.4,90.7,305.3,93.3,466.9c0.9,45.1-16.2,62.6-60.9,62.6c-85.9,0-172.6,0-258.8,0c-49.9,0-64.3-15.3-65.8-64.3
				c-4.8-179.1-56.1-343-155.1-492.7c-10.5-16.2-21.8-22.4-41.1-21.8c-103.7,0.9-206.6,0-310.1,0.9c-10.5,0-25.8,4.8-29.8,12.2
				C2970.9,4091.3,2929.3,4167,2887.3,4243.3L2887.3,4243.3z M2876.8,2316.6c0,314.9,0,626.7,0,938.6c40.3,9.6,78.8,18.4,119.1,27.2
				c7.4-17.6,14.5-32,18.4-47.3c9.6-32,30.6-49.9,63.5-56.1c28.9-5.7,57.8-14.5,86.7-21.8c0-149.4,0-296.5,0-442.8
				c0-45.1,17-60.9,61.8-60.9c116.5,0,233,0,349.5,0c57,0,70.6,13.6,70.6,71.4c0,316.6,0.9,632.4-0.9,949c0,31.5,7.4,55.6,27.2,79.7
				c21,24.1,42.5,49.9,54.7,79.7c26.6,65.2,70.6,80.2,137.5,76.3c110.8-6.5,167.2-57,167.2-167.8c0-628.4,0-1257.4,0-1885.9
				c0-109.4-56.1-165.5-164.7-165.5c-821.2,0-1643.2,0-2464.4,0c-110.8,0-166.4,55.6-166.4,166.4c0,589.9,0,1178.6,0,1768.5
				c0,45.9-0.9,92.4,0,138.3c2,80.5,62.9,141.7,144,143.1c29.8,0.9,60.4-0.9,89.9,0.9c17.6,0.9,26.6-6.5,35.4-20.1
				c31.5-49,63.5-98.1,97.2-144.6c12.8-18.4,19.3-35.4,19.3-57.8c-0.9-322.3-0.9-644.3,0-967.5c0-47.3,16.2-63.5,62.6-63.5
				c116.5,0,233,0,349.5,0c55.6,0,70,13.6,70,69.2c0,196.2,0,391.2,0,587.3c0,10.5,0,21,0,28.9c97.2-30.6,191.9-59.5,286.9-89.3
				c0-308.7,0-620.2,0-933.7c-30.6,0-58.7,0-85.9,0c-23.2,0-41.1-7.4-51.3-28.9c-9.6-21-3.1-39.4,11.3-55.6
				c110-125.3,219.4-251.4,329.4-376.2c24.9-28.1,55.6-28.1,80.2,0c110.8,126.1,221.7,251.4,330.2,379.3
				c10.5,12.2,14.5,38.6,7.9,51.3c-7.4,14.5-28.9,25.8-46.5,28.9C2938.1,2319.7,2908.3,2316.6,2876.8,2316.6L2876.8,2316.6z
				 M2634.2,1955.7c-77.1,88.4-151.9,173.5-229,261.9c81.9,8.8,84.5,11.3,84.5,91.6c0,298.2,0,596.1,0,894.3c0,11.3,0,23.2,0,32.9
				c98.1,0,191.9,0,289.1,0c0-10.5,0-21.8,0-33.7c0-296.5,0-592.2,0-888.7c0-83.6,0-83.6,83.6-97.2
				C2786.1,2130,2712.1,2044.7,2634.2,1955.7L2634.2,1955.7z M1719.2,3608.6c83.6-80.2,169.5-148,265-201
				c18.4-10.5,23.2-22.4,23.2-42.5c-0.9-194.5,0-388.9-0.9-583.4c0-9.6-0.9-19.3-1.7-28.9c-97.2,0-191.9,0-286.9,0
				C1719.2,3037.1,1719.2,3319.2,1719.2,3608.6z M3547.8,3601.2c0-282.9,0-566.4,0-850.1c-96.4,0-190.5,0-285.2,0
				c0,128.7,0,255.4,0,384.1c31.5,4,43.4,24.9,49.9,53c7.9,35.4,18.4,70,26.6,105.2c10.5,47.3,36.3,95.5-3.1,137.5
				C3407.2,3489.5,3477.2,3545.1,3547.8,3601.2L3547.8,3601.2z M2850.5,3645.5c-328-86.7-688.5,40.3-877.3,261.9
				c12.2,0,21.8,0,31.5,0c92.4,0,184.8,0,277.2,0c146.3,0,292.5,0,439.7-0.9c10.5,0,27.2-6.5,30.6-14.5
				C2784.4,3811.8,2816.7,3729.1,2850.5,3645.5L2850.5,3645.5z M2584.6,3329.7c-294,16.2-548.8,121.3-760.3,313.5
				c47.3,47.3,91.6,91.6,136.6,136.6c175.2-155.9,384.9-240.9,623.6-256.3C2584.6,3458.4,2584.6,3395.7,2584.6,3329.7L2584.6,3329.7
				z M1881.3,3857.5c-45.9-45.9-89.9-90.7-134.1-134.9c-166.4,145.4-331.9,544-314.1,761.7c62.6,0,125.3,0,187.9,0
				C1679.8,4142.1,1703.9,4085.1,1881.3,3857.5L1881.3,3857.5z M3838.6,4485.1c-17.6-294.8-122.2-548.8-315.8-763.4
				c-46.5,46.5-90.7,90.7-136.6,135.8c156.8,177.4,243.5,388.1,259.7,627.6C3710.2,4485.1,3772,4485.1,3838.6,4485.1L3838.6,4485.1z
				 M2805.4,4188.6c3.1-4.8,7.4-9.6,10.5-15.3c143.7-261.9,288.6-523.8,432.3-785.8c4-7.4,8.8-17.6,7.4-24.9
				c-8.8-39.4-19.3-78.8-28.9-119.6c-33.7,8.8-63.5,17.6-94.1,23.2c-22.4,4-31.5,15.3-39.4,34.6c-81.9,206.6-164.7,413-247.5,620.2
				c-32,80.2-64.3,161.6-97.2,243.5C2767.7,4172.7,2786.1,4180.6,2805.4,4188.6L2805.4,4188.6z M2916.2,4485.1
				c-16.2-140.6-152.8-247.5-302.2-239.5c-131,7.4-260.2,124.4-261.9,239.5C2540.4,4485.1,2727.4,4485.1,2916.2,4485.1z
				 M2684.1,3325.7c0,70,0,132.7,0,193.6c64.3,11.3,126.1,21.8,187.9,31.5c5.7,0.9,17-4,18.4-7.9c23.2-55.6,44.2-110.8,69.2-173.5
				C2866.6,3353.8,2777.3,3340.2,2684.1,3325.7L2684.1,3325.7z M3286.7,3517.6c-32.9,60.4-63.5,114.8-93.3,170.4
				c41.7,32,81.9,63.5,116.5,90.7c45.9-45.9,90.7-89.9,137.5-136.6C3396.1,3602.9,3343.7,3561.8,3286.7,3517.6L3286.7,3517.6z
				 M3291.5,3906.5c1.7-2.6,3.1-4.8,4.8-7.4c-49-41.7-98.1-83.6-150.2-127.8c-26.6,48.2-49.9,90.7-74,134.9
				C3149.2,3906.5,3221,3906.5,3291.5,3906.5L3291.5,3906.5z"/>
			<path id="path868" fill="#797979" d="M1622.5,2024c36.9,0,81.9,12.8,108.6-4c24.9-16.2,29.8-62.6,43.4-96.4
				c13.6-33.7,27.2-66.6,40.3-100.3c8.8-22.4,23.2-37.7,49-36.9c24.1,0.9,37.7,15.3,46.5,36.9c24.1,59.5,49,119.1,70.6,179.1
				c7.4,21,18.4,26.6,39.4,25.8c56.1-1.7,112.5,0,168.7-0.9c24.9,0,45.9,6.5,56.1,31.5c9.6,24.1-1.7,42.5-18.4,58.7
				c-48.2,48.2-96.4,97.2-145.4,144.6c-13.6,12.8-16.2,24.1-7.9,41.7c24.9,57.8,47.3,117.4,70.6,175.2c9.6,24.1,12.8,47.3-8.8,65.8
				c-21.8,19.3-44.2,13.6-66.6-0.9c-61.8-37.7-123.9-74-185.7-112.5c-14.5-8.8-25.8-9.6-41.1,0c-60.9,37.7-123.9,74.8-185.7,111.7
				c-22.4,13.6-44.2,20.1-66.6,0.9c-21.8-18.4-19.3-41.7-9.6-65.8c23.2-56.1,45.1-114.2,69.2-169.5c8.8-21.8,7.9-35.4-9.6-52.2
				c-48.2-45.1-94.1-93.3-141.4-139.7c-17.6-17.6-28.9-36.3-17.6-61.8c10.5-23.2,30.6-29.8,54.7-28.9c28.9,0.9,57.8,0,87.6,0
				C1622.5,2026.3,1622.5,2024.9,1622.5,2024z M1724,2384.9c1.7,1.7,2.6,3.1,4,4.8c30.6-18.4,62.6-35.4,92.4-55.6
				c29.8-21,56.1-19.3,85.9,0c29.8,20.1,60.9,36.9,98.9,59.5c-10.5-25.8-17.6-44.2-24.9-62.6c-29.8-74-29.8-74,25.8-129.3
				c24.1-24.1,48.2-48.2,77.1-78c-37.7,0-66.6,0-95.5,0c-59.5,0-61.8-2.6-84.5-57c-12.8-31.5-25.8-63.5-40.3-97.2
				c-4.8,6.5-6.5,7.9-6.5,9.6c-12.8,31.5-25.8,63.5-37.7,94.7c-17.6,44.2-25.8,49.9-74,49.9c-32,0-64.3,0-104.6,0
				c36.9,36.3,65.2,65.8,95.5,93.3c29.8,26.6,37.7,53.9,19.3,90.7C1742.4,2331.6,1733.6,2359.1,1724,2384.9z"/>
			<path id="path870" fill="#797979" d="M3164.5,2024.9c36.9,0,81.9,12.8,108.6-4c24.9-16.2,29.8-62.6,43.4-96.4
				c13.6-34.6,27.2-69.2,41.1-102.9c8.8-21.8,23.2-35.4,47.3-35.4s38.6,14.5,46.5,36.3c24.1,60.9,49.9,123,73.1,184
				c5.7,15.3,13.6,21,30.6,21c57-0.9,114.2,0,172.1-0.9c25.8,0,48.2,4,59.5,30.6c11.3,27.2-4,45.9-21.8,63.5
				c-45.1,44.2-88.4,90.7-134.9,133.5c-21,19.3-22.4,34.6-11.3,59.5c24.1,53.9,44.2,109.4,66.6,163.8c9.6,24.1,13.6,47.3-7.9,65.8
				c-22.4,20.1-45.9,12.8-69.2-0.9c-57-35.4-115.7-68.3-172.1-104.6c-24.1-16.2-41.7-13.6-64.3,0.9c-53.9,34.6-110,66.6-164.7,99.5
				c-24.1,14.5-48.2,28.9-74,6.5c-25.8-21.8-17.6-47.3-7.4-74c23.2-56.1,45.1-114.2,68.3-170.4c7.4-17,4.8-26.6-7.9-39.4
				c-49-47.3-96.4-96.4-145.4-144.6c-17.6-17.6-29.8-36.3-18.4-60.9c10.5-24.9,32-30.6,57-29.8c28.1,0.9,56.1,0,84.5,0
				C3164.5,2026.3,3164.5,2025.5,3164.5,2024.9z M3408,1972.4c-4.8,2.6-7.4,3.1-7.4,4.8c-12.8,32-26.6,65.2-39.4,97.2
				c-17.6,42.5-25.8,49-71.4,49c-32.9,0-65.2,0-98.1,0c-0.9,2.6-2.6,4.8-3.1,7.4c31.5,30.6,62.6,61.8,94.7,90.7
				c25.8,23.2,31.5,48.2,16.2,80.2c-12.8,27.2-22.4,56.1-36.3,91.6c40.3-24.1,74-42.5,105.2-63.5c24.9-16.2,48.2-16.2,73.1,0
				c32,21,65.8,39.4,106,63.5c-14.5-36.9-24.9-65.8-37.7-94.1c-13.6-29.8-8.8-53.9,16.2-75.4c32.9-29.8,65.2-61.8,98.1-93.3
				c-7.4-4.8-7.9-6.5-9.6-6.5c-31.5,0-61.8-0.9-93.3-0.9c-45.9,0-53.9-5.7-71.4-49C3435.3,2040.8,3421.6,2006.2,3408,1972.4
				L3408,1972.4z"/>
		</g>
	</g>
</g>
</svg>
