<?xml version="1.0" encoding="utf-8"?>
<!-- Generator: Adobe Illustrator 18.1.1, SVG Export Plug-In . SVG Version: 6.00 Build 0)  -->
<svg version="1.1"
	 id="svg8" xmlns:dc="http://purl.org/dc/elements/1.1/" xmlns:cc="http://creativecommons.org/ns#" xmlns:rdf="http://www.w3.org/1999/02/22-rdf-syntax-ns#" xmlns:svg="http://www.w3.org/2000/svg" xmlns:sodipodi="http://sodipodi.sourceforge.net/DTD/sodipodi-0.dtd" xmlns:inkscape="http://www.inkscape.org/namespaces/inkscape" sodipodi:docname="5 - Portfolio processing.svg" inkscape:version="1.0.1 (3bc2e813f5, 2020-09-07)"
	 xmlns="http://www.w3.org/2000/svg" xmlns:xlink="http://www.w3.org/1999/xlink" x="0px" y="0px" viewBox="67.8 135.6 459 459"
	 enable-background="new 67.8 135.6 459 459" xml:space="preserve">
<sodipodi:namedview  id="base" inkscape:window-maximized="1" inkscape:document-rotation="0" inkscape:cy="473.01114" inkscape:cx="-86.170681" inkscape:zoom="0.49497475" borderopacity="1.0" showgrid="false" bordercolor="#666666" pagecolor="#ffffff" inkscape:window-y="-8" inkscape:window-x="-8" inkscape:window-height="1009" inkscape:window-width="1920" inkscape:current-layer="g876" inkscape:document-units="mm" inkscape:pageshadow="2" inkscape:pageopacity="0.0">
	</sodipodi:namedview>
<g id="layer1" inkscape:label="Calque 1" inkscape:groupmode="layer">
	<g id="layer1-1" transform="matrix(0.26458333,0,0,0.26458333,26.379802,32.803056)" inkscape:label="Calque 1">
		<g id="g876" transform="matrix(0.33783784,0,0,0.33783784,1.5347482,-1.4462686)">
			<path id="path840" fill=" var(--principal)" d="M3006.2,1155.4c72.3,24.1,124.4,75.1,174.9,128.4c182,196.7,365.1,392,546.8,586.8
				c48.2,51,73.7,109.4,72.3,180.6c-1.4,121.6,0,243.5,0,366.5c0,62.6-30.6,100.3-80.2,98.9c-49.6-1.4-80.2-38.6-80.2-101.5
				c0-100.3,0-199,0-304.7c-48.2,0-91,0-134.9,0c-102.9,0-206.9,1.4-310.4-1.4c-165.5-5.1-296.8-137.8-298.2-303.3
				c-1.4-160.4,0-320.6,0-489.3c-20.4,0-37.1,0-54.7,0c-703.3,0-1406.6,0-2111.2,0c-85.3,0-110.8,25.5-110.8,109.4
				c0,1323.5,0,2647.6,0,3971.1c0,85.3,25.5,110.8,109.4,110.8c201.8,0,403.7,0,606.9,0c54.7,0,88.2,33.4,86.7,81.6
				c-1.4,46.8-33.4,76.5-85.3,78.8c-12.2,0-22.7,0-34.9,0c-179.1,0-358.6-5.1-536.3,1.4c-150.8,5.1-255.1-46.8-307.6-191.1
				c0-1377.4,0-2754.1,0-4131.5c32.6-95.5,95.5-159.6,190.2-191.6C1435,1155.4,2221.3,1155.4,3006.2,1155.4L3006.2,1155.4z
				 M3524.4,1949.7c-159-172.6-309-335.3-468-506.6c0,133.5-2.8,254.3,1.4,373c2.8,70.9,61.2,129.8,133.5,132.7
				C3297.6,1952,3404.2,1949.7,3524.4,1949.7z"/>
			<path id="path842" fill=" var(--principal)" d="M4409.9,1155.4c17.6,33.4,41.4,65.5,52.4,101.5c20.4,68.3,33.4,139.2,45.4,209.8
				c5.1,29.2,20.4,40,45.4,49.6c54.7,20.4,109.4,41.4,161.9,66.9c28.3,13.3,48.2,12.2,72.3-5.1c64.1-44.2,131.2-86.7,196.7-129.8
				c48.2-30.6,80.2-28.3,121.6,12.2c61.2,60.4,123,123,184.5,184.5c34.9,34.9,36.3,73.7,10.8,113.7
				c-44.2,66.9-85.3,134.9-132.7,200.4c-17.6,25.5-19,44.2-5.1,72.3c26.9,53.3,44.2,110.8,70.9,165.5c7.9,16.2,25.5,34.9,42.8,38.6
				c77.4,20.4,156.5,34.9,233.9,51c61.2,13.3,81.6,37.1,81.6,100.3c0,83.1,0,167,0,250c0,51-22.7,81.6-73.7,92.4
				c-78.8,16.2-156.5,33.4-235.3,49.6c-29.2,5.1-42.8,17.6-54.7,46.8c-30.6,78.8-66.9,156.5-105.7,231
				c-25.5,49.6-73.7,60.4-113.7,36.3c-41.4-25.5-45.4-66.9-22.7-118.8c38.6-85.3,76.5-174,108.6-262.2
				c16.2-42.8,38.6-66.9,83.1-75.1c83.1-16.2,165.5-34.9,251.4-52.4c0-51,0-98.9,0-150.8c-84.5-19-168.4-38.6-252.9-53.3
				c-48.2-9.4-68.3-37.1-84.5-80.2c-30.6-84.5-64.1-167-102.9-248.6c-20.4-42.8-24.1-77.4,2.8-116.5
				c48.2-70.9,93.3-141.4,141.4-215.1c-36.3-36.3-70.9-70.9-108.6-107.1c-70.9,46.8-142.9,92.4-214,140.6
				c-38.6,26.9-73.7,24.1-116.5,4.3c-83.1-40-167-73.7-252.9-105.7c-41.4-14.7-68.3-36.3-76.5-81.6
				c-16.2-84.5-36.3-168.4-54.7-254.3c-52.4,0-100.3,0-150.8,0c-17.6,84.5-34.9,167-52.4,250c-13.3,61.2-48.2,89.6-98.9,80.2
				c-46.8-9.4-70.9-51-59-109.4c20.4-97.5,38.6-196.7,64.1-292.8c7.9-32,36.3-60.4,54.7-89.6
				C4182.3,1155.4,4296,1155.4,4409.9,1155.4L4409.9,1155.4z"/>
			<path id="path846" fill=" var(--principal)" d="M4539.5,3350.6c25.5,0,42.8,0,61.2,0c208.3,0,417,0,626.7,0
				c216.6,0,365.1,148.5,366.5,365.1c0,735.3,0,1470.6,0,2205.9c0,218-149.4,367.9-368.8,367.9c-1085.7,0-2172.5,0-3258.4,0
				c-230.2,0-376.7-145.7-376.7-374.5c-1.4-469.4,0-938.6,0-1409.4c0-260.8,0-521.6,0-782.1c0-231,145.7-374.5,376.7-374.5
				c206.1,0,410.5,0,616.5,0c19,0,36.3,0,59,0c1.4-21.3,2.8-40,2.8-57.5c0-109.4-1.4-220.8,0-330.2c2.8-163.3,118.8-280.6,283.5-282
				c442.5-1.4,885.3-1.4,1329.2,0c164.7,0,283.5,121.6,284.9,286.3C4540.9,3092.4,4539.5,3217.1,4539.5,3350.6z M5432.4,4491
				c-57.5,20.4-109.4,42.8-164.7,53.3c-256.5,52.4-514.5,100.3-771.6,149.4c-161.9,30.6-323.4,61.2-488.1,93.3
				c0,48.2,2.8,93.3-1.4,137.8c-4.3,49.6-7.9,100.3-22.7,147.1c-61.2,190.2-256.5,309-450.4,280.6
				c-200.4-29.2-351.8-196.7-358.6-397.1c-1.4-56.1,0-112.3,0-169.8c-24.1-5.1-41.4-9.4-60.4-13.3
				c-342.4-65.5-685.7-129.8-1028.1-196.7c-112.3-21.3-224.5-51-338.2-77.4c0,1.4-1.4,9.4-1.4,17.6c0,469.4-1.4,938.6,0,1409.4
				c0,125.6,78.8,201.8,206.1,201.8c1089.6,0,2179,0,3269.2,0c131.2,0,208.3-77.4,209.8-208.3c0-180.6,0-360.9,0-541.4
				C5432.4,5083.4,5432.4,4788,5432.4,4491L5432.4,4491z M3166.4,4622.2c4.3-7.9,6.5-10.8,6.5-13.3c0-78.8,1.4-156.5,1.4-235.3
				c1.4-109.4,60.4-169.8,171.2-169.8c160.4,0,320.6,0,481,0c123,0,182,57.5,182,180.6c0,80.2,0,159,0,239.2c10.8,0,16.2,1.4,20.4,0
				c328.8-62.6,659.1-125.6,988.2-190.2c96.1-19,193.9-37.1,287.1-66.9c88.2-28.3,132.7-93.3,129.8-191.1
				c-2.8-145.7-1.4-290-1.4-435.7c0-159-69.4-228.8-228.8-228.8c-410.5,0-822,0-1233.1,0c-656.5,0-1313,0-1969.2,0
				c-22.7,0-46.8,0-69.4,1.4c-100.3,5.1-179.1,77.4-180.6,179.1c-4.3,172.6,0,343.8,0,515.9c0,64.1,30.6,109.4,83.1,139.2
				c41.4,22.7,88.2,40,134.9,49.6c291.4,57.5,583.1,112.3,875.9,167C2952.3,4582,3059.5,4602.4,3166.4,4622.2L3166.4,4622.2z
				 M4380.4,3343.8c0-118.8,0-233.9,0-348.9c0-113.7-40-155.1-152.2-155.1c-282,0-564.1,0-846.1,0c-148.5,0-296.8,0-445.3,0
				c-72.3,0-125.6,38.6-128.4,100.3c-4.3,133.5-1.4,265.9-1.4,403.7c59,0,113.7,0,176.3,0c0-112.3,0-222.2,0-331.7
				c409,0,812.7,0,1219.2,0c0,112.3,0,219.4,0,331.7C4261.1,3343.8,4318.7,3343.8,4380.4,3343.8L4380.4,3343.8z M3337.6,4365.4
				c0,206.1,0,406.5,0,605.8c0,12.2,2.8,22.7,6.5,34.9c33.4,125.6,150.8,206.1,280.6,190.2c124.4-14.7,222.2-123,223.1-255.1
				c1.4-183.1,0-367.9,0-550.8c0-7.9-2.8-16.2-4.3-24.1C3674.3,4365.4,3508.5,4365.4,3337.6,4365.4L3337.6,4365.4z M4036.6,3171.2
				c-299.6,0-593.9,0-892.1,0c0,60.4,0,117.4,0,176.3c299.6,0,593.9,0,892.1,0C4036.6,3289.1,4036.6,3233,4036.6,3171.2z"/>
			<path id="path848" sodipodi:nodetypes="cscccccc" fill=" var(--principal)" d="M4730.5,2825.1c-44.2-19-57.5-62.6-36.3-118.8
				c117.4-309-54.7-625.9-374.5-684.3c-26.9-5.1-53.3-4.3-80.2-6.5c-56.1-6.5-85.3-38.6-83.1-86.7c2.8-45.4,36.3-72.3,89.6-72.3
				c350.4-4.3,650.6,295.7,650.6,655.7C4898.9,2575.6,4844.2,2871.3,4730.5,2825.1L4730.5,2825.1z"/>
			<path id="path850" fill=" var(--principal)" d="M1945.8,2236.9c179.1,0,357.2,0,536.3,0c64.1,0,101.5,28.3,101.5,77.4
				c1.4,49.6-38.6,83.1-104.3,83.1c-358.6,0-718,0-1076.3,0c-65.5,0-107.1-38.6-98.9-91c6.5-42.8,38.6-68.3,89.6-68.3
				C1577.8,2236.9,1761.2,2236.9,1945.8,2236.9z"/>
			<path id="path852" fill=" var(--principal)" d="M1942.9,1871.8c174.9,0,350.4,0,525.5,0c20.4,0,45.4-4.3,59,6.5
				c22.7,20.4,52.4,49.6,52.4,75.1s-30.6,54.7-54.7,72.3c-14.7,10.8-41.4,5.1-62.6,5.1c-344.7,0-691.4,0-1036.3,0
				c-81.6,0-120.2-25.5-121.6-78.8c-1.4-54.7,40-81.6,124.4-81.6C1599.7,1871.8,1771.7,1871.8,1942.9,1871.8L1942.9,1871.8z"/>
			<path id="path854" fill=" var(--principal)" d="M1680.7,2759.6c-93.3,0-187.4,0-280.6,0c-59,0-94.7-30.6-96.1-78.8
				c0-48.2,36.3-81.6,94.7-81.6c187.4,0,374.5,0,561.8,0c60.4,0,94.7,29.2,94.7,78.8s-33.4,80.2-93.3,80.2
				C1867.8,2761,1774.6,2759.6,1680.7,2759.6z"/>
			<path id="path860" fill=" var(--principal)" d="M976.6,1871.8c68.3,1.4,104.3,29.2,104.3,80.2c0,52.4-37.1,80.2-109.4,80.2
				c-70.9,0-109.4-28.3-110.8-80.2C861.5,1900.1,901.5,1871.8,976.6,1871.8z"/>
			<path id="path874" fill=" var(--principal)" d="M3509.9,4930.9c0-42.8,36.3-78.8,80.2-78.8c44.2,0,78.8,34.9,78.8,78.8
				c0,44.2-34.9,78.8-78.8,78.8C3547.6,5009.7,3509.9,4974,3509.9,4930.9z"/>
			<path id="path860-9" fill=" var(--principal)" d="M976.6,2236.9c68.3,1.4,104.3,29.2,104.3,80.2c0,52.4-37.1,80.2-109.4,80.2
				c-70.9,0-109.4-28.3-110.8-80.2C861.5,2265.2,901.5,2236.9,976.6,2236.9z"/>
			<path id="path860-9-6-2" fill=" var(--principal)" d="M976.6,2599.1c68.3,1.4,104.3,29.2,104.3,80.2c0,52.4-37.1,80.2-109.4,80.2
				c-70.9,0-109.4-28.3-110.8-80.2C861.5,2627.5,901.5,2599.1,976.6,2599.1z"/>
		</g>
	</g>
</g>
</svg>
