<?xml version="1.0" standalone="no"?>
<!DOCTYPE svg PUBLIC "-//W3C//DTD SVG 20010904//EN"
  "http://www.w3.org/TR/2001/REC-SVG-20010904/DTD/svg10.dtd">
<svg version="1.0" xmlns="http://www.w3.org/2000/svg"
     width="30" height="30" viewBox="0 0 512.000000 512.000000"
     preserveAspectRatio="xMidYMid meet">

  <g transform="translate(0.000000,512.000000) scale(0.100000,-0.100000)"
     fill="#000000" stroke="none">
    <path d="M320 5106 c-147 -41 -267 -162 -306 -310 -11 -42 -14 -318 -14 -1588
0 -1087 3 -1553 11 -1590 14 -67 61 -156 103 -197 l33 -32 53 61 c45 52 52 65
42 78 -37 51 -53 81 -62 114 -7 23 -9 573 -8 1580 l3 1543 22 40 c25 47 74 95
123 121 34 18 109 19 2240 19 l2205 0 40 -22 c47 -25 95 -74 121 -123 18 -34
19 -93 19 -1600 l0 -1565 -22 -40 c-25 -47 -74 -95 -123 -121 -33 -18 -76 -19
-797 -22 l-763 -2 0 -85 0 -85 745 0 c506 0 761 4 797 11 157 33 293 170 327
327 16 75 16 3089 0 3164 -33 153 -158 283 -313 324 -72 19 -4406 19 -4476 0z"/>
    <path d="M430 4695 l0 -85 85 0 85 0 0 85 0 85 -85 0 -85 0 0 -85z"/>
    <path d="M770 4695 l0 -85 85 0 85 0 0 85 0 85 -85 0 -85 0 0 -85z"/>
    <path d="M1110 4695 l0 -85 85 0 85 0 0 85 0 85 -85 0 -85 0 0 -85z"/>
    <path d="M430 4355 l0 -85 2130 0 2130 0 0 85 0 85 -2130 0 -2130 0 0 -85z"/>
    <path d="M955 3919 c-80 -8 -187 -46 -257 -90 -27 -17 -77 -62 -111 -100 -107
-115 -157 -245 -157 -408 0 -104 -7 -98 100 -78 l65 12 6 91 c11 184 114 321
286 384 53 19 77 22 156 18 85 -3 103 -8 170 -41 51 -25 90 -54 121 -88 25
-28 50 -49 54 -47 24 9 132 84 132 91 0 5 -35 43 -77 85 -136 135 -293 190
-488 171z"/>
    <path d="M2490 3919 c-235 -25 -435 -197 -506 -434 -28 -93 -24 -238 9 -340
50 -151 159 -278 300 -349 326 -164 720 1 834 349 33 102 37 247 9 340 -86
289 -348 465 -646 434z m253 -207 c168 -83 266 -267 237 -444 -39 -248 -271
-408 -512 -354 -325 72 -445 477 -212 711 95 95 176 126 320 122 90 -2 107 -6
167 -35z"/>
    <path d="M2615 3420 l-140 -140 -55 55 -56 55 -59 -60 -60 -61 101 -99 c80
-80 107 -100 129 -100 24 0 61 32 214 185 l186 185 -60 60 -60 60 -140 -140z"/>
    <path d="M4017 3918 c-288 -34 -517 -295 -517 -588 1 -284 198 -526 477 -585
89 -19 158 -19 246 1 138 31 261 109 342 216 87 114 125 227 125 366 0 361
-311 633 -673 590z m216 -187 c252 -87 364 -389 230 -619 -85 -145 -269 -232
-430 -205 -249 43 -410 285 -349 523 38 147 135 251 281 302 70 24 196 24 268
-1z"/>
    <path d="M4153 3418 l-143 -143 -55 55 -55 54 -60 -59 -60 -59 82 -84 c94 -94
127 -116 167 -107 17 4 90 69 206 185 l180 180 -60 60 -60 60 -142 -142z"/>
    <path d="M1110 3391 c-245 -66 -427 -251 -490 -497 -17 -67 -20 -111 -20 -334
0 -222 3 -267 19 -333 26 -102 62 -173 131 -265 79 -106 93 -136 98 -218 5
-82 -7 -127 -50 -197 -44 -69 -90 -96 -319 -187 -112 -45 -230 -96 -262 -113
-62 -33 -137 -107 -168 -169 -46 -90 -49 -127 -49 -586 l0 -434 29 -29 29 -29
1214 0 1213 0 95 24 c217 54 397 174 506 337 l46 69 245 0 245 0 67 64 66 65
67 -65 66 -64 122 0 122 0 66 64 67 64 68 -64 67 -64 118 0 c85 0 123 4 138
14 11 8 61 77 112 153 68 103 92 147 92 171 0 41 -178 313 -216 331 -18 8
-239 11 -772 11 l-747 0 -30 51 c-38 65 -139 167 -217 220 -257 175 -583 201
-838 68 l-80 -41 -42 17 c-95 38 -168 115 -198 209 -17 51 -8 171 15 216 10
19 44 69 75 112 69 92 105 163 131 265 16 65 19 111 19 320 0 286 -9 340 -77
482 -38 79 -59 108 -131 181 -71 71 -103 95 -172 128 -47 23 -112 49 -145 57
-81 20 -242 19 -325 -4z m312 -171 c133 -41 251 -144 312 -274 49 -103 56
-152 56 -399 0 -294 -13 -343 -126 -493 -29 -39 -68 -101 -85 -139 -27 -58
-33 -82 -37 -165 -6 -122 18 -209 81 -302 38 -56 139 -147 179 -160 10 -4 7
-14 -12 -39 -125 -172 -182 -355 -166 -536 16 -189 86 -344 220 -480 l60 -63
-867 0 -868 0 3 388 3 388 26 49 c14 27 43 64 66 81 23 17 143 72 273 124 265
106 326 144 397 248 63 93 87 180 81 302 -4 86 -9 107 -40 172 -19 40 -54 96
-77 123 -50 59 -92 138 -115 214 -22 76 -23 509 -1 594 60 230 257 385 491
386 55 1 103 -6 146 -19z m1128 -1876 c36 -8 103 -33 150 -57 108 -53 231
-170 279 -264 17 -34 40 -67 50 -73 13 -7 272 -10 775 -10 l755 0 51 -75 c28
-41 53 -81 56 -89 3 -8 -19 -50 -48 -95 l-53 -81 -45 0 c-43 0 -49 4 -110 66
-83 83 -121 108 -158 99 -17 -3 -60 -38 -107 -85 l-80 -80 -54 0 -55 0 -87 85
c-113 111 -115 111 -228 0 l-87 -85 -247 0 c-159 0 -255 -4 -270 -11 -15 -7
-41 -40 -63 -82 -66 -122 -193 -232 -330 -285 -245 -97 -494 -51 -669 122
-194 192 -236 448 -114 695 124 252 392 370 689 305z"/>
    <path d="M2122 1005 c-175 -76 -213 -307 -69 -430 132 -113 334 -64 402 98 19
46 20 147 1 191 -20 49 -85 116 -131 137 -49 22 -156 24 -203 4z m152 -176
c48 -38 28 -124 -34 -144 -51 -16 -119 48 -104 98 19 64 87 87 138 46z"/>
    <path d="M2130 2475 l0 -85 430 0 430 0 0 85 0 85 -430 0 -430 0 0 -85z"/>
    <path d="M3670 2475 l0 -85 425 0 425 0 0 85 0 85 -425 0 -425 0 0 -85z"/>
    <path d="M2130 2135 l0 -85 430 0 430 0 0 85 0 85 -430 0 -430 0 0 -85z"/>
    <path d="M3670 2135 l0 -85 425 0 425 0 0 85 0 85 -425 0 -425 0 0 -85z"/>
  </g>
</svg>
