<?xml version="1.0" standalone="no"?>
<!DOCTYPE svg PUBLIC "-//W3C//DTD SVG 20010904//EN"
  "http://www.w3.org/TR/2001/REC-SVG-20010904/DTD/svg10.dtd">
<svg version="1.0" xmlns="http://www.w3.org/2000/svg"
     width="30" height="30" viewBox="0 0 512.000000 512.000000"
     preserveAspectRatio="xMidYMid meet">

  <g transform="translate(0.000000,512.000000) scale(0.100000,-0.100000)"
     fill="#000000" stroke="none">
    <path d="M620 5106 c-163 -35 -268 -93 -391 -216 -82 -81 -102 -108 -142 -190
-56 -113 -76 -186 -84 -300 -24 -363 218 -697 576 -792 100 -26 268 -28 366
-4 476 119 728 650 513 1081 -104 207 -277 351 -493 409 -84 23 -264 29 -345
12z m341 -190 c304 -106 471 -436 375 -742 -26 -80 -83 -182 -124 -218 l-22
-19 0 117 c0 133 -11 170 -66 227 -34 35 -35 38 -25 75 37 132 -29 293 -151
370 -21 14 -66 32 -100 40 -154 40 -310 -33 -384 -178 -31 -61 -44 -184 -26
-238 11 -29 9 -34 -24 -67 -55 -54 -67 -93 -73 -228 l-6 -120 -46 65 c-136
190 -155 410 -53 620 73 149 238 277 404 315 94 21 228 13 321 -19z m-125
-325 c48 -22 80 -59 95 -111 15 -50 5 -95 -32 -150 -23 -34 -29 -52 -25 -75 8
-38 49 -75 85 -75 56 0 62 -19 59 -206 l-3 -168 -75 -24 c-121 -37 -260 -32
-387 15 l-43 16 0 157 c0 144 2 160 21 184 11 14 29 26 40 26 28 0 75 26 83
45 12 33 5 71 -21 110 -99 146 45 328 203 256z"/>
    <path d="M4221 5109 c-293 -52 -535 -276 -612 -567 -27 -102 -29 -269 -4 -367
111 -442 566 -693 994 -549 108 36 205 97 291 183 161 159 242 370 227 591 -8
114 -28 187 -84 300 -39 81 -60 109 -142 191 -82 82 -110 103 -191 142 -52 26
-122 54 -155 63 -73 19 -251 26 -324 13z m254 -174 c227 -48 412 -235 461
-465 54 -254 -74 -523 -306 -644 -90 -47 -177 -68 -285 -68 -323 2 -585 264
-587 587 -1 199 84 370 240 485 140 104 307 141 477 105z"/>
    <path d="M4278 4767 c-173 -55 -237 -272 -119 -408 39 -47 119 -89 169 -89 68
0 124 -57 107 -110 -16 -50 -42 -60 -152 -60 l-103 0 0 -85 0 -85 115 0 c123
0 161 9 220 54 39 30 83 111 91 168 20 144 -110 288 -258 288 -56 0 -94 67
-72 125 12 31 59 45 154 45 l90 0 0 85 0 85 -102 -1 c-57 0 -120 -6 -140 -12z"/>
    <path d="M3157 5032 l-57 -58 50 -49 c27 -27 50 -52 50 -56 0 -3 -39 -9 -87
-12 -170 -11 -329 -89 -455 -225 -111 -121 -167 -259 -183 -449 l-7 -83 91 0
91 0 0 73 c0 139 49 254 150 358 96 98 232 159 354 159 l50 0 -54 -54 -53 -55
58 -55 c32 -31 61 -56 64 -56 4 0 66 60 138 133 135 135 155 166 133 209 -12
23 -260 278 -270 278 -3 0 -31 -26 -63 -58z"/>
    <path d="M2310 3912 c-33 -16 -38 -26 -81 -152 l-46 -135 -55 -23 -56 -24
-121 57 c-93 44 -128 55 -148 50 -75 -18 -350 -293 -368 -368 -5 -20 6 -55 50
-148 l57 -121 -24 -56 -24 -56 -134 -46 c-178 -60 -170 -43 -170 -330 0 -287
-8 -270 170 -330 l134 -46 24 -56 24 -56 -57 -121 c-44 -93 -55 -128 -50 -148
18 -75 293 -350 368 -368 20 -5 55 6 148 50 l121 57 57 -24 56 -24 45 -134
c59 -178 43 -170 330 -170 286 0 270 -8 330 168 l45 133 59 24 60 24 118 -55
c137 -65 143 -65 227 0 60 47 197 186 248 252 52 67 52 79 -11 212 l-55 118
24 60 24 59 133 45 c176 60 168 44 168 330 0 286 8 270 -168 330 l-133 45 -24
59 -24 60 55 118 c43 91 54 125 49 145 -19 76 -292 349 -368 368 -20 5 -55 -7
-145 -49 l-118 -55 -60 24 -59 24 -45 133 c-60 176 -44 168 -330 168 -185 0
-220 -2 -250 -18z m439 -264 c48 -149 50 -151 123 -178 35 -12 84 -33 110 -46
26 -13 57 -24 69 -24 12 0 70 23 130 51 l108 51 28 -20 c36 -25 183 -179 183
-190 0 -5 -23 -58 -51 -117 -35 -74 -49 -116 -46 -134 4 -24 61 -161 90 -220
10 -20 37 -33 135 -65 l122 -40 0 -156 0 -156 -122 -40 c-98 -32 -125 -45
-135 -65 -29 -59 -86 -196 -90 -220 -3 -18 11 -60 46 -134 28 -59 51 -112 51
-117 0 -11 -147 -165 -183 -190 l-28 -20 -110 52 c-126 59 -124 59 -249 6
-143 -61 -129 -47 -174 -184 l-40 -122 -156 0 -156 0 -37 113 c-20 62 -43 121
-50 130 -14 19 -219 107 -248 107 -11 0 -68 -23 -127 -50 -94 -45 -109 -49
-130 -39 -27 15 -192 184 -192 197 0 5 23 57 50 115 28 58 50 115 50 126 0 20
-83 226 -100 246 -5 6 -64 29 -129 51 l-120 39 -1 155 0 155 76 23 c42 13 99
33 128 46 l52 23 47 113 c26 62 47 121 47 132 0 10 -22 67 -50 125 -27 58 -50
110 -50 115 0 13 165 182 192 197 21 10 36 6 130 -39 59 -27 116 -50 127 -50
29 0 234 88 248 107 7 9 30 68 50 130 l37 113 156 0 156 0 33 -102z"/>
    <path d="M2425 3315 c-269 -49 -491 -236 -585 -495 -145 -396 61 -835 460
-980 169 -62 351 -62 520 0 113 40 193 92 280 180 88 87 140 167 180 280 163
446 -119 931 -590 1016 -92 16 -173 16 -265 -1z m296 -181 c199 -59 355 -216
415 -419 24 -81 24 -229 0 -310 -61 -206 -215 -360 -421 -421 -81 -24 -229
-24 -310 0 -206 61 -360 215 -421 421 -24 81 -24 229 0 310 69 233 262 402
501 439 51 7 179 -3 236 -20z"/>
    <path d="M2475 2978 c-3 -7 -4 -124 -3 -258 l3 -245 85 0 85 0 0 255 0 255
-83 3 c-61 2 -84 -1 -87 -10z"/>
    <path d="M2472 2218 l3 -83 85 0 85 0 3 83 3 82 -91 0 -91 0 3 -82z"/>
    <path d="M295 3481 c-16 -10 -84 -73 -150 -140 l-120 -121 60 -60 59 -60 51
50 c28 28 53 50 56 50 4 0 9 -39 12 -87 13 -202 125 -395 300 -515 111 -76
215 -110 375 -123 l82 -7 0 91 0 91 -76 0 c-139 0 -283 66 -380 173 -80 89
-134 223 -134 331 l0 50 54 -53 53 -53 57 57 c31 31 56 60 56 64 0 3 -60 66
-132 138 -146 145 -170 159 -223 124z"/>
    <path d="M4100 2561 l0 -91 73 0 c139 0 254 -49 358 -150 98 -96 159 -232 159
-354 l0 -50 -55 54 -55 54 -55 -54 c-30 -30 -55 -59 -55 -65 0 -19 264 -274
291 -280 41 -10 73 13 209 149 l125 126 -60 60 -59 60 -51 -50 c-28 -28 -53
-50 -56 -50 -4 0 -9 39 -12 88 -11 169 -89 328 -225 454 -121 111 -259 167
-449 183 l-83 7 0 -91z"/>
    <path d="M672 1530 c-263 -36 -494 -206 -601 -442 -50 -110 -65 -181 -65 -318
-1 -150 14 -214 81 -350 39 -81 60 -109 142 -191 82 -82 110 -103 191 -142
136 -67 200 -82 350 -81 137 0 208 15 316 64 160 72 288 198 372 365 159 318
64 720 -220 938 -162 124 -375 183 -566 157z m278 -196 c349 -109 516 -517
344 -844 -150 -287 -499 -398 -793 -254 -104 51 -215 162 -265 264 -233 477
208 992 714 834z"/>
    <path d="M940 770 l0 -340 85 0 85 0 0 340 0 340 -85 0 -85 0 0 -340z"/>
    <path d="M680 685 l0 -255 85 0 85 0 0 255 0 255 -85 0 -85 0 0 -255z"/>
    <path d="M430 555 l0 -125 85 0 85 0 0 125 0 125 -85 0 -85 0 0 -125z"/>
    <path d="M4251 1530 c-311 -43 -568 -275 -646 -585 -25 -98 -23 -265 3 -366
95 -358 428 -600 792 -576 114 8 187 28 300 84 81 39 109 60 191 142 82 82
103 110 142 191 67 136 82 200 81 350 0 146 -16 216 -75 336 -143 292 -468
467 -788 424z m19 -255 l0 -86 83 3 82 3 3 83 3 82 27 -6 c218 -52 379 -195
446 -396 38 -112 40 -108 -54 -108 l-80 0 0 -85 0 -85 80 0 c92 0 90 3 60 -91
-62 -199 -248 -368 -443 -404 l-37 -7 0 81 0 81 -85 0 -85 0 0 -80 c0 -94 4
-92 -108 -54 -201 67 -344 228 -396 446 l-6 27 82 3 83 3 3 83 3 82 -86 0 -85
0 6 28 c50 228 219 410 434 466 30 8 58 15 63 15 4 1 7 -37 7 -84z"/>
    <path d="M4517 1052 l-117 -118 -46 2 c-43 2 -51 7 -120 75 l-74 74 -62 -63
-63 -62 75 -75 c68 -68 74 -78 71 -110 -4 -55 33 -120 85 -151 115 -67 254 14
254 147 0 42 4 47 117 161 l118 118 -60 60 -60 60 -118 -118z"/>
    <path d="M2470 948 c0 -140 -49 -255 -150 -359 -96 -98 -232 -159 -354 -159
l-50 0 54 55 54 55 -54 55 c-30 30 -59 55 -65 55 -6 0 -73 -62 -148 -138 -93
-95 -137 -146 -137 -161 0 -39 26 -74 154 -201 l126 -125 60 60 60 59 -50 51
c-28 28 -50 53 -50 56 0 4 39 9 88 11 151 10 296 75 416 188 137 129 204 276
221 488 l7 82 -91 0 -91 0 0 -72z"/>
  </g>
</svg>
