<?xml version="1.0" standalone="no"?>
<!DOCTYPE svg PUBLIC "-//W3C//DTD SVG 20010904//EN"
  "http://www.w3.org/TR/2001/REC-SVG-20010904/DTD/svg10.dtd">
<svg version="1.0" xmlns="http://www.w3.org/2000/svg"
     width="30" height="30" viewBox="0 0 512.000000 512.000000"
     preserveAspectRatio="xMidYMid meet">

  <g transform="translate(0.000000,512.000000) scale(0.100000,-0.100000)"
     fill="#000000" stroke="none">
    <path d="M1850 4267 c-269 -112 -296 -126 -314 -156 -22 -38 -22 -39 57 -331
l34 -126 -74 -78 -74 -79 -197 51 c-116 30 -208 49 -224 45 -14 -3 -37 -17
-51 -31 -14 -16 -75 -152 -141 -315 -110 -271 -117 -290 -106 -322 14 -41 21
-47 222 -161 l158 -89 -2 -107 -2 -106 -176 -100 c-96 -56 -186 -112 -199
-126 -15 -15 -23 -37 -23 -58 0 -45 234 -607 263 -630 32 -27 67 -23 281 33
l198 52 74 -74 74 -74 -54 -199 c-57 -214 -59 -239 -15 -279 33 -30 579 -257
619 -257 16 0 39 8 51 18 12 9 68 98 124 197 71 124 109 180 120 179 9 0 56
-1 105 -3 l87 -1 103 -180 c57 -99 115 -189 129 -200 14 -11 41 -20 60 -20 43
0 590 226 621 257 33 33 28 73 -33 293 l-54 195 72 71 72 72 199 -54 c214 -57
239 -59 279 -15 33 36 251 576 250 620 -1 47 -23 65 -218 179 -113 66 -170
105 -169 116 0 9 2 55 3 104 l1 87 178 97 c97 53 188 108 201 122 15 15 23 37
23 58 0 45 -234 607 -263 631 -32 26 -67 22 -279 -34 l-196 -51 -75 76 -76 75
53 197 c57 212 59 237 15 277 -31 29 -573 257 -611 257 -46 0 -74 -33 -176
-210 l-99 -170 -109 3 -109 4 -99 169 c-105 180 -142 224 -186 224 -15 0 -160
-56 -322 -123z m371 -292 c60 -105 106 -173 120 -180 15 -8 99 -14 222 -18
193 -6 198 -5 222 16 13 12 65 93 115 180 51 86 96 157 101 157 10 0 361 -139
368 -146 2 -2 -17 -84 -42 -182 -26 -99 -47 -191 -47 -206 0 -22 30 -57 146
-174 127 -127 150 -146 177 -146 18 0 112 22 210 49 97 26 179 46 181 44 2 -2
37 -86 78 -186 l75 -183 -166 -95 c-91 -53 -175 -106 -187 -119 -19 -22 -21
-39 -27 -216 -4 -129 -2 -200 5 -216 7 -16 69 -58 172 -119 89 -52 167 -99
174 -104 11 -6 -2 -47 -59 -187 -40 -98 -76 -183 -80 -188 -4 -5 -66 7 -141
27 -292 79 -279 79 -344 5 -21 -24 -80 -84 -131 -134 -77 -76 -93 -97 -93
-122 0 -25 80 -354 96 -397 3 -8 -58 -39 -182 -90 -148 -61 -188 -74 -195 -63
-5 7 -52 88 -104 179 -73 128 -101 169 -122 178 -39 15 -379 23 -409 9 -16 -8
-59 -70 -125 -185 -55 -95 -105 -173 -110 -173 -10 0 -361 139 -368 146 -2 2
15 75 39 161 72 264 72 254 -2 319 -24 21 -82 77 -129 126 -47 48 -98 92 -114
98 -22 8 -61 1 -222 -41 -107 -28 -198 -47 -202 -43 -14 15 -151 356 -146 363
2 4 80 51 173 105 94 54 175 108 181 120 8 13 13 96 15 220 3 190 2 199 -18
222 -12 12 -92 64 -179 114 -86 51 -157 96 -157 101 0 10 139 361 146 368 2 2
85 -17 183 -42 99 -26 191 -47 206 -47 20 0 56 30 166 141 77 77 144 152 150
166 7 20 -2 66 -42 215 -28 104 -48 193 -44 196 12 12 350 150 360 148 6 -2
53 -78 106 -171z"/>
    <path d="M2390 3260 c-219 -59 -387 -193 -480 -385 -52 -107 -73 -197 -72
-320 1 -319 202 -586 517 -687 87 -28 269 -35 358 -14 217 51 403 198 497 391
52 106 72 197 72 320 -1 314 -194 578 -498 681 -110 37 -284 44 -394 14z m275
-195 c209 -44 370 -210 406 -419 72 -420 -362 -738 -750 -550 -75 37 -180 142
-220 222 -79 156 -80 311 -5 467 72 151 191 241 369 280 79 18 116 18 200 0z"/>
  </g>
</svg>
