<?xml version="1.0" encoding="utf-8"?>
<!-- Generator: Adobe Illustrator 18.1.1, SVG Export Plug-In . SVG Version: 6.00 Build 0)  -->
<svg version="1.1"
     id="svg8" xmlns:dc="http://purl.org/dc/elements/1.1/" xmlns:cc="http://creativecommons.org/ns#" xmlns:rdf="http://www.w3.org/1999/02/22-rdf-syntax-ns#" xmlns:svg="http://www.w3.org/2000/svg" xmlns:sodipodi="http://sodipodi.sourceforge.net/DTD/sodipodi-0.dtd" xmlns:inkscape="http://www.inkscape.org/namespaces/inkscape" sodipodi:docname="12 - Administration.svg" inkscape:version="1.0.1 (3bc2e813f5, 2020-09-07)"
     xmlns="http://www.w3.org/2000/svg" xmlns:xlink="http://www.w3.org/1999/xlink" x="0px" y="0px" viewBox="35.6 6.2 459 503.9"
     enable-background="new 35.6 6.2 459 503.9" xml:space="preserve">
<sodipodi:namedview  id="base" inkscape:window-maximized="0" inkscape:document-rotation="0" inkscape:cy="441.50969" inkscape:cx="355.23341" inkscape:zoom="0.98994949" borderopacity="1.0" showgrid="false" bordercolor="#666666" pagecolor="#ffffff" inkscape:window-y="0" inkscape:window-x="234" inkscape:window-height="1032" inkscape:window-width="1438" inkscape:current-layer="g872" inkscape:document-units="mm" inkscape:pageshadow="2" inkscape:pageopacity="0.0">
	</sodipodi:namedview>
  <g id="layer1" inkscape:label="Calque 1" inkscape:groupmode="layer">
	<g id="layer1-7" transform="matrix(0.26458334,0,0,0.26458334,15.040178,-4.2369499)" inkscape:label="Calque 1">
		<g id="g872" transform="matrix(0.33801352,0,0,0.33792566,-0.76870279,-4.9520331)">
			<path id="path840" fill=" var(--principal)" d="M2935.7,131.1c69.4,24.9,129,62.1,165.3,129.8c7.4,13.6,37.1,19.3,56.4,21
				c269.3,1.7,540,0,809.3,1.7c171.8,1.7,295.9,99.2,328.3,257.1c4.8,22.4,5.7,44.2,5.7,66.9c0,405.4,0,809.3,0,1214.1
				c0,24.9-4.8,57.8-19.3,70.9c-21,17.9-57.8,34-81.4,28.1c-24.9-7.4-47.3-40.3-63.8-66.9c-8.8-13.6-3.1-35.4-3.1-54.7
				c0-387.8,0-776.4,0-1163.9c0-129-53.3-183.1-180.6-183.1c-273.3,0-547.4,0-825.4,0c0,69.4,0,136.1,0,210.3c74,0,145.1,0,217.7,0
				c112.3,0,224.8,0,338.7,0c156.5,1.7,233.9,78.2,233.9,237c0,724.8,0,1449.4,0,2174.2c0,23.5,0,47.3,0,74c72.6,0,140.3,0,216,0
				c0-19.3,0-38.6,0-57.8c0-272.4,0-542.6,0-815c0-17.9-1.7-37.1,3.1-54.7c10.5-42.8,38.6-67.7,83.1-66.9
				c44.2,1.1,70.9,26.6,79.9,70.9c3.1,16.2,1.7,32.3,1.7,50.2c0,283.7,0,569.2-1.7,853.5c0,32.3,7.4,53.3,34,74
				c54.7,42.8,76.8,103.2,74,171.8c-1.7,37.1,13.6,53.3,45.9,62.1c34,8.8,62.1,40.3,102.3-3.1c94.4-99.2,214.3-94.4,312.1,1.7
				c70.9,69.4,142,140.3,211.2,211.2c96.1,97.5,97.5,216,3.1,313.5c-21,22.4-37.1,40.3-16.2,70.9c21,29.8,11.9,78.2,75.7,78.2
				c140.3-1.7,221.7,85.6,223.4,226.5c0,99.2,0,199.8,0,299.1c-1.7,131.5-85.6,224.8-217.7,220.3c-65.2-1.7-66.9,40.3-87,76.8
				c-22.4,38.6,5.7,53.3,26.6,74c90.1,94.4,91.8,212.9,1.7,306.1c-74,75.7-147.7,149.1-223.4,223.4c-93.3,90.1-212.9,90.1-306.1,0
				c-45.9-44.2-79.9-49-131.5-10.5c-10.5,7.4-14.7,28.1-14.7,41.1c-7.4,175.7-79.9,246.9-254.6,246.9c-88.7,0-177.4,0-266.2,0
				c-143.4,0-233.9-84.5-227.9-226.5c3.1-65.2-31.2-84.5-79.9-94.4c-14.7-3.1-38.6,13.6-53.3,26.6
				c-115.4,112.3-227.9,112.3-341.9-1.7c-8.8-8.8-19.3-17.9-26.6-28.1c-24.9-34-57.8-42.8-100.6-42.8
				c-823.7,1.7-1649.2,1.7-2472.9,1.7c-229,0-356.3-127.3-356.3-356.3c0-1487.9,0-2975.5,0-4465.1c0-167,87-290,233.9-328.3
				c38.6-10.5,79.9-11.9,121-11.9c258.8-1.7,517.6-1.7,776.4,0c38.6,0,59-11.9,85.6-41.1c40.3-44.2,97.5-74,146.6-109.7
				C2041.7,131.1,2488.1,131.1,2935.7,131.1z M2917,5065.1c-14.7,0-37.1,0-59,0c-672.9,0-1346.2,0-2018.6,0
				c-137.8,0-224.8-79.9-226.5-211.2c-1.7-452.4,0-905.1,0-1359.2c0-62.1,31.2-97.5,81.4-97.5c51.6-1.7,84.5,37.1,85.6,100.6
				c0,13.6,0,24.9,0,38.6c0,424.6,0,850.4,0,1274.7c0,83.1,3.1,85.6,83.1,85.6c693.4,0,1385.9,0,2079.8,0c19.3,0,38.6-1.7,57.8-3.1
				c1.7-7.4,3.1-13.6,5.7-21c-19.3-5.7-38.6-19.3-57.8-19.3c-168.7-4.8-245.8-81.4-245.8-250c0-76.8,0-153.9,0-237
				c-124.2,0-244.1,0-363.7,0c-65.2,0-102.3-31.2-102.3-83.1c0-53.3,35.4-83.1,100.6-84.5c118.5,0,237,1.7,354.9-1.7
				c21,0,47.3-8.8,62.1-23.5c49-49,106.3-75.7,174.3-70.9c53.3,3.1,79.9-14.7,79.9-74c-21,0-40.3,0-60.7,0c-193.6,0-387.8,0-582.8,0
				c-17.9,0-37.1,0-54.7-1.7c-45.9-7.4-74-34-74-81.4c0-47.3,28.1-75.7,74-83.1c17.9-3.1,37.1-3.1,54.7-3.1c164.4,0,328.3,0,494.1,0
				c19.3,0,40.3,0,62.1,0c-21-100.6,14.7-171.8,81.4-235.3c65.2-60.7,125.9-125.9,189.4-187.9c108-106.3,220.3-108,329.7-1.7
				c21,21,38.6,32.3,66.9,13.6c29.8-19.3,78.2-13.6,72.6-72.6c-5.7-59,8.8-116.8,53.3-158.2c31.2-28.1,37.1-59,37.1-97.5
				c0-735,0-1471.2,0-2206.5c0-13.6,0-26.6,0-38.6c1.7-35.4-16.2-50.2-50.2-49c-183.1,0-365.1,0-548.8,1.7
				c-14.7,0-35.4,11.9-41.1,23.5c-50.2,106.3-136.1,147.7-250,146.6c-390.3-1.7-779.5-3.1-1169.9,0c-131.5,1.7-226.5-42.8-275-173.2
				c-183.1,0-366.8,0-548.8,0c-81.4,0-81.4,0-81.4,84.5c0,710.1,0,1419.6,0,2129.7c0,24.9,4.8,57.8-8.8,75.7
				c-19.3,23.5-53.3,51.6-79.9,50.2c-26.6-1.7-53.3-35.4-74-60.7c-8.8-10.5-4.8-32.3-4.8-49c0-724.8,0-1449.4,0-2174.2
				c0-145.1,78.2-223.4,223.4-224.8c156.5-1.7,313.5,0,471.7,0c31.2,0,62.1,0,93.3,0c0-74,0-140.3,0-210.3c-273.3,0-544.3,0-813.3,0
				c-140.3,0-191.1,50.2-191.1,189.4c0,1480.3,0,2960.8,0,4441c0,145.1,51.6,195,198.1,195c763.4,0,1526.2,0,2289.5,0
				c19.3,0,38.6,0,49,0C2926.9,5204,2922.7,5139.3,2917,5065.1L2917,5065.1z M3357.5,5434.4c14.7-8.8,28.1-16.2,38.6-24.9
				c28.1-26.6,56.4-54.7,83.1-83.1c35.4-37.1,74-42.8,119.9-21c53.3,24.9,108,47.3,162.7,67.7c44.2,16.2,66.9,44.2,66.9,91.8
				c0,38.6,0,76.8,0,116.8c0,41.1,19.3,60.7,60.7,59c97.5-1.7,195-1.7,294.2,0c42.8,0,60.7-21,59-60.7c0-37.1,0-74,0-111.1
				c-1.7-47.3,23.5-74,66.9-90.1c59-22.4,116.8-44.2,174.3-69.4c42.8-19.3,78.2-13.6,111.1,19.3c24.9,24.9,50.2,49,74,74
				c28.1,29.8,54.7,32.3,84.5,1.7c69.4-70.9,140.3-142,211.2-211.2c28.1-28.1,28.1-53.3-1.7-79.9c-11.9-11.9-23.5-23.5-35.4-35.4
				c-84.5-84.5-84.5-84.5-32.3-189.4c7.4-16.2,19.3-32.3,22.4-50.2c23.5-122.7,93.3-175.7,219.1-153.9c42.8,7.4,63.8-17.9,62.1-62.1
				c-1.7-76.8,0-155.3,0-232.2c0-118.5,0-118.5-118.5-118.5c-96.1,0-106.3-7.4-134.6-96.1c-7.4-24.9-16.2-49-26.6-72.6
				c-65.2-136.1-91.8-131.5,44.2-257.1c31.2-28.1,29.8-54.7,0-84.5c-69.4-67.7-138.9-137.8-207.2-207.2
				c-29.8-29.8-54.7-32.3-84.5-1.7c-21,22.4-41.1,41.1-62.1,63.8c-34,35.4-70.9,41.1-115.4,21c-60.7-28.1-121-51.6-183.1-75.7
				c-42.8-16.2-66.9-44.2-65.2-91.8c0-29.8,0-59,0-88.7c1.7-42.8-16.2-65.2-62.1-65.2c-97.5,1.7-195,1.7-294.2,0
				c-38.6,0-57.8,17.9-59,56.4c0,35.4,0,69.4,0,104.9c0,44.2-22.4,70.9-63.8,87c-60.7,23.5-119.9,49-177.4,75.7
				c-44.2,21-81.4,17.9-115.4-17.9c-23.5-23.5-47.3-45.9-70.9-70.9c-26.6-28.1-51.6-31.2-79.9-1.7c-70.9,72.6-143.4,143.4-216,216
				c-26.6,26.6-24.9,51.6,1.7,76.8c24.9,24.9,49,50.2,74,74c37.1,35.4,42.8,74,22.4,119.9c-24.9,54.7-45.9,112.3-67.7,168.7
				c-16.2,42.8-42.8,67.7-90.1,66.9c-38.6-1.7-76.8,0-116.8,0c-34,1.7-56.4,16.2-56.4,54.7c0,102.3,0,202.4,0,304.7
				c0,40.3,22.4,56.4,59,56.4c38.6,0,76.8,0,116.8,0c45.9,0,75.7,22.4,91.8,65.2c21,56.4,45.9,112.3,70.9,168.7
				c19.3,42.8,14.7,78.2-17.9,111.1c-28.1,26.6-54.7,56.4-83.1,83.1c-31.2,29.8-29.8,54.7,0,84.5c69.4,67.7,138.9,138.9,208.6,207.2
				C3328,5416.8,3341.4,5424.5,3357.5,5434.4L3357.5,5434.4z M2263.4,830.7c201.3,0,402.2,0,604.6,0c67.7,0,88.7-22.4,88.7-90.1
				c0-118.5,0-237,0-354.9c0-63.8-23.5-87-85.6-87c-402.2,0-806.2,0-1208.4,0c-66.9,0-88.7,22.4-88.7,90.1c0,113.7,0,229,0,343.3
				c0,78.2,19.3,97.5,97.5,99.2C1868.2,830.7,2066.6,830.7,2263.4,830.7z"/>
      <path id="path848" fill=" var(--principal)" d="M1470.2,4548.6c-79.9,0-158.2,1.7-237.8,0c-122.7-1.7-205.5-83.1-207.2-205.5
				c-1.7-162.7-1.7-325.7,0-487.8c1.7-118.5,84.5-202.4,204.1-204.1c177.4-1.7,354.9,4.8,531.2,4.8c14.7,0,34-10.5,44.2-22.4
				c38.6-42.8,72.6-88.7,109.7-132.9c45.9-54.7,90.1-65.2,132.9-32.3c42.8,34,42.8,81.4-1.7,136.1c-38.6,47.3-78.2,93.3-115.4,142
				c-10.5,13.6-16.2,32.3-16.2,47.3c1.7,186.2,8.8,372.5,5.7,558.7c-1.7,116.8-90.1,191.1-207.2,193.6c-3.1,0-7.4,0-10.5,0
				C1625.8,4548.6,1549,4548.6,1470.2,4548.6L1470.2,4548.6z M1476.5,4037.2c59-72.6,115.4-140.3,178.9-220.3
				c-147.7,0-282.3,0-417,0c-35.4,0-45.9,22.4-45.9,54.7c0,150.8,1.7,303,0,453.8c0,37.1,14.7,53.3,53.3,53.3
				c150.8,0,303-1.7,453.8,0c41.1,0,56.4-17.9,56.4-57.8c0-51.6,0-103.2,0-155.3c0-63.8,0-127.3,0-191.1
				c-75.7,74-137.8,152.2-201.3,227.9c-41.1,49-85.6,51.6-134.6,8.8c-45.9-40.3-90.1-83.1-132.9-125.9
				c-37.1-37.1-37.1-85.6-5.7-118.5c32.3-34,79.9-35.4,119.9-1.7C1426,3989.9,1449.8,4013.4,1476.5,4037.2z"/>
      <path id="path850" fill=" var(--principal)" d="M1483.8,2272.6c-79.9,0-158.2,1.7-237.8,0c-121-3.1-205.5-87-207.2-207.2
				c-1.7-161.3-1.7-320.9,0-482.2c1.7-122.7,87-208.6,210.3-208.6c177.4,0,354.9,4.8,531.2,5.7c13.6,0,29.8-11.9,38.6-23.5
				c40.3-45.9,76.8-94.4,116.8-140.3c40.3-47.3,85.6-54.7,125.9-23.5c40.3,31.2,42.8,79.9,5.7,127.3c-40.3,50.2-83.1,99.2-121,150.8
				c-10.5,13.6-17.9,32.3-17.9,49c1.7,187.9,8.8,375.6,7.4,564.9c-1.7,104.9-90.1,184.8-196.7,187.9
				C1653.9,2274.3,1569.4,2272.6,1483.8,2272.6L1483.8,2272.6z M1670.1,1542.4c-150.8,0-286.9-1.7-421.5,1.7
				c-14.7,0-40.3,29.8-40.3,45.9c-3.1,155.3-3.1,310.4,0,466c0,16.2,28.1,47.3,44.2,47.3c156.5,3.1,313.5,3.1,470,0
				c16.2,0,44.2-26.6,44.2-41.1c4.8-119.9,1.7-237.8,1.7-371.1c-21,23.5-32.3,35.4-44.2,49c-51.6,62.1-102.3,125.9-153.9,187.9
				c-45.9,53.3-90.1,56.4-142,7.4c-42.8-40.3-87-79.9-129-121c-37.1-38.6-37.1-84.5-4.8-118.5c31.2-34,79.9-35.4,119.9-1.7
				c24.9,21,49,44.2,75.7,69.4C1547.6,1691.5,1603.2,1623.8,1670.1,1542.4L1670.1,1542.4z"/>
      <path id="path852" fill=" var(--principal)" d="M1025.2,2941.1c0-76.8-1.7-155.3,0-232.2c1.7-131.5,84.5-214.3,214.3-214.3
				c175.7,0,350.6,4.8,526.4,4.8c13.6,0,29.8-10.5,38.6-22.4c41.1-47.3,79.9-97.5,119.9-145.1c37.1-42.8,84.5-50.2,121-21
				c40.3,31.2,42.8,79.9,5.7,127.3c-40.3,50.2-83.1,99.2-121,150.8c-10.5,13.6-16.2,32.3-16.2,49c1.7,186.2,8.8,372.5,5.7,558.7
				c-1.7,115.4-91.8,193.6-207.2,195c-161.3,1.7-320.9,1.7-482.2,0c-121-1.7-204.1-85.6-207.2-207.2
				C1023.8,3104,1025.2,3022.4,1025.2,2941.1z M1655.6,2660.4c-147.7,0-279.8,0-412.7,0c-38.6,0-50.2,21-50.2,56.4
				c0,149.1,1.7,299.1,0,449.9c0,42.8,16.2,60.7,59,59c147.7-1.7,295.9-1.7,443.6,0c47.3,0,62.1-21,60.7-65.2
				c-1.7-102.3,0-202.4,0-304.7c0-11.9-3.1-23.5-7.4-44.2c-67.7,83.1-129,158.2-192.5,233.9c-44.2,53.3-91.8,54.7-142,7.4
				c-40.3-37.1-78.2-72.6-116.8-111.1c-45.9-44.2-50.2-94.4-14.7-131.5c35.4-37.1,83.1-34,131.5,10.5c21,17.9,40.3,37.1,62.1,57.8
				C1535.4,2808.1,1591.8,2740.4,1655.6,2660.4L1655.6,2660.4z"/>
      <path id="path854" fill=" var(--principal)" d="M2857.5,1740.6c-178.9,0-358,0-536.9,0c-69.4,0-106.3-29.8-106.3-84.5
				c0-53.3,37.1-83.1,108-83.1c359.4,0,720,0,1079.4,0c69.4,0,108,35.4,103.2,93.3c-4.8,47.3-38.6,74-99.2,74
				C3222.9,1740.6,3041.2,1740.6,2857.5,1740.6L2857.5,1740.6z"/>
      <path id="path856" fill=" var(--principal)" d="M2863.7,2077.6c-175.7,0-350.6,0-526.4,0c-21,0-45.9,4.8-59-5.7c-24.9-19.3-57.8-47.3-59-74
				c-1.1-26.6,28.1-57.8,50.2-79.9c11.9-11.9,38.6-8.8,59-8.8c354.9,0,710.1,0,1065,0c17.9,0,37.1,1.7,54.7,5.7
				c40.3,11.9,59,42.8,56.4,84.5c-3.1,40.3-24.9,65.2-63.8,74c-19.3,4.8-40.3,4.8-60.7,4.8
				C3208.1,2077.6,3034.9,2077.6,2863.7,2077.6L2863.7,2077.6z"/>
      <path id="path858" fill=" var(--principal)" d="M2881.6,2905.6c-171.8,0-343.3,0-515.9,0c-69.4,0-106.3-31.2-106.3-84.5s38.6-83.1,108-83.1
				c343.3,0,687.7,0,1031,0c69.4,0,106.3,31.2,106.3,84.5s-37.1,83.1-108,83.1C3224.3,2905.6,3052.8,2905.6,2881.6,2905.6z"/>
      <path id="path860" fill=" var(--principal)" d="M2878.5,3241.5c-170.1,0-340.2,0-510.2,0c-24.9,0-56.4-3.1-72.6-17.9
				c-19.3-17.9-35.4-50.2-32.3-75.7c3.1-23.5,28.1-50.2,49-65.2c16.2-11.9,42.8-8.8,63.8-10.5c338.7,0,675.8,0,1014.8,0
				c8.8,0,19.3,0,28.1,0c56.4,5.7,88.7,38.6,85.6,88.7c-1.7,47.3-32.3,78.2-88.7,78.2c-103.2,1.7-207.2,0-310.4,0
				C3029.3,3241.5,2953.6,3241.5,2878.5,3241.5L2878.5,3241.5z"/>
      <path id="path862" fill=" var(--principal)" d="M4033.6,3991.3c269.3,0,486.7,217.7,487.8,485.3c1.7,270.7-219.1,491-489.3,489.3
				c-267.6-1.7-486.7-221.7-485.3-487.8C3546.9,4210.1,3766,3991.3,4033.6,3991.3z M4033.6,4158.3c-174.3,0-320.9,147.7-317.8,324
				c1.7,173.2,145.1,316.6,319.2,317.8c174.3,1.7,320.9-145.1,320.9-320.9C4354.5,4303.4,4209.3,4158.3,4033.6,4158.3L4033.6,4158.3
				z"/>
		</g>
	</g>
</g>
</svg>
