<?xml version="1.0" encoding="utf-8"?>
<!-- Generator: Adobe Illustrator 18.1.1, SVG Export Plug-In . SVG Version: 6.00 Build 0)  -->
<svg version="1.1"
	 id="svg8" xmlns:dc="http://purl.org/dc/elements/1.1/" xmlns:cc="http://creativecommons.org/ns#" xmlns:rdf="http://www.w3.org/1999/02/22-rdf-syntax-ns#" xmlns:svg="http://www.w3.org/2000/svg" xmlns:sodipodi="http://sodipodi.sourceforge.net/DTD/sodipodi-0.dtd" xmlns:inkscape="http://www.inkscape.org/namespaces/inkscape" sodipodi:docname="Habilitation.svg" inkscape:version="1.0.1 (3bc2e813f5, 2020-09-07)"
	 xmlns="http://www.w3.org/2000/svg" xmlns:xlink="http://www.w3.org/1999/xlink" x="0px" y="0px"
	 viewBox="202.6 143.6 249.4 275.9" enable-background="new 202.6 143.6 249.4 275.9" xml:space="preserve">
<sodipodi:namedview  id="base" inkscape:cy="560" inkscape:cx="400" inkscape:zoom="0.35" borderopacity="1.0" showgrid="false" bordercolor="#666666" pagecolor="#ffffff" inkscape:window-y="0" inkscape:window-x="234" inkscape:window-height="1032" inkscape:window-width="1438" inkscape:current-layer="layer1" inkscape:document-units="mm" inkscape:pageshadow="2" inkscape:pageopacity="0.0" inkscape:window-maximized="0" inkscape:document-rotation="0">
	</sodipodi:namedview>
<g id="layer1" inkscape:label="Calque 1" inkscape:groupmode="layer">
	<g id="layer1-5" transform="matrix(0.26458333,0,0,0.26458333,73.947711,59.435978)" inkscape:label="Calque 1">
		<g id="g872" transform="matrix(0.33801352,0,0,0.33792566,-0.76870279,-4.9520331)">
			<path id="path840" fill="#797979" d="M2909.7,955.7c37.7,13.6,70,33.7,89.9,70.6c4,7.4,20.1,10.5,30.6,11.3
				c146.3,0.9,293.4,0,439.7,0.9c93.3,0.9,160.7,53.9,178.3,139.7c2.6,12.2,3.1,24.1,3.1,36.3c0,220.3,0,439.7,0,659.6
				c0,13.6-2.6,31.5-10.5,38.6c-11.3,9.6-31.5,18.4-44.2,15.3c-13.6-4-25.8-21.8-34.6-36.3c-4.8-7.4-1.7-19.3-1.7-29.8
				c0-210.6,0-421.8,0-632.4c0-70-28.9-99.5-98.1-99.5c-148.5,0-297.4,0-448.4,0c0,37.7,0,74,0,114.2c40.3,0,78.8,0,118.2,0
				c60.9,0,122.2,0,184,0c85,0.9,127,42.5,127,128.7c0,393.7,0,787.5,0,1181.2c0,12.8,0,25.8,0,40.3c39.4,0,76.3,0,117.4,0
				c0-10.5,0-21,0-31.5c0-148,0-294.8,0-442.8c0-9.6-0.9-20.1,1.7-29.8c5.7-23.2,21-36.9,45.1-36.3c24.1,0.6,38.6,14.5,43.4,38.6
				c1.7,8.8,0.9,17.6,0.9,27.2c0,154.2,0,309.3-0.9,463.7c0,17.6,4,28.9,18.4,40.3c29.8,23.2,41.7,56.1,40.3,93.3
				c-0.9,20.1,7.4,28.9,24.9,33.7c18.4,4.8,33.7,21.8,55.6-1.7c51.3-53.9,116.5-51.3,169.5,0.9c38.6,37.7,77.1,76.3,114.8,114.8
				c52.2,53,53,117.4,1.7,170.4c-11.3,12.2-20.1,21.8-8.8,38.6c11.3,16.2,6.5,42.5,41.1,42.5c76.3-0.9,120.5,46.5,121.3,123
				c0,53.9,0,108.6,0,162.4c-0.9,71.4-46.5,122.2-118.2,119.6c-35.4-0.9-36.3,21.8-47.3,41.7c-12.2,21,3.1,28.9,14.5,40.3
				c49,51.3,49.9,115.7,0.9,166.4c-40.3,41.1-80.2,81.1-121.3,121.3c-50.7,49-115.7,49-166.4,0c-24.9-24.1-43.4-26.6-71.4-5.7
				c-5.7,4-7.9,15.3-7.9,22.4c-4,95.5-43.4,134.1-138.3,134.1c-48.2,0-96.4,0-144.6,0c-78,0-127-45.9-123.9-123
				c1.7-35.4-17-45.9-43.4-51.3c-7.9-1.7-21,7.4-28.9,14.5c-62.6,60.9-123.9,60.9-185.7-0.9c-4.8-4.8-10.5-9.6-14.5-15.3
				c-13.6-18.4-31.5-23.2-54.7-23.2c-447.6,0.9-896,0.9-1343.6,0.9c-124.4,0-193.6-69.2-193.6-193.6c0-808.4,0-1616.6,0-2425.9
				c0-90.7,47.3-157.6,127-178.3c21-5.7,43.4-6.5,65.8-6.5c140.6-0.9,281.2-0.9,421.8,0c21,0,32-6.5,46.5-22.4
				c21.8-24.1,53-40.3,79.7-59.5C2423.8,955.7,2666.5,955.7,2909.7,955.7L2909.7,955.7z M2899.5,3636.4c-7.9,0-20.1,0-32,0
				c-365.7,0-731.3,0-1096.7,0c-74.8,0-122.2-43.4-123-114.8c-0.9-245.8,0-491.8,0-738.4c0-33.7,17-53,44.2-53
				c28.1-0.9,45.9,20.1,46.5,54.7c0,7.4,0,13.6,0,21c0,230.7,0,462,0,692.5c0,45.1,1.7,46.5,45.1,46.5c376.7,0,752.9,0,1129.9,0
				c10.5,0,21-0.9,31.5-1.7c0.9-4,1.7-7.4,3.1-11.3c-10.5-3.1-21-10.5-31.5-10.5c-91.6-2.6-133.5-44.2-133.5-135.8
				c0-41.7,0-83.6,0-128.7c-67.5,0-132.7,0-197.6,0c-35.4,0-55.6-17-55.6-45.1c0-28.9,19.3-45.1,54.7-45.9
				c64.3,0,128.7,0.9,192.8-0.9c11.3,0,25.8-4.8,33.7-12.8c26.6-26.6,57.8-41.1,94.7-38.6c28.9,1.7,43.4-7.9,43.4-40.3
				c-11.3,0-21.8,0-32.9,0c-105.2,0-210.6,0-316.6,0c-9.6,0-20.1,0-29.8-0.9c-24.9-4-40.3-18.4-40.3-44.2s15.3-41.1,40.3-45.1
				c9.6-1.7,20.1-1.7,29.8-1.7c89.3,0,178.3,0,268.4,0c10.5,0,21.8,0,33.7,0c-11.3-54.7,7.9-93.3,44.2-127.8
				c35.4-32.9,68.3-68.3,102.9-102c58.7-57.8,119.6-58.7,179.1-0.9c11.3,11.3,21,17.6,36.3,7.4c16.2-10.5,42.5-7.4,39.4-39.4
				c-3.1-32,4.8-63.5,28.9-85.9c17-15.3,20.1-32,20.1-53c0-399.4,0-799.4,0-1198.8c0-7.4,0-14.5,0-21c0.9-19.3-8.8-27.2-27.2-26.6
				c-99.5,0-198.4,0-298.2,0.9c-7.9,0-19.3,6.5-22.4,12.8c-27.2,57.8-74,80.2-135.8,79.7c-212-0.9-423.5-1.7-635.5,0
				c-71.4,0.9-123-23.2-149.4-94.1c-99.5,0-199.3,0-298.2,0c-44.2,0-44.2,0-44.2,45.9c0,385.8,0,771.3,0,1157.1
				c0,13.6,2.6,31.5-4.8,41.1c-10.5,12.8-28.9,28.1-43.4,27.2c-14.5-0.9-28.9-19.3-40.3-32.9c-4.8-5.7-2.6-17.6-2.6-26.6
				c0-393.7,0-787.5,0-1181.2c0-78.8,42.5-121.3,121.3-122.2c85-0.9,170.4,0,256.3,0c17,0,33.7,0,50.7,0c0-40.3,0-76.3,0-114.2
				c-148.5,0-295.7,0-441.9,0c-76.3,0-103.7,27.2-103.7,102.9c0,804.2,0,1608.7,0,2412.9c0,78.8,28.1,106,107.7,106
				c414.7,0,829.1,0,1243.8,0c10.5,0,21,0,26.6,0C2904.9,3711.8,2902.6,3676.7,2899.5,3636.4L2899.5,3636.4z M3138.7,3837.1
				c7.9-4.8,15.3-8.8,21-13.6c15.3-14.5,30.6-29.8,45.1-45.1c19.3-20.1,40.3-23.2,65.2-11.3c28.9,13.6,58.7,25.8,88.4,36.9
				c24.1,8.8,36.3,24.1,36.3,49.9c0,21,0,41.7,0,63.5c0,22.4,10.5,32.9,32.9,32c53-0.9,106-0.9,159.9,0c23.2,0,32.9-11.3,32-32.9
				c0-20.1,0-40.3,0-60.4c-0.9-25.8,12.8-40.3,36.3-49c32-12.2,63.5-24.1,94.7-37.7c23.2-10.5,42.5-7.4,60.4,10.5
				c13.6,13.6,27.2,26.6,40.3,40.3c15.3,16.2,29.8,17.6,45.9,0.9c37.7-38.6,76.3-77.1,114.8-114.8c15.3-15.3,15.3-28.9-0.9-43.4
				c-6.5-6.5-12.8-12.8-19.3-19.3c-45.9-45.9-45.9-45.9-17.6-102.9c4-8.8,10.5-17.6,12.2-27.2c12.8-66.6,50.7-95.5,119.1-83.6
				c23.2,4,34.6-9.6,33.7-33.7c-0.9-41.7,0-84.5,0-126.1c0-64.3,0-64.3-64.3-64.3c-52.2,0-57.8-4-73.1-52.2
				c-4-13.6-8.8-26.6-14.5-39.4c-35.4-74-49.9-71.4,24.1-139.7c17-15.3,16.2-29.8,0-45.9c-37.7-36.9-75.4-74.8-112.5-112.5
				c-16.2-16.2-29.8-17.6-45.9-0.9c-11.3,12.2-22.4,22.4-33.7,34.6c-18.4,19.3-38.6,22.4-62.6,11.3c-32.9-15.3-65.8-28.1-99.5-41.1
				c-23.2-8.8-36.3-24.1-35.4-49.9c0-16.2,0-32,0-48.2c0.9-23.2-8.8-35.4-33.7-35.4c-53,0.9-106,0.9-159.9,0c-21,0-31.5,9.6-32,30.6
				c0,19.3,0,37.7,0,57c0,24.1-12.2,38.6-34.6,47.3c-32.9,12.8-65.2,26.6-96.4,41.1c-24.1,11.3-44.2,9.6-62.6-9.6
				c-12.8-12.8-25.8-24.9-38.6-38.6c-14.5-15.3-28.1-17-43.4-0.9c-38.6,39.4-78,78-117.4,117.4c-14.5,14.5-13.6,28.1,0.9,41.7
				c13.6,13.6,26.6,27.2,40.3,40.3c20.1,19.3,23.2,40.3,12.2,65.2c-13.6,29.8-24.9,60.9-36.9,91.6c-8.8,23.2-23.2,36.9-49,36.3
				c-21-0.9-41.7,0-63.5,0c-18.4,0.9-30.6,8.8-30.6,29.8c0,55.6,0,110,0,165.5c0,21.8,12.2,30.6,32,30.6c21,0,41.7,0,63.5,0
				c24.9,0,41.1,12.2,49.9,35.4c11.3,30.6,24.9,60.9,38.6,91.6c10.5,23.2,7.9,42.5-9.6,60.4c-15.3,14.5-29.8,30.6-45.1,45.1
				c-17,16.2-16.2,29.8,0,45.9c37.7,36.9,75.4,75.4,113.4,112.5C3122.9,3827.5,3129.9,3831.8,3138.7,3837.1z M2544.3,1335.8
				c109.4,0,218.6,0,328.5,0c36.9,0,48.2-12.2,48.2-49c0-64.3,0-128.7,0-192.8c0-34.6-12.8-47.3-46.5-47.3c-218.6,0-438,0-656.5,0
				c-36.3,0-48.2,12.2-48.2,49c0,61.8,0,124.4,0,186.5c0,42.5,10.5,53,53,53.9C2329.7,1335.8,2437.4,1335.8,2544.3,1335.8z"/>
			<path id="path848" fill="#797979" d="M2113.4,3355.8c-43.4,0-85.9,0.9-129.3,0c-66.6-0.9-111.7-45.1-112.5-111.7
				c-0.9-88.4-0.9-176.9,0-265c0.9-64.3,45.9-110,110.8-110.8c96.4-0.9,192.8,2.6,288.6,2.6c7.9,0,18.4-5.7,24.1-12.2
				c21-23.2,39.4-48.2,59.5-72.3c24.9-29.8,49-35.4,72.3-17.6c23.2,18.4,23.2,44.2-0.9,74c-21,25.8-42.5,50.7-62.6,77.1
				c-5.7,7.4-8.8,17.6-8.8,25.8c0.9,101.2,4.8,202.4,3.1,303.6c-0.9,63.5-49,103.7-112.5,105.2c-1.7,0-4,0-5.7,0
				C2197.9,3355.8,2156.2,3355.8,2113.4,3355.8L2113.4,3355.8z M2116.8,3078c32-39.4,62.6-76.3,97.2-119.6c-80.2,0-153.4,0-226.5,0
				c-19.3,0-24.9,12.2-24.9,29.8c0,81.9,0.9,164.7,0,246.6c0,20.1,7.9,28.9,28.9,28.9c81.9,0,164.7-0.9,246.6,0
				c22.4,0,30.6-9.6,30.6-31.5c0-28.1,0-56.1,0-84.5c0-34.6,0-69.2,0-103.7c-41.1,40.3-74.8,82.8-109.4,123.9
				c-22.4,26.6-46.5,28.1-73.1,4.8c-24.9-21.8-49-45.1-72.3-68.3c-20.1-20.1-20.1-46.5-3.1-64.3c17.6-18.4,43.4-19.3,65.2-0.9
				C2089.3,3052.2,2102.4,3065,2116.8,3078L2116.8,3078z"/>
			<path id="path850" fill="#797979" d="M2120.8,2119.3c-43.4,0-85.9,0.9-129.3,0c-65.8-1.7-111.7-47.3-112.5-112.5
				c-0.9-87.6-0.9-174.3,0-261.9c0.9-66.6,47.3-113.4,114.2-113.4c96.4,0,192.8,2.6,288.6,3.1c7.4,0,16.2-6.5,21-12.8
				c21.8-24.9,41.7-51.3,63.5-76.3c21.8-25.8,46.5-29.8,68.3-12.8c21.8,17,23.2,43.4,3.1,69.2c-21.8,27.2-45.1,53.9-65.8,81.9
				c-5.7,7.4-9.6,17.6-9.6,26.6c0.9,102,4.8,204.1,4,307c-0.9,57-49,100.3-106.9,102C2213.2,2120.2,2167.3,2119.3,2120.8,2119.3z
				 M2222,1722.5c-81.9,0-155.9-0.9-229,0.9c-7.9,0-21.8,16.2-21.8,24.9c-1.7,84.5-1.7,168.7,0,253.1c0,8.8,15.3,25.8,24.1,25.8
				c85,1.7,170.4,1.7,255.4,0c8.8,0,24.1-14.5,24.1-22.4c2.6-65.2,0.9-129.3,0.9-201.5c-11.3,12.8-17.6,19.3-24.1,26.6
				c-28.1,33.7-55.6,68.3-83.6,102c-24.9,28.9-49,30.6-77.1,4c-23.2-21.8-47.3-43.4-70-65.8c-20.1-21-20.1-45.9-2.6-64.3
				c17-18.4,43.4-19.3,65.2-0.9c13.6,11.3,26.6,24.1,41.1,37.7C2155.4,1803.6,2185.7,1766.7,2222,1722.5z"/>
			<path id="path852" fill="#797979" d="M1871.6,2482.5c0-41.7-0.9-84.5,0-126.1c0.9-71.4,45.9-116.5,116.5-116.5
				c95.5,0,190.5,2.6,286,2.6c7.4,0,16.2-5.7,21-12.2c22.4-25.8,43.4-53,65.2-78.8c20.1-23.2,45.9-27.2,65.8-11.3
				c21.8,17,23.2,43.4,3.1,69.2c-21.8,27.2-45.1,53.9-65.8,81.9c-5.7,7.4-8.8,17.6-8.8,26.6c0.9,101.2,4.8,202.4,3.1,303.6
				c-0.9,62.6-49.9,105.2-112.5,106c-87.6,0.9-174.3,0.9-261.9,0c-65.8-0.9-110.8-46.5-112.5-112.5
				C1870.8,2570.9,1871.6,2526.7,1871.6,2482.5z M2214.1,2330c-80.2,0-151.9,0-224.2,0c-21,0-27.2,11.3-27.2,30.6
				c0,81.1,0.9,162.4,0,244.3c0,23.2,8.8,32.9,32,32c80.2-0.9,160.7-0.9,240.9,0c25.8,0,33.7-11.3,32.9-35.4
				c-0.9-55.6,0-110,0-165.5c0-6.5-1.7-12.8-4-24.1c-36.9,45.1-70,85.9-104.6,127c-24.1,28.9-49.9,29.8-77.1,4
				c-21.8-20.1-42.5-39.4-63.5-60.4c-24.9-24.1-27.2-51.3-7.9-71.4c19.3-20.1,45.1-18.4,71.4,5.7c11.3,9.6,21.8,20.1,33.7,31.5
				C2148.9,2410.2,2179.5,2373.3,2214.1,2330L2214.1,2330z"/>
			<path id="path854" fill="#797979" d="M2867.2,1830.2c-97.2,0-194.5,0-291.7,0c-37.7,0-57.8-16.2-57.8-45.9
				c0-28.9,20.1-45.1,58.7-45.1c195.3,0,391.2,0,586.5,0c37.7,0,58.7,19.3,56.1,50.7c-2.6,25.8-21,40.3-53.9,40.3
				C3065.6,1830.2,2966.9,1830.2,2867.2,1830.2z"/>
			<path id="path856" fill="#797979" d="M2870.6,2013.3c-95.5,0-190.5,0-286,0c-11.3,0-24.9,2.6-32-3.1
				c-13.6-10.5-31.5-25.8-32-40.3c-0.6-14.5,15.3-31.5,27.2-43.4c6.5-6.5,21-4.8,32-4.8c192.8,0,385.8,0,578.6,0
				c9.6,0,20.1,0.9,29.8,3.1c21.8,6.5,32,23.2,30.6,45.9c-1.7,21.8-13.6,35.4-34.6,40.3c-10.5,2.6-21.8,2.6-32.9,2.6
				C3057.7,2013.3,2963.5,2013.3,2870.6,2013.3z"/>
			<path id="path858" fill="#797979" d="M2880.2,2463.2c-93.3,0-186.5,0-280.3,0c-37.7,0-57.8-17-57.8-45.9s21-45.1,58.7-45.1
				c186.5,0,373.6,0,560.1,0c37.7,0,57.8,17,57.8,45.9c0,28.9-20.1,45.1-58.7,45.1C3066.4,2463.2,2973.2,2463.2,2880.2,2463.2z"/>
			<path id="path860" fill="#797979" d="M2878.5,2645.7c-92.4,0-184.8,0-277.2,0c-13.6,0-30.6-1.7-39.4-9.6
				c-10.5-9.6-19.3-27.2-17.6-41.1c1.7-12.8,15.3-27.2,26.6-35.4c8.8-6.5,23.2-4.8,34.6-5.7c184,0,367.1,0,551.3,0
				c4.8,0,10.5,0,15.3,0c30.6,3.1,48.2,21,46.5,48.2c-0.9,25.8-17.6,42.5-48.2,42.5c-56.1,0.9-112.5,0-168.7,0
				C2960.4,2645.7,2919.3,2645.7,2878.5,2645.7z"/>
			<path id="path862" fill="#797979" d="M3506.1,3053.1c146.3,0,264.5,118.2,265,263.6c0.9,147.1-119.1,266.7-265.9,265.9
				c-145.4-0.9-264.5-120.5-263.6-265C3241.6,3171.8,3360.7,3053.1,3506.1,3053.1z M3506.1,3143.8c-94.7,0-174.3,80.2-172.6,176
				c0.9,94.1,78.8,172.1,173.5,172.6c94.7,0.9,174.3-78.8,174.3-174.3C3680.4,3222.6,3601.6,3143.8,3506.1,3143.8z"/>
		</g>
	</g>
</g>
</svg>
