<?xml version="1.0" encoding="utf-8"?>
<!-- Generator: Adobe Illustrator 23.0.2, SVG Export Plug-In . SVG Version: 6.00 Build 0)  -->
<svg version="1.1"
	 id="svg8" inkscape:version="1.0.1 (3bc2e813f5, 2020-09-07)" sodipodi:docname="Habilitation.svg" xmlns:cc="http://creativecommons.org/ns#" xmlns:dc="http://purl.org/dc/elements/1.1/" xmlns:inkscape="http://www.inkscape.org/namespaces/inkscape" xmlns:rdf="http://www.w3.org/1999/02/22-rdf-syntax-ns#" xmlns:sodipodi="http://sodipodi.sourceforge.net/DTD/sodipodi-0.dtd" xmlns:svg="http://www.w3.org/2000/svg"
	 xmlns="http://www.w3.org/2000/svg" xmlns:xlink="http://www.w3.org/1999/xlink" x="0px" y="0px" viewBox="0 0 332.5 367.9"
	 style="enable-background:new 0 0 332.5 367.9;" xml:space="preserve">
<style type="text/css">
	.st0{fill:#6a7187;}
	.st1{fill:#6a7187;}
</style>
<sodipodi:namedview  bordercolor="#666666" borderopacity="1.0" id="base" inkscape:current-layer="g872" inkscape:cx="315.2501" inkscape:cy="548.37363" inkscape:document-rotation="0" inkscape:document-units="mm" inkscape:pageopacity="0.0" inkscape:pageshadow="2" inkscape:window-height="1017" inkscape:window-maximized="1" inkscape:window-width="1920" inkscape:window-x="-8" inkscape:window-y="-8" inkscape:zoom="0.7" pagecolor="#ffffff" showgrid="false">
	</sodipodi:namedview>
<g id="layer1" inkscape:groupmode="layer" inkscape:label="Calque 1">
	<g id="g872" transform="matrix(0.33801352,0,0,0.33792566,-0.76870279,-4.9520331)">
		<path id="path840" class="st0" d="M520.4,14.6c13.3,4.8,24.7,11.9,31.7,24.9c1.4,2.6,7.1,3.7,10.8,4c51.6,0.3,103.5,0,155.1,0.3
			c32.9,0.3,56.7,19,62.9,49.3c0.9,4.3,1.1,8.5,1.1,12.8c0,77.7,0,155.1,0,232.7c0,4.8-0.9,11.1-3.7,13.6c-4,3.4-11.1,6.5-15.6,5.4
			c-4.8-1.4-9.1-7.7-12.2-12.8c-1.7-2.6-0.6-6.8-0.6-10.5c0-74.3,0-148.8,0-223.1c0-24.7-10.2-35.1-34.6-35.1
			c-52.4,0-104.9,0-158.2,0c0,13.3,0,26.1,0,40.3c14.2,0,27.8,0,41.7,0c21.5,0,43.1,0,64.9,0c30,0.3,44.8,15,44.8,45.4
			c0,138.9,0,277.8,0,416.7c0,4.5,0,9.1,0,14.2c13.9,0,26.9,0,41.4,0c0-3.7,0-7.4,0-11.1c0-52.2,0-104,0-156.2
			c0-3.4-0.3-7.1,0.6-10.5c2-8.2,7.4-13,15.9-12.8s13.6,5.1,15.3,13.6c0.6,3.1,0.3,6.2,0.3,9.6c0,54.4,0,109.1-0.3,163.6
			c0,6.2,1.4,10.2,6.5,14.2c10.5,8.2,14.7,19.8,14.2,32.9c-0.3,7.1,2.6,10.2,8.8,11.9c6.5,1.7,11.9,7.7,19.6-0.6
			c18.1-19,41.1-18.1,59.8,0.3c13.6,13.3,27.2,26.9,40.5,40.5c18.4,18.7,18.7,41.4,0.6,60.1c-4,4.3-7.1,7.7-3.1,13.6
			c4,5.7,2.3,15,14.5,15c26.9-0.3,42.5,16.4,42.8,43.4c0,19,0,38.3,0,57.3c-0.3,25.2-16.4,43.1-41.7,42.2
			c-12.5-0.3-12.8,7.7-16.7,14.7c-4.3,7.4,1.1,10.2,5.1,14.2c17.3,18.1,17.6,40.8,0.3,58.7c-14.2,14.5-28.3,28.6-42.8,42.8
			c-17.9,17.3-40.8,17.3-58.7,0c-8.8-8.5-15.3-9.4-25.2-2c-2,1.4-2.8,5.4-2.8,7.9c-1.4,33.7-15.3,47.3-48.8,47.3c-17,0-34,0-51,0
			c-27.5,0-44.8-16.2-43.7-43.4c0.6-12.5-6-16.2-15.3-18.1c-2.8-0.6-7.4,2.6-10.2,5.1c-22.1,21.5-43.7,21.5-65.5-0.3
			c-1.7-1.7-3.7-3.4-5.1-5.4c-4.8-6.5-11.1-8.2-19.3-8.2c-157.9,0.3-316.1,0.3-474,0.3c-43.9,0-68.3-24.4-68.3-68.3
			c0-285.2,0-570.3,0-855.8c0-32,16.7-55.6,44.8-62.9c7.4-2,15.3-2.3,23.2-2.3c49.6-0.3,99.2-0.3,148.8,0c7.4,0,11.3-2.3,16.4-7.9
			c7.7-8.5,18.7-14.2,28.1-21C349,14.6,434.6,14.6,520.4,14.6L520.4,14.6z M516.8,960.3c-2.8,0-7.1,0-11.3,0c-129,0-258,0-386.9,0
			c-26.4,0-43.1-15.3-43.4-40.5c-0.3-86.7,0-173.5,0-260.5c0-11.9,6-18.7,15.6-18.7c9.9-0.3,16.2,7.1,16.4,19.3c0,2.6,0,4.8,0,7.4
			c0,81.4,0,163,0,244.3c0,15.9,0.6,16.4,15.9,16.4c132.9,0,265.6,0,398.6,0c3.7,0,7.4-0.3,11.1-0.6c0.3-1.4,0.6-2.6,1.1-4
			c-3.7-1.1-7.4-3.7-11.1-3.7c-32.3-0.9-47.1-15.6-47.1-47.9c0-14.7,0-29.5,0-45.4c-23.8,0-46.8,0-69.7,0c-12.5,0-19.6-6-19.6-15.9
			c0-10.2,6.8-15.9,19.3-16.2c22.7,0,45.4,0.3,68-0.3c4,0,9.1-1.7,11.9-4.5c9.4-9.4,20.4-14.5,33.4-13.6
			c10.2,0.6,15.3-2.8,15.3-14.2c-4,0-7.7,0-11.6,0c-37.1,0-74.3,0-111.7,0c-3.4,0-7.1,0-10.5-0.3c-8.8-1.4-14.2-6.5-14.2-15.6
			c0-9.1,5.4-14.5,14.2-15.9c3.4-0.6,7.1-0.6,10.5-0.6c31.5,0,62.9,0,94.7,0c3.7,0,7.7,0,11.9,0c-4-19.3,2.8-32.9,15.6-45.1
			c12.5-11.6,24.1-24.1,36.3-36c20.7-20.4,42.2-20.7,63.2-0.3c4,4,7.4,6.2,12.8,2.6c5.7-3.7,15-2.6,13.9-13.9s1.7-22.4,10.2-30.3
			c6-5.4,7.1-11.3,7.1-18.7c0-140.9,0-282,0-422.9c0-2.6,0-5.1,0-7.4c0.3-6.8-3.1-9.6-9.6-9.4c-35.1,0-70,0-105.2,0.3
			c-2.8,0-6.8,2.3-7.9,4.5c-9.6,20.4-26.1,28.3-47.9,28.1c-74.8-0.3-149.4-0.6-224.2,0c-25.2,0.3-43.4-8.2-52.7-33.2
			c-35.1,0-70.3,0-105.2,0c-15.6,0-15.6,0-15.6,16.2c0,136.1,0,272.1,0,408.2c0,4.8,0.9,11.1-1.7,14.5c-3.7,4.5-10.2,9.9-15.3,9.6
			c-5.1-0.3-10.2-6.8-14.2-11.6c-1.7-2-0.9-6.2-0.9-9.4c0-138.9,0-277.8,0-416.7c0-27.8,15-42.8,42.8-43.1c30-0.3,60.1,0,90.4,0
			c6,0,11.9,0,17.9,0c0-14.2,0-26.9,0-40.3c-52.4,0-104.3,0-155.9,0c-26.9,0-36.6,9.6-36.6,36.3c0,283.7,0,567.5,0,851.2
			c0,27.8,9.9,37.4,38,37.4c146.3,0,292.5,0,438.8,0c3.7,0,7.4,0,9.4,0C518.7,986.9,517.9,974.5,516.8,960.3L516.8,960.3z
			 M601.2,1031.1c2.8-1.7,5.4-3.1,7.4-4.8c5.4-5.1,10.8-10.5,15.9-15.9c6.8-7.1,14.2-8.2,23-4c10.2,4.8,20.7,9.1,31.2,13
			c8.5,3.1,12.8,8.5,12.8,17.6c0,7.4,0,14.7,0,22.4c0,7.9,3.7,11.6,11.6,11.3c18.7-0.3,37.4-0.3,56.4,0c8.2,0,11.6-4,11.3-11.6
			c0-7.1,0-14.2,0-21.3c-0.3-9.1,4.5-14.2,12.8-17.3c11.3-4.3,22.4-8.5,33.4-13.3c8.2-3.7,15-2.6,21.3,3.7
			c4.8,4.8,9.6,9.4,14.2,14.2c5.4,5.7,10.5,6.2,16.2,0.3c13.3-13.6,26.9-27.2,40.5-40.5c5.4-5.4,5.4-10.2-0.3-15.3
			c-2.3-2.3-4.5-4.5-6.8-6.8c-16.2-16.2-16.2-16.2-6.2-36.3c1.4-3.1,3.7-6.2,4.3-9.6c4.5-23.5,17.9-33.7,42-29.5
			c8.2,1.4,12.2-3.4,11.9-11.9c-0.3-14.7,0-29.8,0-44.5c0-22.7,0-22.7-22.7-22.7c-18.4,0-20.4-1.4-25.8-18.4
			c-1.4-4.8-3.1-9.4-5.1-13.9c-12.5-26.1-17.6-25.2,8.5-49.3c6-5.4,5.7-10.5,0-16.2c-13.3-13-26.6-26.4-39.7-39.7
			c-5.7-5.7-10.5-6.2-16.2-0.3c-4,4.3-7.9,7.9-11.9,12.2c-6.5,6.8-13.6,7.9-22.1,4c-11.6-5.4-23.2-9.9-35.1-14.5
			c-8.2-3.1-12.8-8.5-12.5-17.6c0-5.7,0-11.3,0-17c0.3-8.2-3.1-12.5-11.9-12.5c-18.7,0.3-37.4,0.3-56.4,0c-7.4,0-11.1,3.4-11.3,10.8
			c0,6.8,0,13.3,0,20.1c0,8.5-4.3,13.6-12.2,16.7c-11.6,4.5-23,9.4-34,14.5c-8.5,4-15.6,3.4-22.1-3.4c-4.5-4.5-9.1-8.8-13.6-13.6
			c-5.1-5.4-9.9-6-15.3-0.3c-13.6,13.9-27.5,27.5-41.4,41.4c-5.1,5.1-4.8,9.9,0.3,14.7c4.8,4.8,9.4,9.6,14.2,14.2
			c7.1,6.8,8.2,14.2,4.3,23c-4.8,10.5-8.8,21.5-13,32.3c-3.1,8.2-8.2,13-17.3,12.8c-7.4-0.3-14.7,0-22.4,0
			c-6.5,0.3-10.8,3.1-10.8,10.5c0,19.6,0,38.8,0,58.4c0,7.7,4.3,10.8,11.3,10.8c7.4,0,14.7,0,22.4,0c8.8,0,14.5,4.3,17.6,12.5
			c4,10.8,8.8,21.5,13.6,32.3c3.7,8.2,2.8,15-3.4,21.3c-5.4,5.1-10.5,10.8-15.9,15.9c-6,5.7-5.7,10.5,0,16.2
			c13.3,13,26.6,26.6,40,39.7C595.6,1027.7,598.1,1029.2,601.2,1031.1L601.2,1031.1z M391.5,148.7c38.6,0,77.1,0,115.9,0
			c13,0,17-4.3,17-17.3c0-22.7,0-45.4,0-68c0-12.2-4.5-16.7-16.4-16.7c-77.1,0-154.5,0-231.6,0c-12.8,0-17,4.3-17,17.3
			c0,21.8,0,43.9,0,65.8c0,15,3.7,18.7,18.7,19C315.8,148.7,353.8,148.7,391.5,148.7L391.5,148.7z"/>
		<path id="path848" class="st1" d="M239.5,861.3c-15.3,0-30.3,0.3-45.6,0c-23.5-0.3-39.4-15.9-39.7-39.4c-0.3-31.2-0.3-62.4,0-93.5
			c0.3-22.7,16.2-38.8,39.1-39.1c34-0.3,68,0.9,101.8,0.9c2.8,0,6.5-2,8.5-4.3c7.4-8.2,13.9-17,21-25.5c8.8-10.5,17.3-12.5,25.5-6.2
			c8.2,6.5,8.2,15.6-0.3,26.1c-7.4,9.1-15,17.9-22.1,27.2c-2,2.6-3.1,6.2-3.1,9.1c0.3,35.7,1.7,71.4,1.1,107.1
			c-0.3,22.4-17.3,36.6-39.7,37.1c-0.6,0-1.4,0-2,0C269.3,861.3,254.6,861.3,239.5,861.3z M240.7,763.3
			c11.3-13.9,22.1-26.9,34.3-42.2c-28.3,0-54.1,0-79.9,0c-6.8,0-8.8,4.3-8.8,10.5c0,28.9,0.3,58.1,0,87c0,7.1,2.8,10.2,10.2,10.2
			c28.9,0,58.1-0.3,87,0c7.9,0,10.8-3.4,10.8-11.1c0-9.9,0-19.8,0-29.8c0-12.2,0-24.4,0-36.6c-14.5,14.2-26.4,29.2-38.6,43.7
			c-7.9,9.4-16.4,9.9-25.8,1.7c-8.8-7.7-17.3-15.9-25.5-24.1c-7.1-7.1-7.1-16.4-1.1-22.7c6.2-6.5,15.3-6.8,23-0.3
			C231,754.2,235.6,758.7,240.7,763.3L240.7,763.3z"/>
		<path id="path850" class="st1" d="M242.1,425.1c-15.3,0-30.3,0.3-45.6,0c-23.2-0.6-39.4-16.7-39.7-39.7c-0.3-30.9-0.3-61.5,0-92.4
			c0.3-23.5,16.7-40,40.3-40c34,0,68,0.9,101.8,1.1c2.6,0,5.7-2.3,7.4-4.5c7.7-8.8,14.7-18.1,22.4-26.9c7.7-9.1,16.4-10.5,24.1-4.5
			c7.7,6,8.2,15.3,1.1,24.4c-7.7,9.6-15.9,19-23.2,28.9c-2,2.6-3.4,6.2-3.4,9.4c0.3,36,1.7,72,1.4,108.3
			c-0.3,20.1-17.3,35.4-37.7,36C274.7,425.4,258.5,425.1,242.1,425.1L242.1,425.1L242.1,425.1z M277.8,285.1
			c-28.9,0-55-0.3-80.8,0.3c-2.8,0-7.7,5.7-7.7,8.8c-0.6,29.8-0.6,59.5,0,89.3c0,3.1,5.4,9.1,8.5,9.1c30,0.6,60.1,0.6,90.1,0
			c3.1,0,8.5-5.1,8.5-7.9c0.9-23,0.3-45.6,0.3-71.1c-4,4.5-6.2,6.8-8.5,9.4c-9.9,11.9-19.6,24.1-29.5,36
			c-8.8,10.2-17.3,10.8-27.2,1.4c-8.2-7.7-16.7-15.3-24.7-23.2c-7.1-7.4-7.1-16.2-0.9-22.7c6-6.5,15.3-6.8,23-0.3
			c4.8,4,9.4,8.5,14.5,13.3C254.3,313.7,265,300.7,277.8,285.1L277.8,285.1z"/>
		<path id="path852" class="st1" d="M154.2,553.2c0-14.7-0.3-29.8,0-44.5c0.3-25.2,16.2-41.1,41.1-41.1c33.7,0,67.2,0.9,100.9,0.9
			c2.6,0,5.7-2,7.4-4.3c7.9-9.1,15.3-18.7,23-27.8c7.1-8.2,16.2-9.6,23.2-4c7.7,6,8.2,15.3,1.1,24.4c-7.7,9.6-15.9,19-23.2,28.9
			c-2,2.6-3.1,6.2-3.1,9.4c0.3,35.7,1.7,71.4,1.1,107.1c-0.3,22.1-17.6,37.1-39.7,37.4c-30.9,0.3-61.5,0.3-92.4,0
			c-23.2-0.3-39.1-16.4-39.7-39.7C153.9,584.4,154.2,568.8,154.2,553.2z M275,499.4c-28.3,0-53.6,0-79.1,0c-7.4,0-9.6,4-9.6,10.8
			c0,28.6,0.3,57.3,0,86.2c0,8.2,3.1,11.6,11.3,11.3c28.3-0.3,56.7-0.3,85,0c9.1,0,11.9-4,11.6-12.5c-0.3-19.6,0-38.8,0-58.4
			c0-2.3-0.6-4.5-1.4-8.5c-13,15.9-24.7,30.3-36.9,44.8c-8.5,10.2-17.6,10.5-27.2,1.4c-7.7-7.1-15-13.9-22.4-21.3
			c-8.8-8.5-9.6-18.1-2.8-25.2c6.8-7.1,15.9-6.5,25.2,2c4,3.4,7.7,7.1,11.9,11.1C252,527.7,262.8,514.7,275,499.4L275,499.4z"/>
		<path id="path854" class="st0" d="M505.4,323.1c-34.3,0-68.6,0-102.9,0c-13.3,0-20.4-5.7-20.4-16.2c0-10.2,7.1-15.9,20.7-15.9
			c68.9,0,138,0,206.9,0c13.3,0,20.7,6.8,19.8,17.9c-0.9,9.1-7.4,14.2-19,14.2C575.4,323.1,540.6,323.1,505.4,323.1L505.4,323.1z"/>
		<path id="path856" class="st0" d="M506.6,387.7c-33.7,0-67.2,0-100.9,0c-4,0-8.8,0.9-11.3-1.1c-4.8-3.7-11.1-9.1-11.3-14.2
			s5.4-11.1,9.6-15.3c2.3-2.3,7.4-1.7,11.3-1.7c68,0,136.1,0,204.1,0c3.4,0,7.1,0.3,10.5,1.1c7.7,2.3,11.3,8.2,10.8,16.2
			c-0.6,7.7-4.8,12.5-12.2,14.2c-3.7,0.9-7.7,0.9-11.6,0.9C572.6,387.7,539.4,387.7,506.6,387.7z"/>
		<path id="path858" class="st0" d="M510,546.4c-32.9,0-65.8,0-98.9,0c-13.3,0-20.4-6-20.4-16.2s7.4-15.9,20.7-15.9
			c65.8,0,131.8,0,197.6,0c13.3,0,20.4,6,20.4,16.2c0,10.2-7.1,15.9-20.7,15.9C575.7,546.4,542.8,546.4,510,546.4L510,546.4z"/>
		<path id="path860" class="st0" d="M509.4,610.8c-32.6,0-65.2,0-97.8,0c-4.8,0-10.8-0.6-13.9-3.4c-3.7-3.4-6.8-9.6-6.2-14.5
			c0.6-4.5,5.4-9.6,9.4-12.5c3.1-2.3,8.2-1.7,12.2-2c64.9,0,129.5,0,194.5,0c1.7,0,3.7,0,5.4,0c10.8,1.1,17,7.4,16.4,17
			c-0.3,9.1-6.2,15-17,15c-19.8,0.3-39.7,0-59.5,0C538.3,610.8,523.8,610.8,509.4,610.8L509.4,610.8z"/>
		<path id="path862" class="st0" d="M730.8,754.5c51.6,0,93.3,41.7,93.5,93c0.3,51.9-42,94.1-93.8,93.8c-51.3-0.3-93.3-42.5-93-93.5
			C637.5,796.4,679.5,754.5,730.8,754.5z M730.8,786.5c-33.4,0-61.5,28.3-60.9,62.1c0.3,33.2,27.8,60.7,61.2,60.9
			c33.4,0.3,61.5-27.8,61.5-61.5C792.3,814.3,764.5,786.5,730.8,786.5L730.8,786.5z"/>
	</g>
</g>
</svg>
