<?xml version="1.0" encoding="utf-8"?>
<!-- Generator: Adobe Illustrator 23.0.2, SVG Export Plug-In . SVG Version: 6.00 Build 0)  -->
<svg version="1.1"
	 id="svg8" inkscape:version="1.0.1 (3bc2e813f5, 2020-09-07)" sodipodi:docname="Compta Matière.svg" xmlns:cc="http://creativecommons.org/ns#" xmlns:dc="http://purl.org/dc/elements/1.1/" xmlns:inkscape="http://www.inkscape.org/namespaces/inkscape" xmlns:rdf="http://www.w3.org/1999/02/22-rdf-syntax-ns#" xmlns:sodipodi="http://sodipodi.sourceforge.net/DTD/sodipodi-0.dtd" xmlns:svg="http://www.w3.org/2000/svg"
	 xmlns="http://www.w3.org/2000/svg" xmlns:xlink="http://www.w3.org/1999/xlink" x="0px" y="0px" viewBox="0 0 361.9 367.8"
	 style="enable-background:new 0 0 361.9 367.8;" xml:space="preserve">
<style type="text/css">
	.st0{fill:#6a7187;}
	.st1{fill:#6a7187;}
</style>
<sodipodi:namedview  bordercolor="#666666" borderopacity="1.0" id="base" inkscape:current-layer="g878" inkscape:cx="382.58354" inkscape:cy="524.5787" inkscape:document-rotation="0" inkscape:document-units="mm" inkscape:pageopacity="0.0" inkscape:pageshadow="2" inkscape:window-height="1017" inkscape:window-maximized="1" inkscape:window-width="1920" inkscape:window-x="-8" inkscape:window-y="-8" inkscape:zoom="0.98994949" pagecolor="#ffffff" showgrid="false">
	</sodipodi:namedview>
<g id="layer1" inkscape:groupmode="layer" inkscape:label="Calque 1">
	<g id="g878" transform="matrix(0.33854167,0,0,0.33792566,15.880952,32.586705)">
		<path id="path840" class="st0" d="M528-96.4c10.8,6.2,15.3,15.3,15.3,28.1c-0.3,11.9,0.9,24.1,2.3,36c0.3,3.1,3.7,7.4,6.5,8.2
			c26.1,7.7,26.1,7.4,40.3-15.9c4-6.5,7.9-13.3,12.2-19.8c7.4-11.1,17.6-14.5,29.2-8.5c19.6,9.9,39.1,20.1,58.4,30.6
			c12.2,6.5,15,16.7,9.6,29.8c-4.5,10.8-9.4,21.3-14.7,33.4c5.7,0,9.6,0,13.6,0c78,0,155.9,0,233.9,0c26.1,0,48.8,7.7,66.9,27.2
			c12.5,13.3,19.6,29.2,20.4,47.6c0.3,4,0.3,7.7,0.3,11.6c0,209.8,0,419.5,0,629.3c0,43.4-23.2,74.6-63.5,83.9
			c-9.6,2.3-19.6,2.6-29.5,2.6c-104.6,0.3-208.9,0-313.5,0c-4.3,0-8.2,0-13.6,0c6.5,29.8,12.5,58.1,19,86.2c0.6,2.3,5.7,4.5,8.8,4.8
			c15.3,0.6,30.3,0,45.6,0.3c11.3,0.3,15.6,4,15.6,15.3c0.3,14.2,0.3,28.3,0,42.5c-0.3,11.1-4.5,15.3-15.9,15.3
			c-124.7,0-249.4,0-374.2,0c-11.9,0-16.2-4-16.4-15.6c-0.3-14.2,0-28.3,0-42.5c0-9.9,5.1-15,15-15c17.6,0,35.4,0,54.1,0
			c6.5-30,12.8-59.5,19.6-91.3c-4.8,0-9.1,0-13,0c-105.2,0-210.3,0-315.8,0c-22.1,0-43.1-4-60.7-18.4c-18.7-15-29.5-34-30.3-58.4
			c0-3.1-0.3-6.2-0.3-9.6c0-210,0-420.1,0-630.1c0-42.5,22.4-72.9,61.8-82.8c8.8-2.3,18.1-2.8,27.2-2.8c67.2-0.3,134.6,0,201.8,0
			c3.7,0,7.7,0,13,0c-3.1-6.2-5.7-10.8-7.9-15.3c-6-11.9-3.4-22.4,7.4-29.8c18.4-12.2,36.9-23.8,55.6-35.1c11.1-6.8,21.8-4.5,30,6
			c8.5,11.3,16.7,23,24.7,34.6c3.4,5.1,6.5,6.5,13,4.3c15.9-5.7,32.3-10.2,49-15.6c0.9-13.6,2.8-27.5,2.6-41.7
			c0-12.8,4.3-22.4,15.3-29.2C474.1-96.4,501-96.4,528-96.4L528-96.4z M700,507.3c7.9,14.5,16.2,29.2,24.1,43.7
			c8.5,15.6,6,25.2-9.1,34.9c-16.2,10.5-32.3,20.7-48.5,30.9c-15.3,9.6-25.2,7.7-36.3-7.1c-9.9-13.6-19.8-27.2-29.2-40
			c-17.3,4.5-32.9,9.1-48.5,12.8c-5.4,1.4-7.4,4-7.4,9.4c-0.6,15.3-1.4,30.3-2.3,45.6c-0.9,15-8.8,22.7-23.5,23
			c-21.3,0.3-42.5,0.3-63.8,0c-13.3,0-21.8-8.2-23-21.5c-0.9-11.1-1.7-21.8-2-32.9c-1.1-22.4-1.1-22.1-22.4-28.1
			c-6.8-2-10.2,0-13.6,6c-7.1,12.8-14.7,24.9-22.4,37.4c-8.8,14.5-19,17.3-34,9.4c-17.6-9.1-35.1-18.4-52.7-27.5
			c-14.5-7.7-18.1-17.6-11.6-32.6c6-13.9,12.2-27.8,18.7-41.7c2.6-5.4,2.3-8.8-2.6-12.5c-6.8-5.4-13.6-11.3-19.6-18.1
			c-4.5-5.4-8.5-4.5-13.6-1.4c-12.8,7.4-25.8,14.5-38.8,21.5c-14.5,7.9-24.9,5.4-33.7-8.2c-11.1-17-21.8-34-32.3-51
			c-8.5-13.9-6.5-24.1,6.5-34c12.2-9.1,24.7-18.1,37.1-26.6c4.5-3.1,5.4-6,3.4-11.3c-4.5-12.8-8.2-25.5-11.3-38.6
			c-1.7-6.8-4.8-9.1-11.6-9.4c-14.7-0.3-29.8-1.4-44.5-2.6c-14.2-0.9-22.1-9.4-22.4-23.2c-0.3-21.5-0.3-43.1,0-64.9
			c0.3-13,7.9-21.3,21-22.1c10.2-0.9,20.4-1.4,30.6-2c23.8-1.4,23.5-1.4,29.2-24.9c1.1-5.1,0.3-8.2-4.5-11.1
			c-13.3-7.7-26.1-15.6-39.1-23.5c-12.2-7.7-15-18.1-8.8-30.9c2.6-5.1,5.1-10.2,7.9-15.6c-56.7,0-112,0-167,0
			c0,189.1,0,377.3,0,565.8c339.6,0,678.6,0,1017.9,0c0-189.1,0-377.3,0-566.1c-56.4,0-112,0-164.1,0c-7.4,8.5-12.2,15.9-18.7,21.3
			c-9.6,8.2-20.7,15-30.6,23c-2.3,2-4,7.1-3.4,10.2c3.4,14.7,8.2,29.2,11.9,43.9c1.4,6,4.5,7.7,10.2,7.9c13.9,0.3,27.5,1.4,41.4,2.3
			c14.2,0.9,22.1,9.1,22.4,23.2c0.3,21.3,0.3,42.5,0,63.8c-0.3,13.9-8.2,22.4-22.1,23.5c-8.8,0.9-17.6,1.1-26.4,1.7
			c-24.1,1.7-24.1,1.7-30,24.9c0,0.3,0,0.9-0.3,1.1c-3.1,5.4,0,8.2,4.5,10.8c12.2,7.1,24.4,14.5,36.6,21.8
			c13.3,8.2,16.4,18.4,9.4,32.3c-9.4,18.4-18.7,36.6-28.3,54.7c-7.4,13.9-17,17.3-31.7,10.8c-13.6-6-27.2-12.2-40.8-17.9
			c-2.6-1.1-7.4-0.9-9.1,0.6C717.6,487.5,709.1,497.4,700,507.3L700,507.3z M457.7-70.9c-1.4,18.1-3.1,35.4-3.7,52.7
			c-0.3,10.8-5.1,15.3-15.3,17.9c-20.1,5.1-40.3,11.1-59.8,17.6c-13.6,4.5-15.9,4.5-24.1-6.8c-10.2-14.2-20.7-28.6-30.9-43.1
			c-17.6,11.3-34.3,21.8-51.3,32.6c8.8,16.2,17.3,31.2,25.5,46.5c7.1,13,6.5,15.3-3.7,25.8c-11.1,11.3-21.8,23.2-32,35.4
			c-8.8,10.2-11.9,11.3-24.4,5.7c-16.2-7.4-32.3-14.5-49.3-22.1c-9.6,18.1-18.7,35.7-28.3,53.9c16.7,10.2,32.3,20.1,48.2,29.2
			c9.4,5.4,11.3,12.2,8.5,22.1c-3.4,11.6-6,23.2-8.2,35.1c-2.8,13.9-5.4,16.2-19.6,17c-17.9,1.1-36,2.3-54.4,3.4
			c0,20.7,0,40.3,0,60.7c19.6,1.1,38.6,2.8,57.8,3.7c9.9,0.3,14.2,5.1,16.7,14.2c5.1,19.6,10.8,38.8,17,57.8
			c4.5,13.6,4.3,16.4-7.7,24.9c-15,11.1-30.3,21.8-45.6,32.9c11.1,17.6,21.8,34.3,32.6,51.3c18.1-9.9,35.7-19.3,52.7-29.2
			c8.2-4.8,14.2-3.1,20.7,3.1c11.6,11.3,23.2,22.7,36,32.9c8.5,7.1,10.5,13.6,5.7,23.8c-8.5,17.3-15.9,35.1-23.8,53
			c18.4,9.6,36,18.7,53.6,28.1c10.8-17.6,21-34,30.9-50.7c5.1-8.5,11.3-10.5,20.4-7.9c12.2,3.4,24.7,7.1,37.1,9.1
			c10.8,2,15,7.1,15.3,17.9c0.6,19,2.3,38,3.7,57c20.7,0,40.3,0,60.4,0c1.1-19.6,2.8-38.3,3.4-57c0.3-10.2,4.5-15,14.7-17.3
			c19.8-4.8,39.7-10.2,59-16.7c10.5-3.4,17.3-2,23.5,7.4c10.5,15.6,21.8,30.3,33.2,45.6c17.3-11.1,34-21.8,51-32.6
			c-9.4-16.7-17.9-32.9-27.2-48.8c-5.7-9.6-4.5-16.4,3.7-24.1c11.6-10.8,22.4-22.7,32.9-34.6c9.1-10.5,12.2-11.6,24.7-6
			c16.4,7.4,32.9,14.7,50.2,22.4c9.6-18.1,18.7-35.4,28.1-53.6c-16.4-9.9-32.3-19.8-48.5-29.2c-7.9-4.5-10.2-10.5-7.4-19.6
			c4-13,7.7-26.6,10.2-40c2-10.2,7.1-14.2,17.3-14.5c17.9-0.6,35.7-2.3,53.9-3.7c0-20.7,0-40,0-60.4c-18.4-1.1-36.3-2.6-54.1-3.4
			c-9.4-0.3-13.6-4.5-16.2-13.6c-5.4-21.5-11.6-43.1-18.1-64.1c-2.8-9.1-2-15.3,6.2-21c14.7-10.2,29.2-21.3,43.9-32
			c-11.1-17.3-21.8-34-32.6-51c-16.2,9.1-32,17.3-47.1,26.1c-8.5,4.8-14.7,3.1-21.5-3.7c-12.2-12.2-24.9-24.1-38.3-35.1
			c-8.5-7.1-10.8-13.6-5.7-23.8c7.7-15.3,14.2-31.2,21.3-47.6c-18.4-9.6-36-18.7-53.6-28.1c-9.4,15.6-18.4,29.8-26.6,44.8
			c-5.4,9.6-11.9,12.5-22.7,8.8c-11.6-4-23.8-6.5-36-8.8c-14.7-2.8-17-4.8-17.9-19.8c-1.1-16.7-2.3-33.4-3.4-50.5
			C497.3-70.9,478.1-70.9,457.7-70.9L457.7-70.9z M997.9,710.6c-341.3,0-680,0-1019.3,0c0,15-1.1,29.5,0.3,43.7
			c2,19.8,13.3,34.6,31.5,42c10.2,4.3,21.8,6.2,32.9,6.2c296.2,0.3,592.2,0.3,888.4,0.3c3.4,0,7.1,0,10.5-0.3
			c26.6-1.7,49.6-19.6,53.3-43.7C997.9,743.2,997.1,727.3,997.9,710.6z M595.7,918.1c-6.5-30.3-13-60.1-19.3-89.6
			c-59.8,0-118.5,0-177.7,0c-6.5,30.3-12.8,59.8-19.3,89.6C452.3,918.1,523.4,918.1,595.7,918.1L595.7,918.1z M-19.7,92.9
			c55.8,0,110.6-0.3,165.3,0.3c10.2,0,15.9-2.3,20.4-11.9c7.9-16.7,17.3-19.6,34.6-11.9c14.7,6.5,29.5,13,43.9,19.6
			c9.1-9.9,17.6-19,25.8-28.1c1.7-2,2.3-4.5,3.4-6.8c-2.6-1.1-5.4-3.4-7.9-3.4c-19-0.3-38.3-0.3-57.3-0.3c-57.3,0-114.5-0.3-172.1,0
			C8.6,50.7-14,67.7-19.7,92.9L-19.7,92.9z M665.4,944.2c-118.8,0-237,0-355.5,0c0,7.7,0,15,0,22.1c119.1,0,237,0,355.5,0
			C665.4,958.6,665.4,951.8,665.4,944.2z M994.8,92.9c-6-25.2-28.3-42.2-56.1-42.2c-47.9-0.3-95.5,0-143.4,0c-1.7,0-3.1,0.3-6,0.6
			c8.5,13.3,15.9,25.5,24.1,37.7c1.4,2.3,5.1,4,7.7,4C878.6,92.9,936.1,92.9,994.8,92.9z M697.2,50.7c6.5,6,10.5,10.2,15,13.9
			c1.4,1.1,4.8,2.3,6.2,1.4c8.5-4.3,16.7-9.1,25.2-13.9c-0.3-0.6-0.6-1.1-0.9-1.7C728.6,50.7,714.5,50.7,697.2,50.7z"/>
		<path id="path858" class="st1" d="M892.2,559.5c-9.1,0-16.4,0-24.9,0c0-13,0-25.8,0-39.1c-13.6,0-25.8,0-38.8,0
			c0-8.5,0-16.2,0-24.9c12.8,0,25.2,0,38.8,0c0-13,0-24.9,0-37.4c8.5,0,15.9,0,24.1,0c0,12.2,0,24.1,0,37.7c13,0,25.2,0,38,0
			c0,8.8,0,16.2,0,24.9c-12.2,0-24.4,0-37.4,0C892.2,534,892.2,546.5,892.2,559.5z"/>
		<path id="path860" class="st1" d="M672.2,655.9c-3.1-24.4-3.1-24.4,20.1-24.4c44.2,0,88.4,0,132.9,0c3.7,0,7.7,0,12.2,0
			c0,8.5,0,16.2,0,24.4C782.2,655.9,727.2,655.9,672.2,655.9z"/>
		<path id="path862" class="st1" d="M60,414.7c0,12.2,0,23,0,34.6c-8.5,0-16.2,0-24.7,0c0-10.8,0-22.1,0-34.6c-12.5,0-23.8,0-36,0
			c0-9.1,0-16.4,0-24.9c11.6,0,22.7,0,35.1,0c0-12.5,0-24.4,0-36.9c8.8,0,16.4,0,25.2,0c0,11.9,0,23.8,0,36.9c12.8,0,24.1,0,36.3,0
			c0,8.8,0,16.4,0,24.7C84.1,414.7,72.7,414.7,60,414.7L60,414.7z"/>
		<path id="path864" class="st1" d="M880.3,655.9c0-7.9,0-15.6,0-23.8c21,0,41.1,0,62.1,0c0,7.9,0,15.6,0,23.8
			C921.4,655.9,901.3,655.9,880.3,655.9z"/>
		<path id="path866" class="st1" d="M488,39.3c132.9,0.3,240.4,108,240.1,240.9c-0.3,132.1-108.6,239.8-240.7,239.5
			c-132.7-0.3-240.1-108.6-239.8-241.2C247.6,146.5,355.3,39.3,488,39.3L488,39.3z M487.7,64c-118.5-0.3-214.9,95.8-215.4,214.6
			c-0.6,119.3,95.5,216,214.6,216.3c119.3,0.3,215.7-95.5,216-214.9C703.1,160.7,607,64.3,487.7,64L487.7,64z"/>
		<path id="path870" class="st1" d="M307.1,281.7c0-28.9,0.3-58.1-0.3-87c-0.3-10.2,3.1-16.2,13-20.4
			c52.7-22.1,105.2-45.1,158.2-67.2c5.4-2.3,13.6-2.6,19-0.3c53.3,22.1,106,45.4,159,67.7c8.8,3.7,12.2,9.6,12.2,18.7
			c-0.3,58.7-0.3,117.6,0,176.3c0,9.9-3.7,15.6-13,19.3c-52.7,20.7-104.9,42.2-157.6,62.9c-6,2.3-14.2,2.3-20.1,0
			c-53-20.7-105.7-42.2-158.5-63.2c-8.5-3.4-11.9-8.8-11.9-17.9C307.1,341,307.1,311.5,307.1,281.7L307.1,281.7z M643,206.9
			c-3.7,1.4-5.7,2-7.4,2.6c-42.2,17-84.5,34.3-127,50.7c-7.1,2.8-8.5,6.2-8.5,13.3c0.3,46.8,0,93.5,0.3,140.3c0,3.1,0.3,6,0.6,10.2
			c47.1-18.7,92.7-37.1,138.6-55.8c1.7-0.9,3.4-4.3,3.4-6.8C643,310.3,643,259.6,643,206.9L643,206.9z M474.9,424.3
			c0-51.6-0.3-101.2,0.3-150.8c0-7.9-2.8-10.8-9.6-13.6c-41.4-16.4-82.8-33.2-123.9-49.9c-2.8-1.1-5.7-1.7-9.4-2.8
			c0,52.4,0,103.2,0.3,154.2c0,2.6,3.7,6.5,6.5,7.7c15.6,6.8,31.5,12.8,47.1,19.3C415.1,400.2,444.3,412.1,474.9,424.3z
			 M623.2,187.6c-45.4-19.6-88.2-38-131.2-56.1c-3.1-1.4-8.2-0.3-11.9,1.4c-28.6,11.9-57.3,24.4-85.9,36.6
			c-13.3,5.7-26.9,11.6-42.2,18.1c33.7,13.6,66.3,24.4,96.9,39.7c26.6,13,49.9,13.3,76.5,0C556.3,212.3,589.2,201.2,623.2,187.6
			L623.2,187.6z"/>
	</g>
</g>
</svg>
