<?xml version="1.0" encoding="utf-8"?>
<!-- Generator: Adobe Illustrator 23.0.2, SVG Export Plug-In . SVG Version: 6.00 Build 0)  -->
<svg version="1.1"
	 id="svg8" inkscape:version="1.0.1 (3bc2e813f5, 2020-09-07)" sodipodi:docname="Dénouement.svg" xmlns:cc="http://creativecommons.org/ns#" xmlns:dc="http://purl.org/dc/elements/1.1/" xmlns:inkscape="http://www.inkscape.org/namespaces/inkscape" xmlns:rdf="http://www.w3.org/1999/02/22-rdf-syntax-ns#" xmlns:sodipodi="http://sodipodi.sourceforge.net/DTD/sodipodi-0.dtd" xmlns:svg="http://www.w3.org/2000/svg"
	 xmlns="http://www.w3.org/2000/svg" xmlns:xlink="http://www.w3.org/1999/xlink" x="0px" y="0px" viewBox="0 0 275.9 275.6"
	 style="enable-background:new 0 0 275.9 275.6;" xml:space="preserve">
<style type="text/css">
	.st0{fill:#6a7187;}
	.st1{fill:#6a7187;}
</style>
<sodipodi:namedview  bordercolor="#666666" borderopacity="1.0" id="base" inkscape:current-layer="layer1" inkscape:cx="400" inkscape:cy="560" inkscape:document-rotation="0" inkscape:document-units="mm" inkscape:pageopacity="0.0" inkscape:pageshadow="2" inkscape:window-height="967" inkscape:window-maximized="0" inkscape:window-width="1438" inkscape:window-x="182" inkscape:window-y="34" inkscape:zoom="0.35" pagecolor="#ffffff" showgrid="false">
	</sodipodi:namedview>
<g id="layer1" inkscape:groupmode="layer" inkscape:label="Calque 1">
	<g id="layer1-8" transform="matrix(0.26458334,0,0,0.26458334,57.182638,102.71794)" inkscape:label="Calque 1">
		<g id="g866" transform="matrix(0.33792566,0,0,0.33766234,10.402502,-17.874352)">
			<path id="path840" class="st0" d="M2414.6,1194.2c-19.3,60.9-53.9,106.9-119.6,122.2c-14.5,3.1-29.8,4-45.1,4
				c-70,0.9-140.6-2.6-210.6,0.9c-80.2,3.1-138.9-23.2-167.8-103.7c-61.8,0-123-0.9-184,0.9c-11.3,0-22.4,10.5-32.9,17
				c-14.5,8.8-28.9,17.6-44.2,26.6c1.7,22.4,6.5,46.5,5.7,70c-3.1,69.2-36.9,119.6-98.1,151.9c-12.2,6.5-21,10.5-17.6,28.1
				c17.6,98.1-16.2,164.7-104.6,209.8c-2.6,1.7-4.8,3.1-1.7,0.9c-2.6,41.7,2.6,81.1-7.4,116.5c-27.2,105.2-144.6,157.6-245.8,111.7
				c-58.7-26.6-115.7-56.1-176-85c-32,72.3-83.6,119.1-163.8,123c-78.8,4-135.8-34.6-174.3-104.6c-104.6,34.6-184.8,4.8-240.4-89.3
				c-125.3,24.9-182.3,3.1-237.8-87.6c-34.6,3.1-68.3,12.2-101.2,7.9c-114.8-13.6-184-126.1-146.3-235.6
				c17.6-52.2,37.7-102.9,58.7-159c-28.1,0-51.3-0.9-74.8,0.9c-6.5,0.9-15.3,7.9-18.4,15.3c-27.2,59.5-73.1,87.6-138.3,86.7
				c-79.7-0.9-158.2,0-237.8,0c-95.5-0.9-160.7-65.2-160.7-161.6c0-304.4,0-608.3,0-912.8c0-92.4,64.3-158.2,156.8-159.9
				c141.4-1.7,282.9-0.9,425.2,0c59.5,0.9,102,29.8,129.3,83.6c4,7.4,12.8,17,20.1,17c69.2,1.7,138.3,0.9,212,0.9
				c-9.6-12.2-16.2-20.1-23.2-28.9C46.5,11.8-8.2-267.7,106.1-567.3c114.8-301.3,343-474,662.2-523.8c6.5-0.9,13.6-3.1,20.1-5.7
				c58.7,0,116.5,0,174.3,0c5.7,1.7,11.3,4.8,17,5.7c589.9,75.4,906.2,741,593,1247.8c-5.7,8.8-10.5,18.4-17.6,31.5
				c46.5,0,88.4,0.9,130.1-0.9c7.4,0,16.2-9.6,19.3-17c27.2-54.7,71.4-83.6,131.8-83.6c139.7-0.9,278.9,0,418.7,0
				c41.7,0,81.9,10.5,109.4,41.7c21,24.1,34.6,55.6,50.7,83.6C2414.6,539.4,2414.6,866.2,2414.6,1194.2L2414.6,1194.2z M1169.3,189
				L1169.3,189c77.1-0.9,155.1,0,232.2-1.7c12.8,0,29.8-7.9,36.9-17.6c130.1-168.7,180-360,143.1-568.9
				c-71.4-398.6-442.8-657.4-839.6-581.1c-292.5,56.1-487,235.6-562.4,523C104.6-171.3,186,76.2,407.7,274
				c11.3,10.5,29.8,17,45.1,17c91.6,1.7,182.3,0,274.1,1.7c22.4,0,37.7-6.5,51.3-23.2c46.5-56.1,107.7-81.1,180-80.2
				C1028.7,189.8,1098.5,189,1169.3,189z M662.2,396.2c-212,0-415.6,0-621.1,0c-49.9,273.3-99.5,546.5-149.4,822
				c32.9,0,62.6,2.6,92.4-0.9c18.4-1.7,38.6-7.9,53.9-17.6c36.9-23.2,76.3-35.4,119.6-32c56.1,4.8,99.5,32.9,133.5,75.4
				c127-59.5,190.5-43.4,277.2,70c119.6-44.2,248.3,24.1,256.3,174.3c74-6.5,134.1,19.3,174.3,82.8c41.1,64.3,31.5,130.1,0.9,196.7
				c59.5,28.9,115.7,57,172.6,83.6c48.2,23.2,90.7,12.2,110.8-28.9c21-41.7,4-85-43.4-109.4c-40.3-20.1-81.1-38.6-122.2-58.7
				c-33.7-17-45.9-45.1-31.5-73.1c13.6-27.2,42.5-34.6,75.4-19.3c41.1,19.3,81.1,39.4,122.2,58.7c45.9,21,91.6,6.5,110-34.6
				c18.4-40.3,1.7-81.9-42.5-104.6c-43.4-21.8-86.7-41.7-130.1-62.6c-32.9-16.2-45.1-42.5-32-70.6c12.8-28.9,42.5-37.7,76.3-21.8
				c42.5,20.1,85,41.1,127.8,60.9c46.5,21.8,90.7,8.8,110.8-31.5c21-41.7,2.6-84.5-45.9-108.6c-37.7-18.4-76.3-36.3-114.2-54.7
				c-35.4-17-47.3-43.4-34.6-71.4c12.8-29.8,43.4-36.9,78.8-20.1c42.5,20.1,84.5,41.7,127.8,60.4c38.6,17,81.9-0.9,99.5-36.9
				c17.6-36.3,4.8-76.3-30.6-99.5c-5.7-4-12.2-7.4-18.4-10.5c-190.5-97.2-380.1-194.5-569.8-292.5c-17.6-8.8-27.2-6.5-41.1,5.7
				c-81.1,74.8-163,149.4-245.8,222.5c-86.7,77.1-206.6,74-285.2-4.8c-78-78-79.7-200.1-3.1-285.2c29.8-33.7,60.9-66.6,90.7-100.3
				C561,507.9,608.4,454.9,662.2,396.2L662.2,396.2z M1853.1,1114.5c-50.7-276.4-99.5-548.8-149.4-822.9c-15.3,0-27.2,0-39.4,0
				c-212.9,0-425.8,0.9-638.1,0.9c-145.4,0-127-3.1-216.9,94.7c-104.6,114.2-208.1,228.2-311.8,343c-40.3,44.2-39.4,104.6,0,143.7
				c40.3,40.3,98.1,40.3,143.7,0.9c17-14.5,32.9-29.8,49-44.2C805.9,725.9,921,621.6,1036.7,517.8c26.6-24.1,57-24.9,78-3.1
				c21.8,23.2,18.4,53-8.8,79.7c-15.3,14.5-30.6,28.1-48.2,44.2c11.3,5.7,19.3,10.5,28.1,15.3c176.9,90.7,352.6,181.7,529.5,271.6
				c64.3,32.9,102.9,81.9,110,154.2c1.7,11.3,1.7,23.2,1.7,36.3C1769.4,1114.5,1809.7,1114.5,1853.1,1114.5L1853.1,1114.5z
				 M2312.6,703.2c0-143.7,0-286.9,0-430.6c0-70.6-12.2-82.8-81.9-82.8c-123.9,0-246.6,0-370.5,0c-60.4,0-69.2,11.3-58.7,69.2
				c55.6,305.3,111.7,611.4,167.2,916.7c5.7,29.8,19.3,43.4,50.7,42.5c74-0.9,148.5,0,222.5,0c53.9,0,70.6-16.2,70.6-70
				C2312.6,999.7,2312.6,851.2,2312.6,703.2L2312.6,703.2z M-568,806.9c0,150.2,0,301.3,0,451.6c0,41.1,18.4,61.8,56.1,61.8
				c81.1,0.9,162.4,0,244.3,0c24.1,0,36.9-12.2,41.7-34.6c3.1-18.4,6.5-37.7,9.6-56.1c53-291.7,106-584.2,159-875.9
				c8.8-49.9-1.7-61.8-52.2-61.8c-130.1,0-261.1,0-391.2,0c-51.3,0-68.3,17.6-68.3,69.2C-568,509.6-568,658.1-568,806.9z
				 M233.9,1622.5c0,41.7,24.9,73.1,60.9,81.1c36.3,7.9,73.1-11.3,88.4-50.7c28.9-74.8,57-149.4,85-225.1
				c18.4-50.7,1.7-92.4-42.5-109.4c-42.5-15.3-82.8,5.7-101.2,54.7c-28.1,73.1-55.6,146.3-82.8,219.4
				C237.9,1604.6,235.6,1616,233.9,1622.5L233.9,1622.5z M717.8,1486.7c0.9-41.1-24.1-72.3-60.4-80.2c-36.9-7.9-73.1,11.3-88.4,50.7
				c-30.6,77.1-59.5,155.1-87.6,233.9c-4.8,14.5-6.5,32-3.1,46.5c6.5,32.9,35.4,55.6,68.3,58.7c30.6,2.6,62.6-13.6,74.8-45.1
				c32-81.1,62.6-162.4,93.3-244.3C716.9,1499.4,716.9,1491.5,717.8,1486.7L717.8,1486.7z M134.4,1272.1
				c-25.8,1.7-50.7,16.2-61.8,45.9c-26.6,65.8-51.3,132.7-74.8,200.1c-12.8,37.7,7.4,76.3,43.4,91.6c36.3,15.3,80.2,2.6,95.5-33.7
				c29.8-69.2,57-138.9,79.7-210.6C230.8,1317.2,190.5,1271.3,134.4,1272.1L134.4,1272.1z M921,1675.5c0-43.4-24.9-73.1-60.9-81.1
				c-33.7-7.4-70.6,10.5-85,45.9c-19.3,46.5-36.9,93.3-53,140.6c-15.3,44.2,3.1,85.9,44.2,100.3c41.1,15.3,81.9-3.1,99.5-47.3
				c17.6-44.2,34.6-89.9,50.7-134.9C919.3,1689.1,920.2,1679.4,921,1675.5L921,1675.5z"/>
			<path id="path862" class="st1" d="M708.7-237.1c82.8-92.4,161.6-179.2,239.5-265.9c37.7-41.7,74.8-83.6,112.5-125.3
				c61.8-68.3,155.1-75.4,220.3-18.4c66.6,58.7,71.4,153.4,9.6,223.4C1139.6-254.6,987.6-86,834.9,82.1
				c-67.5,74-161.6,75.4-233.9,4.8C552,38.8,503.8-9.4,456.4-57.6c-64.3-65.8-65.8-160.7-4-221.1c60.9-60.4,157.6-59.5,221.7,3.1
				C688-264.3,697.7-250.7,708.7-237.1L708.7-237.1z M1239.1-534.1c-14.5-15.3-24.9-34.6-41.1-42.5c-26.6-13.6-46.5,3.1-65.2,23.2
				c-123,137.5-246.6,274.7-370.5,411.3c-32.9,36.9-59.5,37.7-94.1,4c-21-20.1-41.1-41.1-61.8-61.8c-27.2-26.6-57-28.9-79.7-6.5
				c-23.2,22.4-21,51.3,6.5,79.7c46.5,47.3,93.3,94.1,140.6,140.6c31.5,30.6,58.7,31.5,87.6-0.9
				c151.1-167.2,301.3-333.4,450.7-501.4C1223.2-500.4,1228-514.9,1239.1-534.1L1239.1-534.1z"/>
		</g>
	</g>
</g>
</svg>
