<?xml version="1.0" encoding="UTF-8"?> <svg xmlns="http://www.w3.org/2000/svg" viewBox="0 0 80.86 80.86"><defs><style>.cls-1{fill:#6a7187;}.cls-2{fill:#6a7187;}</style></defs><g id="Calque_2" data-name="Calque 2"><g id="Calque_1-2" data-name="Calque 1"><path class="cls-1" d="M46.38,80.86H34.47a3.81,3.81,0,0,1-3.8-3.81V72.29a33.07,33.07,0,0,1-5.84-2.46l-3.4,3.4a3.83,3.83,0,0,1-5.38,0L7.63,64.81a3.82,3.82,0,0,1,0-5.38L11,56A33,33,0,0,1,8.6,50.19H3.8A3.81,3.81,0,0,1,0,46.38V34.47a3.81,3.81,0,0,1,3.8-3.8H8.6A32.91,32.91,0,0,1,11,24.83l-3.4-3.4a3.81,3.81,0,0,1,0-5.38l8.42-8.42a3.83,3.83,0,0,1,5.37,0L24.83,11a35.85,35.85,0,0,1,5.84-2.46V3.8A3.81,3.81,0,0,1,34.47,0H46.38a3.81,3.81,0,0,1,3.81,3.8V8.6A33,33,0,0,1,56,11l3.4-3.4a3.74,3.74,0,0,1,2.68-1.11h0a3.78,3.78,0,0,1,2.69,1.11l8.42,8.42a3.81,3.81,0,0,1,0,5.38l-3.4,3.4a32.73,32.73,0,0,1,2.43,5.84h4.8a3.81,3.81,0,0,1,3.8,3.8V46.38a3.81,3.81,0,0,1-3.8,3.81h-4.8A33.16,33.16,0,0,1,69.83,56l3.4,3.4a3.82,3.82,0,0,1,0,5.37L64.8,73.23a3.78,3.78,0,0,1-2.68,1.11h0a3.75,3.75,0,0,1-2.68-1.12L56,69.83a33,33,0,0,1-5.84,2.43v4.79A3.82,3.82,0,0,1,46.38,80.86ZM24.44,67l.75.43a30.44,30.44,0,0,0,6.9,2.9l.84.22v6.48a1.55,1.55,0,0,0,1.54,1.55H46.38a1.56,1.56,0,0,0,1.55-1.55v-6.5l.82-.23a30.55,30.55,0,0,0,6.92-2.87l.69-.39h0l.06,0,.93.93h0L61,71.63a1.51,1.51,0,0,0,1.08.45h0a1.54,1.54,0,0,0,1.09-.45l8.42-8.43a1.55,1.55,0,0,0,0-2.18L67,56.42l.43-.75a31.13,31.13,0,0,0,2.88-6.92l.19-.7v-.6l.63-.32.4.79h5.51a1.55,1.55,0,0,0,1.54-1.54V34.47a1.55,1.55,0,0,0-1.54-1.54H70.55l-.23-.83a30.48,30.48,0,0,0-2.87-6.92L67,24.44l4.61-4.61a1.55,1.55,0,0,0,0-2.18L63.21,9.23a1.54,1.54,0,0,0-1.09-.45h0A1.51,1.51,0,0,0,61,9.23l-4.61,4.61-.75-.43a30.1,30.1,0,0,0-6.92-2.87l-.71-.2h-.2l-.27-.16.36-.61V3.8a1.55,1.55,0,0,0-1.55-1.54H34.47A1.54,1.54,0,0,0,32.93,3.8V9.62l.26.6h0l-.26-.6v.66l-.83.23a32.73,32.73,0,0,0-6.92,2.9l-.75.42-4.6-4.61a1.55,1.55,0,0,0-2.18,0L9.23,17.65a1.55,1.55,0,0,0,0,2.18l4.6,4.61-.42.75a30.78,30.78,0,0,0-2.87,6.91l-.23.83H3.8a1.54,1.54,0,0,0-1.54,1.54V46.38A1.54,1.54,0,0,0,3.8,47.92h6.51l.23.83a30.1,30.1,0,0,0,2.87,6.92l.42.75L9.23,61a1.55,1.55,0,0,0,0,2.18l8.42,8.42a1.57,1.57,0,0,0,2.19,0Z"></path><path class="cls-2" d="M54.27,52.89H26.57a1.39,1.39,0,0,0,0,2.77h27.7a1.39,1.39,0,1,0,0-2.77Z"></path><path class="cls-2" d="M28.3,49.29a1.39,1.39,0,0,0,0,2.77H52.54a1.39,1.39,0,1,0,0-2.77h-.35V36.83h.35a.7.7,0,0,0,0-1.39H28.3a.7.7,0,0,0,0,1.39h.35V49.29ZM49.42,36.83V49.29H45.27V36.83Zm-6.92,0V49.29H38.34V36.83Zm-11.08,0h4.15V49.29H31.42Z"></path><path class="cls-2" d="M26.57,34.2H54.28a1.39,1.39,0,0,0,.45-2.7L41,25.32a1.32,1.32,0,0,0-1.13,0L26,31.55a1.39,1.39,0,0,0,.57,2.65Z"></path></g></g></svg> 