<?xml version="1.0" encoding="utf-8"?>
<!-- Generator: Adobe Illustrator 23.0.2, SVG Export Plug-In . SVG Version: 6.00 Build 0)  -->
<svg version="1.1"
	 id="svg8" inkscape:version="1.0.1 (3bc2e813f5, 2020-09-07)" sodipodi:docname="Conformité.svg" xmlns:cc="http://creativecommons.org/ns#" xmlns:dc="http://purl.org/dc/elements/1.1/" xmlns:inkscape="http://www.inkscape.org/namespaces/inkscape" xmlns:rdf="http://www.w3.org/1999/02/22-rdf-syntax-ns#" xmlns:sodipodi="http://sodipodi.sourceforge.net/DTD/sodipodi-0.dtd" xmlns:svg="http://www.w3.org/2000/svg"
	 xmlns="http://www.w3.org/2000/svg" xmlns:xlink="http://www.w3.org/1999/xlink" x="0px" y="0px" viewBox="0 0 320.6 368.5"
	 style="enable-background:new 0 0 320.6 368.5;" xml:space="preserve">
<style type="text/css" font-weight="bold">
	.st0{fill:#6a7187;}
	.st1{fill:#6a7187;}
</style>
<sodipodi:namedview  bordercolor="#666666" borderopacity="1.0" id="base" inkscape:current-layer="g945" inkscape:cx="326.77721" inkscape:cy="567.11786" inkscape:document-rotation="0" inkscape:document-units="mm" inkscape:pageopacity="0.0" inkscape:pageshadow="2" inkscape:window-height="1017" inkscape:window-maximized="1" inkscape:window-width="1920" inkscape:window-x="-8" inkscape:window-y="-8" inkscape:zoom="0.7" pagecolor="#ffffff" showgrid="false">
	</sodipodi:namedview>
<g id="layer1" inkscape:groupmode="layer" inkscape:label="Calque 1">
	<g id="g945" transform="matrix(0.26458333,0,0,0.26458333,26.294626,2.3086488)">
		<path id="path911" sodipodi:nodetypes="cccssssscssccccccsccsscccccccccssscccsscccssssccccsccsccccccccccccss" class="st0" d="
			M812,1376.8c-52.2-13.1-95.7-39.9-130.1-81.2c-6.9-8-13.4-10.2-22.8-10.2c-224.4,0.4-448.4,0-672.8,0c-55.1,0-85.6-30.5-85.6-85.6
			V218.6c0-55.1,30.5-85.9,85.6-85.9h167.1c8.3,0,12-1.5,11.2-10.9c-0.7-10.9-0.4-21.8-0.4-32.6c0-19.6,7.6-27.2,26.8-27.2
			c29.4,0,58.7-0.4,88.5,0c7.3,0,10.9-1.8,14.5-8.7c21.4-40.2,55.5-61.6,100.8-62c46-0.4,80.5,21.4,102.2,62
			c3.6,6.9,7.6,8.3,14.5,8.3c29.4-0.4,58.7-0.4,88.5,0c18.9,0,26.5,7.6,26.5,26.1c0,10.9,0.7,21.8,0,32.6c-0.7,9.4,1.8,12.3,11.6,12
			c56.2-0.4,112.4-0.4,168.6-0.4c52.6,0,83.7,30.8,83.7,83.4c0,221.9,0.5,448.1,0.1,670c0,11.2,2.1,10.5,13.7,12.3
			c107.7,18.5,183.8,92.1,204.5,197.6c26.5,133-70.3,267.2-205.2,284.9C871.7,1387.8,840.5,1383,812,1376.8z M647,1242
			c-2.2-5.8-3.6-9.8-5.4-14.1c-16-41-21.4-83.4-13.4-126.5c19.6-110.2,98.6-187.1,209.5-203.7c8.7-1.5,9.8-4.4,9.8-11.6V213.1
			c0-23.6-12.7-36.6-35.5-36.6c-58,0-116,0-174-0.4c-8,0-11.2,1.5-10.5,10.2c0.7,12.3,0.4,24.3,0,36.6c-0.4,15.6-8.3,23.9-23.6,23.9
			H189.2c-15.2,0-23.6-8.3-23.9-23.6c-0.4-11.2-0.7-22.8,0-34.1c0.7-10.2-1.8-13.8-13.1-13.4c-55.1,0.7-110.6,0.4-165.7,0.4
			c-30.1,0-41.7,11.6-41.7,42.1v981.4c0,31.2,11.2,42.4,42.4,42.4h645.6L647,1242z M868.2,1339.9c110.2,0.4,200.8-89.2,201.6-199.4
			c0.4-110.9-89.5-201.6-200.5-201.6c-110.6,0-200.5,89.5-200.8,199.8C668.1,1249.2,758.3,1339.9,868.2,1339.9z M394.7,203.4
			c58.7,0,117.8-0.4,176.5,0.4c9.1,0,12.3-1.5,12-11.6c-0.7-25-0.7-49.7,0-74.7c0.4-9.4-1.8-12.3-11.6-12c-27.6,0.7-55.1,0-83,0.4
			c-13.4,0-21-6.2-25-18.5c-11.2-33.4-35.9-52.2-67.8-52.6c-31.9,0-57.6,19.2-68.2,51.8c-4.4,13.1-12.3,18.9-26.1,18.9
			c-27.6-0.4-55.5,0.4-83-0.4c-9.1-0.4-11.2,2.5-10.9,11.2c0.7,25,0.7,50,0,74.7c-0.4,10.9,3.3,12.3,13.1,12.3L394.7,203.4z"/>
		<path id="path919" class="st0" d="M77.2,453.5c0-20.3,0-40.6,0-60.9c0-16.3,8-24.3,23.9-24.3c40.6-0.4,81.6-0.4,122.2,0
			c17,0,25,8,25,25c0.4,40.2,0.4,80.5,0,120.7c0,16.3-7.6,25-23.6,25.4c-41.3,0.4-82.3,0.4-123.6,0c-17-0.4-23.9-8.3-23.9-26.1
			C77.2,493.4,77.2,473.4,77.2,453.5L77.2,453.5z M159.8,495.9c13.4,0,25-0.4,36.3,0c6.9,0.4,9.4-1.8,9.4-9.1
			c-0.4-22.1-0.4-44.2,0-66.7c0-7.6-2.9-9.1-9.4-9.1c-22.1,0.4-44.2,0.4-66.7,0c-6.2,0-8.7,1.5-8.7,8.3c0.7,11.6,0,23.6,0,35.2
			c0,13.1-4.7,30.8,2.2,38.1C130.5,502.1,148.6,494.8,159.8,495.9z"/>
		<path id="path921" class="st0" d="M77.2,743.9c0-19.9,0-39.9,0-59.8c0-17,7.6-25,25-25c40.2-0.4,80.5-0.4,120.7,0
			c17.8,0,25.4,8,25.7,25.7c0,39.9,0,79.8,0,119.3c0,17.4-8,25.7-25.7,26.1c-39.9,0.4-79.8,0.4-119.3,0c-18.9,0-26.1-8-26.1-26.8
			C77.2,783.8,77.2,763.8,77.2,743.9z M164.9,702.5c-13.8,0-25,0.4-36.3,0c-5.8,0-8,1.5-8,7.6c0.4,23.2,0.4,46,0,69.2
			c0,6.2,2.2,7.6,8,7.6c22.5-0.4,45.3-0.4,67.8,0c7.6,0,9.1-3.3,8.7-9.8c-0.4-10.9,0-21.8,0-32.6c-0.4-13.4,4.7-31.5-2.2-39.2
			C195,696.4,176.5,704,164.9,702.5z"/>
		<path id="path923" class="st0" d="M77.2,1035.7c0-19.9,0-39.9,0-59.8c0-18.1,7.3-26.1,25-26.1c40.2-0.4,80.5-0.4,120.7,0
			c17.8,0,25.4,8,25.4,26.1c0,39.9,0,79.8,0,119.3c0,17-8,25.4-24.7,25.7c-40.6,0.4-81.6,0.4-122.2,0c-17-0.4-24.3-8.3-24.3-25.7
			C77.2,1075.6,77.2,1055.6,77.2,1035.7z M205.1,1035.7c0-11.2-0.4-22.8,0-34.1c0.4-6.9-2.2-8.3-8.7-8.3c-22.5,0.4-45.3,0.4-67.8,0
			c-5.4,0-8,1.1-8,7.3c0.4,23.2,0.4,46,0,69.2c0,5.8,1.8,8,7.6,8c22.5-0.4,45.3-0.4,67.8,0c7.6,0,9.1-2.9,8.7-9.4
			C204.8,1057.5,205.1,1046.6,205.1,1035.7L205.1,1035.7z"/>
		<path id="path925" class="st1" d="M531.4,367.9c52.6,0,105.1,0,157.3,0c16,0,25,7.3,25.4,20.3c0.4,12-5.1,19.9-17,22.5
			c-4.7,1.1-9.8,1.1-14.9,1.1c-101.5,0-202.6,0-304.2,0c-4.4,0-9.1,0-13.4-0.7c-12-2.2-18.5-9.8-18.1-21.8s7.3-19.6,19.2-20.7
			c9.1-1.1,18.1-0.4,27.2-0.4C439.3,367.9,485.4,367.9,531.4,367.9z"/>
		<path id="path927" class="st1" d="M530.7,495.9c52.6,0,105.1,0,157.3,0c10.2,0,18.9,2.2,23.9,12c6.2,12,0,26.8-13.1,30.5
			c-5.1,1.5-10.9,1.5-16.3,1.5c-101.9,0-203.7,0-305.2,0c-2.5,0-5.4,0-8,0c-14.9-1.5-23.6-10.2-22.8-23.2
			c0.7-12.3,9.4-20.3,23.9-20.3C424.1,495.9,477.4,495.9,530.7,495.9z"/>
		<path id="path929" class="st1" d="M530.3,659c52.9,0,105.9,0,158.8,0c16,0,25,7.3,25.4,20.3c0.4,12-5.4,19.9-17.4,22.1
			c-4.7,1.1-9.8,1.1-14.9,1.1c-100.8,0-201.9,0-302.7,0c-22.5,0-32.6-6.5-33-21.4c-0.4-15.6,9.8-22.1,33-22.1
			C429.9,659,479.9,659,530.3,659z"/>
		<path id="path931" class="st1" d="M531.4,786.7c50.8,0,101.5,0,151.9,0c5.1,0,10.2,0,14.9,1.1c9.8,2.2,15.6,9.1,16,19.2
			c0.7,10.9-4.4,18.5-14.5,21.8c-5.4,1.8-11.6,1.8-17.4,1.8c-101.5,0-202.6,0-304.2,0c-4,0-8.3,0-12.3-0.7
			c-12.3-1.8-19.9-10.2-19.6-21.8c0.4-11.6,8.3-19.9,20.7-21c3.6-0.4,7.3,0,10.9,0C429.2,786.7,480.3,786.7,531.4,786.7L531.4,786.7
			z"/>
		<path id="path933" class="st1" d="M462.2,949.8c29.7,0,59.8,0,89.5,0c17.4,0,26.8,7.6,26.8,21.4s-9.4,21.8-26.8,22.1
			c-59.8,0.4-119.3,0.4-179.1,0c-17,0-26.5-8.7-26.1-22.5c0.4-13.4,9.4-21,26.1-21C402.3,949.8,432.4,949.8,462.2,949.8L462.2,949.8
			z"/>
		<path id="path935" class="st1" d="M462.2,1077.8c29.7,0,59.8,0,89.5,0c17.4,0,26.8,8,26.8,21.8c0,13.8-9.4,21.8-26.8,21.8
			c-59.1,0.4-118.5,0-177.6,0c-2.2,0-4.4,0-6.9-0.4c-13.4-1.8-21-10.2-20.7-22.1c0.4-12,8.7-20.7,22.1-20.7
			C399.8,1077.4,431,1077.8,462.2,1077.8L462.2,1077.8z"/>
		<path id="path937" class="st1" d="M1005.9,1064.3c0,7.3-3.3,13.1-8.3,18.1c-47.9,48.2-95.3,96.4-143.2,144.6
			c-12.7,12.7-23.6,12.7-36.3,0c-25.7-25.4-51.5-51.1-76.9-76.9c-11.2-11.2-12-24.3-2.5-33.4c9.4-9.4,22.1-8.3,33.4,2.9
			c18.5,18.1,37,36.3,54.7,54.7c6.9,7.3,10.9,8.3,18.5,0.4c39.2-40.2,78.7-80.1,118.2-120c5.8-5.8,11.2-11.6,20.7-11.6
			C996.1,1043.3,1005.6,1052.4,1005.9,1064.3z"/>
	</g>
</g>
</svg>
