<?xml version="1.0" encoding="utf-8"?>
<!-- Generator: Adobe Illustrator 23.0.2, SVG Export Plug-In . SVG Version: 6.00 Build 0)  -->
<svg version="1.1"
	 id="svg8" inkscape:version="1.0.1 (3bc2e813f5, 2020-09-07)" sodipodi:docname="dessin.svg" xmlns:cc="http://creativecommons.org/ns#" xmlns:dc="http://purl.org/dc/elements/1.1/" xmlns:inkscape="http://www.inkscape.org/namespaces/inkscape" xmlns:rdf="http://www.w3.org/1999/02/22-rdf-syntax-ns#" xmlns:sodipodi="http://sodipodi.sourceforge.net/DTD/sodipodi-0.dtd" xmlns:svg="http://www.w3.org/2000/svg"
	 xmlns="http://www.w3.org/2000/svg" xmlns:xlink="http://www.w3.org/1999/xlink" x="0px" y="0px" viewBox="0 0 368.5 368.5"
	 style="enable-background:new 0 0 368.5 368.5;" xml:space="preserve">
<style type="text/css">
	.st0{fill:#6a7187;}
	.st1{fill:#6a7187;}
</style>
<sodipodi:namedview  bordercolor="#666666" borderopacity="1.0" id="base" inkscape:current-layer="g872" inkscape:cx="439.75402" inkscape:cy="487.95419" inkscape:document-rotation="0" inkscape:document-units="mm" inkscape:pageopacity="0.0" inkscape:pageshadow="2" inkscape:window-height="1017" inkscape:window-maximized="1" inkscape:window-width="1920" inkscape:window-x="-8" inkscape:window-y="-8" inkscape:zoom="0.98994949" pagecolor="#ffffff" showgrid="false">
	</sodipodi:namedview>
<g id="layer1" inkscape:groupmode="layer" inkscape:label="Calque 1">
	<g id="layer1-5" transform="matrix(0.26458333,0,0,0.26458333,23.228528,20.329451)" inkscape:label="Calque 1">
		<g id="g874">
			<g id="g872">
				<path id="path850" class="st0" d="M-87.8,635.9c8-18.1,20.3-23.9,37-23.4c47.9,0.9,96.1,0.4,144,0.4c19.9,0,32.3,12.4,33,32.3
					c0.4,20.3-12.3,34-33,34c-47.9,0-96.1-0.4-144,0.4c-16.7,0.4-29-5.7-37-23.4C-87.8,649.2-87.8,642.6-87.8,635.9z"/>
				<path id="path852" class="st0" d="M-87.8,287.6c8-17.7,19.9-24.3,37-23.4c24.3,1.3,49,0,73.2,0.4c19.2,0,31.9,13.7,31.2,34
					c-0.4,19.5-12.7,32.3-31.2,32.3c-24.3,0-49-0.9-73.2,0.4c-16.7,0.9-29-5.7-37-23.4C-87.8,300.9-87.8,294.2-87.8,287.6z"/>
				<path id="path854" class="st1" d="M657,45.3c-0.4,8-0.7,13.3-0.7,18.6c0,184.3,0,369.1,0,553.5c0,47.7,18.5,80.9,51.5,92.4
					c7.6,2.7,16,3.5,23.9,3.5c153,0,306.4,0,459.4,0c3.6,0,7.3-0.4,13.4-0.9c-4.7-6.2-8-10.6-11.2-14.6
					c-60.2-73.4-120.4-146.8-180.6-220.6c-3.6-4.4-7.3-8.4-10.2-13.3c-8-13.7-6.2-30.9,3.6-42.4c8.7-10.6,23.6-12.4,33.7-3.5
					c4,3.5,7.6,8,10.9,12.4c79.4,96.8,158.8,193.6,238.6,290.4c20.7,25.2,20.7,39.3,0.4,64.1c-140,171.5-279.9,342.2-420.3,512.8
					c-19.9,24.3-31.9,24.3-51.5,0c-213.6-260.4-427.5-521.2-641.1-781.6c-19.6-23.9-19.6-38.5,0.4-62.8
					C317.2,282.7,457.1,112,597.5-58.6c19.9-24.3,31.9-24.3,51.5-0.4c77.6,94.6,155.2,189.2,232.4,283.8c4,4.9,7.6,9.3,10.5,15
					c6.9,13.3,4.7,30.1-4.7,40.7c-9.1,10.2-23.6,11.5-33.7,2.7c-4-3.5-7.3-8-10.9-12.4c-57.7-70.3-115.3-140.6-173-210.9
					C666.1,55.1,662.5,51.1,657,45.3L657,45.3z M260.3,518.8C445.6,744.7,630.9,970.6,815.9,1196c0-137,0-275.8,0-416
					c-5.8,0-10.9,0-15.6,0c-26.8,0-53.7,0.9-80.1-0.9c-55.5-3.5-103.7-50.8-113.5-117.1c-5.8-39.3-3.3-80-4.4-120.2
					c-0.4-7.5,0-15,0-22.5C485.9,518.8,372.4,518.8,260.3,518.8L260.3,518.8z M600.8,36.9c-113.1,138-226.6,275.9-339.4,413.8
					c111.7,0,225.2,0,339.4,0C600.8,311.5,600.8,173.1,600.8,36.9L600.8,36.9z M872.1,1196.9c114.2-139.2,227.4-277.2,341.2-416
					c-113.1,0-227,0-341.2,0C872.1,920.6,872.1,1059,872.1,1196.9z"/>
				<path id="path856" class="st0" d="M205.9,1007.3c61.6,0,123.3-0.4,184.6,0.4c8,0,18.9,2.7,23.2,9.3c5.4,8,8.7,21.7,8,32.3
					c-0.7,13.3-10.5,21.2-21.4,23.9c-3.6,0.9-7.3,0.4-10.9,0.4c-123.3,0-246.2,0-369.5,0c-1.8,0-3.6,0-5.4,0c-17-0.9-29-15-28.6-34
					c0.4-18.6,12-31.8,28.6-32.3c18.9-0.4,38.1,0,56.9,0C116.4,1007.3,161,1007.3,205.9,1007.3L205.9,1007.3z"/>
				<path id="path858" class="st0" d="M201.9,795.1c23.9,0,47.9,0,71.8,0c18.9,0,30.5,12.8,30.5,33.2c0,20.4-11.6,33.2-30.5,33.2
					c-48.2,0-96.8,0-145,0c-18.1,0-30.8-13.7-30.8-33.2c0-19,12.7-32.7,30.8-33.2C153,795.1,177.6,795.1,201.9,795.1z"/>
				<path id="path860" class="st0" d="M167.1,264.6c16.3,0,32.6-0.4,49,0c17.4,0.4,29,14.1,29,33.2c0,19.5-11.6,32.7-29.4,32.7
					c-32.6,0.4-65.3,0.4-97.5,0c-18.1,0-29.4-12.8-29.4-32.7c-0.4-20.3,11.2-33.2,30.1-33.6C134.9,264.2,151.2,264.6,167.1,264.6
					L167.1,264.6z"/>
				<path id="path862" class="st0" d="M206.7,647c-0.4,18.1-12.7,32.3-27.2,31.8c-14.9-0.4-27.6-16.4-27.2-34.5
					c0.7-17.7,13.1-31.8,27.6-31.8C195.4,612.9,207.4,628,206.7,647z"/>
				<path id="path864" class="st0" d="M950.4,387.9c-14.9,0-26.5-13.7-26.8-32.3c-0.4-18.6,12-34,26.8-34s27.6,16.4,27.2,34
					C977.2,373.8,965.3,387.9,950.4,387.9z"/>
			</g>
		</g>
	</g>
</g>
</svg>
