<?xml version="1.0" encoding="utf-8"?>
<!-- Generator: Adobe Illustrator 23.0.2, SVG Export Plug-In . SVG Version: 6.00 Build 0)  -->
<svg version="1.1"
	 id="svg8" inkscape:version="1.0.1 (3bc2e813f5, 2020-09-07)" sodipodi:docname="OST.svg" xmlns:cc="http://creativecommons.org/ns#" xmlns:dc="http://purl.org/dc/elements/1.1/" xmlns:inkscape="http://www.inkscape.org/namespaces/inkscape" xmlns:rdf="http://www.w3.org/1999/02/22-rdf-syntax-ns#" xmlns:sodipodi="http://sodipodi.sourceforge.net/DTD/sodipodi-0.dtd" xmlns:svg="http://www.w3.org/2000/svg"
	 xmlns="http://www.w3.org/2000/svg" xmlns:xlink="http://www.w3.org/1999/xlink" x="0px" y="0px" viewBox="0 0 268.8 368"
	 style="enable-background:new 0 0 268.8 368;" xml:space="preserve">
<style type="text/css">
	.st0{fill:#6a7187;}
	.st1{fill:#6a7187;}
</style>
<sodipodi:namedview  bordercolor="#666666" borderopacity="1.0" id="base" inkscape:current-layer="g856" inkscape:cx="359.19512" inkscape:cy="431.60137" inkscape:document-rotation="0" inkscape:document-units="mm" inkscape:pageopacity="0.0" inkscape:pageshadow="2" inkscape:window-height="1017" inkscape:window-maximized="1" inkscape:window-width="1920" inkscape:window-x="-8" inkscape:window-y="-8" inkscape:zoom="0.98994949" pagecolor="#ffffff" showgrid="false">
	</sodipodi:namedview>
<g id="layer1" inkscape:groupmode="layer" inkscape:label="Calque 1">
	<g id="g856" transform="matrix(0.33792566,0,0,0.33783784,15.445105,-16.686777)">
		<path id="path842" class="st0" d="M69.7,76.9c0,315.2,0,630.1,0,945.9c217.4,0,435.1,0,654,0c0-4,0-7.9,0-11.6
			c0-247.2,0-494.6,0-741.8c0-28.3-11.6-40-40-40c-17.6,0-35.4,0.3-53,0c-34.3-0.3-57.3-23.2-57.3-57.5c0-12.5,0-24.7,0-37.1
			c0-8.8,3.7-14.7,13-14.7c9.4-0.3,13,5.7,13.3,14.5c0,11.9,0,24.1,0,36C600,192,611.1,203,632.6,203c19,0,38.3,0,57.3,0
			c34.9,0.3,59.8,24.7,59.8,59.5c0,256.5,0,513.1,0,769.6c0,14.5-4,17.9-19.6,17.9c-88.4,0-177.2,0-265.6,0
			c-132.9,0-265.6,0-398.6,0c-20.7,0-23-2.3-23-23.2c0-317.8,0-635.5,0-953.6c0-21,2.3-23.5,23-23.5c161.6,0,323.1,0.3,484.7-0.3
			c30.6,0,54.7,10.5,74.3,34.3c17.9,21.8,37.1,42.8,55.6,64.3c5.1,6,7.7,12.2,2.3,19c-5.4,7.1-14.7,6.8-21.8-1.4
			c-19.8-22.7-39.7-45.1-59.2-68.3c-12.2-14.5-27.8-21.5-46.5-21.5c-159,0-318,0-477.4,0C75.1,76.3,72.8,76.6,69.7,76.9L69.7,76.9z"
			/>
		<path id="path840" class="st1" d="M-36.9,1138.5c-6.5-4.3-8.8-9.9-8.8-17.9c0.3-321.4,0-642.6,0.3-964.1
			c0-13.9,3.7-17.9,17.6-18.1c8.2-0.3,16.4,0,24.4,0c11.9,0.3,17.9,5.1,17.6,13.6c-0.3,8.2-6.2,12.8-17.3,12.8c-4.8,0-9.9,0-15.3,0
			c0,316.1,0,631,0,946.8c218,0,435.4,0,653.7,0c0-6.8,0-13,0-19.3c0-8.8,4.3-14.7,13.3-14.7c9.1,0,13,6.2,13.3,14.7
			c0.3,10.2,0.9,20.7-0.3,30.9c-0.6,5.4-4.8,10.5-7.1,15.6C423.7,1138.5,193.3,1138.5-36.9,1138.5L-36.9,1138.5z"/>
		<path id="path844" class="st0" d="M270.4,497.8c19,0,36.6,0,55.8,0c0-19.8-0.6-39.1,0-58.4c1.1-32,24.7-58.4,56.1-64.6
			c43.4-8.5,83.1,23.2,84.2,67.5c0.6,18.4,0,36.6,0,55.6c18.7,0,36.3,0,55.6,0c0-3.7,0-7.4,0-11.1c0-36.9,0-73.7,0-110.6
			c0-2.6,0-5.1,0-7.4c0.3-8.2,4.5-13.6,12.8-13.9c8.2-0.3,13,4.8,13.3,13.3c0.3,9.9,0.3,19.8,0.3,29.8c0,36,0,72.3,0,108.3
			c0,14.5-3.7,18.1-18.4,18.1c-23.8,0-47.3,0-71.1,0c-15,0-18.4-3.4-18.4-19c-0.3-22.4,0.6-44.8-0.9-66.9
			c-1.1-19.3-16.4-34.6-34.6-38c-19.8-3.4-38.8,5.1-47.3,22.4c-3.4,6.8-5.1,14.7-5.4,22.4c-0.6,20.4-0.3,41.1-0.3,61.5
			c0,13-4,17.3-17,17.3c-24.7,0-49.6,0.3-74.3,0c-12.8,0-16.7-4.5-17-17.6c0-44.2,0-88.4,0-132.9c0-12.8,4.5-19.3,13-19.6
			c8.8-0.3,13.3,6.2,13.3,19c0,36.9,0,73.7,0,110.6C270.4,488.5,270.4,492.4,270.4,497.8L270.4,497.8z"/>
		<path id="path846" class="st0" d="M396.2,173.6c-48.5,47.3-96.1,94.1-144,140.9c-8.8,8.8-17.9,17.3-26.6,25.8
			c-6.5,6.2-13.3,8.5-20.7,2c-6-5.4-5.4-13.3,2-20.4c59.5-58.1,119.1-116.2,178.6-174.3c7.9-7.9,14.2-7.9,22.1-0.3
			c59.5,58.1,119.1,116.2,178.6,174.3c7.4,7.4,7.9,14.7,2.3,20.4c-5.7,5.7-13.9,5.1-21.5-2.6C513,286.7,458.9,233.9,405,181.2
			C402.2,178.9,399,176.4,396.2,173.6L396.2,173.6z"/>
		<path id="path848" class="st1" d="M396.5,614.9c-68.3,0-136.6,0-205.2,0c-3.4,0-7.1,0.3-10.5-0.3c-7.1-1.4-12.5-6-11.1-13
			c1.1-4.8,6.2-9.4,10.5-12.5c2.3-1.7,6.8-0.9,10.5-0.9c137.2,0,274.1,0,411.3,0c1.7,0,3.4,0,5.4,0c8.8,0,15.3,3.4,16.2,13
			c0.9,8.2-6,13.6-16.7,13.6c-39.4,0-78.5,0-117.9,0C458,614.9,427.1,614.9,396.5,614.9L396.5,614.9z"/>
		<path id="path850" class="st1" d="M396.5,704.8c-68.6,0-137.5,0-206.1,0c-3.4,0-8.2,1.1-10.5-0.6c-4.3-3.4-9.9-8.5-9.9-12.8
			s6-9.1,10.2-12.2c2.3-1.7,6.8-0.6,10.5-0.6c137.2,0,274.1,0,411.3,0c15.3,0,21.5,3.7,21.5,12.8c0.3,9.4-6.5,13.3-22.1,13.3
			C533.1,704.8,464.8,704.8,396.5,704.8L396.5,704.8z"/>
		<path id="path852" class="st1" d="M396.8,794.9c-68.6,0-137.5,0-206.1,0c-15.3,0-21.3-3.7-21.5-13c-0.3-9.4,6.2-13.3,21-13.3
			c137.5,0,275,0,412.2,0c2.8,0,5.7-0.3,8.5,0c7.9,0.9,12.5,5.7,12.5,13.3c0,7.1-4.3,11.9-11.9,12.5c-4,0.3-7.7,0.3-11.6,0.3
			C532,794.9,464.5,794.9,396.8,794.9L396.8,794.9z"/>
		<path id="path854" class="st1" d="M536.2,917.9c-23.8,0-47.3,0-71.1,0c-10.8,0-17.3-5.4-16.4-13.6c1.1-9.6,7.4-12.8,16.4-12.8
			c47.1,0.3,94.1,0,141.4,0c10.8,0,17,4.8,17,13c0,8.2-6,13-17,13C583,917.9,559.8,917.9,536.2,917.9L536.2,917.9z"/>
	</g>
</g>
</svg>
