<?xml version="1.0" encoding="utf-8"?>
<!-- Generator: Adobe Illustrator 23.0.2, SVG Export Plug-In . SVG Version: 6.00 Build 0)  -->
<svg version="1.1"
	 id="svg8" inkscape:version="1.0.1 (3bc2e813f5, 2020-09-07)" sodipodi:docname="Paramétrage.svg" xmlns:cc="http://creativecommons.org/ns#" xmlns:dc="http://purl.org/dc/elements/1.1/" xmlns:inkscape="http://www.inkscape.org/namespaces/inkscape" xmlns:rdf="http://www.w3.org/1999/02/22-rdf-syntax-ns#" xmlns:sodipodi="http://sodipodi.sourceforge.net/DTD/sodipodi-0.dtd" xmlns:svg="http://www.w3.org/2000/svg"
	 xmlns="http://www.w3.org/2000/svg" xmlns:xlink="http://www.w3.org/1999/xlink" x="0px" y="0px" viewBox="0 0 279 367.4"
	 style="enable-background:new 0 0 279 367.4;" xml:space="preserve">
<style type="text/css">
	.st0{fill:#6a7187;}
	.st1{fill:#6a7187;}
</style>
<sodipodi:namedview  bordercolor="#666666" borderopacity="1.0" id="base" inkscape:current-layer="g850" inkscape:cx="375.7449" inkscape:cy="659.55658" inkscape:document-rotation="0" inkscape:document-units="mm" inkscape:pageopacity="0.0" inkscape:pageshadow="2" inkscape:window-height="1017" inkscape:window-maximized="1" inkscape:window-width="1920" inkscape:window-x="-8" inkscape:window-y="-8" inkscape:zoom="0.7" pagecolor="#ffffff" showgrid="false">
	</sodipodi:namedview>
<g id="layer1" inkscape:groupmode="layer" inkscape:label="Calque 1">
	<g id="g850" transform="matrix(0.33801352,0,0,0.33792566,-2.085399,-11.939385)">
		<path id="path840" class="st0" d="M625.2,1124.1c-22.1-6.2-42-16.7-51.6-38.8c-4.8-11.1-8.2-23.8-8.2-35.7
			c-0.6-148.5-0.6-296.8-0.3-445.3c0-34.9,16.7-58.7,49-70.6c5.7-2,6.5-4.8,6.5-9.9c0-85.6,0-171.5-0.3-257.1c0-4.3-1.7-9.1-4-12.8
			c-10.5-17.6-21.3-35.1-32.6-52.2c-6-9.1-6.8-17.9-2.6-28.1c17-40,33.7-80.2,50.2-120.5c5.1-12.5,13.6-17.9,27.2-17.9
			c26.6,0.3,53,0.3,79.7,0c13.3-0.3,21.8,5.7,26.9,17.9c16.4,40.3,33.4,80.2,50.2,120.5c4.3,9.9,3.1,19-2.8,28.1
			c-11.1,17-21.8,34-32,51.3c-2.8,4.5-4.5,10.5-4.5,15.6c-0.3,84.2,0,168.7-0.3,252.9c0,7.1,2,10.2,8.8,12.8
			c28.1,10.8,43.7,31.2,46.5,61.2c0.3,4.5,0.6,9.1,0.6,13.9c0,145.1,0,290.6,0,435.7c0,32-11.9,56.4-40.8,71.1
			c-6.2,3.1-13,4.8-19.8,7.4C723,1124.1,674.2,1124.1,625.2,1124.1L625.2,1124.1z M609.9,825.9c0,74,0,148,0,222.2
			c0,20.7,10.5,31.2,31.2,31.2c38,0,75.7,0,113.7,0c23,0,32.9-9.9,32.9-32.9c0-146.3,0-292.5,0-439.1c0-23-9.9-32.9-32.9-32.9
			c-36.9,0-73.7,0-110.6,0c-25.2,0-34.3,9.1-34.3,34.6C609.9,681.6,609.9,753.6,609.9,825.9L609.9,825.9z M732,529.7
			c0-5.4,0-9.6,0-13.9c0-84.5-0.3-169.2,0.3-253.7c0-8.8,3.1-18.1,7.4-25.8c8.2-15.6,18.7-30,27.5-45.4c2.3-3.7,2.8-10.2,1.4-14.2
			c-11.9-29.8-24.7-59.5-36.9-89.3c-2.3-5.4-4.5-7.7-10.8-7.7c-14.7,0.6-29.8,0.6-44.5,0c-6.2-0.3-8.5,2.3-10.8,7.7
			c-12.2,29.8-24.9,59.2-36.9,89.3c-1.7,4-0.9,10.2,1.4,14.2c8.5,15,18.7,29.2,26.9,44.5c4.3,7.9,7.7,17.9,7.7,26.6
			c0.6,85,0.3,169.8,0.3,254.8c0,4,0,8.2,0,12.5C688.1,529.7,709.4,529.7,732,529.7L732,529.7z"/>
		<path id="path842" class="st1" d="M263.2,159.2c0-5.1,0-8.8,0-12.8c0-28.1,0-55.8,0-83.9c0-21.5,13.3-31.2,33.4-24.1
			c47.3,16.7,81.9,48.5,103.5,93.8c38,79.9,17.6,178.3-49,236.4c-7.1,6.2-9.6,12.5-9.6,21.8c0.3,125.3,0.3,250.9,0,376.2
			c0,10.5,3.1,17.3,11.1,24.4c82.8,74,89.6,203.5,15.3,283.2c-19.6,21-43.1,36.6-70.6,45.9c-20.4,7.1-33.7-2-34-23.5
			c-0.3-28.3,0-56.7,0-85c0-3.7,0-7.7,0-12.2c-34,0-66.6,0-101.2,0c0,3.7,0,7.4,0,11.1c0,28.3,0,56.7,0,85c0,22.4-10.8,30.3-32,23
			c-67.5-24.1-108.6-72.6-120.5-142.6C-3,903.3,20,840.9,73.8,790.5c7.4-7.1,10.2-13.6,10.2-23.8c-0.3-125-0.3-250,0-375
			c0-10.5-3.1-17.3-11.1-24.4C-14.3,289.9-16.3,151,68.4,73.9c17.9-16.2,38-28.1,60.9-35.7c19.6-6.5,32.9,3.1,32.9,23.8
			c0,28.3,0,56.7,0,85c0,3.7,0,7.7,0,11.9C196,159.2,228.9,159.2,263.2,159.2L263.2,159.2z M117.5,1066c0-29.2,0-56.1,0-83.1
			c0-19.8,8.5-28.3,28.6-28.6c44.2,0,88.4,0,132.9,0c20.4,0,28.9,8.5,28.9,29.2c0.3,23.8,0,47.3,0,71.1c0,3.1,0.3,6.5,0.6,10.8
			c17.6-10.8,30.6-23.8,40.8-39.4c43.9-66.9,29.5-157.6-34-208.1c-13.3-10.5-18.4-21.8-18.4-38.8c0.6-133.2,0.6-266.5,0-399.7
			c0-16.7,4.8-28.3,18.4-38.8c58.4-45.6,76.3-128.7,42.2-194.5c-11.1-21.5-26.6-39.4-49.6-53.3c0,5.4,0,8.8,0,12.2
			c0,24.1,0.3,48.2,0,72.3c-0.3,17.6-8.2,26.4-24.7,26.6c-47.1,0.3-94.1,0.3-141.4,0c-15.6,0-23.8-8.8-24.1-24.9
			c-0.3-11.6,0-23.2,0-35.1c0-16.4,0-32.9,0-51.3c-28.6,18.1-47.3,42-57.8,72c-22.4,64.6-2,134.9,51.9,177.4
			c12.2,9.4,16.7,19.8,16.7,35.1c-0.6,133.8-0.6,267.9,0,401.7c0,16.7-4.8,28.1-18.1,38.8c-53.3,42.2-72.9,112.8-50.2,176.9
			C70.4,1024.3,88.9,1047.9,117.5,1066L117.5,1066z"/>
	</g>
</g>
</svg>
