<?xml version="1.0" encoding="utf-8"?>
<!-- Generator: Adobe Illustrator 23.0.2, SVG Export Plug-In . SVG Version: 6.00 Build 0)  -->
<svg version="1.1"
	 id="svg8" inkscape:version="1.0.1 (3bc2e813f5, 2020-09-07)" sodipodi:docname="Passif.svg" xmlns:cc="http://creativecommons.org/ns#" xmlns:dc="http://purl.org/dc/elements/1.1/" xmlns:inkscape="http://www.inkscape.org/namespaces/inkscape" xmlns:rdf="http://www.w3.org/1999/02/22-rdf-syntax-ns#" xmlns:sodipodi="http://sodipodi.sourceforge.net/DTD/sodipodi-0.dtd" xmlns:svg="http://www.w3.org/2000/svg"
	 xmlns="http://www.w3.org/2000/svg" xmlns:xlink="http://www.w3.org/1999/xlink" x="0px" y="0px" viewBox="0 0 368 367.6"
	 style="enable-background:new 0 0 368 367.6;" xml:space="preserve">
<style type="text/css">
	.st0{fill:#6a7187;}
	.st1{fill:#6a7187;}
</style>
<sodipodi:namedview  bordercolor="#666666" borderopacity="1.0" id="base" inkscape:current-layer="g916" inkscape:cx="351.88605" inkscape:cy="494.64889" inkscape:document-rotation="0" inkscape:document-units="mm" inkscape:pageopacity="0.0" inkscape:pageshadow="2" inkscape:window-height="1017" inkscape:window-maximized="1" inkscape:window-width="1920" inkscape:window-x="-8" inkscape:window-y="-8" inkscape:zoom="0.98994949" pagecolor="#ffffff" showgrid="false">
	</sodipodi:namedview>
<g id="layer1" inkscape:groupmode="layer" inkscape:label="Calque 1">
	<g id="g916" transform="matrix(0.33783784,0,0,0.33783784,-5.716699,-7.2654447)">
		<path id="path842" class="st0" d="M548.7,1109.7c-6.5-2.6-13.3-4.3-19.6-7.7c-25.2-13.9-36.3-36.6-35.1-64.3
			c1.1-27.8,15.3-48.2,41.7-58.7c7.1-2.6,8.8-6,8.8-13c-0.3-36.9-0.3-73.4-0.3-111.7c-15.9,0-30.9,0-46.2,0
			c-16.2,0-21.8-5.7-21.8-21.5c0-8.8,0-17.6,0-22.7c-27.2-17-52.2-32.9-77.4-48.2c-2-1.4-6-1.1-8.2,0c-2.8,1.1-5.4,3.4-7.7,5.7
			c-33.2,33.2-66,66-99.8,100.1c9.9,19.6,11.9,40,3.7,60.9c-6,14.5-16.2,24.7-29.8,32c-28.3,15.6-61.5,10.8-82.8-12.2
			c-21.5-23.2-24.1-58.4-6.2-84.2c19.8-28.6,51.3-36.3,89.6-21.3c26.9-27.2,53.9-54.4,81.4-82.5c-7.9-13.9-16.4-29.5-25.2-44.8
			c-11.6-20.7-23.5-41.1-35.1-61.8c-7.1-12.8-4.8-20.7,7.9-28.3c1.4-0.9,3.1-1.7,4.5-2.6c22.1-12.8,22.4-13.9,14.5-40.5
			c-26.6,0-53.6,0-80.5,0c-14.7,0-29.8,0.9-44.5-0.3c-17.9-1.1-30.9,0-40,21c-10.5,24.1-35.1,32.3-60.9,29.8
			c-27.5-2.6-47.9-16.4-58.4-42.8c-1.4-4-2.8-7.9-4.3-11.9c0-7.7,0-15.6,0-23.5c1.4-3.7,2.6-7.4,4-10.8c9.4-26.9,34-44.8,62.9-45.6
			c26.6-0.9,52.4,15.3,62.9,40.8c3.4,8.2,7.7,9.9,15.6,9.6c43.9-0.3,87.9-0.3,131.8-0.3c4,0,7.7,0,12.2,0c1.1-9.1,2.3-17.3,2.6-25.8
			c0-2-2.3-4.8-4.3-6.2c-4.5-3.1-9.9-5.7-14.7-8.5c-19-10.8-20.7-16.2-9.6-35.7c16.4-29.2,33.4-58.4,50.5-87.3
			c3.1-5.1,6-10.5,8.8-15.3c-27.5-27.2-54.7-54.1-81.9-81.1c-38,16.2-69.4,8.5-89.9-22.4c-18.7-28.3-15-62.6,9.4-86.2
			c24.1-23.2,57.8-25.8,85.6-6.5c29.8,20.7,37.1,52.2,19.6,92.4c3.1,2.3,8.2,4.8,11.9,8.5c29.2,28.9,58.1,58.1,87.3,87
			c11.9,11.6,11.6,10.5,25.2,2c22.1-14.2,45.4-27.2,69.7-42c0-3.4,0-9.6,0-16.2c0-25.8,3.1-28.9,29.5-28.9c12.5,0,24.7,0,38.6,0
			c0-4.5,0-8.8,0-12.8c0-33.2-0.3-66.6,0-99.8c0-6.2-1.7-9.1-7.9-11.3c-32.3-12.2-47.9-42-41.1-76.8c6.2-32,32.9-54.1,65.5-54.1
			c34,0,60.1,21.8,66.9,56.4c6.2,33.2-9.9,62.1-41.7,74.8c-3.1,1.1-7.4,5.1-7.4,7.7c-0.6,38.3-0.3,76.5-0.3,115.9
			c15.9,0,30.9,0,45.9,0c16.2,0,21.8,5.7,22.1,21.5c0,8.8,0,17.6,0,22.7c27.2,17,52.4,32.6,77.7,48.2c2.3,1.4,5.7,1.1,8.2,0.6
			c2-0.3,3.7-2.3,5.1-3.7c34-34.3,67.7-68.3,101.8-102.9c-15.3-40-7.4-71.7,23.2-91c27.2-17.6,63.2-13.3,85.6,9.9
			c22.4,23,25.2,58.4,7.4,85c-19.6,29.2-52.7,37.1-89.9,21.8c-26.9,27.2-53.9,54.4-81.6,82.8c4,7.1,9.1,16.2,14.2,25.2
			c15.3,26.6,30.6,53.6,45.6,80.2c7.7,13.6,6.2,22.7-7.9,28.6c-19.6,7.9-26.1,20.1-19.3,39.7c0.3,0.6,0.3,1.4,0.6,2.8
			c2.8,0.3,6,0.6,9.1,0.6c45.4,0,90.7,0,136.1,0.3c7.1,0,10.2-1.7,12.5-8.8c10.2-30,38.3-47.3,70.6-44.8
			c28.9,2.3,55.6,25.2,59.5,53.6c5.7,39.7-7.9,69.4-48.2,81.6c-30.6,9.4-70.3-2.3-83.9-47.3c-51.9,0-103.7,0-155.3,0
			c-0.3,1.1-0.9,1.7-0.9,2.3c-3.7,26.1-3.7,26.1,19,39.4c14.7,8.8,17,15.3,8.5,30.3c-17.6,31.2-35.4,62.1-53.3,93
			c-2.6,4.3-4.8,8.5-7.1,12.5c27.5,26.9,54.7,53.6,81.6,79.9c11.3-1.7,24.4-6,37.4-5.7c30,0.6,54.7,21.5,62.1,50.5
			c7.4,28.1-4.5,58.1-29.2,74c-24.4,15.6-56.7,13.9-79.4-4.3c-23.2-18.7-32-50.2-20.4-77.4c3.7-8.5,1.7-12.8-4.3-18.7
			c-29.5-28.9-58.7-58.7-88.2-87.9c-13.3-13.3-13-12.2-28.3-2.6c-19.3,12.2-39.7,23.2-60.1,33.7c-6,3.1-9.1,5.4-8.5,12.2
			c0.6,6.8,0.3,13.3,0,20.1c-0.3,13.3-6.5,19.6-19.6,19.8c-15.6,0.3-31.2,0-47.6,0c-0.3,2.8-0.9,5.7-0.9,8.2c0,34.6,0,69.4,0,104
			c0,6,0.9,9.1,7.4,11.6c29.8,11.1,45.4,36,43.7,68c-1.7,29.5-21.3,53.3-50.5,61.2c-1.7,0.6-3.1,1.4-4.8,2
			C565.7,1109.7,557.2,1109.7,548.7,1109.7L548.7,1109.7z M807.8,482.7c-17-29.8-33.7-58.7-50.7-87.9c-7.7,4.3-14.5,7.9-21.3,11.9
			c-9.6,5.7-17.3,4-25.8-3.4c-13.6-11.3-27.8-22.1-42.8-31.2c-11.9-7.1-25.5-11.9-38.8-16.7c-11.1-4.3-17-10.8-15.9-23
			c0.6-6.8,0-13.9,0-21.3c-34.6,0-68,0-102,0c0,8.5,0,16.2,0,24.1c-0.3,10.5-4.8,17-15.3,20.1c-9.9,2.8-20.1,6-28.6,11.1
			c-18.4,11.3-36,23.5-53.3,36.3c-9.4,6.8-17.6,9.9-27.8,2.6c-6-4.3-12.5-7.1-19.3-11.1c-17.3,29.8-33.7,58.4-50.7,87.9
			c7.9,4.8,15.6,9.4,23,14.2s10.2,11.3,7.9,20.1c-7.9,32.9-7.9,66,0,98.9c2,8.5-0.6,15.3-7.9,20.1c-7.4,4.5-15,9.1-23,13.9
			c17,29.5,33.7,58.4,50.7,88.2c5.4-3.1,10.2-5.7,14.7-8.2c18.4-10.8,20.7-10.8,36.3,3.1c23,20.1,48.5,35.7,78,43.9
			c10.2,2.8,15.6,9.1,15.6,19.8c0,7.9,0,16.2,0,24.1c34.9,0,68,0,102,0c0-7.4,0.6-14.2,0-21c-1.1-11.6,4.3-19,15-22.7
			c32-10.5,60.9-26.4,85.3-49.9c6.2-6,13.9-6.8,21.5-2.3c7.4,4.3,14.7,8.2,22.7,12.8c17-29.5,34-58.1,50.7-87.3
			c-8.5-5.1-15.3-9.4-22.4-13.3c-8.2-4.8-10.5-11.3-8.5-20.7c7.7-32.9,7.7-66,0-98.9c-2.3-9.9,0.9-16.4,9.1-21.3
			C793.3,491.5,800.1,487.2,807.8,482.7L807.8,482.7z M85.2,599.5c18.4,0,34-15.3,34-33.7c0-18.7-14.7-34-33.4-34.3
			c-19-0.3-34.6,15.3-34.6,34C51.5,584.2,66.8,599.2,85.2,599.5z M1071.7,566c0.3-18.7-14.7-34-33.2-34.6c-19-0.6-34.9,15-34.9,34
			c0,18.4,15,33.7,33.7,34C1056.1,599.5,1071.7,584.5,1071.7,566z M561.7,123.3c18.7,0,33.7-15.3,33.7-33.7c0-19-15.6-34.6-34.6-34
			c-18.7,0.3-33.4,15.6-33.4,34.3C527.7,108,543.3,123.3,561.7,123.3L561.7,123.3z M561.2,1007.7c-18.7,0.3-33.7,15.6-33.7,34
			c0,19,15.9,34.3,34.9,33.7c18.4-0.6,33.4-15.9,33.2-34.6C595.2,1022.7,579.6,1007.4,561.2,1007.7z M898.5,195
			c-18.7,0-33.7,14.5-34.3,33.2c-0.3,18.7,15.6,34.9,34.3,34.6c18.4-0.3,33.4-15.6,33.4-34C931.9,209.7,917.5,195.3,898.5,195
			L898.5,195z M931.9,901.9c0-18.7-15-33.7-33.7-33.7c-19,0-34.6,15.9-34,34.9c0.3,18.7,15.6,33.2,34.3,33.2
			C917.8,935.7,932.2,920.9,931.9,901.9z M225,936c18.7,0,33.7-15,34-33.4s-15-33.7-33.4-34.3c-19-0.3-34.3,15.3-34,34.3
			C191.3,921.5,206,936,225,936z M225.3,262.2c19-0.3,33.7-15,33.4-33.7c-0.3-19-15.9-33.7-34.9-33.4c-18.7,0.3-32.9,15.3-32.9,34.3
			C191.5,248.3,206,262.5,225.3,262.2z"/>
		<path id="path844" class="st1" d="M379.2,142.3c-9.1,0-17-7.4-17-16.7c-0.3-9.4,8.2-17.6,17.6-17.3c9.4,0.3,16.4,7.7,16.4,17.3
			C395.9,134.9,388.5,142.3,379.2,142.3z"/>
		<path id="path846" class="st1" d="M459.7,104.3c-0.3,9.4-7.9,16.7-17,16.7c-9.1-0.3-16.7-8.5-16.7-17.3
			c0.3-9.1,8.2-16.7,17.3-16.4C452.9,87.3,460,94.6,459.7,104.3L459.7,104.3z"/>
		<path id="path848" class="st1" d="M120.7,399.9c-9.4-0.3-16.4-7.9-16.2-17.3c0.3-9.1,8.2-16.7,17.3-16.4
			c9.4,0.3,17.3,8.8,16.7,18.1C138,393.4,130,400.2,120.7,399.9z"/>
		<path id="path850" class="st1" d="M1002.8,366.2c9.4,0.3,16.4,7.9,16.2,17.3c-0.3,9.4-7.7,16.4-17,16.4
			c-9.4-0.3-16.7-7.9-16.4-17.3C985.8,373.6,994,365.9,1002.8,366.2L1002.8,366.2z"/>
		<path id="path852" class="st1" d="M1039.9,683.7c0.3,9.4-7.4,17.3-16.4,17.3c-9.1,0.3-17-7.7-17.3-16.7c-0.3-9.4,7.4-17,16.7-17
			C1032.3,667,1039.7,674.3,1039.9,683.7z"/>
		<path id="path854" class="st1" d="M1001.7,731c9.4,0,17,7.4,17,16.7c0,9.1-7.9,17-17,17c-9.1,0-16.7-7.9-16.7-17
			C984.7,738.1,992,731,1001.7,731z"/>
		<path id="path856" class="st1" d="M1039.9,446.4c0.3,9.4-7.1,17-16.4,17c-9.4,0.3-17-7.1-17.3-16.4c-0.3-9.1,7.7-17,16.7-17.3
			C1031.7,429.7,1039.7,437.3,1039.9,446.4z"/>
		<path id="path858" class="st1" d="M761,1006.5c-0.3,9.4-7.7,16.4-17.3,16.4c-9.6,0-16.7-7.4-16.4-17c0-9.4,7.7-16.7,17-16.7
			C753.1,989.5,761,997.5,761,1006.5L761,1006.5z"/>
		<path id="path860" class="st1" d="M743.4,142.3c-9.4-0.3-16.4-7.9-16.4-17.3c0.3-9.4,7.7-16.7,17-16.7c9.1,0.3,17,8.2,16.7,17.3
			C760.7,134.6,752.5,142.5,743.4,142.3z"/>
		<path id="path862" class="st1" d="M821.4,974.5c0.3,9.4-6.8,17-16.2,17.3c-9.1,0.3-17.3-7.4-17.6-16.4c-0.3-9.1,7.1-17,16.4-17.3
			C813.7,958.1,821.1,964.9,821.4,974.5L821.4,974.5z"/>
		<path id="path864" class="st1" d="M679.4,1044c-9.4,0-17-7.7-17-16.7c0-9.1,7.9-17,17-17c9.4,0,16.7,7.7,16.7,17
			C696.1,1036.6,688.7,1044,679.4,1044z"/>
		<path id="path866" class="st1" d="M100.8,463.1c-8.8,0.3-17.6-7.9-17.3-16.4c0-7.4,7.7-14.2,15.9-14.5c9.1-0.3,17.6,7.9,17.3,16.7
			C116.7,456.1,109,462.9,100.8,463.1z"/>
		<path id="path868" class="st1" d="M318,171.2c-8.8,0.3-15.3-5.7-15.6-13.6c0-9.1,7.7-16.7,16.7-17c8.8-0.3,15.3,5.4,15.3,13.6
			C334.4,163.5,327.3,170.9,318,171.2L318,171.2z"/>
		<path id="path870" class="st1" d="M803.5,140.6c8.8,0,17,7.9,17,16.7c0,7.9-6.5,14.2-15,14.5c-9.1,0-16.7-7.4-16.7-16.7
			C788.8,146.8,795,140.6,803.5,140.6L803.5,140.6z"/>
		<path id="path872" class="st1" d="M986.7,323.7c-0.3,9.1-6,14.7-14.5,14.7c-9.4-0.3-16.4-7.7-16.4-17c0.3-8.8,6.2-15,14.5-15
			C979.3,306.7,986.9,314.6,986.7,323.7L986.7,323.7z"/>
		<path id="path874" class="st1" d="M972.2,792.5c8.5-0.3,14.2,5.7,14.5,14.7c0.3,9.1-7.4,17-16.4,17.3c-7.9,0.3-14.2-6.2-14.5-15
			C955.8,800.5,963.1,792.8,972.2,792.5L972.2,792.5z"/>
		<path id="path876" class="st1" d="M151.3,307.2c9.1,0,17,7.7,17,16.7c0,7.9-6.5,13.9-15.3,13.9c-9.4,0-16.7-7.4-16.7-16.7
			C136.3,313.2,142.2,307.2,151.3,307.2L151.3,307.2z"/>
		<path id="path880" class="st1" d="M117.3,684.2c-0.3,9.1-7.9,16.7-17,17c-9.4,0-17.3-8.2-17-17.9c0.3-9.4,7.9-16.2,17.3-15.9
			C110.2,667.2,117.3,674.9,117.3,684.2z"/>
		<path id="path882" class="st1" d="M395.9,1005.1c0,9.4-7.1,17-16.4,17.3c-9.1,0-17-7.7-17.3-16.7c0-9.1,7.7-17,16.7-17
			C388.5,988.4,395.9,995.8,395.9,1005.1L395.9,1005.1z"/>
		<path id="path884" class="st1" d="M138.5,747.7c0,9.1-7.9,17-17,17s-17-7.9-17-17c0-9.4,7.4-16.7,17-16.7
			C130.9,731,138.5,738.4,138.5,747.7z"/>
		<path id="path886" class="st1" d="M444.1,1043.7c-9.4,0.3-17-7.1-17-16.4c-0.3-9.4,7.1-17,16.4-17.3c9.1-0.3,17,7.4,17.3,16.7
			C460.8,1035.7,453.5,1043.7,444.1,1043.7L444.1,1043.7z"/>
		<path id="path888" class="st1" d="M334.1,973.9c0,9.4-7.1,16.7-16.4,17c-8.2,0.3-14.2-6-14.2-14.7c0-9.1,7.4-17,16.4-17.3
			C327.9,958.6,334.1,965.2,334.1,973.9z"/>
		<path id="path890" class="st1" d="M168,806.4c0.3,9.1-7.4,16.7-16.4,17c-8.8,0.3-15.3-5.4-15.3-13.6c-0.3-9.4,7.1-17,16.4-17
			C161.2,792.8,168,798.5,168,806.4z"/>
		<path id="path910" class="st1" d="M748.5,564.9c0,103.7-83.9,187.7-186.8,187.4c-104,0-187.4-83.9-187.1-188.2
			c0-102.9,84.8-186.2,188.5-186C664.9,378.7,748.8,462.9,748.5,564.9z M714.5,565.5C714.2,481,645.6,412.4,562,412.4
			c-85.3,0-153.9,68.6-153.6,154.2c0.3,84.2,69.7,152.5,154.8,151.9C646.5,718,714.8,648.8,714.5,565.5z"/>
		<path id="path914" class="st1" d="M579.3,650.8c-1.7,26.4-5.4,34-17,33.4c-22.1-1.4-16.7-19.3-18.1-33.7c-10.8,0-21,0-31.2,0
			c-11.9-0.3-19.3-6.8-19.3-16.7c-0.3-10.2,7.4-17.3,19.8-17.3c20.4-0.3,41.1,0,61.5,0c12.8,0,20.1-6.2,20.4-16.4
			c0.3-10.5-7.7-17.3-20.7-17.3c-9.1,0-18.4,0-27.5,0c-28.9-0.3-51.3-19.8-53.6-47.1c-2-27.5,16.7-50.2,45.4-55
			c1.7-0.3,3.4-0.6,4.8-0.6c2.8-27.2,6.2-33.4,17.6-33.4c11.9,0,15.6,6.5,17.9,34c9.9,0,20.1,0,30.3,0c12.5,0.3,20.1,6.8,19.8,17
			c0,10.2-7.7,16.7-20.1,16.7c-20.1,0-40.3,0-60.7,0c-13.3,0-21.3,6.5-21,17c0,10.5,7.9,16.7,21.3,17c9.1,0,18.4,0,27.5,0
			c28.3,0.3,50.5,19.6,53,46.5c2.6,27.2-16.2,50.5-44.8,55.3C583,650.5,581.3,650.5,579.3,650.8L579.3,650.8z"/>
		<path id="path860-8" class="st1" d="M681.9,117c-9.4-0.3-16.4-7.9-16.4-17.3c0.3-9.4,7.7-16.7,17-16.7c9.1,0.3,17,8.2,16.7,17.3
			C699.2,109.4,691,117.3,681.9,117z"/>
	</g>
</g>
</svg>
