<?xml version="1.0" encoding="utf-8"?>
<!-- Generator: Adobe Illustrator 23.0.2, SVG Export Plug-In . SVG Version: 6.00 Build 0)  -->
<svg version="1.1"
	 id="svg8" inkscape:version="1.0.1 (3bc2e813f5, 2020-09-07)" sodipodi:docname="Portefeuille.svg" xmlns:cc="http://creativecommons.org/ns#" xmlns:dc="http://purl.org/dc/elements/1.1/" xmlns:inkscape="http://www.inkscape.org/namespaces/inkscape" xmlns:rdf="http://www.w3.org/1999/02/22-rdf-syntax-ns#" xmlns:sodipodi="http://sodipodi.sourceforge.net/DTD/sodipodi-0.dtd" xmlns:svg="http://www.w3.org/2000/svg"
	 xmlns="http://www.w3.org/2000/svg" xmlns:xlink="http://www.w3.org/1999/xlink" x="0px" y="0px" viewBox="0 0 367.8 367.7"
	 style="enable-background:new 0 0 367.8 367.7;" xml:space="preserve">
<style type="text/css">
	.st0{fill:#6a7187;}
	.st1{fill:#6a7187;}
</style>
<sodipodi:namedview  bordercolor="#666666" borderopacity="1.0" id="base" inkscape:current-layer="g876" inkscape:cx="420.50675" inkscape:cy="457.47542" inkscape:document-rotation="0" inkscape:document-units="mm" inkscape:pageopacity="0.0" inkscape:pageshadow="2" inkscape:window-height="1017" inkscape:window-maximized="1" inkscape:window-width="1920" inkscape:window-x="-8" inkscape:window-y="-8" inkscape:zoom="0.98994949" pagecolor="#ffffff" showgrid="false">
	</sodipodi:namedview>
<g id="layer1" inkscape:groupmode="layer" inkscape:label="Calque 1">
	<g id="g876" transform="matrix(0.33783784,0,0,0.33783784,1.5347482,-1.4462686)">
		<path id="path840" class="st0" d="M535.5,4.3c15.3,5.1,26.4,15.9,37.1,27.2c38.6,41.7,77.4,83.1,115.9,124.4
			c10.2,10.8,15.6,23.2,15.3,38.3c-0.3,25.8,0,51.6,0,77.7c0,13.3-6.5,21.3-17,21s-17-8.2-17-21.5c0-21.3,0-42.2,0-64.6
			c-10.2,0-19.3,0-28.6,0c-21.8,0-43.9,0.3-65.8-0.3c-35.1-1.1-62.9-29.2-63.2-64.3c-0.3-34,0-68,0-103.7c-4.3,0-7.9,0-11.6,0
			c-149.1,0-298.2,0-447.6,0c-18.1,0-23.5,5.4-23.5,23.2c0,280.6,0,561.3,0,841.9c0,18.1,5.4,23.5,23.2,23.5c42.8,0,85.6,0,128.7,0
			c11.6,0,18.7,7.1,18.4,17.3c-0.3,9.9-7.1,16.2-18.1,16.7c-2.6,0-4.8,0-7.4,0c-38,0-76-1.1-113.7,0.3c-32,1.1-54.1-9.9-65.2-40.5
			c0-292,0-583.9,0-875.9C2.3,24.7,15.6,11.1,35.7,4.3C202.4,4.3,369.1,4.3,535.5,4.3L535.5,4.3z M645.4,172.7
			c-33.7-36.6-65.5-71.1-99.2-107.4c0,28.3-0.6,53.9,0.3,79.1c0.6,15,13,27.5,28.3,28.1C597.3,173.2,619.9,172.7,645.4,172.7z"/>
		<path id="path842" class="st1" d="M833.1,4.3c3.7,7.1,8.8,13.9,11.1,21.5c4.3,14.5,7.1,29.5,9.6,44.5c1.1,6.2,4.3,8.5,9.6,10.5
			c11.6,4.3,23.2,8.8,34.3,14.2c6,2.8,10.2,2.6,15.3-1.1c13.6-9.4,27.8-18.4,41.7-27.5c10.2-6.5,17-6,25.8,2.6
			c13,12.8,26.1,26.1,39.1,39.1c7.4,7.4,7.7,15.6,2.3,24.1c-9.4,14.2-18.1,28.6-28.1,42.5c-3.7,5.4-4,9.4-1.1,15.3
			c5.7,11.3,9.4,23.5,15,35.1c1.7,3.4,5.4,7.4,9.1,8.2c16.4,4.3,33.2,7.4,49.6,10.8c13,2.8,17.3,7.9,17.3,21.3c0,17.6,0,35.4,0,53
			c0,10.8-4.8,17.3-15.6,19.6c-16.7,3.4-33.2,7.1-49.9,10.5c-6.2,1.1-9.1,3.7-11.6,9.9c-6.5,16.7-14.2,33.2-22.4,49
			c-5.4,10.5-15.6,12.8-24.1,7.7c-8.8-5.4-9.6-14.2-4.8-25.2c8.2-18.1,16.2-36.9,23-55.6c3.4-9.1,8.2-14.2,17.6-15.9
			c17.6-3.4,35.1-7.4,53.3-11.1c0-10.8,0-21,0-32c-17.9-4-35.7-8.2-53.6-11.3c-10.2-2-14.5-7.9-17.9-17
			c-6.5-17.9-13.6-35.4-21.8-52.7c-4.3-9.1-5.1-16.4,0.6-24.7c10.2-15,19.8-30,30-45.6c-7.7-7.7-15-15-23-22.7
			c-15,9.9-30.3,19.6-45.4,29.8c-8.2,5.7-15.6,5.1-24.7,0.9c-17.6-8.5-35.4-15.6-53.6-22.4c-8.8-3.1-14.5-7.7-16.2-17.3
			c-3.4-17.9-7.7-35.7-11.6-53.9c-11.1,0-21.3,0-32,0c-3.7,17.9-7.4,35.4-11.1,53c-2.8,13-10.2,19-21,17c-9.9-2-15-10.8-12.5-23.2
			c4.3-20.7,8.2-41.7,13.6-62.1c1.7-6.8,7.7-12.8,11.6-19C784.9,4.3,809,4.3,833.1,4.3L833.1,4.3z"/>
		<path id="path846" class="st0" d="M860.6,469.7c5.4,0,9.1,0,13,0c44.2,0,88.4,0,132.9,0c45.9,0,77.4,31.5,77.7,77.4
			c0,155.9,0,311.8,0,467.7c0,46.2-31.7,78-78.2,78c-230.2,0-460.6,0-690.8,0c-48.8,0-79.9-30.9-79.9-79.4c-0.3-99.5,0-199,0-298.8
			c0-55.3,0-110.6,0-165.8c0-49,30.9-79.4,79.9-79.4c43.7,0,87,0,130.7,0c4,0,7.7,0,12.5,0c0.3-4.5,0.6-8.5,0.6-12.2
			c0-23.2-0.3-46.8,0-70c0.6-34.6,25.2-59.5,60.1-59.8c93.8-0.3,187.7-0.3,281.8,0c34.9,0,60.1,25.8,60.4,60.7
			C860.9,415,860.6,441.4,860.6,469.7L860.6,469.7z M1049.9,711.5c-12.2,4.3-23.2,9.1-34.9,11.3c-54.4,11.1-109.1,21.3-163.6,31.7
			c-34.3,6.5-68.6,13-103.5,19.8c0,10.2,0.6,19.8-0.3,29.2c-0.9,10.5-1.7,21.3-4.8,31.2c-13,40.3-54.4,65.5-95.5,59.5
			c-42.5-6.2-74.6-41.7-76-84.2c-0.3-11.9,0-23.8,0-36c-5.1-1.1-8.8-2-12.8-2.8c-72.6-13.9-145.4-27.5-218-41.7
			c-23.8-4.5-47.6-10.8-71.7-16.4c0,0.3-0.3,2-0.3,3.7c0,99.5-0.3,199,0,298.8c0,26.6,16.7,42.8,43.7,42.8c231,0,462,0,693.1,0
			c27.8,0,44.2-16.4,44.5-44.2c0-38.3,0-76.5,0-114.8C1049.9,837.1,1049.9,774.5,1049.9,711.5z M569.5,739.3
			c0.9-1.7,1.4-2.3,1.4-2.8c0-16.7,0.3-33.2,0.3-49.9c0.3-23.2,12.8-36,36.3-36c34,0,68,0,102,0c26.1,0,38.6,12.2,38.6,38.3
			c0,17,0,33.7,0,50.7c2.3,0,3.4,0.3,4.3,0c69.7-13.3,139.7-26.6,209.5-40.3c20.4-4,41.1-7.9,60.9-14.2c18.7-6,28.1-19.8,27.5-40.5
			c-0.6-30.9-0.3-61.5-0.3-92.4c0-33.7-14.7-48.5-48.5-48.5c-87,0-174.3,0-261.4,0c-139.2,0-278.4,0-417.5,0c-4.8,0-9.9,0-14.7,0.3
			c-21.3,1.1-38,16.4-38.3,38c-0.9,36.6,0,72.9,0,109.4c0,13.6,6.5,23.2,17.6,29.5c8.8,4.8,18.7,8.5,28.6,10.5
			c61.8,12.2,123.6,23.8,185.7,35.4C524.1,730.8,546.8,735.1,569.5,739.3L569.5,739.3z M826.9,468.3c0-25.2,0-49.6,0-74
			c0-24.1-8.5-32.9-32.3-32.9c-59.8,0-119.6,0-179.4,0c-31.5,0-62.9,0-94.4,0c-15.3,0-26.6,8.2-27.2,21.3
			c-0.9,28.3-0.3,56.4-0.3,85.6c12.5,0,24.1,0,37.4,0c0-23.8,0-47.1,0-70.3c86.7,0,172.3,0,258.5,0c0,23.8,0,46.5,0,70.3
			C801.6,468.3,813.8,468.3,826.9,468.3z M605.8,684.9c0,43.7,0,86.2,0,128.4c0,2.6,0.6,4.8,1.4,7.4c7.1,26.6,32,43.7,59.5,40.3
			c26.4-3.1,47.1-26.1,47.3-54.1c0.3-38.8,0-78,0-116.8c0-1.7-0.6-3.4-0.9-5.1C677.2,684.9,642,684.9,605.8,684.9L605.8,684.9z
			 M754,431.7c-63.5,0-125.9,0-189.1,0c0,12.8,0,24.9,0,37.4c63.5,0,125.9,0,189.1,0C754,456.7,754,444.8,754,431.7z"/>
		<path id="path848" sodipodi:nodetypes="cscccccc" class="st1" d="M901.1,358.3c-9.4-4-12.2-13.3-7.7-25.2
			c24.9-65.5-11.6-132.7-79.4-145.1c-5.7-1.1-11.3-0.9-17-1.4c-11.9-1.4-18.1-8.2-17.6-18.4c0.6-9.6,7.7-15.3,19-15.3
			c74.3-0.9,137.9,62.7,137.9,139C936.8,305.4,925.2,368.1,901.1,358.3L901.1,358.3z"/>
		<path id="path850" class="st1" d="M310.7,233.6c38,0,75.7,0,113.7,0c13.6,0,21.5,6,21.5,16.4c0.3,10.5-8.2,17.6-22.1,17.6
			c-76,0-152.2,0-228.2,0c-13.9,0-22.7-8.2-21-19.3c1.4-9.1,8.2-14.5,19-14.5C232.7,233.6,271.6,233.6,310.7,233.6L310.7,233.6z"/>
		<path id="path852" class="st1" d="M310.1,156.2c37.1,0,74.3,0,111.4,0c4.3,0,9.6-0.9,12.5,1.4c4.8,4.3,11.1,10.5,11.1,15.9
			c0,5.4-6.5,11.6-11.6,15.3c-3.1,2.3-8.8,1.1-13.3,1.1c-73.1,0-146.6,0-219.7,0c-17.3,0-25.5-5.4-25.8-16.7
			c-0.3-11.6,8.5-17.3,26.4-17.3C237.3,156.2,273.8,156.2,310.1,156.2L310.1,156.2z"/>
		<path id="path854" class="st1" d="M254.5,344.4c-19.8,0-39.7,0-59.5,0c-12.5,0-20.1-6.5-20.4-16.7c0-10.2,7.7-17.3,20.1-17.3
			c39.7,0,79.4,0,119.1,0c12.8,0,20.1,6.2,20.1,16.7c0,10.5-7.1,17-19.8,17C294.2,344.7,274.4,344.4,254.5,344.4z"/>
		<path id="path860" class="st1" d="M105.2,156.2c14.5,0.3,22.1,6.2,22.1,17c0,11.1-7.9,17-23.2,17c-15,0-23.2-6-23.5-17
			C80.8,162.2,89.3,156.2,105.2,156.2z"/>
		<path id="path874" class="st0" d="M642.3,804.8c0-9.1,7.7-16.7,17-16.7c9.4,0,16.7,7.4,16.7,16.7c0,9.4-7.4,16.7-16.7,16.7
			C650.3,821.5,642.3,813.9,642.3,804.8z"/>
		<path id="path860-9" class="st1" d="M105.2,233.6c14.5,0.3,22.1,6.2,22.1,17c0,11.1-7.9,17-23.2,17c-15,0-23.2-6-23.5-17
			C80.8,239.6,89.3,233.6,105.2,233.6z"/>
		<path id="path860-9-6-2" class="st1" d="M105.2,310.4c14.5,0.3,22.1,6.2,22.1,17c0,11.1-7.9,17-23.2,17c-15,0-23.2-6-23.5-17
			C80.8,316.4,89.3,310.4,105.2,310.4z"/>
	</g>
</g>
</svg>
