<?xml version="1.0" encoding="utf-8"?>
<!-- Generator: Adobe Illustrator 23.0.2, SVG Export Plug-In . SVG Version: 6.00 Build 0)  -->
<svg version="1.1"
	 id="svg8" inkscape:version="1.0.1 (3bc2e813f5, 2020-09-07)" sodipodi:docname="Reporting.svg" xmlns:cc="http://creativecommons.org/ns#" xmlns:dc="http://purl.org/dc/elements/1.1/" xmlns:inkscape="http://www.inkscape.org/namespaces/inkscape" xmlns:rdf="http://www.w3.org/1999/02/22-rdf-syntax-ns#" xmlns:sodipodi="http://sodipodi.sourceforge.net/DTD/sodipodi-0.dtd" xmlns:svg="http://www.w3.org/2000/svg"
	 xmlns="http://www.w3.org/2000/svg" xmlns:xlink="http://www.w3.org/1999/xlink" x="0px" y="0px" viewBox="0 0 368.4 370.1"
	 style="enable-background:new 0 0 368.4 370.1;" xml:space="preserve">
<style type="text/css">
	.st0{fill:#6a7187;}
	.st1{fill:#6a7187;}
</style>
<sodipodi:namedview  bordercolor="#666666" borderopacity="1.0" id="base" inkscape:current-layer="layer1" inkscape:cx="400" inkscape:cy="560" inkscape:document-rotation="0" inkscape:document-units="mm" inkscape:pageopacity="0.0" inkscape:pageshadow="2" inkscape:window-height="1017" inkscape:window-maximized="1" inkscape:window-width="1920" inkscape:window-x="-8" inkscape:window-y="-8" inkscape:zoom="0.35" pagecolor="#ffffff" showgrid="false">
	</sodipodi:namedview>
<g id="layer1" inkscape:groupmode="layer" inkscape:label="Calque 1">
	<g id="Calque_1-2" transform="matrix(1.1483085,0,0,1.2999969,40,80)">
		<path id="path1440" class="st0" d="M99.8-53.7c1.8,0,3.3-1.8,3.3-3.9c0-2.2-1.5-3.9-3.3-3.9c0,0,0,0,0,0H18.5
			c-1.8,0-3.3,1.8-3.3,3.9c0,2.2,1.5,3.9,3.3,3.9c0,0,0,0,0,0H99.8z"/>
		<path id="path1442" class="st0" d="M-11.9-26.8c0,2.2,1.5,3.9,3.3,3.9l0,0h136c1.8,0,3.3-1.8,3.3-3.9c0-2.2-1.5-3.9-3.3-3.9h-136
			C-10.4-30.7-11.9-29-11.9-26.8z"/>
		<path id="path1444" class="st0" d="M-4.2,112.5c-14.3,0-25.9,13.7-26,30.6v78.8h52v-78.8C21.8,126.2,10.1,112.5-4.2,112.5
			C-4.2,112.5-4.2,112.5-4.2,112.5z M15.1,214h-38.6v-70.9c0-12.6,8.7-22.8,19.3-22.8c10.7,0,19.4,10.2,19.4,22.8c0,0,0,0,0,0
			L15.1,214z"/>
		<path id="path1446" class="st0" d="M59.2,147.3c-14.3,0-26,13.7-26,30.7v43.8h51.9V178C85.1,161.1,73.5,147.3,59.2,147.3z
			 M78.5,214H39.8v-36c-0.4-12.6,7.9-23.3,18.6-23.8c10.7-0.5,19.7,9.3,20.2,21.9c0,0.6,0,1.3,0,1.9V214z"/>
		<path id="path1448" class="st0" d="M196.8,112.5c-14.3,0-25.9,13.7-26,30.6v78.8h51.9v-78.8C222.7,126.3,211.1,112.6,196.8,112.5z
			 M216,214h-38.6v-70.9c0-12.6,8.7-22.8,19.4-22.8c10.7,0,19.3,10.2,19.3,22.8L216,214z"/>
		<path id="path1450" class="st0" d="M260.1,147.3c-14.3,0-26,13.7-26,30.7v43.8h52V178C286.1,161.1,274.4,147.3,260.1,147.3
			L260.1,147.3z M279.4,214h-38.7v-36c-0.4-12.6,7.9-23.3,18.6-23.8c10.7-0.5,19.7,9.3,20.2,21.9c0,0.6,0,1.3,0,1.9L279.4,214z"/>
		<path id="path1452" class="st0" d="M124.5,72.6c-14.3,0-25.9,13.7-26,30.6v118.6h52V103.2C150.5,86.3,138.9,72.6,124.5,72.6z
			 M143.9,214h-38.7V103.2c0.4-12.6,9.5-22.4,20.2-21.9c10.1,0.5,18.1,10,18.6,21.9L143.9,214z"/>
		<path id="path1454" class="st1" d="M239.4-50.1c-1.8,0-3.3,1.8-3.3,3.9c0,2.2,1.5,3.9,3.3,3.9h19l-45.7,58.6L186-26.8l-46.7,62
			L113.7,1.7L53.7,88.9L32.5,47.7L15.8,68.8L-4.8,26.6l-29.1,34.3c-1.3,1.5-1.3,4,0,5.5c1.3,1.5,3.4,1.5,4.7,0l23-27.2l20.9,42.6
			l16.7-21.3L53,102.4l61-88.7l25.4,33l46.1-61.1l26.5,43l50.1-63.9v19.7c0,2.2,1.5,3.9,3.3,3.9c1.8,0,3.3-1.8,3.3-3.9v-34.5H239.4z
			"/>
	</g>
</g>
</svg>
