<?xml version="1.0" encoding="utf-8"?>
<!-- Generator: Adobe Illustrator 23.0.2, SVG Export Plug-In . SVG Version: 6.00 Build 0)  -->
<svg version="1.1"
	 id="svg8" inkscape:version="1.0.1 (3bc2e813f5, 2020-09-07)" sodipodi:docname="Référentiel.svg" xmlns:cc="http://creativecommons.org/ns#" xmlns:dc="http://purl.org/dc/elements/1.1/" xmlns:inkscape="http://www.inkscape.org/namespaces/inkscape" xmlns:rdf="http://www.w3.org/1999/02/22-rdf-syntax-ns#" xmlns:sodipodi="http://sodipodi.sourceforge.net/DTD/sodipodi-0.dtd" xmlns:svg="http://www.w3.org/2000/svg"
	 xmlns="http://www.w3.org/2000/svg" xmlns:xlink="http://www.w3.org/1999/xlink" x="0px" y="0px" viewBox="0 0 363.1 368"
	 style="enable-background:new 0 0 363.1 368;" xml:space="preserve">
<style type="text/css">
	.st0{fill:#6a7187;}
	.st1{fill:#6a7187;}
</style>
<sodipodi:namedview  bordercolor="#666666" borderopacity="1.0" id="base" inkscape:current-layer="g860" inkscape:cx="255.62296" inkscape:cy="606.04525" inkscape:document-rotation="0" inkscape:document-units="mm" inkscape:pageopacity="0.0" inkscape:pageshadow="2" inkscape:window-height="1017" inkscape:window-maximized="1" inkscape:window-width="1920" inkscape:window-x="-8" inkscape:window-y="-8" inkscape:zoom="0.7" pagecolor="#ffffff" showgrid="false">
	</sodipodi:namedview>
<g id="layer1" inkscape:groupmode="layer" inkscape:label="Calque 1">
	<g id="g860" transform="matrix(0.35211268,0,0,0.35211268,-16.623995,-1.3690492)">
		<path id="path840" class="st0" d="M509.5,3.9c17,1.4,33.7,2.6,50.7,4C634,14.1,706.6,25.1,776,52.6c2.8,1.1,6,2,8.5,3.7
			c11.9,8.8,21.3,4,29.8-5.1c5.7-6,11.1-11.9,17-17.6c12.5-12.2,31.7-13.3,42.8-0.3c43.4,51.3,99.5,55.6,160.2,44.8
			c7.7-1.4,16.4-1.7,24.1,0.3c13.3,3.7,19.8,15.9,19.8,33.2c0,62.4,0,124.4,0,186.8c0,12.5-0.9,25.2,0,37.7
			c2.6,36-10.8,65.8-34,92.1c-7.7,8.5-15.9,16.7-24.4,24.7c-7.9,7.4-16.4,7.4-22.7,0.9c-6.5-6.5-5.4-15.3,2-23.2
			c11.3-12.2,23-24.1,33.2-37.1c10.8-13.6,15.3-30,15-47.6c-0.3-17.6,0-35.1,0-53.3c-29.8,0-58.7,0-88.4,0c-0.6,2-1.4,4.5-2,7.1
			c-11.1,43.7-38.6,70.6-81.9,81.6c-5.7,1.4-7.9,3.4-7.7,9.4c0.3,39.4,0,78.8,0,118.2c0,1.4,0.3,2.6,0.6,5.1
			c3.7-1.7,7.1-2.8,10.2-4.5c20.1-11.3,40.3-22.7,60.4-34c11.1-6.2,19.8-5.4,24.9,2.8c5.1,8.2,2.3,17-9.1,23.2
			c-26.9,15-54.4,29.2-81.4,43.9c-2.6,1.4-4.5,5.7-4.5,8.5c-0.3,20.4-0.3,40.8-0.3,61.2c0,3.1,0,6.2-0.6,9.1
			c-2,7.9-7.4,12.5-15.3,12.2c-8.5-0.6-13.9-5.4-14.5-14.2c-0.3-12.5,0-25.2,0-38c-1.4,0-2.6-0.3-3.4,0
			c-41.1,30.6-88.7,45.4-137.5,56.4c-93,21.3-187.7,26.6-282.6,23.5c-68-2.3-135.5-9.4-201.8-25.2c-47.1-11.3-93-26.1-134.6-56.7
			c0,5.4,0,8.8,0,12.2c0,38.6,0.3,76.8-0.3,115.4c-0.3,15.6,5.4,27.5,16.7,37.4c23,19.8,50.2,30.9,78.2,40.3
			c59.5,20.1,121.3,30.9,183.7,34.3c57,3.1,114.2,4.3,171.2,2c79.1-2.8,157-14.2,231.6-42.5c18.7-7.1,36.9-17.6,54.1-28.1
			s27.2-26.4,24.7-47.9c-0.6-4.8-0.3-9.6,0.3-14.2c0.9-7.9,5.7-12.5,13-13.3c8.2-0.9,13.9,2.8,16.2,10.8c1.1,4,1.1,7.9,1.1,12.2
			c0,66.3-0.6,132.7,0.3,199c0.3,28.1-10.5,49-31.7,66c-30,24.1-65.2,37.4-101.5,48.2c-68.9,20.4-139.5,28.9-210.9,33.2
			c-70,4-140,2-209.8-6.5c-68.3-8.2-135.8-20.7-198.4-50.7c-19.3-9.4-37.4-20.7-51.9-37.1c-11.3-13-17.3-28.1-17.3-45.6
			c0-252.9,0-506,0-758.8c0-24.1,10.5-42.5,27.8-57.5c24.9-21.5,54.4-34.3,85-44.8c64.6-21.5,131.2-31.5,198.7-37.1
			c17-1.4,33.7-2.8,50.7-4C442.9,3.9,476.1,3.9,509.5,3.9L509.5,3.9z M78.4,774.9c-0.3,4.3-0.6,7.4-0.6,10.8
			c0,39.1,0.3,78.2-0.3,117.4c0,13.6,3.7,25.5,14.5,33.2c15.9,11.3,32.3,23,49.9,30.6c78.2,33.7,161.6,43.7,245.5,49
			c70.3,4.5,140.6,2.3,210.6-6.2c55-6.5,109.7-16.2,161.3-37.1c21.5-8.8,41.4-21.3,60.9-34c12.5-8.2,17.6-21.5,17.3-37.1
			c-0.6-38.6-0.3-76.8-0.3-115.4c0-3.4,0-7.1,0-9.6c-21.3,10.8-40.5,22.7-61.5,30.9C706,835.6,632.3,846.1,558,852
			c-107.1,8.2-214,4.5-319.7-16.2c-45.1-8.8-89.3-21-130.1-42.8C98.5,788.2,88.9,781.7,78.4,774.9L78.4,774.9z M78.4,390.5
			c-0.3,4.8-0.6,8.2-0.6,11.3c0,39.1,0.3,78.2-0.3,117.4c-0.3,13.9,4,26.1,15,34c15.3,11.1,31.2,22.1,48.2,29.8
			c52.2,23.2,107.7,34.6,164.1,41.7c129.8,16.4,259.1,13,387.2-14.7c38.6-8.5,76.3-19.6,110.3-40.8c9.9-6.2,18.7-14.7,29.5-23.2
			c-4.3-2-5.7-2.8-7.1-3.4c-47.3-23.5-93-49.3-133.2-84.2c-6.2-5.4-11.6-6.2-19.3-4.8c-24.1,4.3-48.2,8.8-72.3,11.6
			c-70.6,8.5-141.7,10.5-212.6,6.2c-68-4-135.2-12.5-201-31.2C148.4,429.4,111.6,415.5,78.4,390.5L78.4,390.5z M757.9,78.7
			c-7.1-2.6-11.1-4.3-15.3-5.7c-67.7-22.4-137.5-32-208.1-36.3c-87-5.4-174-2.6-260.2,11.9c-49,8.2-97.5,19.3-142.3,41.1
			c-14.5,7.1-28.3,16.2-40.5,26.9c-18.4,16.4-18.7,35.4-0.3,51.9c11.6,10.5,25.5,19.6,39.7,26.4c59.5,28.1,123.3,39.4,187.7,47.3
			c79.1,9.9,158.7,11.1,238.1,4.3c23.5-2,47.1-5.1,70.9-7.7c0-5.4,0-9.1,0-12.8c0-39.4-0.3-78.8,0-118.2c0-21,15.9-34,36.6-30.9
			c6.5,0.9,12.8,2.6,19,3.4C707.1,84.1,731.2,85,757.9,78.7L757.9,78.7z M627.7,270.1c-19.6,2-37.7,4.3-55.8,5.7
			c-111.7,9.6-222.5,6.5-332.8-14.7C183,249.9,128,234.9,80.7,200.6c-0.3-0.3-1.1,0.3-2,0.3c-0.3,0.9-0.9,1.7-0.9,2.8
			c0,43.1-0.9,86.5,0.6,129.5c0.3,9.1,6.2,19.3,12.2,26.6c5.7,7.4,13.9,13.6,22.4,17.3c26.9,11.9,53.6,25.2,81.9,32.9
			c140,38,282.3,41.1,425.5,21.5c12.2-1.7,24.4-4,38-6.2c-17.3-22.7-30.3-45.1-30.3-72.6c0-19,0-38,0-57
			C627.7,287.1,627.7,278.6,627.7,270.1L627.7,270.1z M658.4,291.9c0,15,1.1,28.9-0.3,42.8c-3.1,33.2,11.1,58.4,33.2,81.1
			c40.8,41.4,90.1,70.6,141.7,96.4c0.9,0.3,2,0,2.8,0c0.3-0.9,0.9-1.4,0.9-2c0-40.5,0.3-80.8,0-121.3c0-2.6-4-6.5-6.8-7.1
			c-33.7-8.5-58.7-27.8-74-59c-4.8-9.6-7.4-20.1-11.1-30.6C716.5,291.9,687.8,291.9,658.4,291.9L658.4,291.9z M868.4,72.8
			c-0.6,2.8-0.9,4.3-0.9,5.4c0,28.1,0,56.4-0.3,84.5c0,6.5,3.4,7.7,8.5,8.8c31.7,7.4,55.8,25.8,71.1,54.7
			c5.7,10.8,8.8,22.7,13.3,34.3c28.3,0,57.3,0,86.5,0c0-51,0-101.5,0-152.8C982.4,119.8,922,117.3,868.4,72.8L868.4,72.8z
			 M659.2,107.4c0,51.6,0,102.3,0,152.8c29.2,0,57.8,0,85.9,0c10.8-47.6,38-78.2,85.9-89.9c2.6-0.6,5.4-6.2,5.4-9.6
			c0.6-24.7,0.3-49.6,0.3-74.6c0-4,0-7.7,0-13.6C782.2,117.6,722.1,120.1,659.2,107.4L659.2,107.4z M851.7,199.5
			c-42.2,0.3-76.5,34.3-76.5,76.5s34.9,77.1,77.4,76.8c42,0,76.5-34.6,76.5-76.5C929.4,234.1,894.5,199.2,851.7,199.5z"/>
		<path id="path858" class="st1" d="M844.9,285.4c10.8-11.3,19.8-21.3,29.5-30.9c8.2-8.5,17.6-9.1,24.1-2c6.5,6.8,5.7,15-2.3,23.2
			c-12.8,12.8-25.2,25.5-38.3,38.3c-9.1,8.8-16.4,8.8-25.5,0c-7.9-7.9-16.2-15.6-23.8-23.8c-7.1-7.4-7.4-16.2-0.9-22.7
			c6.5-6.2,15-6,22.7,1.4C835,273.5,839.2,279.1,844.9,285.4L844.9,285.4z"/>
	</g>
</g>
</svg>
