<?xml version="1.0" encoding="utf-8"?>
<!-- Generator: Adobe Illustrator 23.0.2, SVG Export Plug-In . SVG Version: 6.00 Build 0)  -->
<svg version="1.1"
	 id="svg8" inkscape:version="1.0.1 (3bc2e813f5, 2020-09-07)" sodipodi:docname="SWIFT.svg" xmlns:cc="http://creativecommons.org/ns#" xmlns:dc="http://purl.org/dc/elements/1.1/" xmlns:inkscape="http://www.inkscape.org/namespaces/inkscape" xmlns:rdf="http://www.w3.org/1999/02/22-rdf-syntax-ns#" xmlns:sodipodi="http://sodipodi.sourceforge.net/DTD/sodipodi-0.dtd" xmlns:svg="http://www.w3.org/2000/svg"
	 xmlns="http://www.w3.org/2000/svg" xmlns:xlink="http://www.w3.org/1999/xlink" x="0px" y="0px" viewBox="0 0 368.5 368.5"
	 style="enable-background:new 0 0 368.5 368.5;" xml:space="preserve">
<style type="text/css">
	.st0{fill:#6a7187;}
	.st1{fill:#6a7187;}
</style>
<sodipodi:namedview  bordercolor="#666666" borderopacity="1.0" id="base" inkscape:current-layer="layer1" inkscape:cx="400" inkscape:cy="560" inkscape:document-rotation="0" inkscape:document-units="mm" inkscape:pageopacity="0.0" inkscape:pageshadow="2" inkscape:window-height="1017" inkscape:window-maximized="1" inkscape:window-width="1920" inkscape:window-x="-8" inkscape:window-y="-8" inkscape:zoom="0.35" pagecolor="#ffffff" showgrid="false">
	</sodipodi:namedview>
<g id="layer1" inkscape:groupmode="layer" inkscape:label="Calque 1">
	<path id="path959" class="st0" d="M324.8,58L324.8,58c-34.9-35.5-83-56.4-134-58H187h-2.9h-2.9h-3.9C126.4,1.7,78.4,22.4,43.5,57.8
		l0,0l0,0C23.7,78,8.8,102.1,0,128.5h14c7.8-21.8,20-41.9,36.1-59c16.5,10.2,34.1,18.5,52.7,24.7c-4.8,11.1-8.7,22.5-11.6,34.1H105
		c2.8-10.3,6.3-20.4,10.5-30.2c20.1,5.5,40.9,8.6,61.8,9.1v21.1h13.3v-21.1c21-0.5,41.8-3.6,62-9.1c4.3,9.8,7.8,19.9,10.6,30.2H277
		c-2.9-11.6-6.8-23.1-11.6-34.1c18.5-6.2,36.2-14.5,52.6-24.7c16.1,17.1,28.4,37.2,36.2,59h14C359.5,102.2,344.7,78.1,324.8,58
		L324.8,58z M108.1,82.9C91,77.3,74.7,69.7,59.5,60.5C87.1,35,122.6,18.7,160.6,13.9C138.9,33.7,121.1,57,108.1,82.9L108.1,82.9z
		 M177.4,94.9c-19.1-0.5-38-3.2-56.4-8.2c13.7-26.7,32.9-50.6,56.4-70.1L177.4,94.9z M190.7,94.9V16.5
		c23.5,19.5,42.7,43.4,56.4,70.1C228.8,91.6,209.9,94.4,190.7,94.9L190.7,94.9z M260.3,82.9c-13-25.8-30.8-49.2-52.5-68.9
		c38.1,4.8,73.5,21.1,101.1,46.6c-15.3,9.3-31.6,16.8-48.8,22.4L260.3,82.9z M354.5,239.7c-7.2,20-18.2,38.6-32.5,54.9
		c-16.8-10.9-35-19.7-54.1-26.3c3.7-9.3,6.9-18.9,9.3-28.6h-13.8c-2.2,8.4-4.9,16.6-8.2,24.7c-20.9-6-42.5-9.3-64.4-9.8v-14.8h-13.3
		v14.8c-21.8,0.5-43.4,3.8-64.3,9.8c-3.2-8-6-16.2-8.2-24.5H91.4c2.5,9.7,5.6,19.2,9.3,28.6c-19.1,6.6-37.3,15.4-54.1,26.3
		c-14.3-16.2-25.3-34.8-32.5-54.9H0c8.2,24.7,21.8,47.4,39.8,66.8c0.1,0.1,0.3,0.3,0.4,0.4c35,37.5,84.6,59.8,137.3,61.5h3.9h5.9
		h3.9l0,0c52.7-1.7,102.3-24,137.4-61.6c0,0,0.2,0,0.3-0.3c0.1-0.3,0,0,0,0c18-19.4,31.5-42.1,39.8-66.8L354.5,239.7z M55.7,304.1
		c15.7-9.9,32.5-18,50.2-24.1c13.1,28,31.8,53.3,55.1,74.4c-40.1-5-77.3-22.7-105.5-50.4L55.7,304.1z M177.6,352
		c-25.2-20.9-45.3-46.8-59.2-75.8c19.2-5.4,39.1-8.4,59.2-8.9V352z M190.9,352v-84.9c20.1,0.5,39.9,3.5,59.2,8.9
		c-13.9,29-34.1,54.9-59.3,75.7L190.9,352z M207.7,354.6c23.3-21.1,42-46.4,55.1-74.4c17.7,6,34.6,14.1,50.2,24.1
		c-28.2,27.6-65.4,45.3-105.5,50.2L207.7,354.6z"/>
	<path id="path961" class="st1" d="M69.9,211.7c-2.1,3.2-5.2,5.8-8.8,7.4c-4.4,2-9.2,2.9-14.1,2.8c-7.3,0.3-14.5-1.8-20.5-5.8
		c-5.4-3.8-8.6-9.8-8.8-16.2h19c0.1,2.4,1.2,4.6,3,6.3c1.8,1.6,4.1,2.4,6.5,2.3c2,0.1,3.9-0.5,5.4-1.8c1.3-1.3,2.1-3,2-4.8
		c0.1-1.7-0.6-3.3-1.8-4.5c-1.3-1.3-2.9-2.3-4.6-3c-1.8-0.8-4.3-1.7-7.5-2.8c-4-1.2-7.8-2.7-11.6-4.4c-3.1-1.5-5.7-3.7-7.7-6.4
		c-2.3-3.3-3.4-7.2-3.2-11.1c-0.1-3.9,1-7.8,3.3-11.1c2.3-3.1,5.6-5.6,9.3-7c4.3-1.7,8.9-2.5,13.6-2.4c7-0.4,14,1.6,19.6,5.6
		c4.9,3.8,7.9,9.4,8.2,15.4H52c-0.2-2.1-1.2-4-2.7-5.5c-1.6-1.4-3.7-2.2-5.8-2.1c-1.8-0.1-3.6,0.5-5.1,1.6c-1.4,1.2-2.1,3-1.9,4.7
		c0,1.6,0.6,3.1,1.7,4.2c1.2,1.2,2.7,2.2,4.4,2.8c1.7,0.7,4.2,1.7,7.7,2.8c4,1.3,7.8,2.8,11.6,4.5c3.1,1.6,5.7,3.8,7.7,6.6
		c2.3,3.3,3.4,7.1,3.2,11.1C72.9,204.7,71.9,208.4,69.9,211.7L69.9,211.7z"/>
	<path id="path963" class="st1" d="M187.7,150.6L170,221.3h-22.2L135.9,174l-12,47.3h-22.2l-17.7-70.7h19.3l9.5,51.2l13-51.2h19.5
		l13.3,51.1l9.7-51.2L187.7,150.6z"/>
	<path id="path965" class="st1" d="M219.3,150.6v70.7h-18v-70.7H219.3z"/>
	<path id="path967" class="st1" d="M284.2,150.6v13.6h-30.4v15.5h23.5v13h-23.5v28.6H236v-70.7H284.2z"/>
	<path id="path969" class="st1" d="M350.8,150.6v13.6h-20.1v57.1h-18v-57.1h-19.9v-13.6H350.8z"/>
</g>
</svg>
