<?xml version="1.0" encoding="utf-8"?>
<!-- Generator: Adobe Illustrator 18.1.1, SVG Export Plug-In . SVG Version: 6.00 Build 0)  -->
<svg version="1.1"
	 id="svg8" xmlns:dc="http://purl.org/dc/elements/1.1/" xmlns:cc="http://creativecommons.org/ns#" xmlns:rdf="http://www.w3.org/1999/02/22-rdf-syntax-ns#" xmlns:svg="http://www.w3.org/2000/svg" xmlns:sodipodi="http://sodipodi.sourceforge.net/DTD/sodipodi-0.dtd" xmlns:inkscape="http://www.inkscape.org/namespaces/inkscape" sodipodi:docname="A propos.svg" inkscape:version="1.0.1 (3bc2e813f5, 2020-09-07)"
	 xmlns="http://www.w3.org/2000/svg" xmlns:xlink="http://www.w3.org/1999/xlink" x="0px" y="0px" viewBox="99.4 62.2 258.6 258.6"
	 enable-background="new 99.4 62.2 258.6 258.6" xml:space="preserve">
<sodipodi:namedview  id="base" inkscape:cy="674.28571" inkscape:cx="400" inkscape:zoom="0.35" borderopacity="1.0" showgrid="false" bordercolor="#666666" pagecolor="#ffffff" inkscape:window-y="0" inkscape:window-x="52" inkscape:window-height="1032" inkscape:window-width="1438" inkscape:current-layer="layer1" inkscape:document-units="mm" inkscape:pageshadow="2" inkscape:pageopacity="0.0" inkscape:window-maximized="0" inkscape:document-rotation="0">
	</sodipodi:namedview>
<g id="layer1" inkscape:label="Calque 1" inkscape:groupmode="layer">
	<g id="layer1-7" transform="matrix(0.26458332,0,0,0.26458332,37.533065,30.73309)" inkscape:label="Calque 1">
		<g id="g860" transform="matrix(0.35211268,0,0,0.35211268,-16.623995,-1.3690492)">
			<g id="g856" transform="matrix(0.95970886,0,0,0.95970886,57.774339,-24.840895)">
				<path id="path840" fill="#797979" d="M3573.6,1826.9c1.7,794.6-646.9,1446.2-1443.1,1447.9
					c-801.1,1.7-1448.8-645.2-1449.6-1449.6c-1.7-789.7,647.7-1441.4,1438.3-1443.1C2923.4,381.5,3571.9,1025,3573.6,1826.9z
					 M2124.9,478.7c-744.1,0-1346.7,605.8-1346.7,1353.8c0,735.3,606.6,1345,1337.1,1345.9c755.4,0,1362.9-600.1,1362-1347.6
					C3477.3,1083.7,2872.1,478.7,2124.9,478.7z"/>
				<path id="path844" fill="#797979" d="M1886.2,1926.7c-120.5-14.5-194.5-92.4-192.8-199.3c1.7-100.3,83.6-184.8,184-187.1
					c87.6-2.6,175.2-2.6,261.9,0c123,4,226.5,106,228.2,229c2.6,261.1,2.6,522.4,0,783.5c-1.7,134.9-117.4,243.5-248.3,240.4
					c-130.1-3.1-232.2-110.8-233-246.6c-0.9-194.5,0-389.8,0-584.2C1886.2,1950.8,1886.2,1939.4,1886.2,1926.7L1886.2,1926.7z
					 M2272,2160.3c0-126.1,0.9-253.1,0-379.3c-0.9-77.1-58.7-141.4-134.1-143.7c-85-2.6-170.4-1.7-256.3,0
					c-52.2,0.9-92.4,45.1-91.6,96.4c0,49.9,40.3,91.6,89.9,95.5c17,0.9,33.7,0,51.3,0.9c32,1.7,49,19.3,51.3,51.3
					c0.9,8.8,0,17.6,0,27.2c0,214.6,0,430,0,644.3c0,69.2,44.2,123.9,110,140.6c61.8,15.3,126.1-12.2,156.8-72.3
					c12.8-25.8,21-57,21.8-85.9C2273.4,2409.4,2272,2285,2272,2160.3L2272,2160.3z"/>
				<path id="path846" fill="#797979" d="M874.5,1789.2c7.9-479.6,325.4-940.3,771.3-1116.9c53.9-21.8,109.4-38.6,164.7-55.6
					c39.4-12.2,65.2-0.9,74,28.9c8.8,29.8-8.8,53-50.7,64.3c-262.8,71.4-477.4,214.6-638.9,434.8
					c-144.6,196.2-217.7,417.8-224.2,661.3c0,4,0,7.9,0,12.2c-0.9,37.7-19.3,59.5-49,59.5c-29.8-0.9-47.3-22.4-47.3-60.9
					C874.5,1806.8,874.5,1798,874.5,1789.2z"/>
				<path id="path848" fill="#797979" d="M2127.1,960.6c131.8,0,240.9,106.9,241.8,237.8c0.9,134.9-107.7,244.3-241.8,244.3
					c-131.8,0-239.5-107.7-240.4-239.5C1886.2,1070.1,1993.9,961.5,2127.1,960.6z M2128,1057.9c-80.2,0-145.4,65.8-144.6,145.4
					c0.9,78.8,65.8,143.1,144.6,143.1c79.7,0,144.6-65.2,144.6-145.4C2272,1122.2,2205.9,1057,2128,1057.9z"/>
				<path id="path850" fill="#797979" d="M2086.3,671.5c-22.4,1.7-37.7,4-52.2,4c-29.8,0-49.9-17.6-51.3-43.4
					c-2.6-28.1,14.5-49,45.1-52.2c32.9-3.1,65.8-4,98.9-4c28.9,0,48.2,20.1,49,45.9c0.9,27.2-19.3,48.2-49,49.9
					C2110.4,672.4,2094.2,671.5,2086.3,671.5z"/>
			</g>
		</g>
	</g>
</g>
</svg>
