<?xml version="1.0" encoding="utf-8"?>
<!-- Generator: Adobe Illustrator 23.0.2, SVG Export Plug-In . SVG Version: 6.00 Build 0)  -->
<svg version="1.1"
	 id="svg8" inkscape:version="1.0.1 (3bc2e813f5, 2020-09-07)" sodipodi:docname="Site Web.svg" xmlns:cc="http://creativecommons.org/ns#" xmlns:dc="http://purl.org/dc/elements/1.1/" xmlns:inkscape="http://www.inkscape.org/namespaces/inkscape" xmlns:rdf="http://www.w3.org/1999/02/22-rdf-syntax-ns#" xmlns:sodipodi="http://sodipodi.sourceforge.net/DTD/sodipodi-0.dtd" xmlns:svg="http://www.w3.org/2000/svg"
	 xmlns="http://www.w3.org/2000/svg" xmlns:xlink="http://www.w3.org/1999/xlink" x="0px" y="0px" viewBox="0 0 368.4 368.5"
	 style="enable-background:new 0 0 368.4 368.5;" xml:space="preserve">
<style type="text/css">
	.st0{fill:#00A4E4;}
</style>
<sodipodi:namedview  bordercolor="#666666" borderopacity="1.0" id="base" inkscape:current-layer="g950" inkscape:cx="327.19934" inkscape:cy="370.2064" inkscape:document-rotation="0" inkscape:document-units="mm" inkscape:pageopacity="0.0" inkscape:pageshadow="2" inkscape:window-height="1017" inkscape:window-maximized="1" inkscape:window-width="1920" inkscape:window-x="-8" inkscape:window-y="-8" inkscape:zoom="0.98994949" pagecolor="#ffffff" showgrid="false">
	</sodipodi:namedview>
<g id="layer1" inkscape:groupmode="layer" inkscape:label="Calque 1">
	<g id="g860" transform="matrix(0.35211268,0,0,0.35211268,-16.623995,-1.3690492)">
		<g id="g950" transform="matrix(0.95970886,0,0,0.95970886,34.069661,-118.61765)">

				<path id="path1099" inkscape:export-filename="C:\UsersComponent\benmoussa.PERENITY\Desktop\path1099.png" inkscape:export-xdpi="96" inkscape:export-ydpi="96" class="st0" d="
				M967,1035.1c187-211,182.3-530.2-10.9-735.5l0,0c-98.4-105.1-234.3-166.9-378-171.9h-10.9h-8.3h-8.2h-10.9
				c-143.7,5-279.6,66.8-378,171.9l0,0l0,0c-193.3,205.3-198,524.6-10.9,735.5l0,0c0.4,0.3,0.8,0.7,1.2,1.1
				c98.9,111.1,238.9,176.9,387.4,181.9h10.9h16.5h10.9l0,0c148.9-4.7,289.3-70.3,388.6-181.6c0,0,0.7,0,0.9-0.8l0,0L967,1035.1z
				 M52.5,691.9H278c2,78.7,17.3,156.5,45.2,230c-53.9,19.5-105.1,45.6-152.6,77.8C98,913.3,56.2,804.9,52.2,691.9L52.5,691.9z
				 M181.6,334.6c46.4,30.2,96.2,54.7,148.4,73.1c-32.1,78.4-49.8,161.9-52,246.6H52.5C56.9,535.9,102.5,422.7,181.6,334.6
				L181.6,334.6z M1066.4,654.3H840.8c-2.1-84.6-19.6-168.2-51.7-246.5c52.2-18.3,102.1-42.9,148.4-73.1
				C1016.5,422.8,1062.1,535.9,1066.4,654.3L1066.4,654.3z M540.6,408.9c-53.8-1.5-107.3-9.6-159.1-24.1
				c38.7-79.1,92.8-149.7,159.1-207.5V408.9z M540.6,446.5v207.5h-225c2.2-80.7,19.2-160.3,50.1-234.8
				c56.7,16.5,115.3,25.6,174.4,27.1L540.6,446.5z M578.2,446.5c59.2-1.5,118-10.6,174.9-27.1c30.8,74.5,47.7,154.1,49.7,234.8
				H578.2V446.5z M578.2,408.9V176.7c66.4,57.8,120.5,128.4,159.2,207.5c-51.9,14.5-105.4,22.6-159.2,24.1V408.9z M774.4,373.3
				c-36.6-76.5-86.8-145.6-148.2-204c107.4,14.1,207.4,62.4,285.3,137.8C868.5,334.3,822.5,356.5,774.4,373.3z M345.6,373.3
				c-48.1-16.7-94.1-38.9-137.1-66.2c77.9-75.4,177.9-123.7,285.2-137.8c-61.6,58.3-112,127.4-148.7,203.9L345.6,373.3z
				 M316.2,692.1h225v189c-61.5,1.5-122.5,11.2-181.5,28.9c-26.8-69.8-41.6-143.7-43.6-218.4L316.2,692.1z M541.2,918.7v251.2
				c-71-62-128-138.5-167-224.4c54.3-16,110.4-24.9,167-26.4L541.2,918.7z M578.8,1169.9V918.7c56.5,1.5,112.6,10.4,166.9,26.4
				c-38.9,86-95.8,162.5-166.9,224.4V1169.9z M578.8,881.4V691.9h224.1c-1.9,74.8-16.7,148.7-43.6,218.4
				c-58.9-17.8-120-27.6-181.5-29.1L578.8,881.4z M841.3,692.4h225.6c-4.1,113-45.8,221.3-118.6,307.8
				c-47.5-32.1-98.7-58.2-152.6-77.8c28-73.6,43.3-151.3,45.3-230H841.3z M197.2,1028.4c44.2-29.4,91.7-53.3,141.7-71.2
				c37,82.8,89.8,157.6,155.4,220.2c-112.8-14.8-217.3-67.3-296.6-149H197.2z M626.2,1177.4c65.5-62.7,118.2-137.6,154.9-220.6
				c49.9,17.9,97.5,41.8,141.7,71.2c-79.4,81.7-183.9,134.2-296.7,149L626.2,1177.4z"/>
		</g>
	</g>
</g>
</svg>
