<?xml version="1.0" encoding="utf-8"?>
<!-- Generator: Adobe Illustrator 18.1.1, SVG Export Plug-In . SVG Version: 6.00 Build 0)  -->
<svg version="1.1"
     id="svg8" xmlns:dc="http://purl.org/dc/elements/1.1/" xmlns:cc="http://creativecommons.org/ns#" xmlns:rdf="http://www.w3.org/1999/02/22-rdf-syntax-ns#" xmlns:svg="http://www.w3.org/2000/svg" xmlns:sodipodi="http://sodipodi.sourceforge.net/DTD/sodipodi-0.dtd" xmlns:inkscape="http://www.inkscape.org/namespaces/inkscape" sodipodi:docname="2.1 - CRM.svg" inkscape:version="1.0.1 (3bc2e813f5, 2020-09-07)"
     xmlns="http://www.w3.org/2000/svg" xmlns:xlink="http://www.w3.org/1999/xlink" x="0px" y="0px" viewBox="59.2 136.1 459.1 518.1"
     enable-background="new 59.2 136.1 459.1 518.1" xml:space="preserve">
<sodipodi:namedview  id="base" inkscape:window-maximized="1" inkscape:document-rotation="0" inkscape:cy="560" inkscape:cx="400" inkscape:zoom="0.35" borderopacity="1.0" showgrid="false" bordercolor="#666666" pagecolor="#ffffff" inkscape:window-y="-8" inkscape:window-x="-8" inkscape:window-height="1009" inkscape:window-width="1920" inkscape:current-layer="g856" inkscape:document-units="mm" inkscape:pageshadow="2" inkscape:pageopacity="0.0">
	</sodipodi:namedview>
  <g id="layer1" inkscape:label="Calque 1" inkscape:groupmode="layer">
	<g id="layer1-2" transform="matrix(0.26458333,0,0,0.26458333,23.359449,29.955811)" inkscape:label="Calque 1">
		<g id="layer1-0" transform="matrix(0.26458333,0,0,0.26458333,3.4641529,9.7139893)" inkscape:label="Calque 1">
			<g id="g858">
				<g id="g856">
					<path id="path836" fill="black" d="M3836.6,1483.1c150.2,23.2,300.5,40.8,447,71.4c1221.2,256.3,2188.1,1252.3,2411.7,2476.9
						c73.4,396.9,73.4,793.7-7.4,1190.6c-2,11.6-4,23.2-6.2,34.6c0,7.4,2,13.6,4,30.6c50.2-29.2,96.4-57.8,144.9-85
						c78.8-44.2,159.6-25.2,202.4,42.2c44.2,71.4,25.2,156.2-55.8,203.8c-154.2,94.4-309.8,184.8-466,275.2
						c-80.8,46.2-161.9,23.2-208.1-61.8c-90.4-163.8-179.4-329.7-267.6-495.5c-42.2-78.8-17.6-161.9,53.6-200.4
						c73.4-40.8,154.2-13.6,202.4,67.2c30.6,53.6,61.8,108,92.4,163.8c0,2,4,2,17.6,7.4c17.6-111.4,36.6-219.4,48.2-329.7
						c143.1-1440.3-845-2769.5-2265.2-3049c-1556.2-308.4-3058.6,708.7-3348,2270.8c-87,468.3-53.6,928.3,92.4,1382.7
						c6.2,21,13.6,40.8,19,61.8c29.2,94.4-7.4,175.2-88.4,198.4c-82.8,25.2-154.2-19-186.8-113.4
						c-564.4-1610.1,291.1-3390,1903.5-3962c254.3-90.4,518.5-148.3,787.5-171.2c19-2,36.6-7.4,55.8-13.6
						C3557.4,1483.1,3698,1483.1,3836.6,1483.1L3836.6,1483.1z"/>
          <path id="path838" fill="black" d="M2927.3,6308.5c-29.2-96.4-52.4-184.8-80.8-271.8c-29.2-82.8-99.8-125-186.8-110
						c-98.6,19-196.4,48.2-294.8,65.2c-191.1,32.6-350.6-32.6-458.6-192.2c-108-161.9-205.8-331.7-302.5-500.9
						c-94.4-165.8-61.8-366.2,73.4-506.8c57.8-61.8,119.6-117.6,179.4-179.4c69.4-71.4,69.4-150.2,0-223.7
						c-55.8-59.8-115.7-115.7-173.2-173.2c-146-150.2-173.2-354.6-65.2-537.5c87-150.2,177.4-297.1,267.6-445
						c113.4-186.8,306.4-265.6,519.9-215.4c78.8,19,157.6,38.8,238.4,55.8c99.8,21,177.4-23.2,208.1-119.6
						c23.2-73.4,42.2-148.3,65.2-221.4c59.8-194.5,225.6-321.4,429.4-325.4c192.2-4,385.2-4,577.7,0
						c202.4,4,362.3,131.2,424.1,323.4c25.2,75.4,44.2,152.2,69.4,227.1c30.6,94.4,106,136.6,202.4,115.7
						c78.8-17.6,159.6-36.6,238.4-55.8c217.4-52.4,410.5,27.2,525.8,217.4c87,144.9,175.2,288.9,260.2,433.4
						c113.4,194.5,90.4,392.9-67.2,554.5c-53.6,55.8-110,108-163.8,163.8c-73.4,75.4-73.4,152.2,0,229
						c55.8,57.8,113.4,111.4,169.2,167.8c152.2,156.2,175.2,354.6,65.2,542.8c-87,150.2-177.4,298.2-267.6,445
						c-108,177.4-290.8,256.3-495.5,215.4c-82.8-17.6-163.8-40.8-246.6-57.8c-123-27.2-192.2,15.6-229,134.6
						c-23.2,76.8-46.2,156.2-71.4,240.7c34.6,0,61.8,0,87,0c436.8,0,876.5,0,1313.6,0c379.3,0,629.9,248.6,629.9,627.9
						c2,436.8,2,876.5,0,1313.6c-2,379.3-252,627.9-629.9,627.9c-464,0-928.3,0-1394.4,0c-19,0-38.8,2-57.8-2
						c-76.8-7.4-134.6-69.4-133.2-144.9c0-75.4,57.8-136.6,136.6-142.6c57.8-4,115.7-2,173.2-2c425.5,0,851.5,0,1278.7,0
						c214,0,339-121.6,339-333.1c2-443.1,2-886.1,0-1329.2c0-208.1-125-329.7-335.1-329.7c-1408,0-2815.9,0-4225.9,0
						c-215.4,0-341,125-341,341c0,436.8,0,876.5,0,1313.6c0,212,125,337,337,337c485.3,0,972.3,0,1458.1,0c23.2,0,48.2-2,71.4,2
						c69.4,9.6,121.6,69.4,123,138.6c2,71.4-52.4,134.6-123,146c-21,4-42.2,2-65.2,2c-485.3,0-972.3,0-1458.1,0
						c-379.3,0-631.8-252-631.8-635.2c0-433.4,0-867.1,0-1300c0-385.2,252-635.2,639.5-635.2c435.7,0,870.5,0,1308.2,0
						C2864.3,6308.5,2891.3,6308.5,2927.3,6308.5L2927.3,6308.5z M5432,3917.7c-11.6-34.6-15.6-59.8-29.2-78.8
						c-92.4-157.6-184.8-313.8-283.5-470.3c-38.8-63.8-102-87-175.2-69.4c-96.4,21-191.1,46.2-288.9,65.2
						c-233,42.2-445-87-516.5-311.8c-23.2-73.4-44.2-148.3-67.2-221.4c-29.2-90.4-80.8-131.2-175.2-131.2c-177.4-2-356-2-533.5,0
						c-94.4,0-148.3,42.2-175.2,131.2c-25.2,80.8-46.2,161.9-73.4,240.7c-73.4,210-283.5,333.1-502.9,292.8
						c-94.4-17.6-186.8-42.2-281.2-63.8c-92.4-19-152.2,6.2-202.4,87c-87,144.9-173.2,288.9-260.2,433.4
						c-46.2,78.8-40.8,136.6,23.2,202.4c55.8,57.8,113.4,111.4,169.2,167.8c179.4,184.8,179.4,441.1,0,625.9
						c-55.8,57.8-113.4,111.4-169.2,167.8c-61.8,63.8-71.4,121.6-27.2,196.4c88.4,148.3,177.4,298.2,267.6,445
						c46.2,75.4,110,99.8,198.4,78.8c76.8-17.6,154.2-36.6,231-53.6c263.6-61.8,489.3,67.2,566.1,325.4
						c19,67.2,38.8,134.6,59.8,200.4c27.2,88.4,80.8,129,175.2,131.2c177.4,2,356,2,533.5,0c94.4,0,146-40.8,175.2-131.2
						c23.2-75.4,44.2-152.2,69.4-227.1c69.4-214,271.8-341,495.5-308.4c96.4,15.6,192.2,42.2,288.9,63.8c96.4,21,157.6-2,208.1-85
						c88.4-144.9,175.2-288.9,260.2-433.4c48.2-82.8,40.8-136.6-29.2-205.8c-53.6-55.8-110-108-163.8-163.8
						c-177.4-182.8-177.4-443.1,0-627.9c55.8-57.8,115.7-110,167.8-169.2C5397.4,3990.6,5414.4,3950.3,5432,3917.7L5432,3917.7z"/>
          <path id="path840" fill="black" d="M5333.6,7573.6c-55.8,198.4-113.4,396.9-167.8,593.3c-19,71.4-53.6,129-131.2,148.3
						c-98.6,25.2-179.4-27.2-212-134.6c-53.6-179.4-106-360.3-159.6-539.4c-6.2-23.2-15.6-44.2-36.6-67.2
						c-17.6,90.4-34.6,179.4-50.2,269.9c-19,111.4-38.8,223.7-59.8,333.1c-17.6,92.4-87,148.3-165.8,134.6
						c-85-13.6-136.6-87-119.6-182.8c65.2-375.9,134.6-752.9,203.8-1128.8c15.6-85,80.8-138.6,157.6-144.9
						c82.8-4,150.2,42.2,177.4,131.2c65.2,217.4,131.2,436.8,194.5,657.1c6.2,21,13.6,40.8,25.2,76.8
						c29.2-98.6,52.4-179.4,76.8-262.2c44.2-152.2,87-304.4,131.2-456.7c29.2-98.6,92.4-150.2,179.4-144.9
						c82.8,4,144.9,59.8,161.9,156.2c71.4,373.6,142.6,745.5,212,1119.1c17.6,90.4-32.6,161.9-115.7,177.4
						c-76.8,15.6-148.3-34.6-165.8-123c-40.8-203.8-78.8-408.5-119.6-614.3C5342.9,7573.6,5337.6,7573.6,5333.6,7573.6
						L5333.6,7573.6z"/>
          <path id="path842" fill="black" d="M3648.4,7744.8c94.4,108,186.8,214,279.2,318c71.4,80.8,73.4,163.8,6.2,223.7
						c-63.8,57.8-152.2,46.2-221.4-30.6c-117.6-133.2-235-265.6-366.2-415.8c0,123,2,225.6,0,327.4c-2,104-71.4,165.8-165.8,152.2
						c-69.4-9.6-121.6-63.8-121.6-138.6c-2-394.9-2-789.7,0-1184.3c0-76.8,55.8-134.6,131.2-136.6c127-4,256.3-7.4,381.3,2
						c210,17.6,375.9,180.9,408.5,387.2c30.6,191.1-82.8,383.2-275.2,470.3C3686.4,7725.8,3669.4,7733.5,3648.4,7744.8
						L3648.4,7744.8z M3349.3,7465.6c67.2,0,129,4,186.8,0c82.8-6.2,148.3-71.4,154.2-146c6.2-71.4-44.2-146-125-161.9
						c-71.4-13.6-144.9-7.4-217.4-11.6C3349.3,7257.8,3349.3,7357.6,3349.3,7465.6L3349.3,7465.6z"/>
          <path id="path844" fill="black" d="M1523.5,7552.6c7.4-244.6,129-464,375.9-600.7c246.9-136.6,496.6-129,741.3,15.6
						c99.8,57.8,115.7,171.2,40.8,240.7c-53.6,50.2-111.4,50.2-198.4,2c-205.8-115.7-450.4-65.2-585.6,119.6
						c-106,146-113.4,343.3-19,495.5c96.4,154.2,275.2,238.4,452.7,200.4c61.8-13.6,123-53.6,173.2-94.4
						c82.8-67.2,159.6-80.8,223.7-21c63.8,61.8,55.8,150.2-19,229c-252,260.2-706.7,242.6-978.5-38.8
						C1592.7,7956.8,1523.5,7787.6,1523.5,7552.6z"/>
          <path id="path846" fill="black" d="M3808,8734.9c0,76.8-63.8,142.6-140.6,144.9c-80.8,2-148.3-65.2-146-146
						c2-78.8,67.2-142.6,144.9-140.6C3742.8,8592.4,3808,8658.1,3808,8734.9z"/>
          <path id="path852" fill="black" d="M4537.9,4513c-9.6,496.6-431.4,907.1-924.9,897.7c-489.3-9.6-895.5-435.7-888.1-926.1
						c7.4-481.9,433.4-893.5,913.3-886.1C4131.4,3603.9,4547.3,4027.2,4537.9,4513z M4249.1,4502.8c0-333.1-283.5-618.2-616.3-616.3
						c-333.1,0-616.3,285.4-616.3,618.2c0,333.1,285.4,618.2,618.2,618.2C3965.6,5121.3,4249.1,4838.7,4249.1,4502.8L4249.1,4502.8z
						"/>
				</g>
			</g>
		</g>
	</g>
</g>
</svg>
