<?xml version="1.0" encoding="utf-8"?>
<!-- Generator: Adobe Illustrator 23.0.2, SVG Export Plug-In . SVG Version: 6.00 Build 0)  -->
<svg version="1.1"
	 id="svg8" inkscape:version="1.0.1 (3bc2e813f5, 2020-09-07)" sodipodi:docname="Indice.svg" xmlns:cc="http://creativecommons.org/ns#" xmlns:dc="http://purl.org/dc/elements/1.1/" xmlns:inkscape="http://www.inkscape.org/namespaces/inkscape" xmlns:rdf="http://www.w3.org/1999/02/22-rdf-syntax-ns#" xmlns:sodipodi="http://sodipodi.sourceforge.net/DTD/sodipodi-0.dtd" xmlns:svg="http://www.w3.org/2000/svg"
	 xmlns="http://www.w3.org/2000/svg" xmlns:xlink="http://www.w3.org/1999/xlink" x="0px" y="0px" viewBox="0 0 367.6 367.6"
	 style="enable-background:new 0 0 367.6 367.6;" xml:space="preserve">
<style type="text/css">
	.st0{fill:#002B54;}
	.st1{fill:#00A4E4;}
</style>
<sodipodi:namedview  bordercolor="#666666" borderopacity="1.0" id="base" inkscape:current-layer="g878" inkscape:cx="470.33169" inkscape:cy="592.77613" inkscape:document-rotation="0" inkscape:document-units="mm" inkscape:pageopacity="0.0" inkscape:pageshadow="2" inkscape:window-height="1017" inkscape:window-maximized="1" inkscape:window-width="1920" inkscape:window-x="-8" inkscape:window-y="-8" inkscape:zoom="0.98994949" pagecolor="#ffffff" showgrid="false">
	</sodipodi:namedview>
<g id="layer1" inkscape:groupmode="layer" inkscape:label="Calque 1">
	<g id="g878" transform="matrix(0.33783784,0,0,0.33775006,19.051479,-1.275779)">
		<path id="path838" class="st0" d="M1031.8,48.6c0,272.1,0,544.3,0,816.4c-15,37.1-28.9,46.2-69.2,46.2c-95.5,0-191.3,0-286.9,0
			c-4,0-7.7,0-11.6,0c0,2-0.3,3.1,0.3,4c10.5,21.3,21,42.5,32,63.5c1.4,2.6,6,4.8,9.1,4.8c17.6,0.6,35.4,0,53,0.3
			c31.7,0.3,56.1,24.1,55.8,54.7c-0.3,30.3-24.4,53.9-55.6,53.9c-180.6,0-361.4,0-542,0c-31.7,0-56.1-24.4-55.6-54.7
			c0.3-30.3,24.1-53.3,55.6-53.9c17.6-0.3,35.4,0,53-0.3c2.8,0,7.1-0.9,8.2-2.8c11.6-22.4,23-45.4,35.1-69.7c-6,0-10.2,0-14.5,0
			c-97.5,0-194.7,0-292.3,0c-40.5,0-62.9-22.7-62.9-63.2c0-188.8,0-377.6,0-566.4c0-73.4,0-146.6,0-220c0-26.1,14.5-46.2,39.1-55
			c2-0.6,3.7-1.7,5.7-2.6c333.1,0,666.1,0,999.2,0C1009.7,11.4,1024.7,26.2,1031.8,48.6L1031.8,48.6z M-20.4,764.9
			c339.3,0,677.5,0,1015.9,0c0-4.8,0-8.5,0-12.5c0-227.9,0-455.5,0-683.4c0-23-6-28.9-28.9-28.9c-319.5,0-638.9,0-958.7,0
			c-23,0-28.6,6-28.6,28.9c0,227.9,0,455.5,0,683.4C-20.4,756.4-20.4,760.3-20.4,764.9L-20.4,764.9z M995.5,802.9
			c-338.7,0-676.9,0-1014.8,0c-0.6,1.1-0.9,2-0.9,2.6c0,13-0.3,26.1-0.3,39.4c0,24.7,5.4,30.3,29.8,30.3c318.9,0,637.5,0,956.4,0
			c4,0,7.9,0.3,11.6-0.3c10.5-1.4,17.6-8.8,17.9-19.3C996.1,838.3,995.5,821,995.5,802.9L995.5,802.9z M657.7,983.4
			c-11.1-21.8-21.3-42-30.9-62.4c-3.4-7.7-7.7-10.2-15.9-10.2c-74.3,0.3-148.8,1.7-222.8-0.6c-26.6-0.9-41.7,6-49.9,31.5
			c-4.5,14.2-13,26.9-20.1,41.4C431.7,983.4,543.7,983.4,657.7,983.4L657.7,983.4z M487.6,1020c-87.6,0-174.9,0-262.5,0
			c-3.4,0-7.1-0.3-10.5,0c-9.6,0.9-16.4,7.9-17,17.3c-0.3,9.4,6,17,15.6,18.7c3.4,0.6,7.1,0.3,10.5,0.3c176,0,352.1,0,528.1,0
			c3.1,0,6.5,0.3,9.6-0.3c10.2-1.4,16.7-9.1,16.4-19c-0.6-9.4-7.1-16.2-17-17c-3.4-0.3-7.1,0-10.5,0
			C662.5,1020,575.2,1020,487.6,1020L487.6,1020z"/>
		<path id="path852" class="st1" d="M52.2,693.2c5.7,0,10.2,0,14.7,0c288,0,576,0,864,0c4.5,0,9.4-0.3,13.6,0.9
			c9.1,1.7,15,9.6,14.7,18.1c-0.3,9.1-7.4,16.2-17,17c-3.4,0.3-7.1,0.3-10.5,0.3c-290.3,0-580.3,0-870.5,0
			c-32.9,0-45.4-12.5-45.4-45.6c0-193,0-386.1,0-579.1c0-4-0.3-7.9,0.3-11.6c1.4-9.9,9.6-17,19-16.4c9.1,0.6,16.2,7.7,16.7,17.6
			c0.3,4,0,7.7,0,11.6c0,191.1,0,381.8,0,572.9C52.2,683.2,52.2,687.5,52.2,693.2L52.2,693.2z"/>
		<path id="path854" class="st0" d="M335.4,340c9.4,3.4,19.6,6,28.3,10.8c22.7,12.2,45.1,25.5,67.5,38.3c14.2,7.9,20.1,7.4,31.7-4.5
			c31.5-31.5,63.2-63.2,94.7-94.7c24.1-24.1,51.9-25.8,78.8-4.5c11.1,8.8,22.1,17.9,33.2,26.6c13.6,10.8,19.6,10.5,32.3-1.1
			c62.1-56.7,123.9-113.4,185.7-170.1c2.6-2.3,5.1-5.1,8.2-6.5c7.7-4.3,15.3-3.4,21.5,2.8c6.5,6.5,7.7,14.5,2.6,22.4
			c-2.3,3.4-5.7,6.5-8.8,9.4c-60.9,56.1-122.2,112-183.4,168.1c-27.8,25.5-52.7,26.1-82.5,2.6c-10.5-8.5-21-16.7-31.5-25.2
			c-12.2-9.4-19.8-9.1-30.6,1.7c-31.7,31.5-63.2,63.2-94.7,94.7c-23.5,23.5-46.8,26.9-75.7,10.5c-21.5-12.2-43.1-24.7-64.6-36.9
			c-15-8.5-22.1-7.1-32.3,6.8c-63.2,84.5-126.7,168.9-189.9,253.4c-2,2.6-3.7,5.1-6,7.4c-6.8,7.1-16.7,7.9-24.1,2.6
			c-7.7-5.7-9.6-15-4.8-23.5c1.4-2.8,3.7-5.4,5.4-7.9c63.5-84.8,127.3-169.2,190.5-254.3C299.4,351.9,314.1,342,335.4,340L335.4,340
			z"/>
		<path id="path856" class="st1" d="M442.5,148.9c-108.9,0-217.4,0-326.3,0c-3.4,0-7.1,0-10.5-0.3c-9.6-0.9-16.7-7.9-17.3-17
			c-0.3-8.5,5.7-16.4,14.5-18.4c3.4-0.9,7.1-0.6,10.5-0.6c218.8,0,437.7,0,656.8,0c4,0,7.9,0,11.6,0.9c8.8,2,14.5,9.9,13.9,18.7
			c-0.6,8.8-7.1,15.6-16.4,16.4c-4,0.3-7.7,0.3-11.6,0.3C659.4,148.9,551.1,148.9,442.5,148.9L442.5,148.9z"/>
		<path id="path858" class="st0" d="M451.6,575.8c0,18.1,0,36.3,0,54.4c0,4,0.3,7.9-0.6,11.6c-1.7,9.4-9.6,15.3-19,14.7
			c-9.1-0.6-15.6-7.1-16.4-16.4c-0.3-2-0.3-4.3-0.3-6.2c0-45.4,0-90.7,0-136.1c0-12.8,4.5-19.8,13.9-21.8c9.6-2,16.4,2,22.4,13.6
			c11.3,22.7,22.7,45.6,35.1,70.6c0.6-4.5,0.9-7.1,0.9-9.6c0-18.7-0.3-37.4,0.3-56.4c0.3-11.1,7.7-18.4,17.9-18.4
			c10.2,0,18.1,7.1,18.1,18.1c0.3,48.2,0.3,96.4,0,144.6c0,9.4-4.8,15.6-13.9,17.9c-9.4,2.3-16.7-1.7-21-10.5
			c-10.2-20.4-20.7-41.1-30.9-61.5c-1.4-3.1-3.1-6-4.8-8.8C452.7,575.5,452.1,575.8,451.6,575.8L451.6,575.8z"/>
		<path id="path860" class="st1" d="M287.7,294.3c-56.7,0-113.4,0-169.8,0c-3.4,0-7.1,0-10.5-0.3c-11.1-0.9-18.4-8.2-18.7-17.9
			c0-9.9,7.4-17,18.4-18.1c2.8-0.3,5.7-0.3,8.5-0.3c115.1,0,230.2,0,345,0c18.4,0,26.9,5.7,26.9,18.1c0,12.2-8.5,18.1-26.9,18.4
			C403.1,294.3,345.3,294.3,287.7,294.3L287.7,294.3z"/>
		<path id="path862" class="st0" d="M560.1,565.9c0-22.4,0-44.5,0-66.9c0-17,6.2-23.2,22.7-23.2c11.3,0,22.7-0.3,34,0
			c27.8,0.9,50.7,22.7,51.6,50.5c0.9,26.4,0.9,53,0,79.7c-0.9,27.8-23.5,49.9-51.3,50.7c-11.9,0.3-24.1,0.3-36,0
			c-14.2-0.3-20.7-6.8-21-21C560.1,612.7,560.1,589.4,560.1,565.9L560.1,565.9z M596.7,620.6c6.8,0,12.5,0.3,17.9,0
			c10.5-0.6,17.6-6.8,17.6-17.3c0.3-24.7,0.3-49.3,0-74.3c0-9.4-5.7-15.3-14.7-16.7c-6.8-1.1-13.9-0.3-21-0.3
			C596.7,548.9,596.7,584,596.7,620.6L596.7,620.6z"/>
		<path id="path864" class="st0" d="M887,525.6c6.5-13,12.2-24.7,18.1-36.3c6.2-12.2,15.6-16.4,25.5-11.6c10.5,4.8,13,15.3,6.8,28.1
			c-8.5,17.6-17.3,34.9-26.4,52.2c-3.4,6.2-3.1,11.3,0.3,17.6c9.4,17.9,19,35.7,26.6,54.1c2.3,5.7,1.4,15-1.7,20.4
			c-2.3,4-11.3,6.8-16.4,6c-5.1-0.9-10.8-6.2-13.9-11.3c-6.8-11.3-12.2-23.8-19.3-37.4c-6.8,13.3-12.5,25.2-18.7,36.9
			c-6.2,11.9-15.9,16.2-25.8,10.8c-9.9-5.1-12.2-15.3-6.2-27.2c8.5-17.3,16.7-34.3,25.8-51.3c3.7-6.8,4.3-12.5,0.3-19.6
			c-9.4-17-17.6-34.6-26.1-52.2c-5.7-11.9-2.8-22.1,7.1-27.2c9.6-4.5,19.3-0.9,25.2,10.8C874.2,500.1,880.2,512,887,525.6z"/>
		<path id="path866" class="st0" d="M742.1,513.4c0,10.8,0,22.1,0,34.9c5.7,0,11.1-0.3,16.7,0c11.6,0.6,19.3,7.9,19,18.4
			c-0.3,10.2-7.7,17-18.7,17.6c-5.4,0.3-10.5,0-16.7,0c0,12.2,0,23.5,0,36.3c10.8,0,21.5,0,32,0c13.3,0.3,21.5,7.1,21.5,18.1
			c0,11.1-7.9,17.9-21.5,18.1c-16.2,0-32.6,0.3-48.8,0c-13-0.3-20.1-6.2-20.1-19.3c-0.3-47.3-0.3-95,0-142.3
			c0-13,7.1-19.3,20.1-19.3c17-0.3,34-0.3,51,0c11.9,0.3,19.3,7.7,19.3,18.1c0,10.2-7.7,17.6-19.6,18.1c-11.1,0.3-21.8,0.3-32.9,0.6
			C743.3,512.6,743,512.9,742.1,513.4L742.1,513.4z"/>
		<path id="path868" class="st0" d="M342.7,566.5c0-23,0-45.9,0-68.9c0-13.9,6.8-21.5,17.9-21.5c11.1,0,18.1,8.2,18.1,21.5
			c0,45.9,0,92.1,0,138c0,13.6-7.1,21.5-18.4,21.3c-11.3,0-17.9-7.7-17.9-21.5C342.7,612.4,342.7,589.4,342.7,566.5L342.7,566.5z"/>
		<path id="path870" class="st1" d="M142.3,439.5c-11.1,0-22.1,0.3-32.9,0c-12.5-0.3-20.7-7.7-20.7-18.1c0-10.5,7.9-17.9,20.4-18.1
			c22.7-0.3,45.4-0.3,68,0c12.2,0,19.6,6.8,19.8,17.3c0.3,11.1-7.1,18.4-19.8,18.7C165.8,439.7,153.9,439.5,142.3,439.5L142.3,439.5
			z"/>
		<path id="path872" class="st1" d="M895.5,294.3c-8.8,0-17.6,0.3-26.6,0c-11.3-0.6-18.1-7.7-18.1-18.1c0-10.2,6.8-17.6,18.1-17.9
			c18.1-0.6,36-0.6,54.1,0c10.8,0.3,17.6,7.7,17.6,17.3c0.3,10.5-6.5,17.3-17.6,18.4c-0.6,0-1.4,0-2,0
			C912.5,294.3,904,294.3,895.5,294.3L895.5,294.3L895.5,294.3z"/>
		<path id="path874" class="st1" d="M270.7,548.3c6,0,12.2-0.3,18.1,0c10.2,0.9,17.6,8.5,17.6,17.9s-7.4,17.6-17.3,17.9
			c-12.8,0.6-25.5,0.6-38.3,0c-9.9-0.6-16.4-7.9-16.7-17.3c-0.3-9.9,6.5-17.3,16.7-18.4c0.6,0,1.4,0,2,0
			C258.8,548.3,264.8,548.3,270.7,548.3L270.7,548.3L270.7,548.3z"/>
	</g>
</g>
</svg>
