<?xml version="1.0" encoding="utf-8"?>
<!-- Generator: Adobe Illustrator 18.1.1, SVG Export Plug-In . SVG Version: 6.00 Build 0)  -->
<svg version="1.1"
     id="svg8" xmlns:dc="http://purl.org/dc/elements/1.1/" xmlns:cc="http://creativecommons.org/ns#" xmlns:rdf="http://www.w3.org/1999/02/22-rdf-syntax-ns#" xmlns:svg="http://www.w3.org/2000/svg" xmlns:sodipodi="http://sodipodi.sourceforge.net/DTD/sodipodi-0.dtd" xmlns:inkscape="http://www.inkscape.org/namespaces/inkscape" sodipodi:docname="6 - Performance Mngt.svg" inkscape:version="1.0.1 (3bc2e813f5, 2020-09-07)"
     xmlns="http://www.w3.org/2000/svg" xmlns:xlink="http://www.w3.org/1999/xlink" x="0px" y="0px" viewBox="70 127.2 459 501.6"
     enable-background="new 70 127.2 459 501.6" xml:space="preserve">
<sodipodi:namedview  id="base" inkscape:window-maximized="1" inkscape:document-rotation="0" inkscape:cy="448.97525" inkscape:cx="87.166572" inkscape:zoom="0.49497475" borderopacity="1.0" showgrid="false" bordercolor="#666666" pagecolor="#ffffff" inkscape:window-y="-8" inkscape:window-x="-8" inkscape:window-height="1009" inkscape:window-width="1920" inkscape:current-layer="g876" inkscape:document-units="mm" inkscape:pageshadow="2" inkscape:pageopacity="0.0">
	</sodipodi:namedview>
  <g id="layer1" inkscape:label="Calque 1" inkscape:groupmode="layer">
	<g id="layer1-2" transform="matrix(0.26458334,0,0,0.26458334,27.135604,37.326073)" inkscape:label="Calque 1">
		<g id="layer1-5" transform="matrix(0.26458333,0,0,0.26458333,14.166996,22.310897)" inkscape:label="Calque 1">
			<g id="g868">
				<g id="g866">
					<path id="path836" fill=" var(--principal)" d="M3839.7,4967.6c1033.8,0,2069.6,0,3103.4,0c142.6,0,171.2,29.2,171.2,173.2
						c0,110,0,221.4,0,331.4c0,99.8-17.6,123-111.4,159.6c-125,48.2-252,94.4-375.6,146c-27.2,11.6-53.6,42.2-67.2,71.4
						c-88.4,203.8-173.2,410.2-256,618.2c-11.6,27.2-13.6,65.2-2,90.4c52.4,129,108,256,169.2,383c34.6,73.4,19,127-34.6,180.6
						c-188.8,186.8-375.6,373.6-562.4,562.4c-52.4,52.4-106,65.2-175.2,32.6c-129-59.8-258.2-117.6-389.2-171.2
						c-23-9.6-59.8-7.4-85,4c-207.8,85-417.8,171.2-623.6,260.2c-27.2,11.6-55.6,36.6-67.2,61.8c-52.4,127-101.8,254-148,383
						c-27.2,76.8-73.4,110-156.2,110c-262.2-2-523.8-2-787.2,0c-82.8,0-129-30.6-156.2-108c-46.2-129-94.4-256-148-383
						c-11.6-27.2-44.2-53.6-73.4-67.2c-203.8-88.4-410.2-173.2-618.2-256c-25.2-9.6-61.8-13.6-85-4
						c-133.2,55.6-265.6,113.4-394.6,173.2c-63.8,29.2-115.4,19-163.6-30.6c-192.2-192.2-383-385.2-576-577.4
						c-48.2-48.2-59.8-99.8-29.2-163.6c59.8-129,117.6-258.2,171.2-389.2c11.6-27.2,7.4-69.2-4-98.4
						c-82.8-203.8-165.8-408.2-254-610.6c-11.6-29.2-38.8-59.8-65.2-73.4c-129-53.6-260.2-101.8-389.2-150.2
						c-69.2-25.2-101.8-71.4-99.8-148c4-123,0-244.6,2-367.4c0-108,38.8-146,148-146C1750.6,4967.6,2793.7,4967.6,3839.7,4967.6
						L3839.7,4967.6z M5517,5202.6c-80.8,891.2-787.2,1509.2-1575.2,1555.4c-404.2,23-772.4-80.8-1097.6-323.4
						c-412.4-306.4-635-724-685.4-1230.2c-458.4,0-913,0-1368.6,0c0,63.8,2,121.6,0,177.2c-2,36.6,11.6,53.6,46.2,67.2
						c125,44.2,246.6,96.4,369.6,140.6c63.8,23,98.4,63.8,113.4,127c59.8,250.6,157.6,483,292.8,703c32.6,52.4,34.6,99.8,7.4,156.2
						C1561.8,6697,1508.2,6820,1458,6945c-7.4,21-2,61.8,13.6,78.8c138.6,144.6,283.2,283.2,421.8,425.2
						c30.6,30.6,53.6,29.2,88.4,13.6c119.6-55.6,242.4-106,362-163.6c55.6-27.2,104-25.2,156.2,7.4
						c221.4,134.4,458.4,233,710.4,294.8c63.8,15.6,98.4,52.4,121.6,111.4c46.2,123,92.4,248.6,142.6,369.6
						c9.6,21,42.2,46.2,65.2,46.2c200.4,4,398.8,0,599,4c42.2,0,57.8-17.6,71.4-53.6c44.2-121.6,94.4-242.4,138.6-364
						c23-63.8,61.8-98.4,127-113.4c250.6-59.8,483-157.6,703-290.8c52.4-30.6,99.8-34.6,156.2-9.6
						c117.6,53.6,238.4,101.8,354.6,159.6c50.2,25.2,75.4,13.6,110-23c131-134.4,263.6-267.6,398.8-398.8
						c34.6-32.6,42.2-59.8,21-104c-55.6-117.6-104-237-159.6-354.6c-27.2-57.8-23-108,9.6-163.6c131-217.4,229-448.4,288.6-697
						c15.6-67.2,53.6-108,119.6-131c121.6-44.2,242.4-90.4,362-140.6c19-7.4,44.2-32.6,46.2-50.2c6.2-63.8,2-129,2-196.4
						C6423.8,5202.6,5972.8,5202.6,5517,5202.6L5517,5202.6z M5275.7,5204.8c-964.6,0-1923.6,0-2882,0
						c50.2,712.6,662.2,1319.2,1426.4,1326.6C4601.9,6538.8,5224.2,5924.8,5275.7,5204.8z"/>
          <path id="path840" sodipodi:nodetypes="csssscsssscccccc" fill=" var(--principal)" d="M7114.6,3357.8V4613
						c0,119.6-34.6,154.2-154.2,154.2H6506c-113.4,0-150.2-36.6-150.2-152.2v-887.5V2110c0-142.6,30.6-173.2,173.2-173.2h425.2
						c123,0,159.6,36.6,159.6,157.6v1263.4L7114.6,3357.8z M6986.2,4655.2l0.6-2605l-504-2l2.8,2607H6986.2z"/>
          <path id="path842" fill=" var(--principal)" d="M6331.4,1430.8c-57.8,0-92.4,2-129,0c-63.8-4-110-53.6-108-113.4
						c2-63.8,38.8-111.4,99.8-113.4c152.2-6.2,302.2-6.2,454.4,0c61.8,2,104,59.8,92.4,123c-23,144.6-52.4,288.6-85,431.4
						c-13.6,61.8-61.8,90.4-125,82.8c-61.8-7.4-98.4-57.8-96.4-123c0-19,4-38.8,7.4-73.4c-27.2,23-46.2,38.8-63.8,53.6
						c-221.4,200.4-442.8,400.8-660.2,602.4c-61.8,57.8-119.6,63.8-196.4,30.6c-321.2-140.6-645.2-277.2-964.6-417.8
						c-42.2-19-71.4-15.6-108,13.6c-327.4,252-658.2,500.6-987.6,751.2c-21,15.6-42.2,32.6-67.2,42.2c-53.6,19-101.8,4-133.2-42.2
						c-32.6-50.2-29.2-101.8,13.6-144.6c36.6-34.6,78.8-63.8,119.6-94.4c325.4-246.6,652.8-493.2,976-743
						c67.2-52.4,125-61.8,203.8-27.2c317.8,140.6,639.2,277.2,959,412.4c21,9.6,61.8,13.6,75.4,0
						C5845.8,1873.5,6078.5,1659.8,6331.4,1430.8L6331.4,1430.8z"/>
          <path id="path844" sodipodi:nodetypes="csssssssscccccc" fill=" var(--principal)" d="M4862.2,3700.8v916.4
						c0,115.4-36.6,152.2-150.2,152.2h-470c-99.8,0-140.6-40.8-140.6-140.6V2774.4c0-104,42.2-142.6,146-142.6h470
						c104,0,144.6,42.2,144.6,144.6L4862.2,3700.8z M4731.8,4656l3.4-1910h-505.4v1911.4L4731.8,4656z"/>
          <path id="path846" sodipodi:nodetypes="cssscsssscccccc" fill=" var(--principal)" d="M5988.4,3879.6v743c0,106-38.8,144.6-142.6,144.6
						h-475.4c-99.8,0-140.6-38.8-142.6-138.6V3134.4c0-104,42.2-142.6,146-142.6h470c104,0,144.6,40.8,144.6,144.6V3879.6z
						 M5356.5,3104.4v1550.8l503.4,0.6l-0.6-1552.8L5356.5,3104.4z"/>
          <path id="path848" sodipodi:nodetypes="csccccscscccccc" fill=" var(--principal)" d="M3736,4147.2v483c0,96.4-40.8,136.6-134.4,136.6
						c-163.6,2-327.4,2-491,0c-90.4,0-134.4-40.8-134.4-131c-2-327.4-2-654.8,0-980.2c0-90.4,44.2-131,136.6-131
						c163.6,0,327.4-2,491,0c90.4,0,133.2,42.2,133.2,133.2v489.8h-1.1L3736,4147.2z M3103.5,3637.8L3103,4656l503.4-0.6l0.6-1018.2
						L3103.5,3637.8z"/>
          <g id="g876" transform="matrix(0.13197944,0,0,0.13197944,120.35939,167.2697)">
						<path id="path846-1" fill=" var(--principal)" d="M15362.3,22842.9c104,0,175.2,0,250.6,0c851.2,0,1702.2,0,2558.9,0
							c883.8,0,1490.2,606.6,1496.4,1490.2c0,3001.6,0,6003.2,0,9005.7c0,889.8-610.6,1501.8-1505.8,1501.8
							c-4432.3,0-8868.2,0-13301.1,0c-939.4,0-1538.7-595-1538.7-1529c-6.2-1915.4,0-3831.6,0-5753.2c0-1065,0-2129.4,0-3192.4
							c0-943.4,595-1529,1538.7-1529c841.6,0,1675,0,2516.6,0c76.8,0,148,0,240.4,0c6.2-87,11.6-163.8,11.6-235
							c0-447-6.2-901.4,0-1347.6c11.6-666.4,485-1145.8,1157.4-1151.4c1806.2-6.2,3614.2-6.2,5425.8,0
							c671.8,0,1157.4,496.6,1162.8,1169C15367.7,21789.5,15362.3,22298.1,15362.3,22842.9z M19007.1,27498.8
							c-235,82.8-447,175.2-671.8,217.4c-1047.4,214-2101.1,410.2-3150.4,610.6c-660.2,125-1321.2,250.6-1993.1,381
							c0,196.4,11.6,381-6.2,562.4c-17.6,202.4-32.6,410.2-92.4,600.4c-250.6,775.8-1047.4,1261.4-1838.8,1145.8
							c-818.4-119.6-1436.6-802.8-1463.3-1621.4c-6.2-229,0-458.4,0-692.8c-98.4-21-169.2-38.8-246.6-53.6
							c-1397.8-267.6-2799.8-529.8-4197.9-802.8c-458.4-87-916.4-207.8-1380.2-315.8c0,6.2-6.2,38.8-6.2,71.4
							c0,1915.4-6.2,3831.6,0,5753.2c0,512.2,321.2,824,841.6,824c4447.9,0,8895.5,0,13345.3,0c535.2,0,851.2-315.8,856.6-851.2
							c0-737.6,0-1473.2,0-2210.2C19007.1,29917.1,19007.1,28712.1,19007.1,27498.8L19007.1,27498.8z M9757,28034
							c17.6-32.6,27.2-44.2,27.2-53.6c0-321.2,6.2-639.2,6.2-960.4c6.2-447,246.6-692.8,699-692.8c654.8,0,1309.6,0,1963.9,0
							c502.6,0,743,235,743,737.6c0,327.4,0,648.6,0,976c44.2,0,65.2,6.2,82.8,0c1342.2-256,2689.8-512.2,4034-775.8
							c392.6-76.8,791.4-152.2,1172.4-273.8c360-115.4,541.4-381,529.8-779.8c-11.6-595-6.2-1184-6.2-1779
							c0-648.6-283.2-934-934-934c-1675,0-3356.2,0-5033.2,0c-2680.5,0-5360.6,0-8039.1,0c-92.4,0-190.8,0-283.2,6.2
							c-410.2,21-731.6,315.8-737.6,731.6c-17.6,704.4,0,1403.4,0,2106.4c0,262.2,125,447,339,567.8
							c169.2,92.4,360,163.6,550.8,202.4c1190,235,2380,458.4,3575.6,681.2C8882.8,27870.5,9320.2,27953.2,9757,28034z
							 M14713.5,22815.7c0-485,0-955,0-1425c0-464-163.8-633.8-622.2-633.8c-1151.4,0-2302.6,0-3454,0c-606.6,0-1211.3,0-1817.6,0
							c-294.8,0-512.2,157.6-523.8,410.2c-17.6,544.8-6.2,1086.2-6.2,1647.8c240.4,0,464,0,720,0c0-458.4,0-906.8,0-1353.8
							c1669.6,0,3317.4,0,4977.7,0c0,458.4,0,895.2,0,1353.8C14226.5,22815.7,14460.9,22815.7,14713.5,22815.7L14713.5,22815.7z
							 M10455.8,26986.3c0,841.6,0,1659.4,0,2472.4c0,50.2,11.6,92.4,27.2,142.6c136.6,512.2,616,841.6,1145.8,775.8
							c508-59.8,906.8-502.6,910.8-1042c6.2-747.2,0-1501.8,0-2249c0-32.6-11.6-65.2-17.6-98.4
							C11830.6,26986.3,11152.8,26986.3,10455.8,26986.3z M13309.4,22111.3c-1222.6,0-2424.2,0-3640.8,0c0,246.6,0,479.6,0,720
							c1222.6,0,2424.2,0,3640.8,0C13309.4,22592.3,13309.4,22363.3,13309.4,22111.3z"/>
            <path id="path874" fill=" var(--principal)" d="M11159.1,29295.4c0-175.2,148-321.2,327.4-321.2c180.6,0,321.2,142.6,321.2,321.2
							c0,180.6-142.6,321.2-321.2,321.2C11313.3,29616.9,11159.1,29470.6,11159.1,29295.4z"/>
					</g>
				</g>
			</g>
		</g>
	</g>
</g>
</svg>
