<?xml version="1.0" encoding="utf-8"?>
<!-- Generator: Adobe Illustrator 18.1.1, SVG Export Plug-In . SVG Version: 6.00 Build 0)  -->
<svg version="1.1"
     id="svg8" xmlns:dc="http://purl.org/dc/elements/1.1/" xmlns:cc="http://creativecommons.org/ns#" xmlns:rdf="http://www.w3.org/1999/02/22-rdf-syntax-ns#" xmlns:svg="http://www.w3.org/2000/svg" xmlns:sodipodi="http://sodipodi.sourceforge.net/DTD/sodipodi-0.dtd" xmlns:inkscape="http://www.inkscape.org/namespaces/inkscape" sodipodi:docname="10 - Transaction Processing.svg" inkscape:version="1.0.1 (3bc2e813f5, 2020-09-07)"
     xmlns="http://www.w3.org/2000/svg" xmlns:xlink="http://www.w3.org/1999/xlink" x="0px" y="0px" viewBox="121.4 84.4 459 458.6"
     enable-background="new 121.4 84.4 459 458.6" xml:space="preserve">
<sodipodi:namedview  id="base" inkscape:window-maximized="0" inkscape:document-rotation="0" inkscape:cy="390.31004" inkscape:cx="499.71955" inkscape:zoom="0.98994949" borderopacity="1.0" showgrid="false" bordercolor="#666666" pagecolor="#ffffff" inkscape:window-y="2" inkscape:window-x="241" inkscape:window-height="1032" inkscape:window-width="1438" inkscape:current-layer="g916" inkscape:document-units="mm" inkscape:pageshadow="2" inkscape:pageopacity="0.0">
	</sodipodi:namedview>
  <g id="layer1" inkscape:label="Calque 1" inkscape:groupmode="layer">
	<g id="layer1-1" transform="matrix(0.26458334,0,0,0.26458334,45.117276,14.664417)" inkscape:label="Calque 1">
		<g id="layer1-9" transform="matrix(0.32638059,0,0,0.32638059,49.574673,67.032836)" inkscape:label="Calque 1">
			<g id="g916" transform="matrix(0.33783784,0,0,0.33783784,-5.716699,-7.2654447)">
				<path id="path842" fill=" var(--principal)" d="M9859.5,17522.1c-93.8-37.7-192.2-62.1-283.2-111.1c-363.7-200.7-524.1-528.4-506.8-928.9
					c15.9-401.4,221.1-695.9,602.1-847.8c102.3-37.7,127-86.7,127-187.9c-4.5-532.9-4.5-1060.2-4.5-1612.9c-229.9,0-446.2,0-667.6,0
					c-233.9,0-314.9-82.5-314.9-310.4c0-127,0-254.3,0-327.7c-392.9-245.5-754-475.4-1117.7-695.9c-28.9-20.4-86.7-15.9-118.2,0
					c-40.3,15.9-78,49-111.1,82.5c-479.3,479.3-953.3,953.3-1441.4,1445.4c143.1,283.2,171.8,577.7,53.6,879.3
					c-86.7,209.5-233.9,356.6-430.6,462c-408.5,225.1-888.1,155.9-1195.7-176.3c-310.4-335.3-348.1-843.3-89.6-1216.1
					c285.7-413.3,740.7-524.1,1294-307.8c388.6-392.9,778.4-785.8,1175.2-1191.7c-114.2-200.7-237-426-363.7-647.1
					c-167.5-299.1-339.3-593.6-506.8-892.6c-102.3-184.8-69.2-299.1,114.2-408.5c20.4-13.3,44.8-24.4,65.2-37.7
					c318.9-184.8,323.4-200.7,209.5-584.8c-384.1,0-773.9,0-1162.8,0c-212.3,0-430.6,13.3-642.3-4.5c-258.2-15.9-446.2,0-577.7,303
					c-152.2,348.4-507.4,467.1-879.9,430.9c-397.4-37.7-691.9-237-843.3-618c-20.4-57.5-40.3-114.2-62.1-171.8
					c0-111.1,0-225.1,0-339.3c20.4-53.6,37.7-106.9,57.5-155.9c135.5-388.6,491.2-647.1,908.5-658.8
					c384.1-13.3,756.6,221.1,908.5,589.6c49,118.2,111.1,143.1,225.1,138.6c633.8-4.5,1269.6-4.5,1903.5-4.5c57.5,0,111.1,0,176.3,0
					c15.9-131.5,33.2-249.7,37.7-372.5c0-28.9-33.2-69.2-62.1-89.6c-65.2-44.8-143.1-82.5-212.3-122.7
					c-274.7-155.9-299.1-233.9-138.6-515.6c237-421.8,482.5-843.3,729.1-1260.9c44.8-74,86.7-151.9,127-221.1
					c-397.4-392.9-790.3-781.5-1182.9-1171.3c-548.8,233.9-1002,122.7-1298.3-323.4c-270.1-408.5-216.6-904,135.5-1244.7
					c348.1-335.3,834.5-372.5,1235.9-93.8c430.6,299.1,536,754,283.2,1334.3c44.8,33.2,118.2,69.2,171.8,122.7
					c421.8,417.3,839.1,839.1,1260.9,1256.3c171.8,167.5,167.5,151.9,363.7,28.9C8129.2,6536.7,8466,6349,8817.2,6135
					c0-49,0-138.6,0-233.9c0-372.5,44.8-417.3,426-417.3c180.3,0,356.6,0,557.3,0c0-65.2,0-127,0-184.8c0-479.3-4.5-961.8,0-1441.4
					c0-89.6-24.4-131.5-114.2-163c-466.6-176.3-691.9-606.9-593.6-1109.2c89.6-462,475.4-781.5,946.2-781.5
					c491.2,0,868.3,314.9,966,814.7c89.6,479.3-143.1,896.6-602.1,1080c-44.8,15.9-106.9,74-106.9,111.1
					c-8.8,553.3-4.5,1104.7-4.5,1673.6c229.9,0,446.2,0,662.7,0c233.9,0,314.9,82.5,318.9,310.4c0,127,0,254.3,0,327.7
					c392.9,245.5,756.6,470.8,1122.5,695.9c33.2,20.4,82.5,15.9,118.2,8.8c28.9-4.5,53.6-33.2,74-53.6
					c491.2-495.2,977.7-986.5,1470.3-1486.2c-221.1-577.7-106.9-1035.2,335.3-1314.4c392.9-254.3,912.5-192.2,1235.9,143.1
					c323.4,332.2,363.7,843.3,106.9,1227.4c-283.2,421.8-761.1,536-1298.3,314.9c-388.6,392.9-778.4,785.8-1178.4,1195.7
					c57.5,102.3,131.5,233.9,205.2,363.7c221.1,384.1,441.6,773.9,658.8,1158c111.1,196.7,89.6,327.7-114.2,413.3
					c-283.2,114.2-377,290.3-278.6,573.2c4.5,8.8,4.5,20.4,8.8,40.3c40.3,4.5,86.7,8.8,131.5,8.8c655.7,0,1309.9,0,1965.5,4.5
					c102.3,0,147.1-24.4,180.3-127c147.1-433.1,553.3-683.1,1019.6-647.1c417.3,33.2,803.1,363.7,859.5,773.9
					c82.5,573.2-114.2,1002-695.9,1178.4c-441.6,135.5-1015.4-33.2-1211.5-683.1c-749.5,0-1497.8,0-2242.8,0
					c-4.5,15.9-13.3,24.4-13.3,33.2c-53.6,377-53.6,377,274.7,569.2c212.3,127,245.5,221.1,122.7,437.7
					c-254.3,450.4-511.1,896.6-769.9,1343.1c-37.7,62.1-69.2,122.7-102.3,180.3c397.4,388.6,790.3,773.9,1178.4,1154
					c163-24.4,352.6-86.7,540-82.5c433.1,8.8,790.3,310.4,896.6,729.1c106.9,405.9-65.2,839.1-421.8,1068.9
					c-352.6,225.1-818.6,200.7-1146.9-62.1c-335.3-270.1-462-725.1-294.5-1117.7c53.6-122.7,24.4-184.8-62.1-270.1
					c-426-417.3-847.8-847.8-1273.6-1269.6c-192.2-192.2-187.9-176.3-408.5-37.7c-278.6,176.3-573.2,335.3-868.3,486.4
					c-86.7,44.8-131.5,78-122.7,176.3c8.8,98.4,4.5,192.2,0,290.3c-4.5,192.2-93.8,283.2-283.2,285.7c-225.1,4.5-450.4,0-687.4,0
					c-4.5,40.3-13.3,82.5-13.3,118.2c0,499.7,0,1002,0,1502.1c0,86.7,13.3,131.5,106.9,167.5c430.6,160.4,655.7,519.6,631.3,982.2
					c-24.4,426-307.8,769.9-729.1,883.8c-24.4,8.8-44.8,20.4-69.2,28.9C10105,17522.1,9982.3,17522.1,9859.5,17522.1L9859.5,17522.1
					z M13601.8,8466.5c-245.5-430.6-486.4-847.8-732.2-1269.6c-111.1,62.1-209.5,114.2-307.8,171.8c-138.6,82.5-249.7,57.5-372.5-49
					c-196.7-163-401.4-318.9-618-450.4c-171.8-102.3-368.2-171.8-560.4-240.9c-160.4-62.1-245.5-155.9-229.9-332.2
					c8.8-98.4,0-200.7,0-307.8c-499.7,0-982.2,0-1472.9,0c0,122.7,0,233.9,0,348.1c-4.5,151.9-69.2,245.5-221.1,290.3
					c-143.1,40.3-290.3,86.7-413.3,160.4c-265.9,163-519.6,339.3-769.9,524.1c-135.5,98.4-254.3,143.1-401.4,37.7
					c-86.7-62.1-180.3-102.3-278.6-160.4c-249.7,430.6-486.4,843.3-732.2,1269.6c114.2,69.2,225.1,135.5,332.2,205.2
					c106.9,69.2,147.1,163,114.2,290.3c-114.2,475.4-114.2,953.3,0,1428.1c28.9,122.7-8.8,221.1-114.2,290.3
					c-106.9,65.2-216.6,131.5-332.2,200.7c245.5,426,486.4,843.3,732.2,1273.6c78-44.8,147.1-82.5,212.3-118.2
					c265.9-155.9,299.1-155.9,524.1,44.8c332.2,290.3,700.4,515.6,1126.5,633.8c147.1,40.3,225.1,131.5,225.1,285.7
					c0,114.2,0,233.9,0,348.1c504,0,982.2,0,1472.9,0c0-106.9,8.8-205.2,0-303c-15.9-167.5,62.1-274.7,216.6-327.7
					c462-151.9,879.3-381,1231.9-720.3c89.6-86.7,200.7-98.4,310.4-33.2c106.9,62.1,212.3,118.2,327.7,184.8
					c245.5-426,491.2-839.1,732.2-1260.8c-122.7-74-221.1-135.5-323.4-192.2c-118.2-69.2-151.9-163-122.7-299.1
					c111.1-475.4,111.1-953.3,0-1428.1c-33.2-143.1,13.3-237,131.5-307.8C13391.8,8593.8,13490.1,8531.7,13601.8,8466.5
					L13601.8,8466.5z M3165.5,10153.4c265.9,0,491.2-221.1,491.2-486.4c0-270.1-212.3-491.2-482.5-495.2
					c-274.7-4.5-499.7,221.1-499.7,491.2C2678.8,9932.9,2899.9,10149.5,3165.5,10153.4z M17412.7,9669.8
					c4.5-270.1-212.3-491.2-479.3-499.7c-274.7-8.8-504,216.6-504,491.2c0,265.9,216.6,486.4,486.4,491.2
					C17187.4,10153.4,17412.7,9936.9,17412.7,9669.8z M10046.9,3276.3c270.1,0,486.4-221.1,486.4-486.4
					c0-274.7-225.1-499.7-499.7-491.2c-270.1,4.5-482.5,225.1-482.5,495.2C9556.5,3055.2,9781.6,3276.3,10046.9,3276.3z
					 M10039.8,16048.6c-270.1,4.5-486.4,225.1-486.4,491.2c0,274.7,229.9,495.2,504,486.4c265.9-8.8,482.5-229.9,479.3-499.7
					C10531,16265.2,10306,16044.7,10039.8,16048.6z M14911.7,4311.8c-270.1,0-486.4,209.5-495.2,479.3
					c-4.5,270.1,225.1,504,495.2,499.7c265.9-4.5,482.5-225.1,482.5-491.2C15393.6,4524.1,15185.8,4316.3,14911.7,4311.8z
					 M15393.6,14520.8c0-270.1-216.6-486.4-486.4-486.4c-274.7,0-499.7,229.9-491.2,504c4.5,270.1,225.1,479.3,495.2,479.3
					C15190.3,15008.9,15398.1,14795.4,15393.6,14520.8z M5184.6,15013.4c270.1,0,486.4-216.6,491.2-482.5
					c4.5-265.9-216.6-486.4-482.5-495.2c-274.7-4.5-495.2,221.1-491.2,495.2C4697.9,14803.9,4910.5,15013.4,5184.6,15013.4z
					 M5189.2,5282.4c274.7-4.5,486.4-216.6,482.5-486.4c-4.5-274.7-229.9-486.4-504-482.5c-270.1,4.5-475.4,221.1-475.4,495.2
					C4701,5081.4,4910.5,5286.3,5189.2,5282.4z"/>
        <path id="path844" fill=" var(--principal)" d="M7411.5,3550.4c-131.5,0-245.5-106.9-245.5-240.9c-4.5-135.5,118.2-254.3,254.3-249.7
					c135.5,4.5,237,111.1,237,249.7C7653,3443.5,7545.9,3550.4,7411.5,3550.4z"/>
        <path id="path846" fill=" var(--principal)" d="M8574,3001.9c-4.5,135.5-114.2,240.9-245.5,240.9c-131.5-4.5-240.9-122.7-240.9-249.7
					c4.5-131.5,118.2-240.9,249.7-237C8475.6,2756.1,8578.5,2861.6,8574,3001.9z"/>
        <path id="path848" fill=" var(--principal)" d="M3678.6,7270.9c-135.5-4.5-237-114.2-233.9-249.7c4.5-131.5,118.2-240.9,249.7-237
					c135.5,4.5,249.7,127,240.9,261.4C3928,7177.1,3812.4,7275.4,3678.6,7270.9z"/>
        <path id="path850" fill=" var(--principal)" d="M16417.7,6784.2c135.5,4.5,237,114.2,233.9,249.7c-4.5,135.5-111.1,237-245.5,237
					c-135.5-4.5-240.9-114.2-237-249.7C16172,6891.3,16290.8,6779.6,16417.7,6784.2z"/>
        <path id="path852" fill=" var(--principal)" d="M16953.5,11369.5c4.5,135.5-106.9,249.7-237,249.7c-131.5,4.5-245.5-111.1-249.7-240.9
					c-4.5-135.5,106.9-245.5,240.9-245.5C16843.5,11128.5,16950.7,11234,16953.5,11369.5z"/>
        <path id="path854" fill=" var(--principal)" d="M16401.9,12052.9c135.5,0,245.5,106.9,245.5,240.9c0,131.5-114.2,245.5-245.5,245.5
					c-131.5,0-240.9-114.2-240.9-245.5C16156.4,12155.3,16261.8,12052.9,16401.9,12052.9z"/>
        <path id="path856" fill=" var(--principal)" d="M16953.5,7942.4c4.5,135.5-102.3,245.5-237,245.5c-135.5,4.5-245.5-102.3-249.7-237
					c-4.5-131.5,111.1-245.5,240.9-249.7C16835,7701.2,16950.7,7810.9,16953.5,7942.4z"/>
        <path id="path858" fill=" var(--principal)" d="M12925.7,16031.3c-4.5,135.5-111.1,237-249.7,237c-138.6,0-240.9-106.9-237-245.5
					c0-135.5,111.1-240.9,245.5-240.9C12811.5,15785.9,12925.7,15901.5,12925.7,16031.3z"/>
        <path id="path860" fill=" var(--principal)" d="M12671.5,3550.4c-135.5-4.5-237-114.2-237-249.7c4.5-135.5,111.1-240.9,245.5-240.9
					c131.5,4.5,245.5,118.2,240.9,249.7C12920.9,3439.6,12802.7,3553.5,12671.5,3550.4z"/>
        <path id="path862" fill=" var(--principal)" d="M13798,15569.3c4.5,135.5-98.4,245.5-233.9,249.7c-131.5,4.5-249.7-106.9-254.3-237
					c-4.5-131.5,102.3-245.5,237-249.7C13686.8,15332.3,13793.7,15430.7,13798,15569.3L13798,15569.3z"/>
        <path id="path864" fill=" var(--principal)" d="M11747.1,16573c-135.5,0-245.5-111.1-245.5-240.9c0-131.5,114.2-245.5,245.5-245.5
					c135.5,0,240.9,111.1,240.9,245.5C11988,16465.9,11881.2,16573,11747.1,16573z"/>
        <path id="path866" fill=" var(--principal)" d="M3391.1,8183.6c-127,4.5-254.3-114.2-249.7-237c0-106.9,111.1-205.2,229.9-209.5
					c131.5-4.5,254.3,114.2,249.7,240.9C3620.5,8082.4,3509.3,8180.8,3391.1,8183.6z"/>
        <path id="path868" fill=" var(--principal)" d="M6527.4,3967.7c-127,4.5-221.1-82.5-225.1-196.7c0-131.5,111.1-240.9,240.9-245.5
					c127-4.5,221.1,78,221.1,196.7C6764.4,3856.8,6662,3963.7,6527.4,3967.7z"/>
        <path id="path870" fill=" var(--principal)" d="M13539.4,3526c127,0,245.5,114.2,245.5,240.9c0,114.2-93.8,205.2-216.6,209.5
					c-131.5,0-240.9-106.9-240.9-240.9C13327.1,3615.6,13416.7,3526,13539.4,3526L13539.4,3526z"/>
        <path id="path872" fill=" var(--principal)" d="M16185.3,6170.2c-4.5,131.5-86.7,212.3-209.5,212.3c-135.5-4.5-237-111.1-237-245.5
					c4.5-127,89.6-216.6,209.5-216.6C16078.4,5924.7,16187.9,6038.9,16185.3,6170.2z"/>
        <path id="path874" fill=" var(--principal)" d="M15975.8,12940.7c122.7-4.5,205.2,82.5,209.5,212.3c4.5,131.5-106.9,245.5-237,249.7
					c-114.2,4.5-205.2-89.6-209.5-216.6C15739.1,13056.4,15844.6,12945.6,15975.8,12940.7z"/>
        <path id="path876" fill=" var(--principal)" d="M4120.2,5932.4c131.5,0,245.5,111.1,245.5,240.9c0,114.2-93.8,200.7-221.1,200.7
					c-135.5,0-240.9-106.9-240.9-240.9C3903.6,6019.1,3988.7,5932.4,4120.2,5932.4z"/>
        <path id="path880" fill=" var(--principal)" d="M3629,11376.9c-4.5,131.5-114.2,240.9-245.5,245.5c-135.5,0-249.7-118.2-245.5-258.2
					c4.5-135.5,114.2-233.9,249.7-229.9C3526.6,11131.1,3629,11242.8,3629,11376.9z"/>
        <path id="path882" fill=" var(--principal)" d="M7653,16011.5c0,135.5-102.3,245.5-237,249.7c-131.5,0-245.5-111.1-249.7-240.9
					c0-131.5,111.1-245.5,240.9-245.5C7545.9,15770,7653,15877.1,7653,16011.5z"/>
        <path id="path884" fill=" var(--principal)" d="M3935.1,12293.9c0,131.5-114.2,245.5-245.5,245.5c-131.2,0-245.5-114.2-245.5-245.5
					c0-135.5,106.9-240.9,245.5-240.9C3825.7,12052.9,3935.1,12159.8,3935.1,12293.9z"/>
        <path id="path886" fill=" var(--principal)" d="M8348.9,16568.8c-135.5,4.5-245.5-102.3-245.5-237c-4.5-135.5,102.3-245.5,237-249.7
					c131.5-4.5,245.5,106.9,249.7,240.9C8589.9,16453.1,8484.4,16568.8,8348.9,16568.8z"/>
        <path id="path888" fill=" var(--principal)" d="M6760.4,15560.5c0,135.5-102.3,240.9-237,245.5c-118.2,4.5-205.2-86.7-205.2-212.3
					c0-131.5,106.9-245.5,237-249.7C6670.5,15339.4,6760.4,15434.7,6760.4,15560.5z"/>
        <path id="path890" fill=" var(--principal)" d="M4361.2,13141.7c4.5,131.5-106.9,240.9-237,245.5c-127,4.5-221.1-78-221.1-196.7
					c-4.5-135.5,102.3-245.5,237-245.5C4263.4,12945.6,4361.2,13027.5,4361.2,13141.7z"/>
        <path id="path860-8" fill=" var(--principal)" d="M11783.4,3185.3c-135.5-4.5-237-114.2-237-249.7c4.5-135.5,111.1-240.9,245.5-240.9
					c131.5,4.5,245.5,118.2,240.9,249.7C12033.1,3075.6,11914.9,3189.8,11783.4,3185.3z"/>
        <path id="path840" fill=" var(--principal)" d="M8913,8812.9c95.2,0,172.6,0,247.7,0c828.9,0,1658,0,2486.3,0
					c210.9,0,347.5,177.2,281.8,361.1c-38.8,106.6-115.7,163.6-227.3,182c-20.4,2-38.8,2-59,2c-1069.5,0-2138.7,0-3210.8,0
					c-113.7,0-206.9-38.8-263.3-138.6c-56.7-97.8-49.9-195,11.3-290.3c179.4-272.7,358.6-545.1,542.6-813.3
					c88.7-129.5,249.7-159,374.5-74.8c124.7,81.6,159,240.4,77.4,374.5c-38.8,65.8-84.2,127.3-127.3,190.5
					C9005.7,8669.8,8964.9,8733.6,8913,8812.9L8913,8812.9z"/>
        <path id="path842-4" fill=" var(--principal)" d="M11162.9,10447.9c-140.6,0-261.4,0-383.5,0c-774.4,0-1548.8,0-2322.7,0
					c-45.4,0-90.7-2-134.1-13.9c-127.3-38.8-204.4-159-190.5-286.3c13.9-132.1,122.7-233.9,256.8-242.9c13.9,0,26.9,0,43.4,0
					c1072.1,0,2143.3,0,3215.3,0c97.8,0,179.4,26.9,240.4,104.3c74.8,93.3,81.6,210.9,13.9,318
					c-179.4,274.7-361.1,549.6-547.1,819.8c-88.7,129.5-249.7,157-374.5,72.8c-124.7-81.6-159-242.9-74.8-374.5
					C10981.5,10715.8,11067.6,10588.5,11162.9,10447.9z"/>
			</g>
		</g>
	</g>
</g>
</svg>
