<?xml version="1.0" encoding="utf-8"?>
<!-- Generator: Adobe Illustrator 18.1.1, SVG Export Plug-In . SVG Version: 6.00 Build 0)  -->
<svg version="1.1"
	 id="svg8" xmlns:dc="http://purl.org/dc/elements/1.1/" xmlns:cc="http://creativecommons.org/ns#" xmlns:rdf="http://www.w3.org/1999/02/22-rdf-syntax-ns#" xmlns:svg="http://www.w3.org/2000/svg" xmlns:sodipodi="http://sodipodi.sourceforge.net/DTD/sodipodi-0.dtd" xmlns:inkscape="http://www.inkscape.org/namespaces/inkscape" sodipodi:docname="13 - Tools.svg" inkscape:version="1.0.1 (3bc2e813f5, 2020-09-07)"
	 xmlns="http://www.w3.org/2000/svg" xmlns:xlink="http://www.w3.org/1999/xlink" x="0px" y="0px"
	 viewBox="166.4 186.2 287.8 288.7" enable-background="new 166.4 186.2 287.8 288.7" xml:space="preserve">
<sodipodi:namedview  id="base" inkscape:window-maximized="1" inkscape:document-rotation="0" inkscape:cy="515.15141" inkscape:cx="409.20944" inkscape:zoom="0.98994949" borderopacity="1.0" showgrid="false" bordercolor="#666666" pagecolor="#ffffff" inkscape:window-y="-8" inkscape:window-x="-8" inkscape:window-height="1009" inkscape:window-width="1920" inkscape:current-layer="g856" inkscape:document-units="mm" inkscape:pageshadow="2" inkscape:pageopacity="0.0">
	</sodipodi:namedview>
<g id="layer1" inkscape:label="Calque 1" inkscape:groupmode="layer">
	<g id="layer1-9" transform="matrix(0.26458333,0,0,0.26458333,27.253974,19.522472)" inkscape:label="Calque 1">
		<g id="g858">
			<g id="g856">
				<path id="path836" fill=" var(--principal)" d="M1423.1,630.3c14.5,3.4,28.9,6,43.1,10.2c20.7,6,24.9,23.2,9.9,38.8
					c-25.5,26.1-51,52.2-76.8,78c-5.4,5.4-7.1,11.1-7.9,18.4c-2.8,23,3.7,41.4,22.7,55c0.6,0.3,1.1,0.9,1.4,1.4
					c13.6,20.7,33.2,28.3,57.3,23.5c5.1-0.9,11.1-2.8,14.5-6.2c26.1-25.5,51.6-51.6,77.4-77.7c18.1-18.1,34-13.6,42.2,10.5
					c7.7,23,4.5,46.2,6,69.4c2,31.7-6.8,60.7-20.7,88.7c-41.1,82.5-138.6,130.4-228.8,111.1c-11.1-2.3-18.4-0.9-26.6,7.7
					c-34.9,36-70.9,71.4-106.6,106.9c-2.8,2.8-6.5,4.3-10.5,6.8c12.5,11.3,22.1,20.4,35.7,32.9c3.1-4.8,5.7-10.2,9.6-14.2
					c9.9-9.6,23-9.6,31.2-0.9c8.5,8.8,8.2,20.4-1.1,30.6c-3.4,3.7-7.7,6.2-11.9,9.9c31.7,29.2,61.5,56.4,91.3,83.9
					c63.5,58.1,126.4,116.8,190.5,174.3c32.9,29.5,50.2,63.2,48.8,108.6c-1.7,52.2-26.4,87.3-70.6,109.4
					c-51,25.8-110.6,13.3-150.2-29.8c-85.3-92.4-170.4-185.1-255.4-277.5c-3.1-3.4-6.2-6.5-7.4-7.9c-11.6,5.4-21.3,11.1-31.7,14.5
					c-3.4,1.1-9.9-3.4-13.3-6.8c-9.9-10.5-6.8-19.3,13.6-42c-9.1-9.9-18.4-20.1-28.1-30.6c-1.7,1.4-3.1,2.3-4.3,3.4
					c-38.6,38.6-77.4,77.1-115.7,115.9c-3.1,3.1-5.1,9.4-4.3,13.6c17.9,91.3-10.8,165.5-84.5,220.5c-57,42.5-121.9,50.2-189.9,28.9
					c-17.3-5.4-21-23.5-7.7-37.1c25.8-26.1,52.2-52.2,78.5-77.7c6.2-6.2,8.2-12.5,9.4-21c2.3-21.5-3.1-38.8-21.5-51.3
					c-1.4-0.9-2.8-2.3-3.7-3.7c-14.2-21-34.3-28.1-58.4-23.5c-5.1,0.9-10.8,2.8-14.5,6.5c-25.8,25.2-51,51-76.5,76.8
					c-18.7,18.7-35.4,14.7-42.8-10.5c-35.7-121,40.8-246.6,165.3-270.1c28.9-5.4,57.8-4.5,86.5,1.7c3.4,0.9,8.8,0.3,11.1-2
					c50.7-50.5,101.2-100.9,152.5-152.2c-2.6-2.8-4.8-5.4-7.1-7.7c-81.9-82.2-164.1-164.4-246-246.9c-5.7-6-11.6-8.2-19.6-7.9
					c-12.8,0.6-25.5,0-38.3,0.3c-9.1,0-15.6-3.7-20.1-11.3c-29.8-49.3-59.5-98.9-89-148.5c-5.4-9.1-5.1-18.7,2.3-26.6
					c20.1-20.7,40.5-40.8,60.9-60.9c2.6-2.6,5.7-4,8.5-6c4.3,0,8.5,0,12.8,0c0.3,0.6,0.6,1.4,1.1,1.7c50.2,30,100.3,59.8,150.5,89.6
					c9.6,5.7,14.2,13.3,13.9,24.4c-0.3,11.9,0.3,24.1-0.3,36c-0.3,7.9,2,13.9,7.9,19.6c81.9,81.9,163.8,163.8,245.5,246
					c2.6,2.6,4,5.7,6,8.2c3.1-2,4-2.3,4.8-3.1c49.9-49.9,99.8-99.5,149.4-149.7c2.8-2.8,4-9.1,3.1-13c-5.1-24.1-7.1-48.2-3.4-72.9
					c11.6-77.1,52.2-133.8,122.7-166.7c22.1-10.2,47.3-13.6,70.9-20.1C1397.6,630.3,1410.3,630.3,1423.1,630.3L1423.1,630.3z
					 M722.1,1675.8c0.9,0.6,1.4,1.4,2,1.4c1.7,0.3,3.4,0.6,5.4,0.6c39.4,1.4,75.7-8.2,108-31.5c57-41.4,86.2-115.9,63.8-187.4
					c-4-12.5-1.7-22.1,7.7-31.7c138-137.5,275.8-275.2,413.3-413.3c9.4-9.4,19-11.6,31.7-7.9c96.7,27.8,192.2-28.3,215.1-126.4
					c4-17.3,5.1-35.1,2.6-53c-21.3,21-42,40.8-62.1,61.2c-7.4,7.4-15,10.8-25.5,10.5c-16.2-0.6-32.6-0.6-48.8,0
					c-10.5,0.3-18.1-3.7-25.2-11.1c-16.7-17.9-34.6-34.9-50.5-53c-5.4-6-8.8-15.3-9.6-23.5c-1.4-16.2-0.3-32.6-0.6-48.8
					c-0.3-10.2,3.4-18.4,10.8-25.5c18.1-17.9,35.7-36.3,53.6-54.4c2-2,3.7-4.5,6.5-7.9c-21.3-3.1-40.5-1.1-59.2,4
					c-93.8,24.7-148,118.2-121.6,212c4.3,15,1.4,25.2-9.4,36c-136.6,136.1-272.7,272.4-408.8,408.8c-10.8,11.1-21.5,13.6-36,9.6
					c-93-25.8-184.5,25.8-211.2,118.5c-5.7,19.8-7.4,40.3-4.5,61.8c1.7-1.1,2-1.1,2.3-1.4c20.4-20.4,40.5-40.5,60.7-60.9
					c6.5-6.8,14.2-10.2,23.5-9.9c16.7,0.3,33.2,0.6,49.9,0c10.5-0.3,18.4,3.4,25.2,10.8c11.1,11.6,22.7,22.4,33.7,34
					c33.2,33.7,27.2,21.5,29.5,70c1.1,25.8-5.7,45.4-25.8,62.1C751.6,1643.2,737.4,1660.2,722.1,1675.8L722.1,1675.8z M1158.1,1360
					c0.6,0.9,0.9,1.4,1.4,2c88.7,96.4,177.2,192.8,266.2,289.1c18.1,19.8,41.7,29.2,68.9,26.6c35.7-3.4,61.2-22.4,72.9-56.1
					c12.8-36,3.4-67.7-24.7-93.5c-91.3-83.9-182.6-167.5-273.8-251.4c-4.8-4.5-9.9-8.8-14.2-12.8
					C1222.1,1296.2,1190.4,1327.9,1158.1,1360L1158.1,1360z M1009.2,1085.3c-3.1-3.1-5.7-6-8.5-8.8
					c-77.7-77.7-155.3-155.3-232.4-233.3c-39.4-40-31.2-22.1-32.3-78c0-0.6,0-1.4,0-2c1.4-7.1-2.3-10.8-8.2-14.2
					c-37.1-21.8-74-44.2-111.1-66.6c-2.3-1.4-4.8-2.6-7.7-4c-10.2,10.2-19.6,20.4-29.8,29.8c-5.7,5.1-5.4,9.1-1.4,15.3
					c17.3,28.1,34,56.4,50.7,84.5c6.5,10.8,11.1,25.5,20.7,31.2c9.6,5.4,24.9,2.3,37.4,1.7c13-0.6,22.7,4,32,13.3
					c83.6,84.2,167.5,168.1,251.1,252.3c2.8,3.1,4.8,7.1,7.4,10.8C989.4,1105.1,998.7,1095.8,1009.2,1085.3L1009.2,1085.3z
					 M1126,1326c31.5-31.5,62.6-62.6,93.8-93.8c-8.8-7.9-18.7-17-27.8-25.2c-30.6,30.6-60.9,60.9-91.6,91.6
					C1109,1307.5,1118.4,1317.5,1126,1326z"/>
				<path id="path848" fill=" var(--principal)" d="M941.5,1329.6c-20.1,0.3-30.6-16.7-23-30.6c2.3-4,5.4-7.4,8.8-10.5
					c85.3-85.3,170.6-170.9,256.3-256.3c3.1-3.1,6.2-6,9.6-8.2c8.8-5.1,17-3.7,24.7,2.8c7.1,6.2,8.8,16.7,4,25.2
					c-2.3,4-5.4,7.4-8.8,10.5c-85.3,85.3-170.6,170.9-256.3,256C951.7,1324,944.9,1327.4,941.5,1329.6L941.5,1329.6z"/>
				<path id="path850" fill=" var(--principal)" d="M1263.2,961.1c11.3-0.3,21,8.8,21.5,20.1c0.6,11.3-8.8,21-20.1,21.5
					c-11.9,0.6-22.1-8.8-22.1-20.7C1242.5,971.1,1251.9,961.4,1263.2,961.1L1263.2,961.1z"/>
				<path id="path852" fill=" var(--principal)" d="M876.3,1348.4c11.6-0.3,21,8.8,21.5,20.1c0.6,11.6-9.4,21.5-21.3,21.5
					c-11.6,0-21-9.4-21-20.7C855.6,1357.7,865,1348.4,876.3,1348.4L876.3,1348.4z"/>
				<path id="path854" fill=" var(--principal)" d="M1493.7,1574c-0.3,19.8-16.7,29.8-30.3,22.7c-4-2-7.4-5.4-10.8-8.5
					c-60.4-60.1-120.8-120.5-181.4-180.6c-2-2-4-4-6-6.2c-7.7-9.6-7.7-20.7,0-28.9c7.7-8.2,19.8-8.8,29.8-1.1c2.3,1.7,4.3,4,6.2,6
					c60.4,60.1,120.8,120.5,181.1,180.9C1487.7,1563.2,1491.1,1570.6,1493.7,1574L1493.7,1574z"/>
			</g>
		</g>
	</g>
</g>
</svg>
