<?xml version="1.0" encoding="utf-8"?>
<!-- Generator: Adobe Illustrator 18.1.1, SVG Export Plug-In . SVG Version: 6.00 Build 0)  -->
<svg version="1.1"
	 id="svg8" xmlns:dc="http://purl.org/dc/elements/1.1/" xmlns:cc="http://creativecommons.org/ns#" xmlns:rdf="http://www.w3.org/1999/02/22-rdf-syntax-ns#" xmlns:svg="http://www.w3.org/2000/svg" xmlns:sodipodi="http://sodipodi.sourceforge.net/DTD/sodipodi-0.dtd" xmlns:inkscape="http://www.inkscape.org/namespaces/inkscape" sodipodi:docname="Opération.svg" inkscape:version="1.0.1 (3bc2e813f5, 2020-09-07)"
	 xmlns="http://www.w3.org/2000/svg" xmlns:xlink="http://www.w3.org/1999/xlink" x="0px" y="0px"
	 viewBox="135.8 188.4 275.8 276.3" enable-background="new 135.8 188.4 275.8 276.3" xml:space="preserve">
<sodipodi:namedview  id="base" inkscape:cy="560" inkscape:cx="400" inkscape:zoom="0.35" borderopacity="1.0" showgrid="false" bordercolor="#666666" pagecolor="#ffffff" inkscape:window-y="0" inkscape:window-x="26" inkscape:window-height="1032" inkscape:window-width="1438" inkscape:current-layer="layer1" inkscape:document-units="mm" inkscape:pageshadow="2" inkscape:pageopacity="0.0" inkscape:window-maximized="0" inkscape:document-rotation="0">
	</sodipodi:namedview>
<g id="layer1" inkscape:label="Calque 1" inkscape:groupmode="layer">
	<g id="layer1-5" transform="matrix(0.26458334,0,0,0.26458334,50.378564,75.227737)" inkscape:label="Calque 1">
		<g id="g854" transform="matrix(0.33783784,0,0,0.33783784,-6.9543121,-31.535233)">
			<path id="path840" fill="#797979" d="M2604.3,1359.7c59.5,7.9,119.1,13.6,178.3,23.2c234.7,39.4,447.6,130.1,640.3,269.3
				c8.8,6.5,17.6,12.8,32.9,22.4c0-34.6,0-63.5,0-93.3c0-28.9-0.9-58.7,0-87.6c2.6-53.9,41.1-93.3,90.7-92.4
				c50.7,0,88.4,39.4,89.3,94.1c0.9,125.3,0.9,250.6,0,376.7c0,47.3-24.1,79.7-69.2,89.9c-130.1,30.6-260.2,59.5-390.6,86.7
				c-45.9,9.6-91.6-24.1-102-69.2c-10.5-49,18.4-96.4,68.3-107.7c64.3-15.3,129.3-28.9,193.6-43.4c3.1-0.9,5.7-1.7,13.6-4
				c-9.6-7.9-17-14.5-24.1-19.3c-269.3-194.5-568.9-282.9-900-260.2c-593,40.3-1088.8,456.4-1228.5,1033.2
				c-84.5,346.4-36.9,677.5,134.9,989.9c8.8,17,19.3,33.7,23.2,51.3c10.5,44.2-12.2,85.9-53,102.9c-41.7,17-89.9,4-111.7-38.6
				c-41.7-81.1-83.6-162.4-117.4-246.6c-52.4-132.1-81.4-271.8-91.8-415c-0.9-7.9-3.1-15.3-4.8-23.2c0-62.6,0-124.4,0-187.1
				c1.7-9.6,4-19.3,4.8-28.9c10.5-70.6,17-141.4,31.5-211.5c132.7-611.4,628.4-1085.7,1243-1189.1c59.5-9.6,119.1-16.2,178.3-23.2
				C2491.7,1359.7,2547.9,1359.7,2604.3,1359.7L2604.3,1359.7z"/>
			<path id="path844" fill="#797979" d="M2229.8,2201.8c6.5-51.3,12.8-98.1,18.4-144.6c7.4-57,41.1-88.4,98.1-89.3
				c115.7-0.9,230.7,0,346.4,0c57.8,0,91.6,31.5,98.9,88.4c5.7,46.5,12.2,93.3,18.4,145.4c35.4-27.2,67.5-52.2,99.5-77.1
				c67.5-53,103.7-50.7,163.8,9.6c74,74,148,148,221.7,221.7c50.7,50.7,53,90.7,8.8,148c-26.6,34.6-53.9,69.2-83.6,107.7
				c52.2,6.5,99.5,12.8,147.1,19.3c55.6,7.4,86.7,41.7,86.7,97.2c0.9,115.7,0,230.7,0,346.4c0,57.8-30.6,91.6-87.6,99.5
				c-46.5,6.5-93.3,12.2-145.4,18.4c11.3,14.5,19.3,25.8,28.1,36.9c22.4,28.9,45.1,56.1,65.8,85.9c28.1,39.4,27.2,83.6-6.5,118.2
				c-85,86.7-170.4,172.6-258,258c-35.4,34.6-80.2,34.6-120.5,4c-38.6-28.9-76.3-58.7-114.8-87.6c-0.9-0.9-1.7,0-6.5,0
				c-5.7,45.9-12.2,91.6-17.6,138.3c-7.4,59.5-41.1,89.9-99.5,89.9c-114.2,0-229,0-343,0c-59.5,0-93.3-31.5-100.3-89.9
				c-5.7-46.5-12.2-92.4-18.4-143.7c-40.3,31.5-76.3,59.5-112.5,86.7c-51.3,38.6-94.1,36.3-138.9-8.8
				c-79.7-79.7-159-159-238.7-238.7c-43.4-44.2-45.9-86.7-7.9-136.6c28.1-36.3,56.1-72.3,87.6-113.4c-50.7-6.5-96.4-12.8-142.3-18.4
				c-60.4-7.4-90.7-41.1-90.7-102c0-113.4,0-226.5,0-340.7c0-60.9,31.5-94.1,92.4-101.2c45.9-5.7,90.7-12.2,141.4-18.4
				c-29.8-38.6-57-74-84.5-109.4c-42.5-55.6-40.3-95.5,9.6-145.4c76.3-77.1,153.4-153.4,229.9-229.9c49.9-49.9,89.9-52.2,145.4-9.6
				C2155.8,2144.9,2191.3,2172.1,2229.8,2201.8z M2419.5,2150.5c-5.7,43.4-10.5,83.6-15.3,124.4c-4.8,42.5-26.6,72.3-68.3,86.7
				c-22.4,7.9-45.1,17.6-66.6,28.1c-39.4,19.3-75.4,14.5-109.4-12.8c-32.9-26.6-65.8-51.3-98.1-76.3
				c-48.2,48.2-94.7,94.7-143.1,143.1c25.8,32.9,52.2,66.6,78,101.2c24.1,31.5,29.8,65.2,12.2,101.2c-9.6,21-19.3,41.7-26.6,63.5
				c-16.2,50.7-50.7,74-102,78c-36.9,2.6-73.1,8.8-110.8,13.6c0,68.3,0,134.9,0,201.5c45.9,6.5,89.3,12.2,133.5,17.6
				c37.7,4.8,60.9,27.2,74.8,61.8c8.8,23.2,17.6,46.5,28.9,69.2c21,41.7,15.3,78.8-13.6,114.8c-25.8,31.5-49.9,64.3-73.1,94.1
				c49,49,95.5,95.5,143.1,143.7c31.5-24.1,65.2-49.9,98.1-76.3c32.9-26.6,68.3-30.6,106.9-12.2c20.1,9.6,40.3,18.4,60.9,24.9
				c49,16.2,73.1,49.9,77.1,99.5c3.1,37.7,8.8,75.4,13.6,113.4c69.2,0,135.8,0,202.4,0c5.7-44.2,10.5-85.9,16.2-127.8
				c5.7-41.1,27.2-67.5,65.8-81.1c22.4-7.9,45.1-17.6,66.6-28.1c40.3-20.1,77.1-15.3,111.7,12.8c32,26.6,65.8,51.3,94.1,73.1
				c49.9-49.9,96.4-96.4,143.7-143.7c-24.1-30.6-49.9-64.3-75.4-97.2c-25.8-32-30.6-66.6-12.8-103.7c9.6-20.1,19.3-40.3,25.8-60.9
				c16.2-52.2,51.3-76.3,104.6-79.7c36.9-2.6,73.1-8.8,110-13.6c0-68.3,0-134.1,0-201.5c-45.9-6.5-90.7-11.3-134.9-17.6
				c-36.3-4.8-59.5-26.6-73.1-59.5c-10.5-24.9-20.1-50.7-31.5-74.8c-18.4-38.6-13.6-74,12.8-106.9c26.6-32.9,51.3-66.6,74-95.5
				c-49-49-95.5-95.5-143.7-143.7c-30.6,23.2-63.5,49-97.2,74.8c-32,24.9-66.6,29.8-104.6,12.2c-17.6-8.8-36.3-18.4-55.6-23.2
				c-56.1-16.2-81.9-52.2-85-110c-1.7-35.4-8.8-70.6-13.6-106.9C2552.7,2150.5,2487.8,2150.5,2419.5,2150.5L2419.5,2150.5z"/>
			<path id="path846" fill="#797979" d="M1584.6,4129.4c0,53,0,100.3,0,148.5c0,15.3,0.9,30.6-1.7,45.1
				c-7.4,48.2-48.2,81.9-94.1,79.7c-47.3-3.1-83.6-39.4-84.5-89.3c-0.9-111.7-0.9-222.5-0.9-334.2c0-17,0-34.6,0-51.3
				c1.7-43.4,24.9-75.4,67.5-85c131-30.6,261.9-59.5,393.7-87.6c44.2-9.6,89.9,24.1,99.5,68.3c11.3,48.2-17,96.4-66.6,108.6
				c-64.3,16.2-129.3,28.9-193.6,43.4c-3.1,0.9-7.4,1.7-21,5.7c59.5,37.7,109.4,74,163,104.6c810.7,458.1,1824.1-4,2008.9-916.7
				c65.8-325.4,14.5-634.7-144.6-925.8c-5.7-10.5-12.2-21-17.6-31.5c-24.1-47.3-8.8-101.2,35.4-124.4c43.4-23.2,95.5-7.9,122.2,36.9
				c57.8,98.1,104.6,201,138.3,309.3c249.2,792.3-155.9,1631.9-936.9,1916.5c-504.6,184-985,113.4-1429.5-191.3
				C1611.9,4148.7,1600.5,4140.7,1584.6,4129.4L1584.6,4129.4z"/>
			<path id="path850" fill="#797979" d="M2128.6,2900.9c0-216.3,177.4-391.2,394.6-390.6c214.6,0.9,389.8,177.4,388.9,392.9
				c-0.9,216.3-177.4,391.2-394.6,390.6C2302.9,3292.9,2128.6,3116.3,2128.6,2900.9L2128.6,2900.9z M2519.8,3112.9
				c115.7,0,211.5-94.7,211.5-210.6c0-116.5-94.1-211.5-210.6-211.5c-115.7,0-211.5,94.7-211.5,210.6
				C2309.5,3018.2,2404.1,3112.9,2519.8,3112.9z"/>
		</g>
	</g>
</g>
</svg>
