<?xml version="1.0" encoding="utf-8"?>
<!-- Generator: Adobe Illustrator 23.0.2, SVG Export Plug-In . SVG Version: 6.00 Build 0)  -->
<svg version="1.1"
	 id="svg8" inkscape:version="1.0.1 (3bc2e813f5, 2020-09-07)" sodipodi:docname="Compta générale.svg" xmlns:cc="http://creativecommons.org/ns#" xmlns:dc="http://purl.org/dc/elements/1.1/" xmlns:inkscape="http://www.inkscape.org/namespaces/inkscape" xmlns:rdf="http://www.w3.org/1999/02/22-rdf-syntax-ns#" xmlns:sodipodi="http://sodipodi.sourceforge.net/DTD/sodipodi-0.dtd" xmlns:svg="http://www.w3.org/2000/svg"
	 xmlns="http://www.w3.org/2000/svg" xmlns:xlink="http://www.w3.org/1999/xlink" x="0px" y="0px" viewBox="0 0 368.4 367.5"
	 style="enable-background:new 0 0 368.4 367.5;" xml:space="preserve">
<style type="text/css">
	.st0{fill:#797979;}
	.st1{fill:#797979;}
</style>
<sodipodi:namedview  bordercolor="#797979" borderopacity="1.0" id="base" inkscape:current-layer="g918" inkscape:cx="478.1645" inkscape:cy="445.43085" inkscape:document-rotation="0" inkscape:document-units="mm" inkscape:pageopacity="0.0" inkscape:pageshadow="2" inkscape:window-height="1017" inkscape:window-maximized="1" inkscape:window-width="1920" inkscape:window-x="-8" inkscape:window-y="-8" inkscape:zoom="1.4" pagecolor="#ffffff" showgrid="false" showguides="false">
	</sodipodi:namedview>
<g id="layer1" inkscape:groupmode="layer" inkscape:label="Calque 1">
	<g id="g918" transform="matrix(0.33854167,0,0,0.33775006,16.258928,-24.059088)">
		<path id="path840" class="st0" d="M415.2,71.2c23.8,7.4,40.3,21.8,43.9,47.6c1.1,7.7,0.3,15.6,0.3,24.9c5.1,0,9.1,0,13.3,0
			c67.7,0,135.2-0.3,203,0.3c5.1,0,11.9,2.8,15.6,6.5c72.3,71.7,144,143.7,215.7,215.7c3.1,3.1,6,8.2,6,12.5
			c0.3,89,0.3,177.7,0.3,266.7c0,1.7-0.3,3.4-0.6,5.7c-11.9,0-23.2,0-35.7,0c0-84.2,0-168.1,0-253.1c-72.9,0-144.6,0-217.1,0
			c0-72.9,0-144.9,0-217.1c-66.6,0-132.4,0-199.8,0c0,4,0,7.9,0,12.2c0,144.6,0,289.1,0,433.7c0,40.3-21.5,61.5-61.8,61.5
			c-89.6,0-179.1,0-269,0c-4.3,0-8.2,0-13.3,0c0,145.4,0,289.7,0,434.8c253.1,0,506.3,0,760.5,0c0-71.4,0-143.1,0-216
			c12.5,0,23.8,0,36,0c0,83.9,0,167.5,0,252.3c-277.5,0-555,0-833.4,0c0-156.8,0-313.2,0-471.1c-24.4,0-47.6,1.1-70.6-0.6
			c-11.3-0.9-24.7-3.7-33.4-10.5c-9.9-7.7-15.6-21-23-31.7c0-176.6,0-352.9,0-529.2c6.5-23.2,21.5-38,44.5-44.8
			C135.9,71.2,275.7,71.2,415.2,71.2L415.2,71.2z M-12,379.6c0,81.9,0,163.6,0,245.5c0,21.3,5.1,26.6,26.1,26.6
			c127.6,0,255.1,0,382.4,0c21.8,0,26.9-5.1,26.9-26.6c0-163.6,0-327.4,0-491c0-21.3-5.4-26.6-26.1-26.6c-127.8,0-255.7,0-383.5,0
			c-20.4,0-25.8,5.4-25.8,25.8C-12,215.2-12,297.4-12,379.6L-12,379.6z M845.7,360.7C796.1,311,745.7,260.6,696.4,211.5
			c0,47.6,0,98.4,0,149.1C747.4,360.7,797.8,360.7,845.7,360.7z"/>
		<path id="path842" class="st0" d="M1040.2,696.3c-4.3,17.9-16.2,30.6-28.9,43.4c-97.5,97.2-194.7,194.7-292.5,292
			c-5.7,5.7-12.5,10.2-19.8,13.6c-27.5,13-55.3,25.5-82.8,38.3c-8.8,4.3-17,5.4-24.4-2c-7.4-7.4-6-15.9-1.7-24.7
			c0.3-0.3,0.3-0.6,0.6-0.9c14.2-30.9,24.9-64.1,43.9-91.6c18.7-26.9,45.6-48.2,69.2-71.7c79.9-79.9,159.9-159.9,239.5-239.5
			c21-20.7,48.8-24.4,71.7-9.9c14.2,9.1,20.4,22.7,24.9,38C1040.2,686.4,1040.2,691.2,1040.2,696.3L1040.2,696.3z M894.8,752.4
			c-2.8,3.1-4.8,5.7-7.1,7.9c-69.4,69.4-138.3,139.2-208.3,207.8c-18.1,17.6-25.2,40-35.4,61.8c19.3-9.6,40.3-14.2,56.1-30.3
			c70.3-70.9,141.2-141.4,212-211.7c3.1-3.1,6.5-5.4,9.9-7.9C912.4,770.3,904.1,762,894.8,752.4L894.8,752.4z M986.1,713.6
			c7.1-8.8,20.1-14.2,16.7-28.1c-1.4-5.7-7.9-12.5-13.3-14.2c-14.2-4-20.4,8.8-28.3,16.2C969.3,696.3,977.3,704.5,986.1,713.6
			L986.1,713.6z M934.2,715c-4.5,4-8.8,7.7-11.6,10.5c8.8,9.4,16.4,17.9,24.1,26.4c4.5-4,8.5-7.7,12.5-11.1
			C950.6,731.7,942.7,723.5,934.2,715z"/>
		<path id="path846" class="st0" d="M550.7,905.5c0,99.5-81.1,181.4-180.9,181.7c-100.3,0.3-182-81.1-182-181.4
			s81.4-182,181.7-181.7C469,724.3,550.4,806,550.7,905.5L550.7,905.5z M514.1,906.9c1.4-79.1-63.2-145.1-142.9-146.6
			c-78.8-1.4-145.7,62.9-147.1,141.2c-1.4,81.4,61.8,147.7,142.3,149.1C446.6,1052.6,512.9,988.2,514.1,906.9L514.1,906.9z"/>
		<path id="path848" class="st1" d="M605.1,632.8c0-12.2,0-23.2,0-34.9c72.3,0,144.3,0,216.9,0c0,11.6,0,23,0,34.9
			C749.9,632.8,677.9,632.8,605.1,632.8z"/>
		<path id="path850" class="st1" d="M822.2,525.1c0,12.2,0,23.2,0,35.1c-72.3,0-144,0-216.6,0c0-11.6,0-23,0-35.1
			C677.6,525.1,749.4,525.1,822.2,525.1z"/>
		<path id="path852" class="st1" d="M605.4,705.6c0-11.6,0-22.7,0-34.6c72.3,0,144.3,0,216.9,0c0,11.6,0,22.7,0,34.6
			C749.9,705.6,677.9,705.6,605.4,705.6z"/>
		<path id="path854" class="st1" d="M605.4,487.4c0-11.6,0-22.7,0-34.6c72,0,143.7,0,216.3,0c0,11.1,0,22.4,0,34.6
			C749.9,487.4,677.9,487.4,605.4,487.4z"/>
		<path id="path856" class="st1" d="M532.8,632.8c0-11.9,0-23.2,0-34.9c11.9,0,23.2,0,35.1,0c0,11.9,0,23,0,34.9
			C556.6,632.8,545,632.8,532.8,632.8z"/>
		<path id="path858" class="st1" d="M567.7,560.2c-11.9,0-23.2,0-34.9,0c0-11.6,0-23,0-34.9c11.3,0,22.7,0,34.9,0
			C567.7,536.7,567.7,548,567.7,560.2z"/>
		<path id="path860" class="st1" d="M533.1,452.2c11.9,0,22.7,0,34.6,0c0,11.6,0,23,0,35.1c-11.1,0-22.4,0-34.6,0
			C533.1,476,533.1,464.7,533.1,452.2z"/>
		<path id="path862" class="st1" d="M532.8,670.5c11.6,0,23,0,34.9,0c0,11.6,0,23,0,35.1c-11.3,0-22.7,0-34.9,0
			C532.8,693.7,532.8,682.4,532.8,670.5z"/>
		<path id="path876" class="st0" d="M7,251.8c0-42,0-83.1,0-125.3c132.4,0,264.5,0,397.4,0c0,41.4,0,83.1,0,125.3
			C272.3,251.8,140.2,251.8,7,251.8z M368.4,162.8c-109.1,0-216.9,0-324.6,0c0,18.1,0,35.4,0,52.7c108.9,0,216.6,0,324.6,0
			C368.4,197.7,368.4,180.7,368.4,162.8z"/>
		<path id="path878" class="st1" d="M332.4,633.9c-7.7-0.3-15.6-0.3-23.2-1.1c-16.7-2.3-29.2-15.3-30-32c-0.9-13-0.6-26.1-0.3-39.4
			c0.6-21,14.2-35.4,35.1-36.6c12.8-0.9,25.5-0.6,38.3,0c20.7,1.1,34.6,15.9,35.4,36.6c0.3,11.1,0.3,21.8,0,32.9
			c-0.3,24.4-14.7,38.8-39.1,39.4c-5.4,0-10.5,0-15.9,0C332.4,633.6,332.4,633.9,332.4,633.9L332.4,633.9z M350.5,561.6
			c-11.9,0-23.2,0-34.9,0c0,12.2,0,23.5,0,34.9c11.9,0,23.2,0,34.9,0C350.5,584.6,350.5,573.5,350.5,561.6z"/>
		<path id="path880" class="st1" d="M151.5,578.6c0-5.7,0-11.3,0-17c0.3-20.7,13.9-35.7,34.9-36.9c13-0.9,26.4-0.9,39.4,0
			c20.7,1.4,34.3,16.4,34.6,37.1c0.3,11.9,0.3,24.1,0,36c-0.6,18.7-13.6,33.2-32,34.9c-14.2,1.1-28.3,1.1-42.5,0.3
			c-20.4-1.1-33.4-16.2-34-36.3C151.5,590.8,151.5,584.9,151.5,578.6L151.5,578.6z M223.2,596.8c0-11.9,0-23.2,0-35.1
			c-11.9,0-23.5,0-34.9,0c0,12.2,0,23.5,0,35.1C200.6,596.8,211.6,596.8,223.2,596.8z"/>
		<path id="path882" class="st1" d="M132.8,578.9c0,7.1,0.3,14.2,0,21.3c-1.1,16.7-13,30.9-29.8,32.3c-16.2,1.4-32.6,1.4-48.8,0
			c-16.7-1.4-29.2-15.9-30-33.4c-0.6-13-0.6-26.1,0-39.4c0.9-19.8,15.3-34,35.7-35.1c12.5-0.6,24.9-0.6,37.1,0
			c21.3,1.1,35.1,15.6,35.7,37.1C133.1,567.6,133.1,573.2,132.8,578.9C133.1,578.9,132.8,578.9,132.8,578.9L132.8,578.9z
			 M60.8,596.5c12.5,0,23.8,0,35.1,0c0-11.9,0-23.2,0-34.6c-12.2,0-23.5,0-35.1,0C60.8,573.5,60.8,584.3,60.8,596.5z"/>
		<path id="path884" class="st1" d="M206,379.4c-6.8,0-13.6,0.3-20.1,0c-18.7-0.9-33.4-15.6-34-34.3c-0.6-13-0.3-26.1,0-39.4
			c0.6-19.3,15.3-34.3,34.6-34.9c13-0.3,26.1-0.3,39.4,0c19.3,0.6,34,15.6,34.6,34.9c0.3,12.8,0.3,25.5,0,38.3
			c-0.6,19.8-15.3,34.6-35.1,35.4C218.7,379.6,212.2,379.6,206,379.4L206,379.4z M223.2,342.8c0-12.5,0-24.1,0-35.1
			c-11.9,0-23.2,0-34.9,0c0,11.9,0,23.5,0,35.1C200.3,342.8,211.3,342.8,223.2,342.8z"/>
		<path id="path886" class="st1" d="M79,271.1c6.8,0,13.6-0.3,20.1,0c17.9,0.9,32.6,14.7,33.4,32.3c0.9,14.5,0.9,28.9,0,43.7
			c-0.9,18.1-15.9,32-34.6,32.6c-12.8,0.3-25.5,0.3-38.3,0c-19.8-0.6-34.6-15.3-35.4-35.1c-0.6-12.8-0.6-25.5,0-38.3
			c0.9-20.4,16.2-34.6,36.6-35.1C67.1,270.8,73,270.8,79,271.1C79,270.8,79,271.1,79,271.1z M96,342.8c0-12.2,0-23.8,0-34.9
			c-12.2,0-23.5,0-34.9,0c0,12.2,0,23.2,0,34.9C73,342.8,84.1,342.8,96,342.8z"/>
		<path id="path888" class="st1" d="M278.8,324.4c0-6.2-0.3-12.8,0-19c1.1-19.6,15.6-33.7,35.1-34.3c12.5-0.3,24.7-0.3,37.1,0
			c20.1,0.3,35.1,14.5,36.3,34.3c0.9,13,0.9,26.4,0,39.4c-1.1,20.4-16.2,34.6-36.9,34.9c-11.6,0.3-23.2,0.3-35.1,0
			c-21.3-0.3-35.7-14.7-36.6-36C278.2,337.1,278.5,330.6,278.8,324.4C278.5,324.4,278.5,324.4,278.8,324.4L278.8,324.4z
			 M315.4,342.5c12.5,0,23.8,0,35.1,0c0-11.9,0-23.2,0-34.9c-11.9,0-23.2,0-35.1,0C315.4,319.5,315.4,330.6,315.4,342.5z"/>
		<path id="path890" class="st1" d="M206.2,398.1c6.8,0,13.6-0.3,20.1,0c19,1.1,32.9,15.6,33.7,34.6c0.6,12.5,0.3,24.7,0,37.1
			c-0.3,20.7-14.5,35.7-35.1,36.9c-12.8,0.6-25.5,0.6-38.3,0c-20.4-0.9-34.9-15.9-35.1-36.6c-0.3-11.9-0.3-24.1,0-36
			c0.6-20.7,14.7-35.1,35.4-36C193.5,397.8,199.7,398.1,206.2,398.1L206.2,398.1L206.2,398.1z M223.2,470.1c0-12.5,0-23.8,0-35.1
			c-11.9,0-23,0-34.9,0c0,11.9,0,23.2,0,35.1C200,470.1,211.3,470.1,223.2,470.1z"/>
		<path id="path892" class="st1" d="M78.7,398.1c6.8,0,13.6-0.3,20.1,0c19,1.1,33.2,15,34,34.3c0.6,12.8,0.6,25.5,0,38.3
			c-0.6,20.7-15,35.1-35.4,36c-12.5,0.6-24.7,0.6-37.1,0c-21-0.9-35.4-15.9-36-37.1c-0.3-11.1-0.3-21.8,0-32.9
			c0.3-23.5,14.7-38,38.6-38.6C68.2,397.8,73.6,397.8,78.7,398.1L78.7,398.1L78.7,398.1z M61.1,469.8c12.5,0,23.5,0,34.9,0
			c0-12.2,0-23.5,0-34.9c-11.9,0-23.2,0-34.9,0C61.1,446.8,61.1,457.9,61.1,469.8z"/>
		<path id="path894" class="st1" d="M278.5,451.6c0-6.2-0.3-12.8,0-19c1.1-19.8,15-33.7,34.9-34.3c12.8-0.6,25.5-0.6,38.3,0
			c20.1,0.9,34.6,14.7,35.4,35.1c0.6,12.8,0.6,25.5,0,38.3c-1.1,20.4-15.9,34.6-36.6,35.4c-11.6,0.3-23.2,0.3-35.1,0
			c-21.8-0.6-36.3-15-36.9-37.1C278.5,463.5,278.5,457.6,278.5,451.6L278.5,451.6L278.5,451.6z M315.4,469.8c12.2,0,23.5,0,34.9,0
			c0-11.9,0-23.2,0-34.6c-12.2,0-23.5,0-34.9,0C315.4,447.1,315.4,458.2,315.4,469.8z"/>
		<path id="path896" class="st1" d="M387.1,996.5c0,5.4,0,11.1,0,17.9c-11.9,0-23.2,0-34.3,0c-0.6-0.6-1.4-1.1-1.1-1.7
			c2-13.3-4.3-19-17-23c-21.3-7.1-35.7-21.8-38.6-47.1c11.3,0,22.1-0.3,32.6,0.3c1.7,0,3.7,1.7,5.1,3.1
			c15.3,16.4,46.2,19.6,64.1,6.8c9.4-6.5,9.9-15,0-19.8c-9.6-4.5-20.7-7.4-31.2-8.2c-16.4-1.7-32.3-4.8-46.2-13.9
			c-32.6-21.8-32.3-60.9,1.1-81.9c8.5-5.4,18.4-8.5,28.9-13c0.3-5.1,0.6-11.3,0.9-17.9c11.9,0,23,0,35.1,0
			c0.3,6.5,0.6,12.8,0.9,19.3c17.9,4.8,34.9,11.3,45.4,27.5c4.5,6.8,6.5,15,10.8,25.2c-13.9,0-24.7,0-35.4,0c-1.4,0-2.8-1.7-4-2.8
			c-15-16.4-45.6-19.8-64.1-7.1c-9.9,6.8-10.5,15,0.3,20.4c8.8,4.5,19.3,6.8,29.2,7.7c16.2,1.4,31.5,4,45.4,12.8
			c34.6,21.3,35.1,62.4,0.3,83.6C407.5,988.5,397.9,991.6,387.1,996.5L387.1,996.5z"/>
	</g>
</g>
</svg>
