<?xml version="1.0" encoding="utf-8"?>
<!-- Generator: Adobe Illustrator 18.1.1, SVG Export Plug-In . SVG Version: 6.00 Build 0)  -->
<svg version="1.1"
     id="svg8" xmlns:dc="http://purl.org/dc/elements/1.1/" xmlns:cc="http://creativecommons.org/ns#" xmlns:rdf="http://www.w3.org/1999/02/22-rdf-syntax-ns#" xmlns:svg="http://www.w3.org/2000/svg" xmlns:sodipodi="http://sodipodi.sourceforge.net/DTD/sodipodi-0.dtd" xmlns:inkscape="http://www.inkscape.org/namespaces/inkscape" sodipodi:docname="8 - OMS.svg" inkscape:version="1.0.1 (3bc2e813f5, 2020-09-07)"
     xmlns="http://www.w3.org/2000/svg" xmlns:xlink="http://www.w3.org/1999/xlink" x="0px" y="0px" viewBox="46.3 133.2 459 438.1"
     enable-background="new 46.3 133.2 459 438.1" xml:space="preserve">
<sodipodi:namedview  id="base" inkscape:window-maximized="1" inkscape:document-rotation="0" inkscape:cy="569.20522" inkscape:cx="340.94558" inkscape:zoom="0.49497475" borderopacity="1.0" showgrid="false" bordercolor="#666666" pagecolor="#ffffff" inkscape:window-y="-8" inkscape:window-x="-8" inkscape:window-height="1009" inkscape:window-width="1920" inkscape:current-layer="g878" inkscape:document-units="mm" inkscape:pageshadow="2" inkscape:pageopacity="0.0">
	</sodipodi:namedview>
  <g id="layer1" inkscape:label="Calque 1" inkscape:groupmode="layer">
	<g id="layer1-1" transform="matrix(0.26458334,0,0,0.26458334,18.825505,55.643818)" inkscape:label="Calque 1">
		<g id="layer1-0" transform="matrix(0.26458333,0,0,0.26458333,41.067114,2.5003139)" inkscape:label="Calque 1">
			<g id="g880">
				<g id="g878">
					<path id="path840" fill=" var(--principal)" d="M1250.7,2510.8c0,68.9,0,131.2,0,200.1c66,0,129.5,0,195.3,0c0,68.9,0,131.2,0,203.8
						c-99.2,0-198.4,0-298.2,0s-197.3,0-299.9,0c0-67.2,0-131.2,0-200.1c64.1,0,126.4,0,193.6,0c0-68.9,0-131.2,0-203.8
						c-22.1,0-43.9,0-66,0c-203.8,0-407.3,0-611.2,0c-91,0-124.7-35.7-126.4-126.4c0-387.2,0-774.4,0-1159.9
						c0-91,35.7-126.4,126.4-126.4c522.1,0,1043.4,0,1563.9,0c94.4,0,127.6,35.7,127.6,131.2c0,385.5,0,769,0,1155.1
						c0,94.4-35.7,127.6-129.5,129.5C1703.2,2512.5,1481.2,2510.8,1250.7,2510.8L1250.7,2510.8z M444.3,1302.1
						c0,338.5,0,671.8,0,1002c471.7,0,939.7,0,1405.7,0c0-336.8,0-668.1,0-1002C1382,1302.1,915.7,1302.1,444.3,1302.1z"/>
          <path id="path842" fill=" var(--principal)" d="M871.7,6044.4c-168.1-220.3-169.8-436-6.5-592.7c148-143.1,381.8-153.4,540.6-22.1
						c180,148,187.1,358.6,20.1,612.9c32,6.5,62.4,11.9,92.7,18.4c191.9,50.5,331.4,225.6,335.1,424.1c3.7,252.3,1.7,504.9,0,757.7
						c0,74.3-38.6,114.5-112.8,114.5c-395.4,0-791.2,0-1185.5,0c-77.1,0-114.5-38.6-114.5-117.6c0-239.2,0-479.9,0-718.6
						c0-247.7,146.8-422.4,388.9-469.7C841.4,6051.5,853.3,6048.1,871.7,6044.4L871.7,6044.4z M642.4,7153.9
						c340.4,0,673.5,0,1008.6,0c0-225.6,3.7-445.9-1.7-667c-1.7-129.5-111.1-234.1-240.7-237.5c-175.2-3.7-348.7-3.7-523.8,0
						c-127.6,1.7-237.5,102.6-240.7,230.5C639.6,6703.2,642.4,6926.9,642.4,7153.9z M1350,5741.4c-1.7-109.4-92.7-198.4-203.8-198.4
						c-109.4,0-200.1,91-200.1,201.8c0,112.8,94.4,203.8,207.2,201.8C1262.6,5943.5,1351.7,5850.8,1350,5741.4L1350,5741.4z"/>
          <path id="path844" fill=" var(--principal)" d="M4188.3,4440.3c-16.7,47.1-23.8,77.1-38.6,104.6c-33.7,60.7-68.9,119.3-107.4,178.3
						c-54.1,84.5-132.9,107.4-223.9,72.6c-55.8-22.1-153.4,30.3-165,87.3c-22.1,106.3-79.1,155.1-188.2,155.1
						c-67.2,0-134.9,1.7-201.8,0c-96.1-1.7-156.8-54.1-176.9-148c-13.6-67.2-106.3-117.6-169.8-92.7c-82.5,32-161.6,10.2-212-62.4
						c-43.9-64.1-84.5-131.2-121-200.1c-43.9-80.8-23.8-159.9,50.5-217.4c48.8-38.6,50.5-136.6,0-175.2
						c-76-58.7-96.1-137.8-48.8-222.2c35.7-64.1,74.3-127.6,114.5-188.2c52.2-79.1,131.2-102.6,220.3-67.2
						c58.7,23.8,153.4-30.3,165-92.7c18.4-94.4,79.1-146.8,175.2-148c70.6-1.7,143.1-1.7,213.7,0c96.1,1.7,156.8,54.1,176.9,148
						c13.6,66,107.4,116.5,171.8,92.7c82.5-32,161.6-10.2,210.3,62.4c42.2,62.4,80.8,127.6,117.6,193.6
						c47.1,84.5,26.6,165-48.8,223.9c-48.8,38.6-45.6,132.9-1.7,176.9C4137.8,4354.1,4163.3,4401.8,4188.3,4440.3L4188.3,4440.3z
						 M3287.7,4831.2c58.7,0,109.4,0,159.9,0c40.3-173.5,250.6-288,437.7-237.5c23.8-40.3,47.1-80.8,70.6-119.3
						c-132.9-127.6-131.2-345,1.7-491.8c-25.5-40.3-50.5-80.8-77.1-124.7c-86.2,50.5-159.9,32-232.2-22.1
						c-16.7-11.9-35.7-23.8-55.8-30.3c-84.5-30.3-137.8-86.2-141.4-178.3c-58.7,0-111.1,0-163.3,0c-32,168.1-239.2,280.9-436,239.2
						c-23.8,40.3-47.1,80.8-62.4,106.3c32,57,80.8,102.6,79.1,144.9c-6.5,123,57,267.9-91,353.5c28.6,47.1,54.1,87.3,80.8,129.5
						c86.2-48.8,157.9-33.7,229.3,18.4c20.1,15.3,42.2,28.6,66,36.9C3233.9,4684.4,3282.6,4740.2,3287.7,4831.2L3287.7,4831.2z"/>
          <path id="path846" fill=" var(--principal)" d="M3780.7,1569.9c173.5,121,340.4,237.5,504.9,356.9c58.7,43.9,58.7,117.6,0,161.6
						c-165,119.3-333.1,233.9-504.9,355.2c-40.3-55.8-76-109.4-116.5-165c77.1-55.8,149.7-106.3,239.2-169.8
						c-506.6,0-998.4,0-1491.3,0c0-68.9,0-131.2,0-200.1c490.1,0,981.6,0,1471.2,0c1.7-5.4,3.7-8.2,5.4-13.6
						c-74.3-52.2-146.8-106.3-223.9-159.9C3705.3,1681.1,3740.4,1628.6,3780.7,1569.9L3780.7,1569.9z"/>
          <path id="path848" fill=" var(--principal)" d="M2957.5,5914.9c38.6,55.8,74.3,106.3,114.5,163.3c-76,54.1-149.7,107.4-235.8,168.1
						c504.9,0,994.7,0,1488.5,0c0,68.9,0,131.2,0,201.8c-490.1,0-979.9,0-1471.2,0c-1.7,3.7-3.7,8.2-3.7,11.9
						c72.6,52.2,144.9,102.6,222.2,157.9c-38.6,55.8-74.3,107.4-114.5,165c-137.8-96.1-270.7-189.9-405.6-282.6
						c-33.7-23.8-70.6-47.1-102.6-72.6c-54.1-45.6-57-116.5,0-156.8C2616.2,6150.7,2786,6034.2,2957.5,5914.9L2957.5,5914.9z"/>
          <path id="path850" fill=" var(--principal)" d="M1583.8,3867.7c-57,40.3-109.4,76-165,114.5c-54.1-76-106.3-149.7-167-235.8
						c0,403.9,0,792.9,0,1185.5c-70.6,0-134.9,0-205.5,0c0-390.9,0-779.2,0-1168.2c-3.7-1.7-8.2-3.7-11.9-3.7
						c-52.2,72.6-102.6,144.9-157.9,223.9c-55.8-38.6-107.4-76-165-114.5c72.6-102.6,141.4-201.8,210.3-303
						c45.6-66,89-131.2,137.8-195.3c47.1-64.1,124.7-66,171.8-3.7C1350,3529.3,1464.5,3696.2,1583.8,3867.7z"/>
          <path id="path852" fill=" var(--principal)" d="M5589.2,3322.6c74.3,0,136.6,0,203.8,0c0,358.6,0,712.1,0,1067.2
						c3.7,1.7,8.2,5.4,11.9,6.5c52.2-74.3,104.6-146.8,159.9-225.6c55.8,38.6,107.4,76,165,116.5
						c-121,173.5-237.5,343.3-358.6,508.3c-42.2,57-117.6,52.2-161.6-6.5c-117.6-163.3-232.2-330.2-351.5-500
						c55.8-38.6,107.4-76,163.3-116.5c54.1,76,106.3,149.7,167,237.5C5589.2,4037.5,5589.2,3682.6,5589.2,3322.6L5589.2,3322.6z"/>
          <path id="path872" fill=" var(--principal)" d="M3016.4,4228.3c0-193.6,159.9-353.5,353.5-353.5c195.3,1.7,351.5,157.9,353.5,353.5
						c0,193.6-159.9,353.5-353.5,353.5C3174.9,4581.8,3016.4,4423.6,3016.4,4228.3z M3366.8,4379.7c82.5,1.7,153.4-67.2,153.4-149.7
						c0-80.8-66-149.7-146.8-151.4c-82.5-3.7-155.1,64.1-156.8,148C3217.1,4307.4,3284.3,4378,3366.8,4379.7L3366.8,4379.7z"/>
          <g id="g955" transform="translate(-11.487877,2.7124726)">
						<path id="path839" fill=" var(--principal)" d="M6527.9,2742.5H4881c-45.6,4.3-79.1,43.9-75.4,89c3.7,40.3,35.1,72,75.4,75.4h1646.9
							c45.6,4.3,85.6-29.8,89-75.4c4.3-45.6-29.8-85.6-75.4-89C6536.7,2741.9,6532.7,2741.9,6527.9,2742.5L6527.9,2742.5z"/>
            <path id="path841" fill=" var(--principal)" d="M4983.6,2528.2c-45.6,4.3-79.1,43.9-75.4,89c3.7,40.3,35.1,72,75.4,75.4H6425
							c45.6,4.3,85.6-29.8,89-75.4c4.3-45.6-29.8-85.6-75.4-89c-4.8-0.6-9.6-0.6-14.2,0h-20.7v-740.7h20.7
							c22.7-2.8,39.1-23.8,36.3-46.2c-2.3-19-17.3-33.7-36.3-36.3H4983c-22.7,2.8-39.1,23.8-36.3,46.2c2.3,19,17.3,33.7,36.3,36.3
							h20.7v740.7H4983.6z M6239.3,1787.5v740.7H5993v-740.7L6239.3,1787.5z M5827.8,1787.5v740.7h-247.2v-740.7L5827.8,1787.5z
							 M5169,1787.5h246.3v740.7H5169V1787.5z"/>
            <path id="path843" fill=" var(--principal)" d="M4881,1631.3h1647.5c45.6-0.6,81.9-38,81.9-83.6c-0.6-34.6-22.7-65.2-55.3-77.1
							l-816.7-367.1c-21.3-10.2-45.6-10.2-67.2,0L4846.4,1474c-41.7,19-59.5,68.3-39.7,110C4820.3,1612.3,4849,1630.8,4881,1631.3z"
            />
					</g>
          <path id="path854" fill=" var(--principal)" d="M4929.3,6788.5c0-130.7,0-258.8,0-387.2c-178.3-45.6-329.1-127-326-335.6
						c2.8-200.7,151.9-280.9,328.5-324.9c0-42.8-1.1-86.2,0-128.4c1.1-44.5,26.1-70.6,65.2-70.6c38,0,65.2,26.6,66.6,70.6
						c1.1,42.8,0,85,0,127c39.1,12.5,77.7,20.7,111.7,36.3c121,54.1,204.9,138.3,216.3,278.6c4.3,49.9-20.7,79.7-61.8,81.9
						c-39.1,2.3-65.2-24.9-70.6-71.1c-10.2-94.4-98.1-175.7-196.7-178.9c0,81.9,0,162.1,0,244.1c0,43.4-14.2,96.1,5.4,129.5
						c16.7,27.8,72.6,32,110,48.8c138.3,59.5,220.8,175.2,214.3,307.6c-7.1,131.2-85,214.9-196.7,271.3
						c-40.3,19.6-85,30.3-132.4,47.6c0,39.1,2.3,83.1,0,126.4c-2.3,55.8-54.1,90.1-96.1,61.2c-17.9-12.5-27.8-40.3-35.1-62.9
						c-6.5-20.7-1.1-43.4-1.1-65.2c0-20.7,0-41.7-8.2-51.6c-66.6-33.2-136.6-60.1-197.9-100.3c-76.5-50.5-118.8-128.4-125.3-221.7
						c-2.8-47.6,19.6-77.7,57.5-80.8c42.8-4.3,68.3,21.3,73.7,70.6C4741,6699.5,4820.7,6774.9,4929.3,6788.5L4929.3,6788.5z
						 M4927,6256.5c0-124.2,0-247.7,0-371.9c-111.1,12.5-200.1,101.5-195.3,193.6C4735.7,6166.3,4830.9,6253.6,4927,6256.5
						L4927,6256.5z M5065.9,6789.1c114.5-16.7,197.9-100.3,194.7-194.7c-2.8-86.7-94.4-172.9-194.7-180
						C5065.9,6539.1,5065.9,6662.1,5065.9,6789.1z"/>
          <path id="path856" fill=" var(--principal)" d="M5962.8,6511.9c62.4,151.4,165.8,242.9,317.2,272.7c145.4,27.2,264.8-27.2,361.1-137.2
						c8.2-10.2,16.7-22.1,24.4-32.6c27.2-35.1,67.7-43.9,100.3-20.7c32.6,24.4,39.1,63.5,13,102
						c-80.2,117.1-188.2,193.6-327.1,223.4c-259.7,57-535.2-106.3-624.2-367.7c-10.8-32.6-24.9-42.8-57.5-40.3
						c-42.8,2.3-84.5,1.1-127,0c-41.7-1.1-68.9-28.6-71.1-64.6c-2.3-38.6,24.9-70,67.7-73.7c45.6-3.7,93.3-1.1,142.6-1.1
						c0-47.1,0-91,0-140c-42.8,0-84.5,0-127,0c-52.7-1.1-83.1-27.2-83.1-70c0-41.7,32.6-68.9,84.5-70c42.8-1.1,85.6-1.1,127,0
						c22.7,1.1,32.6-6.5,40.3-28.6c80.8-225.6,241.8-354.6,478.8-388.3c171.8-24.4,398.6,89.6,481.6,240.7
						c19.6,36.3,10.8,75.4-22.7,97.5c-32.6,20.7-70,11.9-96.1-24.4c-59.5-84.5-137.2-140-236.4-165
						c-186-47.1-413.9,83.1-460.9,268.4c52.7,0,104,0,155.6,0c71.1,0,142.6-1.1,213.2,0c45.6,1.1,74.3,29.8,74.3,70
						c0,41.7-28.6,67.7-75.4,68.9c-120.5,1.1-241.2,0-361.1,0c-14.2,0-29.8,0-48.2,0c0,47.1,0,89.6,0,137.2
						c16.7,1.1,30.9,2.3,45.1,2.3c117.1,0,235.3,0,352.1,0c36.9,0,68.9,10.2,83.1,47.1c17.9,47.1-16.7,92.1-71.1,93.3
						c-106.3,1.1-213.2,0-319.5,0C6000.8,6511.9,5985.5,6511.9,5962.8,6511.9L5962.8,6511.9z"/>
				</g>
			</g>
		</g>
	</g>
</g>
</svg>
