<?xml version="1.0" encoding="utf-8"?>
<!-- Generator: Adobe Illustrator 23.0.2, SVG Export Plug-In . SVG Version: 6.00 Build 0)  -->
<svg version="1.1"
	 id="svg8" inkscape:version="1.0.1 (3bc2e813f5, 2020-09-07)" sodipodi:docname="Fonds.svg" xmlns:cc="http://creativecommons.org/ns#" xmlns:dc="http://purl.org/dc/elements/1.1/" xmlns:inkscape="http://www.inkscape.org/namespaces/inkscape" xmlns:rdf="http://www.w3.org/1999/02/22-rdf-syntax-ns#" xmlns:sodipodi="http://sodipodi.sourceforge.net/DTD/sodipodi-0.dtd" xmlns:svg="http://www.w3.org/2000/svg"
	 xmlns="http://www.w3.org/2000/svg" xmlns:xlink="http://www.w3.org/1999/xlink" x="0px" y="0px" viewBox="0 0 352.3 367.8"
	 style="enable-background:new 0 0 352.3 367.8;" xml:space="preserve">
<style type="text/css">
	.st0{fill:#002B54;}
	.st1{fill:#00A4E4;}
</style>
<sodipodi:namedview  bordercolor="#666666" borderopacity="1.0" id="base" inkscape:current-layer="g875" inkscape:cx="205.39447" inkscape:cy="523.6276" inkscape:document-rotation="0" inkscape:document-units="mm" inkscape:pageopacity="0.0" inkscape:pageshadow="2" inkscape:window-height="1017" inkscape:window-maximized="1" inkscape:window-width="1920" inkscape:window-x="-8" inkscape:window-y="-8" inkscape:zoom="0.98994949" pagecolor="#ffffff" showgrid="false">
	</sodipodi:namedview>
<g id="layer1" inkscape:groupmode="layer" inkscape:label="Calque 1">
	<g id="Calque_1-2" transform="matrix(1.1483085,0,0,1.2999969,41.589283,66.535713)">
		<g id="layer1-7" transform="matrix(0.87084612,0,0,0.7692326,-34.833843,-63.283119)" inkscape:label="Calque 1">
			<g id="g884" transform="matrix(0.33783784,0,0,0.33783784,-6.704827,4.4689344)">
				<g id="g875" transform="matrix(0.78316665,0,0,0.78316666,90.291284,54.530027)">
					<path id="path849" class="st0" d="M953.1,1363.2c-17.4,0-34.4,0-51.8,0c-2.5-0.7-5.1-1.8-7.6-2.2
						c-38.4-4.3-73.5-17.7-107.2-36.2c-8.3-4.3-18.5-7.6-27.9-7.6c-208.6-0.4-417.2-0.4-626.1-0.4c-25.3,0-50.7,0.4-76,0
						c-25-0.4-45.6-10.5-56.5-33.3c-5.4-11.6-7.6-26.1-7.6-39.5C-8,914.2-8,584.4-8,254.2c0-6.2-0.4-12.3-0.7-19.6
						c-8.7,0-15.9,0-23.2,0c-39.1-1.1-63.7-26.4-64.1-65.5c0-21.4,0-42.4,0-63.7C-95.6,28.3-40.2-27.1,36.9-27.1
						c294.8,0,589.2,0,884,0c12,0,24.6,1.1,36.2,4.3c58.7,15.2,96,65.2,96,128.9c0,168.3,0,336.7,0,505c0,21.4-0.4,42.7,0.4,63.7
						c0,4,2.2,9.8,4.7,10.9c25,10.1,41.6,27.9,51.1,52.5c2.5,0,4,0,5.1-0.4c52.1-21.4,122.8,10.1,121.3,89.8
						c-1.1,57.6,0.4,114.8-0.4,172.3c-0.7,57.9-11.2,114.4-35.5,167.3c-43.1,95.2-111.5,162.6-215.5,188.6
						C974.5,1358.8,963.7,1361,953.1,1363.2z M48.2,234.7c-0.4,5.8-0.7,9.8-0.7,13.8c0,332,0,664.3-0.4,996.3
						c0,12.7,3.6,17.4,17,17.4c210-0.4,420.1-0.4,630.1-0.4c3.6,0,7.2-0.4,12.3-1.1c-14.8-18.5-28.6-35.1-42-52.1
						c-56.5-72.4-113-144.8-169.5-217.2c-18.5-23.5-29.3-49.6-27.9-80c1.8-40.9,29.3-80.7,67-94.1c40.9-14.5,74.2-1.1,102.8,29
						c17,18.1,34,36.6,51.1,54.7c2.5,2.5,5.4,5.1,9.8,9.1c0-5.4,0-8.7,0-11.6c0-120.9,0-241.5-0.4-362.4c0-20.6-0.7-41.6,0.4-62.3
						c2.5-52.1,50-89.4,101.4-80.4c43.1,7.6,71.7,39.5,72.4,83.6c1.1,47.4,0.4,94.9,0.4,142.6c0,4.7,0,9.4,0,15.2
						c54.7-13,94.5,2.2,117,52.9c11.6,0.4,10.1-7.2,10.1-14.1c0-189.7,0-379.1,0-568.8c0-43.8-31.5-76.4-72.8-76.8
						c-42.4-0.4-74.2,31.9-75,76c-0.4,20.3,0,40.5,0,61.2c0,46.3-24.3,70.2-70.3,70.2c-76.8,0-153.9,0-230.7,0
						c-4.3,0-9.1,0-13.4-0.7c-13.4-1.8-23.2-12.3-23.5-25.7s9.1-25,23.2-27.2c5.4-0.7,10.9-0.7,16.3-0.7c76,0,152.1-0.4,228.1,0
						c12.3,0,17.4-3.6,16.7-16.3c-0.7-11.6,0.4-23.5-0.4-35.1c-1.4-34.8,0.7-68.8,21-99.2c0.4-0.4-0.4-1.4-1.1-2.9
						c-32.6,0-64.8,0-97.4,0c-227.1,0-454.5,0-681.5,0c-47.8,0-78.9,31.1-78.9,78.9c0,17,0,34.4,0,51.4c0,22.4,0,22.4,22.1,22.4
						c101,0,201.7,0,302.7,0c6.2,0,12.7,0,18.8,1.4c12.3,2.5,20.6,14.1,20.3,26.8c-0.4,12.3-9.1,22.8-21,25
						c-5.4,1.1-10.9,1.1-16.3,1.1c-58.3,0-116.6,0-175.3,0C90.5,234.7,69.9,234.7,48.2,234.7z M752.2,711.9h0.4
						c0,71.3,0,143,0,214.3c0,11.6-0.4,23.5-2.9,35.1c-5.8,24.3-29,34.4-50.7,22.4c-10.1-5.8-19.2-13.4-27.5-21.7
						c-25.3-26.4-50-53.6-75.3-80c-24.3-25-54.3-19.6-68.8,11.9c-10.5,23.2-4.7,43.8,10.1,63.4c61.9,79.6,123.5,159.7,186.5,238.6
						c16.7,21,36.2,40.5,56.9,57.9c93.1,77.5,216.6,72.4,304.2-11.2c52.5-50,80-113,90.9-183.6c4-25.3,5.1-51.4,5.4-77.1
						c0.7-52.5,0.4-105,0-157.5c0-22.4-10.1-35.1-29.3-37.3c-19.2-2.2-34.4,8.3-36.2,27.9c-1.8,19.2-0.7,38.7-1.8,58.3
						c-0.7,14.8-12.3,25.7-26.4,25.7c-13.4,0-24.6-9.8-26.8-23.9c-0.7-5.1-0.7-9.8-0.7-14.8c-0.4-30.8,0.4-61.5-0.7-92.3
						c-0.4-18.5-10.9-29.7-27.5-31.9c-22.1-2.9-37.7,10.1-38,33.3c-0.7,32.2,0,64.1-0.4,96.3c0,20.3-11.2,33.7-27.5,33.3
						c-16.3-0.4-26.4-12.7-26.4-32.6c0-46,0-92.3,0-138.3c0-7.2-0.7-14.5-2.5-21.4c-4-14.5-15.9-22.4-31.9-22.1
						c-15.9,0.4-27.5,8.7-30.8,23.5c-1.4,6.9-1.8,14.5-1.8,21.4c-0.4,47.1,0,94.1-0.4,141.2c0,16.7-11.6,28.2-26.4,28.2
						c-14.5,0-25.7-10.9-27.2-26.8c-0.4-4.3-0.4-9.1-0.4-13.4c0-121.6,0-243.3,0-365.3c0-6.2,0-12.7-0.7-18.8
						c-1.4-12.7-8.3-21.7-20.6-26.1c-24.3-8.3-44.5,6.9-44.9,34.4C751.8,558.7,752.2,635.1,752.2,711.9L752.2,711.9z"/>
					<path id="path857" class="st1" d="M256.8,542.1c-16.7,0-33.3,0.4-50.3,0c-32.6-0.7-54-22.4-54-55c-0.4-33.3-0.4-67,0-100.3
						c0.4-31.9,21.7-53.9,53.6-54.7c34.4-0.7,68.8-0.4,103.2,0c31.1,0.4,53.2,21.4,54,52.5c0.7,34.8,0.7,69.5,0,104.3
						c-0.7,31.5-22.1,52.1-53.6,53.2C291.9,542.4,274.1,542.1,256.8,542.1L256.8,542.1z M207.2,486.7c33.7,0,67,0,100.7,0
						c0-33.7,0-66.3,0-99.9c-34,0-67,0-100.7,0C207.2,420.4,207.2,453.4,207.2,486.7z"/>
					<path id="path859" class="st1" d="M387.5,643.4c67.7,0,135.4,0,203.5,0c12.3,0,23.5,4,27.2,15.6c2.5,8,2.2,20.3-2.5,26.1
						c-5.8,6.9-17.4,11.9-26.4,11.9c-49.6,1.1-99.6,0.4-149.2,0.4c-85.1,0-169.8,0-254.9,0c-21.4,0-35.1-13.4-32.6-30.8
						c2.2-14.8,13.4-23.5,31.5-23.5C252.1,643.4,319.8,643.4,387.5,643.4L387.5,643.4z"/>
					<path id="path861" class="st1" d="M324.5,1110.5c46.7,0,93.1,0,139.8,0c13,0,23.2,4,29,15.9c8.7,18.5-4.7,37.7-26.4,38
						c-26.8,0.4-53.2,0-80,0c-67.7,0-135.8,0-203.5,0c-23.5,0-37.3-19.9-27.9-38.7c5.8-11.2,15.6-15.6,27.9-15.6
						C230.3,1110.5,277.4,1110.5,324.5,1110.5L324.5,1110.5z"/>
					<path id="path863" class="st1" d="M291.9,853.1c-35.9,0-71.3,0-107.2,0c-19.9,0-32.2-10.9-32.2-27.2s12.7-27.2,32.2-27.2
						c71.3,0,143,0,214.4,0c16.3,0,27.2,7.2,30.1,19.9c2.9,12.3,0,23.2-11.2,29.3c-5.4,3.3-12.7,4.3-19.2,4.7
						C363.2,853.4,327.4,853.1,291.9,853.1L291.9,853.1z"/>
					<path id="path865" class="st1" d="M559.1,386c-34.8,0-69.5,0-104.3,0c-20.3,0-31.5-10.1-31.5-27.2c0.4-16.3,12-26.8,30.8-26.8
						c69.5-0.4,139.1,0,208.6,0c19.2,0,32.2,11.6,31.9,27.5c-0.4,16.3-12.7,26.4-32.6,26.4C627.6,386,593.5,386,559.1,386L559.1,386
						z"/>
					<path id="path867" class="st1" d="M277.8,954.8c31.1,0,62.3,0,93.4,0c19.9,0,32.2,10.5,32.6,26.8c0.4,16.3-12.3,27.5-31.9,27.5
						c-62.6,0.4-125.7,0-188.3,0c-12.3,0-23.9-3.3-27.5-15.6c-2.5-8-1.4-18.8,1.8-26.8c4.3-10.9,15.6-12.3,26.4-12.3
						C215.5,955.2,246.6,954.8,277.8,954.8L277.8,954.8z"/>
					<path id="path869" class="st1" d="M536.3,541.7c-28.6,0-56.9,0.4-85.5,0c-14.1-0.4-24.6-8.3-27.2-20.3
						c-2.5-12.3,0.7-22.8,12-29.3c5.1-2.9,12-4.3,18.1-4.3c54.7-0.4,109.4-0.4,164,0c18.8,0,30.8,11.2,30.8,27.2
						c0,15.9-12,26.8-30.8,27.2C590.7,542.1,563.5,542.1,536.3,541.7C536.3,542.1,536.3,541.7,536.3,541.7L536.3,541.7z"/>
					<path id="path871" class="st0" d="M445.4,207.5c0,14.8-11.6,26.4-26.8,26.8c-15.6,0-27.9-12.3-27.5-27.5
						c0.4-14.8,12.7-26.4,27.5-26.1C433.8,181.1,445.4,193.1,445.4,207.5L445.4,207.5z"/>
				</g>
			</g>
		</g>
	</g>
</g>
</svg>
