<?xml version="1.0" encoding="utf-8"?>
<!-- Generator: Adobe Illustrator 23.0.2, SVG Export Plug-In . SVG Version: 6.00 Build 0)  -->
<svg version="1.1"
	 id="svg8" inkscape:version="1.0.1 (3bc2e813f5, 2020-09-07)" sodipodi:docname="Indicateurs.svg" xmlns:cc="http://creativecommons.org/ns#" xmlns:dc="http://purl.org/dc/elements/1.1/" xmlns:inkscape="http://www.inkscape.org/namespaces/inkscape" xmlns:rdf="http://www.w3.org/1999/02/22-rdf-syntax-ns#" xmlns:sodipodi="http://sodipodi.sourceforge.net/DTD/sodipodi-0.dtd" xmlns:svg="http://www.w3.org/2000/svg"
	 xmlns="http://www.w3.org/2000/svg" xmlns:xlink="http://www.w3.org/1999/xlink" x="0px" y="0px" viewBox="0 0 356.3 356.5"
	 style="enable-background:new 0 0 356.3 356.5;" xml:space="preserve">
<style type="text/css">
	.st0{fill:#002B54;}
	.st1{fill:#00A4E4;}
</style>
<sodipodi:namedview  bordercolor="#666666" borderopacity="1.0" id="base" inkscape:current-layer="g876" inkscape:cx="392.85467" inkscape:cy="521.91419" inkscape:document-rotation="0" inkscape:document-units="mm" inkscape:pageopacity="0.0" inkscape:pageshadow="2" inkscape:window-height="1017" inkscape:window-maximized="1" inkscape:window-width="1920" inkscape:window-x="-8" inkscape:window-y="-8" inkscape:zoom="0.7" pagecolor="#ffffff" showgrid="false">
	</sodipodi:namedview>
<g id="layer1" inkscape:groupmode="layer" inkscape:label="Calque 1">
	<g id="g876" transform="matrix(0.33801352,0,0,0.33792566,11.158917,-4.8917524)">
		<path id="path840" class="st0" d="M583.5,949.9c22.1,20.4,37.1,44.2,43.1,73.1c2,9.1,2.8,18.1,3.1,27.2c0.3,11.9-6.2,19-17.9,19
			c-78.5,0.3-157.3,0.3-235.8,0c-11.9,0-17.9-7.4-17.9-20.1c-0.3-62.4,50.5-121,112.8-130.7c4.3-0.6,8.5-2.3,12.5-1.7
			c13.6,2.3,19.3-4.3,23-16.4c3.4-11.3,8.5-22.4,13.3-34.6c-4.3-0.3-7.7-0.6-10.8-0.6c-89.3,0-178.6,0-267.9-0.3
			c-7.1,0-11.3,2-15.6,7.9c-34.6,52.4-52.7,110-54.4,172.9c-0.6,18.1-5.4,23.2-23.5,23.2c-30.3,0-60.9,0-91.3,0
			c-15.3,0-21.3-6-21.3-21.3c0.6-59.5,12.5-116.5,35.1-171.5c1.1-2.6,2.3-5.1,3.1-7.9c0.3-0.6,0-1.4,0-4c-10.8,0-21.8,1.4-32.3-0.3
			c-44.5-6.2-74-41.4-74-87c0-151.4,0-302.5,0-453.8c0-72.6,0-145.1,0-218c0-54.7,35.7-90.7,90.1-90.7c291.1,0,582.5,0,873.6,0
			c54.4,0,90.4,36,90.4,90.4c0,223.1,0,446.5,0,669.5c0,53.9-36,90.1-89.9,90.1c-5.7,0-11.3,0-18.1,0c2.6,6.5,4.5,11.9,6.8,17.6
			c21.3,52.7,32,107.7,32.9,164.7c0.3,15.9-5.7,22.1-21.5,22.1c-30.3,0-60.9,0-91.3,0c-17.6,0-22.7-5.4-23.2-22.7
			c-1.7-63.2-19.8-121-54.7-173.8c-3.7-5.7-7.7-7.9-14.5-7.7c-36.6,0.3-72.9,0-109.4,0.3c-3.7,0-9.1,1.7-10.5,4.3
			C613,896.3,598.3,923,583.5,949.9z M579.8,270.2c0,111.1,0,221.1,0,331.1c14.2,3.4,27.8,6.5,42,9.6c2.6-6.2,5.1-11.3,6.5-16.7
			c3.4-11.3,10.8-17.6,22.4-19.8c10.2-2,20.4-5.1,30.6-7.7c0-52.7,0-104.6,0-156.2c0-15.9,6-21.5,21.8-21.5c41.1,0,82.2,0,123.3,0
			c20.1,0,24.9,4.8,24.9,25.2c0,111.7,0.3,223.1-0.3,334.8c0,11.1,2.6,19.6,9.6,28.1c7.4,8.5,15,17.6,19.3,28.1
			c9.4,23,24.9,28.3,48.5,26.9c39.1-2.3,59-20.1,59-59.2c0-221.7,0-443.6,0-665.3c0-38.6-19.8-58.4-58.1-58.4
			c-289.7,0-579.7,0-869.4,0c-39.1,0-58.7,19.6-58.7,58.7c0,208.1,0,415.8,0,623.9c0,16.2-0.3,32.6,0,48.8
			C1.9,809,23.4,830.6,52,831.1c10.5,0.3,21.3-0.3,31.7,0.3c6.2,0.3,9.4-2.3,12.5-7.1c11.1-17.3,22.4-34.6,34.3-51
			c4.5-6.5,6.8-12.5,6.8-20.4c-0.3-113.7-0.3-227.3,0-341.3c0-16.7,5.7-22.4,22.1-22.4c41.1,0,82.2,0,123.3,0
			c19.6,0,24.7,4.8,24.7,24.4c0,69.2,0,138,0,207.2c0,3.7,0,7.4,0,10.2c34.3-10.8,67.7-21,101.2-31.5c0-108.9,0-218.8,0-329.4
			c-10.8,0-20.7,0-30.3,0c-8.2,0-14.5-2.6-18.1-10.2c-3.4-7.4-1.1-13.9,4-19.6c38.8-44.2,77.4-88.7,116.2-132.7
			c8.8-9.9,19.6-9.9,28.3,0c39.1,44.5,78.2,88.7,116.5,133.8c3.7,4.3,5.1,13.6,2.8,18.1c-2.6,5.1-10.2,9.1-16.4,10.2
			C601.4,271.3,590.9,270.2,579.8,270.2L579.8,270.2z M494.2,142.9c-27.2,31.2-53.6,61.2-80.8,92.4c28.9,3.1,29.8,4,29.8,32.3
			c0,105.2,0,210.3,0,315.5c0,4,0,8.2,0,11.6c34.6,0,67.7,0,102,0c0-3.7,0-7.7,0-11.9c0-104.6,0-208.9,0-313.5
			c0-29.5,0-29.5,29.5-34.3C547.8,204.4,521.7,174.3,494.2,142.9z M171.4,726c29.5-28.3,59.8-52.2,93.5-70.9c6.5-3.7,8.2-7.9,8.2-15
			c-0.3-68.6,0-137.2-0.3-205.8c0-3.4-0.3-6.8-0.6-10.2c-34.3,0-67.7,0-101.2,0C171.4,524.4,171.4,623.9,171.4,726z M816.5,723.4
			c0-99.8,0-199.8,0-299.9c-34,0-67.2,0-100.6,0c0,45.4,0,90.1,0,135.5c11.1,1.4,15.3,8.8,17.6,18.7c2.8,12.5,6.5,24.7,9.4,37.1
			c3.7,16.7,12.8,33.7-1.1,48.5C766.9,684,791.6,703.6,816.5,723.4L816.5,723.4z M570.5,739c-115.7-30.6-242.9,14.2-309.5,92.4
			c4.3,0,7.7,0,11.1,0c32.6,0,65.2,0,97.8,0c51.6,0,103.2,0,155.1-0.3c3.7,0,9.6-2.3,10.8-5.1C547.2,797.7,558.6,768.5,570.5,739
			L570.5,739z M476.7,627.6c-103.7,5.7-193.6,42.8-268.2,110.6c16.7,16.7,32.3,32.3,48.2,48.2c61.8-55,135.8-85,220-90.4
			C476.7,673,476.7,650.9,476.7,627.6z M228.6,813.8c-16.2-16.2-31.7-32-47.3-47.6c-58.7,51.3-117.1,191.9-110.8,268.7
			c22.1,0,44.2,0,66.3,0C157.5,914.2,166,894.1,228.6,813.8z M919.1,1035.2c-6.2-104-43.1-193.6-111.4-269.3
			c-16.4,16.4-32,32-48.2,47.9c55.3,62.6,85.9,136.9,91.6,221.4C873.8,1035.2,895.6,1035.2,919.1,1035.2L919.1,1035.2z M554.6,930.6
			c1.1-1.7,2.6-3.4,3.7-5.4C609,832.8,660.1,740.4,710.8,648c1.4-2.6,3.1-6.2,2.6-8.8c-3.1-13.9-6.8-27.8-10.2-42.2
			c-11.9,3.1-22.4,6.2-33.2,8.2c-7.9,1.4-11.1,5.4-13.9,12.2c-28.9,72.9-58.1,145.7-87.3,218.8c-11.3,28.3-22.7,57-34.3,85.9
			C541.3,925,547.8,927.8,554.6,930.6L554.6,930.6z M593.7,1035.2c-5.7-49.6-53.9-87.3-106.6-84.5c-46.2,2.6-91.8,43.9-92.4,84.5
			C461.1,1035.2,527.1,1035.2,593.7,1035.2L593.7,1035.2z M511.8,626.2c0,24.7,0,46.8,0,68.3c22.7,4,44.5,7.7,66.3,11.1
			c2,0.3,6-1.4,6.5-2.8c8.2-19.6,15.6-39.1,24.4-61.2C576.2,636.1,544.7,631.3,511.8,626.2z M724.4,693.9
			c-11.6,21.3-22.4,40.5-32.9,60.1c14.7,11.3,28.9,22.4,41.1,32c16.2-16.2,32-31.7,48.5-48.2C763,724,744.5,709.5,724.4,693.9
			L724.4,693.9z M726.1,831.1c0.6-0.9,1.1-1.7,1.7-2.6c-17.3-14.7-34.6-29.5-53-45.1c-9.4,17-17.6,32-26.1,47.6
			C675.9,831.1,701.2,831.1,726.1,831.1L726.1,831.1z"/>
		<path id="path868" class="st1" d="M137.3,167c13,0,28.9,4.5,38.3-1.4c8.8-5.7,10.5-22.1,15.3-34s9.6-23.5,14.2-35.4
			c3.1-7.9,8.2-13.3,17.3-13c8.5,0.3,13.3,5.4,16.4,13c8.5,21,17.3,42,24.9,63.2c2.6,7.4,6.5,9.4,13.9,9.1c19.8-0.6,39.7,0,59.5-0.3
			c8.8,0,16.2,2.3,19.8,11.1c3.4,8.5-0.6,15-6.5,20.7c-17,17-34,34.3-51.3,51c-4.8,4.5-5.7,8.5-2.8,14.7
			c8.8,20.4,16.7,41.4,24.9,61.8c3.4,8.5,4.5,16.7-3.1,23.2c-7.7,6.8-15.6,4.8-23.5-0.3c-21.8-13.3-43.7-26.1-65.5-39.7
			c-5.1-3.1-9.1-3.4-14.5,0c-21.5,13.3-43.7,26.4-65.5,39.4c-7.9,4.8-15.6,7.1-23.5,0.3c-7.7-6.5-6.8-14.7-3.4-23.2
			c8.2-19.8,15.9-40.3,24.4-59.8c3.1-7.7,2.8-12.5-3.4-18.4c-17-15.9-33.2-32.9-49.9-49.3c-6.2-6.2-10.2-12.8-6.2-21.8
			c3.7-8.2,10.8-10.5,19.3-10.2c10.2,0.3,20.4,0,30.9,0C137.3,167.8,137.3,167.3,137.3,167L137.3,167z M173.1,294.3
			c0.6,0.6,0.9,1.1,1.4,1.7c10.8-6.5,22.1-12.5,32.6-19.6c10.5-7.4,19.8-6.8,30.3,0c10.5,7.1,21.5,13,34.9,21
			c-3.7-9.1-6.2-15.6-8.8-22.1c-10.5-26.1-10.5-26.1,9.1-45.6c8.5-8.5,17-17,27.2-27.5c-13.3,0-23.5,0-33.7,0
			c-21,0-21.8-0.9-29.8-20.1c-4.5-11.1-9.1-22.4-14.2-34.3c-1.7,2.3-2.3,2.8-2.3,3.4c-4.5,11.1-9.1,22.4-13.3,33.4
			c-6.2,15.6-9.1,17.6-26.1,17.6c-11.3,0-22.7,0-36.9,0c13,12.8,23,23.2,33.7,32.9c10.5,9.4,13.3,19,6.8,32
			C179.6,275.5,176.5,285.2,173.1,294.3z"/>
		<path id="path870" class="st1" d="M681.3,167.3c13,0,28.9,4.5,38.3-1.4c8.8-5.7,10.5-22.1,15.3-34c4.8-12.2,9.6-24.4,14.5-36.3
			c3.1-7.7,8.2-12.5,16.7-12.5c8.5,0,13.6,5.1,16.4,12.8c8.5,21.5,17.6,43.4,25.8,64.9c2,5.4,4.8,7.4,10.8,7.4
			c20.1-0.3,40.3,0,60.7-0.3c9.1,0,17,1.4,21,10.8c4,9.6-1.4,16.2-7.7,22.4c-15.9,15.6-31.2,32-47.6,47.1c-7.4,6.8-7.9,12.2-4,21
			c8.5,19,15.6,38.6,23.5,57.8c3.4,8.5,4.8,16.7-2.8,23.2c-7.9,7.1-16.2,4.5-24.4-0.3c-20.1-12.5-40.8-24.1-60.7-36.9
			c-8.5-5.7-14.7-4.8-22.7,0.3c-19,12.2-38.8,23.5-58.1,35.1c-8.5,5.1-17,10.2-26.1,2.3c-9.1-7.7-6.2-16.7-2.6-26.1
			c8.2-19.8,15.9-40.3,24.1-60.1c2.6-6,1.7-9.4-2.8-13.9c-17.3-16.7-34-34-51.3-51c-6.2-6.2-10.5-12.8-6.5-21.5
			c3.7-8.8,11.3-10.8,20.1-10.5c9.9,0.3,19.8,0,29.8,0C681.3,167.8,681.3,167.5,681.3,167.3L681.3,167.3z M767.2,148.8
			c-1.7,0.9-2.6,1.1-2.6,1.7c-4.5,11.3-9.4,23-13.9,34.3c-6.2,15-9.1,17.3-25.2,17.3c-11.6,0-23,0-34.6,0c-0.3,0.9-0.9,1.7-1.1,2.6
			c11.1,10.8,22.1,21.8,33.4,32c9.1,8.2,11.1,17,5.7,28.3c-4.5,9.6-7.9,19.8-12.8,32.3c14.2-8.5,26.1-15,37.1-22.4
			c8.8-5.7,17-5.7,25.8,0c11.3,7.4,23.2,13.9,37.4,22.4c-5.1-13-8.8-23.2-13.3-33.2c-4.8-10.5-3.1-19,5.7-26.6
			c11.6-10.5,23-21.8,34.6-32.9c-2.6-1.7-2.8-2.3-3.4-2.3c-11.1,0-21.8-0.3-32.9-0.3c-16.2,0-19-2-25.2-17.3
			C776.8,172.9,772,160.7,767.2,148.8L767.2,148.8z"/>
	</g>
</g>
</svg>
