<?xml version="1.0" encoding="utf-8"?>
<!-- Generator: Adobe Illustrator 23.0.2, SVG Export Plug-In . SVG Version: 6.00 Build 0)  -->
<svg version="1.1"
	 id="svg8" inkscape:version="1.0.1 (3bc2e813f5, 2020-09-07)" sodipodi:docname="Fonds.svg" xmlns:cc="http://creativecommons.org/ns#" xmlns:dc="http://purl.org/dc/elements/1.1/" xmlns:inkscape="http://www.inkscape.org/namespaces/inkscape" xmlns:rdf="http://www.w3.org/1999/02/22-rdf-syntax-ns#" xmlns:sodipodi="http://sodipodi.sourceforge.net/DTD/sodipodi-0.dtd" xmlns:svg="http://www.w3.org/2000/svg"
	 xmlns="http://www.w3.org/2000/svg" xmlns:xlink="http://www.w3.org/1999/xlink" x="0px" y="0px" viewBox="0 0 368 367.8"
	 style="enable-background:new 0 0 368 367.8;" xml:space="preserve">
<style type="text/css">
	.st0{fill:#002B54;}
	.st1{fill:#00A4E4;}
</style>
<sodipodi:namedview  bordercolor="#666666" borderopacity="1.0" id="base" inkscape:current-layer="g884" inkscape:cx="294.56267" inkscape:cy="425.49505" inkscape:document-rotation="0" inkscape:document-units="mm" inkscape:pageopacity="0.0" inkscape:pageshadow="2" inkscape:window-height="1017" inkscape:window-maximized="1" inkscape:window-width="1920" inkscape:window-x="-8" inkscape:window-y="-8" inkscape:zoom="0.98994949" pagecolor="#ffffff" showgrid="false">
	</sodipodi:namedview>
<g id="layer1" inkscape:groupmode="layer" inkscape:label="Calque 1">
	<g id="g884" transform="matrix(0.33783784,0,0,0.33783784,-5.9070148,-27.709621)">
		<path id="path840" class="st0" d="M18.1,815.9c6.2-10.5,11.3-21.8,19.6-30.9c9.9-11.1,24.4-13.6,39.1-13.6c40.8,0,81.4,0,122.2,0
			c6.5,0,9.9-1.1,11.9-8.2c30-111.7,90.7-203.2,181.7-275c1.4-1.1,2.6-2.3,1.7-1.7c-4.5-14.2-11.1-26.6-12.5-39.7
			c-2.6-19.8,6.8-36,23.5-46.8c6.5-4.3,6.8-7.9,4.8-14.7c-15-51.9-29.8-104-44.2-156.2c-11.3-41.7,12.8-82.5,54.1-90.7
			c12.8-2.6,26.1-0.9,39.1-2c4.5-0.6,10.2-3.1,12.8-6.5c45.6-63.8,134.9-64.1,180.3,0c3.7,5.4,7.7,7.1,13.9,7.1
			c13,0,26.6-0.9,39.1,2c41.4,8.8,64.6,49.3,53.3,91.3c-14.2,51.9-28.9,103.5-43.9,155.1c-2,7.4-1.4,11.1,5.4,15.3
			c22.4,13.9,35.4,50.7,7.7,83.6c8.5,7.1,17.3,14.2,25.8,21.5C832.4,574.7,886,659.8,913.2,761c2.3,8.5,5.7,10.8,14.5,10.8
			c45.4-0.6,90.7-0.3,136.1-0.3c29.2,0,42.8,13.9,42.8,43.1c0,103.2-0.3,206.1,0.3,309.3c0.3,22.4-6.8,38.6-28.1,47.1
			c-181.4,0-362.8,0-544.3,0c-2.3-0.6-4.8-1.1-7.1-1.7c-31.7-6.5-63.2-13-95-20.1c-7.4-1.7-14.5-5.1-22.1-7.9
			c-7.9,16.4-22.1,24.1-37.7,29.8c-103.5,0-206.9,0-310.4,0c-22.7-6-36.9-21-44.5-42.5c0-7.9,0-15.6,0-23.5
			c7.4-12.2,14.7-24.1,22.7-37.4c-1.1-6.2-4.3-15.3-4-24.1c0-8.8,3.1-17.9,4.8-27.2c-12.2-7.9-18.7-20.7-23.8-34.6
			c0-7.1,0-14.2,0-21.3c3.7-7.4,7.9-14.7,11.3-22.1c0.9-1.7,0.6-4.5-0.3-6.5c-3.4-7.7-7.4-15-11.1-22.4c0-7.1,0-14.2,0-21.3
			c3.7-7.4,7.7-14.7,11.3-22.4c0.9-1.7,1.1-4.8,0.3-6.5c-3.4-7.7-7.7-14.7-11.3-22.1C18.1,830.1,18.1,823,18.1,815.9L18.1,815.9z
			 M410.6,997.6c3.1,2.8,5.4,4.8,7.7,7.1c22.7,21.5,22.7,57.3,0,78.8c-9.6,9.1-7.9,18.1,4.8,23.2c36,14.7,73.1,24.1,112,26.6
			c101.5,6.5,191.3-21.5,265.9-91.6c52.7-49.3,83.1-110.3,87.3-183.1c3.1-54.4-10.8-105.4-32.6-154.2
			c-36.3-80.2-87.6-148.5-161.6-198.1c-6-4-14.2-6.2-21.5-6.5c-69.7-0.6-139.5,0.3-209.2-0.6c-17.6-0.3-31.2,4.8-44.8,14.7
			c-64.3,48.2-111.7,110-145.7,182.3c-11.1,23.8-19.3,49-29.5,75.4c7.1,0,11.1,0,14.7,0c34,0,68-0.3,102,0
			c31.5,0.3,54.1,20.7,56.7,50.5c1.4,15-4.3,28.3-13.3,40.3c18.4,24.4,18.1,48.5,0,72.9C418.9,954.6,421.4,975.3,410.6,997.6
			L410.6,997.6z M453.7,173.6c-4.5,0-8.8,0-13,0c-32,0-47.3,20.4-38.8,51c14.7,52.4,29.8,104.9,44.2,157.3c2,7.1,4.8,9.4,12.2,9.4
			c69.2-0.3,138-0.3,207.2,0c7.1,0,10.5-1.4,12.5-9.1c14.7-53.3,30-106.3,44.8-159.3c1.7-6,2.6-12.8,1.7-18.7
			c-4-24.1-26.6-36-53.9-28.9c0,28.3,0,56.7,0,85c0,13.6-6.8,21.8-17.6,22.1c-11.1,0.3-18.4-8.5-18.7-22.4c0-22.4,0-44.5,0-66.9
			c-0.3-42.2-32-74.3-72.9-74c-40.3,0.3-71.7,32-72,73.7c-0.3,22.7,0,45.4,0,68c0,13-7.7,21.5-18.4,21.5c-10.8,0-17.9-8.5-17.9-21.8
			C453.7,232,453.7,203.7,453.7,173.6L453.7,173.6z M924.3,808.9c9.9,152.2-62.6,255.4-192.2,325.4c83.9,0,166.4,0,249.4,0
			c4.5-23,14.7-42.5,30.9-58.7c16.2-16.2,36.3-25.2,57.8-30.3c0-49.9,0-98.6,0-147.7c-48.5-11.3-78-41.4-89-89
			C961.4,808.9,943,808.9,924.3,808.9L924.3,808.9z M217.6,917.1c45.4,0,90.7,0,136.1,0c3.4,0,7.1,0,10.5-0.3
			c9.9-1.4,16.4-8.5,16.7-17.6c0.3-9.4-6.8-17-17.3-18.1c-2.8-0.3-5.7-0.3-8.5-0.3c-91.8,0-183.4,0-275.2,0c-2.8,0-5.7,0-8.5,0.3
			c-10.5,1.1-17.3,8.5-17,18.1c0.3,9.1,6.8,16.2,16.7,17.6c3.4,0.6,7.1,0.3,10.5,0.3C127.2,917.1,172.5,917.1,217.6,917.1
			L217.6,917.1z M217.9,1098.6c-47.1,0-94.1,0-141.4,0c-13.6,0-21.8,6.5-22.1,17.6c-0.3,11.3,8.2,18.7,22.4,18.7
			c93.8,0,187.7,0,281.5,0c14.2,0,22.7-7.1,22.7-18.1s-8.5-17.9-23-17.9C311.4,1098.6,264.7,1098.6,217.9,1098.6L217.9,1098.6z
			 M217.9,844.3c4.5,0,9.1,0,13.9,0c42.8,0,85.6,0,128.7,0c12.8,0,20.7-7.4,20.7-17.9c0-10.5-7.9-17.9-20.4-18.4c-1.7,0-3.4,0-5.4,0
			c-91.8,0-183.4,0-275.2,0c-4.5,0-10.2-0.6-13.3,1.7c-4.8,3.4-10.5,8.5-11.3,13.9c-0.9,5.1,2.6,12.8,6.5,16.4
			c4,3.4,11.1,4,16.7,4.3C125.2,844.6,171.4,844.3,217.9,844.3L217.9,844.3z M217.9,953.4c-20.4,0-41.1,0-61.5,0
			c-27.5,0-55.3-0.3-82.8,0.3c-11.3,0-18.7,7.4-19,17.3s7.1,17.3,18.1,18.7c2,0.3,4.3,0.3,6.2,0.3c92.4,0,184.8,0,277.2,0
			c4.5,0,9.4-0.3,13.6-1.7c7.9-2.8,12.8-9.9,10.8-17.3c-1.4-6-7.1-11.6-11.9-15.9c-2.6-2.3-8.2-1.1-12.5-1.1
			C310,953.4,263.8,953.4,217.9,953.4L217.9,953.4z M235.8,1026.3c-40.3,0-80.8,0-121,0c-8.5,0-17-0.3-25.5,0.3
			c-9.4,0.6-15,6.2-15.9,15.6c-1.1,9.6,3.4,16.4,12.8,19.3c4,1.1,8.5,1.1,12.5,1.1c69.2,0,138,0,207.2,0c24.1,0,48.2,0,72.3,0
			c11.9,0,19.6-6,21-15.6c1.7-12.2-6.5-20.7-20.7-20.7C330.7,1026,283.1,1026.3,235.8,1026.3L235.8,1026.3z M562,463.3
			c41.7,0,83.6,0,125.3,0c14.2,0,22.7-9.9,19.6-22.4c-2.3-9.1-9.6-13.6-22.4-13.9c-81.4,0-162.7,0-244.3,0c-3.1,0-6.5,0-9.4,0.9
			c-10.8,2.8-16.4,14.2-11.9,24.4c3.7,8.5,11.1,11.1,19.8,11.1C479.8,463.3,520.9,463.3,562,463.3L562,463.3z M1069.7,858.7
			c0-17,0-33.4,0-49.9c-17,0-33.4,0-49.9,0C1024.1,832.7,1046.5,854.8,1069.7,858.7z M1070,1134.3c0-17,0-33.4,0-49.9
			c-18.4-0.6-49.6,28.9-49.9,49.9C1036.5,1134.3,1053,1134.3,1070,1134.3z"/>
		<path id="path874" class="st1" d="M544.2,932.2c0-5.7,0-9.6,0-13.3c0-21.5-1.1-43.4,0.3-64.9c1.1-18.7-1.7-30-22.7-38
			c-33.7-13-53-50.5-50.2-85c3.1-38.3,26.4-68.9,62.1-80.8c6-2,10.5-3.4,11.9-11.1c1.7-7.9,9.1-13,16.7-11.3c6,1.4,13.6,6,15.9,11.3
			c2.8,6.5,6,9.1,12.2,11.1c36,11.9,60.1,43.7,62.4,81.6c0.6,12.5-5.7,21-16.4,22.1c-10.5,1.1-18.4-6.2-19.6-19
			c-1.4-16.7-7.7-30.9-21-41.4c-4-3.1-8.8-5.4-15.6-9.4c0,7.9,0,13,0,18.1c0,26.9,0.3,53.9-0.3,80.8c0,7.1,2.3,9.6,8.8,11.6
			c38.8,12.5,64.6,47.3,64.1,87c-0.3,39.4-25.8,73.7-64.1,85.9c-5.4,1.7-8.8,4-10.2,10.2c-2,8.2-8.8,12.2-16.7,12.2
			c-8.2,0-15-4-16.7-12.2c-1.4-6.5-4.8-8.2-10.2-9.9c-36.6-11.9-60.4-42.2-63.5-80.8c-1.1-13.3,5.1-22.4,15.9-23.5
			c11.1-1.1,18.7,6,20.1,19.6C510.1,905,520.9,921.4,544.2,932.2L544.2,932.2z M581.3,930.2c21-5.7,36.6-28.6,35.4-51.3
			c-1.1-22.7-17-43.9-35.4-47.3C581.3,864.7,581.3,897.3,581.3,930.2L581.3,930.2z M543.6,686.4c-20.1,4.8-36,27.8-35.4,50.2
			c0.6,23,16.7,44.5,35.4,48.2C543.6,752.2,543.6,719.3,543.6,686.4z"/>
		<path id="path876" class="st1" d="M997.4,917.4c30,0,54.1,23.2,54.4,53.3c0.3,30.3-23.5,54.7-53.9,55.3
			c-29.2,0.3-54.4-24.4-54.7-53.6C943,942.1,967.4,917.4,997.4,917.4L997.4,917.4z M1015.6,971.3c-0.3-10.2-8.2-17.9-18.4-17.6
			c-9.6,0.3-17.3,8.2-17.6,17.6c0,9.6,8.5,18.4,18.1,18.1C1007.9,989.7,1015.8,981.2,1015.6,971.3L1015.6,971.3z"/>
	</g>
</g>
</svg>
