<?xml version="1.0" encoding="utf-8"?>
<!-- Generator: Adobe Illustrator 23.0.2, SVG Export Plug-In . SVG Version: 6.00 Build 0)  -->
<svg version="1.1"
	 id="svg8" inkscape:version="1.0.1 (3bc2e813f5, 2020-09-07)" sodipodi:docname="Quitter.svg" xmlns:cc="http://creativecommons.org/ns#" xmlns:dc="http://purl.org/dc/elements/1.1/" xmlns:inkscape="http://www.inkscape.org/namespaces/inkscape" xmlns:rdf="http://www.w3.org/1999/02/22-rdf-syntax-ns#" xmlns:sodipodi="http://sodipodi.sourceforge.net/DTD/sodipodi-0.dtd" xmlns:svg="http://www.w3.org/2000/svg"
	 xmlns="http://www.w3.org/2000/svg" xmlns:xlink="http://www.w3.org/1999/xlink" x="0px" y="0px" viewBox="0 0 351.6 367.9"
	 style="enable-background:new 0 0 351.6 367.9;" xml:space="preserve">
<style type="text/css">
	.st0{fill:#002B54;}
	.st1{fill:#00A4E4;}
</style>
<sodipodi:namedview  bordercolor="#666666" borderopacity="1.0" id="base" inkscape:current-layer="g844" inkscape:cx="327.19934" inkscape:cy="370.2064" inkscape:document-rotation="0" inkscape:document-units="mm" inkscape:pageopacity="0.0" inkscape:pageshadow="2" inkscape:window-height="1017" inkscape:window-maximized="1" inkscape:window-width="1920" inkscape:window-x="-8" inkscape:window-y="-8" inkscape:zoom="0.98994949" pagecolor="#ffffff" showgrid="false">
	</sodipodi:namedview>
<g id="layer1" inkscape:groupmode="layer" inkscape:label="Calque 1">
	<g id="g860" transform="matrix(0.35211268,0,0,0.35211268,-16.623995,-1.3690492)">
		<g id="g856" transform="matrix(0.95970886,0,0,0.95970886,57.774339,-24.840895)">
			<g id="g854" transform="matrix(1.0018229,0,0,0.99948036,-37.907448,-101.29083)">
				<g id="g844" transform="matrix(0.99818042,0,0,1.0005199,55.297762,43.463485)">
					<path id="path840" class="st0" d="M481.8,1176.4c-19.8-2.8-40-4.8-59.8-8.2C205.7,1131.7,29.9,963-16.3,747.8
						C-69,500.1,52.3,251.2,279.7,141.5c268.7-129.8,595.6-16.2,725.7,252.3c13.9,28.9,4.3,60.1-22.7,73.7
						c-26.9,13.6-57.8,2.8-72.3-26.1C858.5,338.2,779.7,264,671.7,223.2c-244.9-92.7-513.6,46.8-580,299.9
						c-60.9,232.4,83.3,476.2,316.3,533.8c201.8,49.9,405.9-43.9,499.7-229.6c14.5-28.3,37.4-41.1,63.2-34.9
						c33.7,8.2,50.7,44.2,35.1,76.3c-27.8,57.5-64.6,108.9-110.8,153.4c-91,87.6-199.3,138-324.6,151.7c-7.1,0.9-13.9,1.7-21,2.6
						C527.1,1176.4,504.5,1176.4,481.8,1176.4L481.8,1176.4z"/>
					<path id="path842" class="st1" d="M622.4,685.5c-24.4,0-45.9,0-67.5,0c-78,0-155.9,0.3-233.9,0c-36.6-0.3-61.2-32.9-51.6-67.5
						c6.5-23.5,27.5-38.6,54.7-38.6c94.7,0,189.1,0,283.7,0c4,0,7.7,0,14.2,0c-4-4.3-6.5-7.1-9.1-9.6c-23.2-23.2-46.8-46.2-69.7-70
						c-19-19.8-19.6-49.3-2.8-69.7c17.6-21,47.1-26.1,70-11.3c4.5,2.8,8.5,6.5,12.2,10.2c42.2,42,84.2,83.9,126.4,126.1
						c46.5,46.8,46.5,108,0,154.5c-42.5,42.5-85,85.3-127.8,127.8c-19.3,19-45.6,22.4-66.9,9.4c-28.9-17.6-34-57-10.2-81.6
						c23-23.5,46.5-46.8,69.7-70C615.9,692.6,618.1,690,622.4,685.5z"/>
				</g>
			</g>
		</g>
	</g>
</g>
</svg>
