<?xml version="1.0" encoding="utf-8"?>
<!-- Generator: Adobe Illustrator 23.0.2, SVG Export Plug-In . SVG Version: 6.00 Build 0)  -->
<svg version="1.1"
	 id="svg8" inkscape:version="1.0.1 (3bc2e813f5, 2020-09-07)" sodipodi:docname="Limite.svg" xmlns:cc="http://creativecommons.org/ns#" xmlns:dc="http://purl.org/dc/elements/1.1/" xmlns:inkscape="http://www.inkscape.org/namespaces/inkscape" xmlns:rdf="http://www.w3.org/1999/02/22-rdf-syntax-ns#" xmlns:sodipodi="http://sodipodi.sourceforge.net/DTD/sodipodi-0.dtd" xmlns:svg="http://www.w3.org/2000/svg"
	 xmlns="http://www.w3.org/2000/svg" xmlns:xlink="http://www.w3.org/1999/xlink" x="0px" y="0px" viewBox="0 0 367.9 257"
	 style="enable-background:new 0 0 367.9 257;" xml:space="preserve">
<style type="text/css">
	.st0{fill:#002B54;}
	.st1{fill:#00A4E4;}
</style>
<sodipodi:namedview  bordercolor="#666666" borderopacity="1.0" id="base" inkscape:current-layer="g864" inkscape:cx="388.70692" inkscape:cy="520.29561" inkscape:document-rotation="0" inkscape:document-units="mm" inkscape:pageopacity="0.0" inkscape:pageshadow="2" inkscape:window-height="1017" inkscape:window-maximized="1" inkscape:window-width="1920" inkscape:window-x="-8" inkscape:window-y="-8" inkscape:zoom="0.98994949" pagecolor="#ffffff" showgrid="false">
	</sodipodi:namedview>
<g id="layer1" inkscape:groupmode="layer" inkscape:label="Calque 1">
	<g id="g864" transform="matrix(0.33792566,0,0,0.33792566,-2.2046305,-21.575273)">
		<path id="path840" class="st0" d="M6.5,575.4c2.6-19.8,4.8-40,8.2-59.8c15-88.4,50.2-168.4,104.9-239.8c2-2.6,3.7-5.1,6.2-8.5
			c-13.6-3.7-26.4-7.1-39.4-10.8c-25.2-6.8-31.7-28.9-13.3-47.3c26.4-26.6,53-53.3,79.7-79.7c17.9-17.6,40.3-11.6,47.1,12.5
			c3.7,12.8,6.8,25.8,10.8,40.5c4.3-3.1,7.4-5.4,10.8-7.9c31.5-23.8,64.9-44.2,100.6-60.7c11.9-5.4,21-3.4,25.2,6.2
			c4,9.1,0.3,17-11.3,22.7c-7.9,4-15.9,7.7-24.9,12.2c22.4,38.8,44.2,76.8,66.9,115.7c115.7-55.3,230.7-55.3,346.4,0
			c22.1-38.6,44.2-76.5,66.6-115.1c-4.3-2.3-7.9-4.8-11.9-6.8c-116.5-56.1-237.5-68.3-362.8-35.1c-2.8,0.9-5.4,1.7-8.2,2.3
			c-9.6,2-17.9-2.3-20.4-10.8C384.9,96,389.8,87.5,400,85c18.1-4.8,36.3-9.6,54.7-12.8c161.3-26.4,307.8,9.1,436,111.1
			c111.1,88.4,176.9,204.4,198.1,345c3.7,24.7,4.5,49.9,6.2,75.1c0.9,14.5-5.1,20.4-19.3,20.4c-52.7,0.3-105.4,0-158.5,0
			c-14.5,0-19.6-5.7-19.8-21.3c-3.1-163-117.4-300.8-277.2-334.5C438,229.8,253.4,348.6,213.5,530.9c-5.1,23.8-6.5,48.2-8.8,72.6
			c-1.4,15-6,20.4-21,20.4c-52.2,0-104,0-156.2,0.3c-9.1,0-15.6-3.4-20.7-10.2C6.5,600.9,6.5,588.1,6.5,575.4L6.5,575.4z
			 M1062.1,591.3c13-137.8-117.1-361.7-244.1-419.5c-22.1,38-43.9,76.3-66.3,114.8c108.9,73.1,167.8,174.3,177.7,304.7
			C973.7,591.3,1017.6,591.3,1062.1,591.3z M172.1,591.3c9.9-130.4,68.9-231.9,177.7-304.7c-22.1-38.6-44.2-76.5-67.5-116.8
			c-20.4,15.3-40,29.8-59.2,44.5c-1.7,1.4-2.3,5.7-2,8.2c2,9.6,4.8,19.3,7.4,28.6c6.2,24.1-9.6,40.5-33.4,34.9
			c-8.5-2-17.3-4-25.5-7.1c-7.1-2.6-11.3-0.9-16.2,5.1c-52.2,64.3-87.3,137.2-104,218.3c-6,28.9-8.5,58.7-12.8,89
			C83.3,591.3,127.3,591.3,172.1,591.3L172.1,591.3z M196.2,253.1c-8.8-32.6-17-63.5-24.9-93c-23,22.7-45.4,45.4-68.3,68
			C132.9,236.1,163.8,244.3,196.2,253.1z"/>
		<path id="path842" class="st0" d="M500.9,824c-62.1,0-124.2-1.1-186,0.3c-35.7,0.9-54.7-32.3-36.6-63.5
			C358,625,436.3,488.1,515.1,351.7c19.3-33.2,53-32.9,72.3,0.6c78.5,136.1,157.3,272.1,235.6,408.5c3.7,6.2,7.1,13.3,8.2,20.4
			c3.4,20.1-11.9,39.4-32.9,42c-9.1,1.1-18.4,0.9-27.5,0.3c-9.4-0.6-15.3-7.4-15.3-15.9c0-8.8,6.8-15.3,16.7-15.6
			c4.5-0.3,9.1,0,13.9,0c15.3,0,17-2.8,9.6-15.6c-15-26.1-30-52.2-45.1-78.2C687.7,589.3,625,480.4,562.1,371.6
			c-1.7-2.8-2.8-5.7-4.8-8.2c-3.4-4.8-7.7-5.1-11.3-0.3c-1.7,2.3-3.1,4.8-4.5,7.4c-78,134.9-155.6,269.9-233.6,404.5
			c-1.1,2.3-2.6,4.3-3.7,6.5c-3.1,6.2-0.3,9.4,5.7,10.2c3.1,0.6,6.2,0,9.6,0c122.5,0,245.2,0,367.7,0c3.4,0,7.1-0.3,10.5,0.3
			c9.1,0.9,14.5,6.2,14.7,15c0.3,8.5-4.5,13.9-12.8,15.9c-3.4,0.9-7.1,0.6-10.5,0.6C626.2,824,563.5,824,500.9,824L500.9,824z"/>
		<path id="path844" class="st1" d="M998.9,668.9c42.8,0.3,77.4,35.4,77.1,78.2c-0.3,42.2-35.4,76.8-77.4,76.8
			c-42.5,0-77.7-35.1-77.7-78S955.8,668.6,998.9,668.9L998.9,668.9z M998.1,700.7c-24.9,0-45.1,20.4-45.4,45.4
			c0,25.2,21,46.2,45.9,45.9c24.7-0.3,45.4-21,45.4-45.6C1044.3,721.1,1023.6,700.7,998.1,700.7L998.1,700.7z"/>
		<path id="path846" class="st1" d="M594.1,556.7c-0.9,16.2-2,32.6-2.8,48.8c-1.1,23.2-18.7,40.3-41.1,40.3c-21.8-0.3-38.8-17-40-40
			c-1.7-31.7-3.4-63.8-5.4-95.5c-1.7-28.3,19.3-51.3,46.5-51c26.9,0.3,47.1,23,45.4,50.7C595.8,525.5,595,541.1,594.1,556.7
			L594.1,556.7z M562.4,555c0.9-15.6,2-31.2,2.6-46.5c0.6-10.5-5.7-17.3-14.5-17c-8.5,0.3-14.2,7.1-13.6,17
			c1.7,31.5,3.1,62.9,5.7,94.1c0.3,4,5.4,7.4,8.2,11.1c2.8-3.7,7.9-7.1,8.5-11.1C561,586.7,561.5,570.8,562.4,555L562.4,555z"/>
		<path id="path848" class="st1" d="M100.1,700.7c-2.8,0.3-4.3,0.6-5.7,0.6c-11.1,0.6-18.1-4.3-19.6-13.3
			c-1.1-8.8,4.8-16.4,15.6-17.9c30-4.5,55.3,5.1,74.3,28.9c21.5,26.9,21.8,64.9,1.4,92.7c-20.4,28.1-56.4,39.1-88.7,27.5
			c-32.3-11.6-53.3-43.7-51.3-77.7c0.6-8.5,2.3-16.4,11.6-19.6c11.9-4,20.7,4.5,20.4,19c-0.6,24.4,11.6,43.1,32.6,48.8
			c19,5.4,35.1,0.3,47.9-14.7c12.5-15,14.7-32,5.7-49.6C134.6,707.5,119.1,699.8,100.1,700.7L100.1,700.7z"/>
		<path id="path850" class="st1" d="M549.9,763c-26.4-0.3-46.5-21.5-45.9-48.2c0.6-25.5,21.5-46.2,47.3-45.9
			c26.1,0.3,46.8,21.5,46.5,47.6C597.5,743.2,576.6,763.6,549.9,763z M565.8,716.8c0.3-8.5-6.5-15.6-15-15.6
			c-7.9,0-14.7,6.5-15,14.5c-0.3,8.2,5.7,15,13.9,15.3C558.7,731.6,565.5,725.3,565.8,716.8L565.8,716.8z"/>
	</g>
</g>
</svg>
