<?xml version="1.0" encoding="utf-8"?>
<!-- Generator: Adobe Illustrator 23.0.2, SVG Export Plug-In . SVG Version: 6.00 Build 0)  -->
<svg version="1.1"
	 id="svg8" inkscape:version="1.0.1 (3bc2e813f5, 2020-09-07)" sodipodi:docname="Stress.svg" xmlns:cc="http://creativecommons.org/ns#" xmlns:dc="http://purl.org/dc/elements/1.1/" xmlns:inkscape="http://www.inkscape.org/namespaces/inkscape" xmlns:rdf="http://www.w3.org/1999/02/22-rdf-syntax-ns#" xmlns:sodipodi="http://sodipodi.sourceforge.net/DTD/sodipodi-0.dtd" xmlns:svg="http://www.w3.org/2000/svg"
	 xmlns="http://www.w3.org/2000/svg" xmlns:xlink="http://www.w3.org/1999/xlink" x="0px" y="0px" viewBox="0 0 356.3 357.2"
	 style="enable-background:new 0 0 356.3 357.2;" xml:space="preserve">
<style type="text/css">
	.st0{fill:#002B54;}
	.st1{fill:#00A4E4;}
</style>
<sodipodi:namedview  bordercolor="#666666" borderopacity="1.0" id="base" inkscape:current-layer="g950" inkscape:cx="341.00716" inkscape:cy="503.79674" inkscape:document-rotation="0" inkscape:document-units="mm" inkscape:pageopacity="0.0" inkscape:pageshadow="2" inkscape:window-height="1017" inkscape:window-maximized="1" inkscape:window-width="1920" inkscape:window-x="-8" inkscape:window-y="-8" inkscape:zoom="0.98994949" pagecolor="#ffffff" showgrid="false">
	</sodipodi:namedview>
<g id="layer1" inkscape:groupmode="layer" inkscape:label="Calque 1">
	<g id="g950" transform="matrix(0.33792566,0,0,0.33792566,-6.0532275,-2.5713343)">
		<path id="path914" class="st0" d="M829.9,521.2c-7.1,8.8-14.2,17.6-20.7,26.6c-1.1,1.7-0.9,5.1-0.3,7.7
			c3.7,15.3,12.2,22.4,29.2,23.5c32.3,2.3,64.6,7.7,97.5,11.9c0,55.3,0,110.6,0,166.1c-33.4,4.3-66.6,8.5-100.1,12.5
			c-17.6,2-24.9,7.9-27.5,25.2c-0.3,2.8,2,6.5,4,9.1c22.4,29.2,45.1,58.1,66.9,86.2c-39.4,39.4-78.5,78.2-117.9,117.6
			c-27.5-21.5-56.7-43.9-85.6-66.6c-9.9-7.7-31.5,0.9-33.2,13.3c-4.8,36.6-9.4,73.1-13.9,110.3c-55,0-110,0-166.1,0
			c-2.8-21.5-5.7-43.7-8.5-65.5c-2-15-4-30-5.7-45.4c-0.6-5.7-3.4-7.9-7.9-10.8c-13.3-8.5-23-4.5-34.3,4.8
			c-25.2,21-51.9,40.5-76.8,60.1c-39.1-39.1-78-78-117.6-117.6c1.1-1.4,3.4-4.8,6-8.2c20.1-26.1,40.3-52.2,60.7-78
			c4-5.1,4-8.8,2.3-15c-4-14.7-13-18.7-27.5-19.8c-32.9-2.8-65.2-7.9-98.4-12.2c0-55.3,0-110,0-166.1c30.9-4,61.8-7.9,95.8-12.2
			c-4.8-2.6-7.1-3.7-9.4-4.8c-42-17-84.2-33.7-126.1-50.7c-5.1-2-8.5-2.3-13,1.7C83,541.1,58,541.7,39,527.8
			c-19-13.9-26.1-38-17.6-59.5s30.3-35.1,53-32.3c23.5,2.6,42.2,21,44.8,45.4c0.6,6,2.8,8.5,7.9,10.5c49.3,19.6,98.6,39.4,148,59
			c2.3,0.9,4.5,1.4,8.5,0.3c-24.4-31.5-49-63.2-72.9-94.1c39.4-39.4,78.2-78.2,117.6-117.6c28.1,21.8,57,44.2,85.6,66.6
			c11.3,8.8,32.3,0.6,34.3-13.6c4.8-36.3,9.1-72.3,13.9-109.1c55.6,0,110.6,0,166.1,0c4.8,39.1,9.9,78,14.7,116.5
			c9.4,2.6,17.9,5.4,26.6,7.1c3.1,0.6,7.4-1.4,9.9-3.7c23.8-18.4,47.6-36.9,71.4-55.3c4-3.1,7.9-6,12.2-9.4
			c22.4,22.4,44.5,44.5,66.3,66.3c5.4,5.4,11.3,9.9,15.6,15.9c9.1,13,22.1,16.2,36.6,16.7c2.6,0,6-1.7,7.7-3.7
			c28.3-34,56.1-68.6,84.5-102.6c4.8-5.7,1.4-9.6-0.3-14.5c-7.7-21.3-0.9-44.2,17.3-57.8c17.9-13.6,42.5-13.6,60.4-0.6
			c18.1,13.3,25.5,36.6,18.4,57.5c-7.1,21-28.1,37.4-49.6,33.7c-15.6-2.6-22.1,4.5-29.8,14.5c-23.8,29.8-48.5,59.2-72.3,89
			c-2.6,3.1-4,9.1-2.8,12.5c8.8,24.7,2.6,48.5-17.6,62.4c-19.8,14.2-43.9,12.2-64.3-5.1C832.5,522.9,831.6,522.4,829.9,521.2
			L829.9,521.2z M757.9,962.3c25.8-25.8,50.5-50.2,75.7-75.4c-20.1-25.8-40.8-52.7-61.8-79.4c-3.7-4.8-4.5-8.5-1.4-13.9
			c5.1-9.6,11.3-19.6,13.3-30c3.7-20.4,15.9-24.9,34.6-26.4c28.1-2,55.8-6.8,83.9-10.2c0-36,0-70.9,0-106
			c-34.3-4.3-68-8.8-101.8-12.5c-6.2-0.9-8.8-3.1-11.1-8.8c-5.4-15-11.6-29.8-18.4-43.9c-3.1-6.5-2.8-10.5,1.7-15.9
			c11.6-14.2,22.7-28.9,34-43.4c-1.7-1.1-2.6-2-3.7-2c-34.6-5.4-69.2-10.8-104-15.6c-3.1-0.6-8.2,1.7-10.2,4.3
			c-10.5,13-23.2,20.1-40,21.3c-2.8,0.3-6.5,1.7-7.7,3.7c-6,11.6-11.1,23.5-16.4,35.1c74.6,49.3,89.3,134.4,58.1,198.1
			C651,806.4,579,840.4,508.5,823.1c-34.6-8.5-62.9-26.9-84.5-55.3c-30-39.4-38.3-83.6-27.2-131.8c-9.4-3.7-17.9-6.5-26.4-10.5
			c-5.7-2.6-9.4-1.4-13.9,2.6c-21.3,18.1-52.2,17.3-69.2-4.3c-9.1-11.3-17.3-14.5-30-10.8c-0.3,0-0.6,0-1.1,0
			c-22.7,2.8-45.4,5.7-68,8.8c0,35.7,0,70.3,0,105.7c34,4.3,67.5,8.8,101.2,12.8c6.5,0.9,9.6,2.8,11.9,9.4
			c5.4,15,11.6,29.5,18.4,43.9c2.8,6,2.8,9.6-1.4,15c-14.2,17.3-27.5,35.1-41.1,52.7c-7.4,9.4-14.5,19-20.1,26.1
			c25.5,25.8,50.2,50.5,75.1,75.7c25.8-20.1,52.4-41.1,79.7-61.5c2.8-2.3,8.5-3.4,11.6-2.3c16.4,6.2,32.9,13,49,20.4
			c2.8,1.1,6,5.1,6.2,7.9c2,11.9,3.1,23.8,4.5,35.7c2.8,22.7,5.7,45.4,8.5,67.7c36,0,70.9,0,106,0c4.3-34,8.8-67.5,12.5-100.9
			c0.9-7.4,4-9.9,10.2-12.2c14.2-5.1,28.3-10.8,42-17.6c7.1-3.4,11.6-2.8,17.6,2C706.6,922.6,733,942.8,757.9,962.3L757.9,962.3z
			 M256.2,460.3c19,24.4,38.3,49.6,58.1,74.6c1.7,2,5.4,2.8,8.2,2.8c29.2,1.1,47.6,17.6,52.4,47.1c0.3,2.3,1.7,5.7,3.7,6.5
			c9.9,4.3,20.1,7.9,30,11.6c44.2-70,105.7-95.2,185.1-75.1c5.4-11.6,10.8-22.4,15-33.4c1.1-2.8,0-7.4-1.7-9.9
			c-14.7-20.7-14.7-41.7-0.3-62.9c1.7-2.6,3.4-5.7,3.1-8.5c-3.7-31.7-7.9-63.8-11.9-95.8c-35.7,0-70.6,0-106,0
			c-4.3,33.7-8.8,67.2-12.5,100.3c-0.9,7.9-4,10.5-10.8,13c-13.3,4.5-26.6,9.6-39.1,16.2c-8.5,4.5-13.9,4.3-21.3-2
			c-25.5-20.7-51.6-40.5-77.1-60.4C306.4,410.1,281.7,434.5,256.2,460.3L256.2,460.3z M429.7,647.7
			c-13.9,62.6,23.5,124.7,83.6,140.9c62.6,17,126.4-18.1,145.4-79.7c15.9-50.7-9.6-118.8-49.6-132.9c-7.9,17.3-15.9,34.6-23.8,51.9
			c-0.9,1.7-2.3,3.4-2,4.8c0.3,3.4,0.6,7.4,2.3,9.9c8.8,12.5,12.8,26.1,9.6,41.1c-5.1,24.9-26.9,42-51.9,41.1
			c-24.4-0.9-44.5-19.3-48.8-43.9c-0.6-3.4-1.7-8.5-4.3-9.4C470.5,663.3,450.4,655.9,429.7,647.7L429.7,647.7z M578.8,560.4
			c-51.3-17-115.1,9.1-136.6,55.6c20.1,7.7,40,15.6,60.1,23c2.3,0.9,6.2-0.9,8.2-2.6c9.6-8.5,20.7-13,33.7-13.9
			c2.8-0.3,6.5-2.6,7.9-4.8C561.2,599.2,569.7,580.2,578.8,560.4L578.8,560.4z M828.2,456c-24.1-24.1-47.1-46.8-70.3-70.3
			c-18.4,14.2-38,29.5-57.3,44.8c-2.3,1.7-4.5,6-4,8.2s4.5,4.8,7.4,5.4c36.6,6,73.4,11.3,110,17.3
			C821.4,462.9,826.5,461.4,828.2,456L828.2,456z M1021.2,282.9c-9.4,0-16.7,7.9-16.7,17c0,9.4,7.9,16.7,17,16.7
			c9.1,0,16.7-7.9,16.7-17S1030.3,282.9,1021.2,282.9z M647.6,435.9c-9.1-0.3-17,7.4-17.3,16.4c-0.3,9.1,7.4,17,16.4,17.3
			c9.1,0.3,17-7.4,17.3-16.4C664.4,444.1,656.7,436.2,647.6,435.9z M68.5,504c9.1,0.3,17-7.4,17.3-16.4c0.3-9.1-7.4-17-16.4-17.3
			s-17,7.4-17.3,16.4C51.8,495.7,59.5,503.7,68.5,504z M885.2,486.7c-0.3-9.4-7.9-16.7-17.3-16.7c-9.4,0.3-16.7,7.9-16.7,17.3
			c0.3,9.4,7.9,16.7,17.3,16.7C877.8,503.7,885.5,495.7,885.2,486.7z M340.9,588.4c-0.3-9.4-8.2-16.7-17.3-16.4
			c-9.4,0.3-16.7,8.2-16.4,17.3c0.3,9.1,8.2,16.7,17.3,16.4C333.6,605.7,341.2,597.8,340.9,588.4z M544.7,657
			c-9.4,0.3-16.7,8.2-16.4,17.3c0.3,9.1,8.2,16.7,17.3,16.4c9.1-0.3,16.7-8.2,16.4-17.3C561.8,664.4,554.1,656.7,544.7,657z"/>
		<path id="path916" class="st1" d="M153.6,79.3c12.5,0,23,0,34,0c0,45.1,0,89.6,0,135.2c-7.9,0-15.9,0-23.5,0
			c31.5,31.2,62.1,61.8,91.8,91.3c29.2-29.2,60.1-60.1,90.4-90.7c-5.7,0-13.3,0-21.8,0c0-68.3,0-135.5,0-203.5c10.8,0,21.5,0,33.4,0
			c0,56.1,0,112.3,0,168.9c24.7,0,48.5,0,70,0c-57.3,57.3-115.4,115.4-172.3,172.3c-55.6-55.6-114-114-171.5-171.5
			c21,0,44.8,0,69.4,0C153.6,146.8,153.6,113.3,153.6,79.3L153.6,79.3z"/>
		<path id="path918" class="st1" d="M765.6,316.3c-11.3,0-21.8,0-33.2,0c0-45.1,0-89.6,0-135.2c-24.7,0-48.5,0-71.1,0
			C719.4,123,777.5,64.9,834.7,7.6c56.4,56.4,114.5,114.5,172.6,172.6c-22.4,0-46.2,0-71.1,0c0,23.2,0,45.4,0,68
			c-11.6,0-22.1,0-33.4,0c0-33.4,0-66.9,0-101.2c7.7,0,15.3,0,21,0c-30-30-60.9-60.9-90.7-90.7c-28.3,28.3-59.2,59.2-89.6,89.9
			c6,0,13.6,0,21.8,0C765.6,203.5,765.6,259.3,765.6,316.3z"/>
		<path id="path920" class="st1" d="M187.3,44.2c-11.3,0-21.8,0-32.9,0c0-11.1,0-21.5,0-32.6c10.5,0,21.3,0,32.9,0
			C187.3,22.1,187.3,32.8,187.3,44.2z"/>
		<path id="path922" class="st1" d="M903,283.4c11.1,0,21.3,0,32.6,0c0,10.8,0,21.3,0,32.9c-10.5,0-21.3,0-32.6,0
			C903,305.5,903,295,903,283.4z"/>
		<path id="path946" class="st1" d="M365.3,803.3c9.9-7.1,18.4-13.3,27.2-19.3c73.4,96.7,196.4,93,266.2,39.1
			c69.4-53.6,101.5-157.9,43.1-252.6c8.8-6,17.9-11.9,28.1-18.7c39.4,63.5,49.3,130.1,22.4,199.3c-33.2,85.6-97.5,134.6-188.8,142.9
			C481.8,901.1,416.6,868.2,365.3,803.3z"/>
		<path id="path948" class="st1" d="M367.3,733c3.7,8.8,7.1,16.4,11.1,25.8c-9.6,5.1-19.6,9.9-30.3,15.6
			c-4.3-10.5-8.5-19.8-12.8-30.6C346.3,740.1,356.2,736.7,367.3,733L367.3,733z"/>
	</g>
</g>
</svg>
