<?xml version="1.0" encoding="utf-8"?>
<!-- Generator: Adobe Illustrator 23.0.2, SVG Export Plug-In . SVG Version: 6.00 Build 0)  -->
<svg version="1.1"
	 id="svg8" inkscape:version="1.0.1 (3bc2e813f5, 2020-09-07)" sodipodi:docname="Valeur.svg" xmlns:cc="http://creativecommons.org/ns#" xmlns:dc="http://purl.org/dc/elements/1.1/" xmlns:inkscape="http://www.inkscape.org/namespaces/inkscape" xmlns:rdf="http://www.w3.org/1999/02/22-rdf-syntax-ns#" xmlns:sodipodi="http://sodipodi.sourceforge.net/DTD/sodipodi-0.dtd" xmlns:svg="http://www.w3.org/2000/svg"
	 xmlns="http://www.w3.org/2000/svg" xmlns:xlink="http://www.w3.org/1999/xlink" x="0px" y="0px" viewBox="0 0 336.2 386.2"
	 style="enable-background:new 0 0 336.2 386.2;" xml:space="preserve">
<style type="text/css">
	.st0{fill:#00A4E4;}
	.st1{fill:#002B54;}
</style>
<sodipodi:namedview  bordercolor="#666666" borderopacity="1.0" id="base" inkscape:current-layer="g970" inkscape:cx="438.29442" inkscape:cy="604.22455" inkscape:document-rotation="0" inkscape:document-units="mm" inkscape:pageopacity="0.0" inkscape:pageshadow="2" inkscape:window-height="1017" inkscape:window-maximized="1" inkscape:window-width="1920" inkscape:window-x="-8" inkscape:window-y="-8" inkscape:zoom="0.98994949" pagecolor="#ffffff" showgrid="false">
	</sodipodi:namedview>
<g id="layer1" inkscape:groupmode="layer" inkscape:label="Calque 1">
	<g id="g842" transform="matrix(0.26458333,0,0,0.26458333,10.963761,-7.6583062)">
		<g id="Calque_1-2" transform="translate(400.33156,377.93692)">
			<g id="layer1-5-4" transform="matrix(1.2795276,0,0,1.1267413,-432.37498,-453.30909)" inkscape:label="Calque 1">
				<g id="g972">
					<g id="g970">
						<path id="path954" class="st0" d="M267.6,666.5c-47.3,0-95,0-142.3,0c-14.5,0-21.5-6.8-21-19.3c0.6-9.1,5.1-14.5,13.9-16.2
							c3.1-0.6,6.2-0.6,9.6-0.6c93,0,186.2,0,279.2,0c14.2,0,21,4.3,23,14.2c2.6,12.5-5.1,21.8-19,22.1c-18.1,0.3-36,0-54.1,0
							C327.1,666.5,297.3,666.5,267.6,666.5z"/>
						<path id="path956" class="st0" d="M266.7,793.7c47.3,0,95,0,142.3,0c13.3,0,20.1,5.4,21,15.9c0.9,9.9-4.3,17.3-13.9,19.3
							c-3.4,0.9-7.1,0.9-10.5,0.9c-92.4,0-184.8,0-276.9,0c-16.4,0-23.8-5.4-24.1-17.3c-0.6-11.6,6.2-18.7,19.3-18.7
							c30.3-0.3,60.9,0,91.3,0C232.1,793.7,249.4,793.7,266.7,793.7L266.7,793.7z"/>
						<path id="path958" class="st0" d="M266.1,503.2c-45.4,0-90.7,0-135.8,0c-4,0-7.9,0-11.6-0.6c-8.8-1.4-13.6-6.8-14.2-15.6
							c-0.6-9.1,2.6-16.2,11.9-18.7c4-1.1,8.5-1.4,12.5-1.4c92.1,0,184,0,276.1,0c4.5,0,9.4,0.3,13.6,1.7
							c8.8,2.6,11.9,9.4,11.6,18.1c-0.6,8.8-5.4,14.5-14.2,16.2c-3.7,0.6-7.7,0.6-11.6,0.6C358.3,503.2,312.3,503.2,266.1,503.2
							L266.1,503.2z"/>
						<path id="path960" class="st0" d="M267.6,993.3c-46.8,0-93.5,0-140,0c-16.7,0-24.4-7.1-23-20.4c0.9-8.5,5.4-13.6,13.9-15
							c4.3-0.6,8.5-0.6,12.8-0.6c91,0,182,0,272.7,0c4.3,0,8.5,0,12.8,0.9c9.1,1.7,13.3,7.7,13.6,16.4c0.3,8.8-3.1,15.3-11.9,17.6
							c-4.8,1.1-9.9,1.4-14.7,1.4C358,993.3,312.9,993.3,267.6,993.3L267.6,993.3z"/>
						<path id="path962" class="st0" d="M536.6,658.8c19.6-24.4,37.7-47.1,55.8-69.7c2.3-2.8,4.5-5.7,7.1-7.9
							c7.4-6.2,15.9-7.1,23.2-1.1c7.4,6,8.5,14.5,4.3,23c-1.1,2.3-2.8,4.3-4.3,6c-21.8,27.2-43.7,54.7-65.5,81.9
							c-12.2,15-21.3,15.6-34.9,1.7c-9.9-9.9-20.1-19.8-30-30c-9.1-9.4-9.4-19.6-1.7-27.2c7.9-7.9,17.6-7.4,27.2,2
							C524.1,644.4,530,651.4,536.6,658.8L536.6,658.8z"/>
						<path id="path964" class="st0" d="M536.6,822.4c19.3-24.1,37.1-46.2,54.7-68.3c2.6-3.1,4.8-6.2,7.7-8.8
							c6.8-6.2,17.9-7.1,24.4-1.7c6.5,5.4,8.2,15.9,3.1,24.1c-2.6,4.3-6,7.9-9.1,11.9C597.2,804.8,577.1,830,557,855
							c-11.6,14.5-21,15-34.3,1.7c-9.9-9.9-20.1-19.8-30-30c-9.1-9.4-9.9-19.6-2.3-27.2c7.7-7.9,18.1-7.4,27.8,2.3
							C524.4,807.9,529.8,814.7,536.6,822.4L536.6,822.4z"/>
						<path id="path966" class="st0" d="M536.8,495.5c19.6-24.4,38-47.3,56.4-70.3c2-2.6,4-5.1,6.2-7.1c7.4-6,15.6-6.8,23.5-1.4
							c6.8,4.8,8.5,16.2,3.7,24.1c-3.4,5.4-7.7,10.2-11.6,15c-19.3,24.4-38.8,48.8-58.4,72.9c-11.3,13.9-21,14.5-33.4,1.7
							c-9.9-9.9-20.1-19.8-30-30c-9.6-9.9-10.2-20.1-2.3-28.1c8.2-7.9,17.9-7.1,27.8,2.8C524.7,481.7,530.3,488.2,536.8,495.5
							L536.8,495.5z"/>
						<path id="path968" class="st0" d="M537.1,984.8c18.4-23,35.7-44.5,52.7-66c3.1-4,6.2-7.9,9.9-11.1c7.1-6,14.7-6.5,22.4-1.4
							c6.8,4.5,8.8,15,4.8,23c-1.4,2.8-3.4,5.4-5.4,7.9c-21.5,26.9-42.8,53.6-64.3,80.5c-12.2,15-21.5,15.6-34.9,2
							c-9.9-9.9-20.1-19.8-30-30c-9.1-9.4-9.6-19.6-2-27.2c7.7-7.7,17.9-7.1,27.2,2C524.1,970.6,529.8,977.1,537.1,984.8
							L537.1,984.8z"/>
						
							<path id="path911" sodipodi:nodetypes="cccssssscssccccccsccsscccccccccssscccsscccssssccccsccsccccccccccccss" class="st1" d="
							M739.1,1381.3c-42.8-12.2-78.4-37.1-106.6-75.5c-5.7-7.4-11-9.5-18.7-9.5c-183.8,0.4-367.3,0-551.1,0
							c-45.1,0-70.1-28.4-70.1-79.6V304c0-51.3,25-79.9,70.1-79.9h136.9c6.8,0,9.8-1.4,9.2-10.1c-0.6-10.1-0.3-20.3-0.3-30.3
							c0-18.2,6.2-25.3,22-25.3c24.1,0,48.1-0.4,72.5,0c6,0,8.9-1.7,11.9-8.1c17.5-37.4,45.5-57.3,82.6-57.7
							c37.7-0.4,65.9,19.9,83.7,57.7c2.9,6.4,6.2,7.7,11.9,7.7c24.1-0.4,48.1-0.4,72.5,0c15.5,0,21.7,7.1,21.7,24.3
							c0,10.1,0.6,20.3,0,30.3c-0.6,8.7,1.5,11.4,9.5,11.2c46-0.4,92.1-0.4,138.1-0.4c43.1,0,68.6,28.6,68.6,77.6
							c0,206.4,0.4,416.8,0.1,623.2c0,10.4,1.7,9.8,11.2,11.4c88.2,17.2,150.5,85.7,167.5,183.8c21.7,123.7-57.6,248.5-168.1,265
							C788,1391.5,762.4,1387,739.1,1381.3L739.1,1381.3z M603.9,1255.9c-1.8-5.4-2.9-9.1-4.4-13.1c-13.1-38.1-17.5-77.6-11-117.7
							c16.1-102.5,80.8-174,171.6-189.5c7.1-1.4,8-4.1,8-10.8v-626c0-22-10.4-34-29.1-34c-47.5,0-95,0-142.5-0.4
							c-6.6,0-9.2,1.4-8.6,9.5c0.6,11.4,0.3,22.6,0,34c-0.3,14.5-6.8,22.2-19.3,22.2H229c-12.4,0-19.3-7.7-19.6-22
							c-0.3-10.4-0.6-21.2,0-31.7c0.6-9.5-1.5-12.8-10.7-12.5c-45.1,0.7-90.6,0.4-135.7,0.4c-24.7,0-34.2,10.8-34.2,39.2v912.8
							c0,29,9.2,39.4,34.7,39.4h528.8H603.9z M785.1,1347c90.3,0.4,164.5-83,165.1-185.5C950.6,1058.3,876.9,974,786,974
							c-90.6,0-164.2,83.2-164.5,185.8C621.2,1262.6,695.1,1347,785.1,1347L785.1,1347z M397.3,289.9c48.1,0,96.5-0.4,144.6,0.4
							c7.5,0,10.1-1.4,9.8-10.8c-0.6-23.3-0.6-46.2,0-69.5c0.3-8.7-1.5-11.4-9.5-11.2c-22.6,0.7-45.1,0-68,0.4
							c-11,0-17.2-5.8-20.5-17.2c-9.2-31.1-29.4-48.6-55.5-48.9c-26.1,0-47.2,17.9-55.9,48.2c-3.6,12.2-10.1,17.6-21.4,17.6
							c-22.6-0.4-45.5,0.4-68-0.4c-7.5-0.4-9.2,2.3-8.9,10.4c0.6,23.3,0.6,46.5,0,69.5c-0.3,10.1,2.7,11.4,10.7,11.4L397.3,289.9z"
							/>
						<path id="path840" class="st1" d="M788.1,1304.4c-3.5-1.6-7.1-3.2-10.6-4.8c-52-23.5-84.7-62.6-97.9-117.3
							c-2.9-11.9-4-24.1-4-36.4c0-22,0.1-44-0.1-66c0-2.1,0.8-2.8,2.7-3.3c36.1-9.5,72.3-19.2,108.4-28.7c1.3-0.3,2.9-0.3,4.2,0
							c36.1,9.5,72.1,19.1,108.2,28.6c1.7,0.5,2.7,0.9,2.7,3.1c-0.1,22.7,0.1,45.3-0.1,68c-0.7,67.1-40.5,125.9-103.2,152.6
							c-3.1,1.3-6.1,2.7-9.2,4.2C788.8,1304.4,788.4,1304.4,788.1,1304.4L788.1,1304.4z M884.7,1123.7c-0.1,0-0.1,0-0.3,0
							c0-10.3-0.1-20.6,0.1-30.9c0-1.9-0.5-2.7-2.5-3.2c-30.4-8-60.8-16.1-91.2-24.1c-1.3-0.3-2.9-0.3-4.2,0
							c-30.4,8-60.8,16.1-91.2,24.1c-1.9,0.5-2.6,1.2-2.6,3.1c0.1,17.7,0.1,35.5,0.1,53.2c-0.1,19,3.3,37.5,10.5,55.1
							c16,39.2,44,67.2,83.5,83.9c1,0.5,2.7,0.3,3.8-0.2c24.3-10,44.8-25.3,61.1-45.7c18.8-23.7,29.7-50.6,31.9-80.6
							C884.7,1147,884.4,1135.4,884.7,1123.7L884.7,1123.7z"/>
						<path id="path844" class="st0" d="M780.3,1224.4c-22.8-18.9-45.5-37.6-68.2-56.4c4.2-4.8,8.2-9.3,12.4-14.2
							c17.8,14.7,35.6,29.4,53.5,44.2c24.7-28.8,49.2-57.4,74-86.1c5,4,9.8,7.9,14.7,11.9C837.8,1157.3,809.2,1190.7,780.3,1224.4
							L780.3,1224.4z"/>
					</g>
				</g>
			</g>
		</g>
	</g>
</g>
</svg>
