<?xml version="1.0" encoding="utf-8"?>
<!-- Generator: Adobe Illustrator 18.1.1, SVG Export Plug-In . SVG Version: 6.00 Build 0)  -->
<svg version="1.1"
	 id="svg8" xmlns:dc="http://purl.org/dc/elements/1.1/" xmlns:cc="http://creativecommons.org/ns#" xmlns:rdf="http://www.w3.org/1999/02/22-rdf-syntax-ns#" xmlns:svg="http://www.w3.org/2000/svg" xmlns:sodipodi="http://sodipodi.sourceforge.net/DTD/sodipodi-0.dtd" xmlns:inkscape="http://www.inkscape.org/namespaces/inkscape" sodipodi:docname="Conformité.svg" inkscape:version="1.0.1 (3bc2e813f5, 2020-09-07)"
	 xmlns="http://www.w3.org/2000/svg" xmlns:xlink="http://www.w3.org/1999/xlink" x="0px" y="0px"
	 viewBox="142.7 203.3 240.6 276.4" enable-background="new 142.7 203.3 240.6 276.4" xml:space="preserve">
<sodipodi:namedview  id="base" inkscape:cy="564.94326" inkscape:cx="322.59673" inkscape:zoom="0.98994949" borderopacity="1.0" showgrid="false" bordercolor="#666666" pagecolor="#ffffff" inkscape:window-y="-8" inkscape:window-x="-8" inkscape:window-height="1009" inkscape:window-width="1920" inkscape:current-layer="layer1" inkscape:document-units="mm" inkscape:pageshadow="2" inkscape:pageopacity="0.0" inkscape:window-maximized="1" inkscape:document-rotation="0">
	</sodipodi:namedview>
<g id="layer1" inkscape:label="Calque 1" inkscape:groupmode="layer">
	<g id="layer1-5" transform="matrix(0.26458334,0,0,0.26458334,52.80825,80.516086)" inkscape:label="Calque 1">
		<g id="g945" transform="matrix(0.26458333,0,0,0.26458333,26.294626,2.3086488)">
			
				<path id="path911" sodipodi:nodetypes="cccssssscssccccccsccsscccccccccssscccsscccssssccccsccsccccccccccccss" fill="#797979" d="
				M3768.1,5673.4c-148-37.1-271.3-113.1-368.8-230.2c-19.6-22.7-38-28.9-64.6-28.9c-636.1,1.1-1271.1,0-1907.2,0
				c-156.2,0-242.6-86.5-242.6-242.6V2390.3c0-156.2,86.5-243.5,242.6-243.5h473.7c23.5,0,34-4.3,31.7-30.9
				c-2-30.9-1.1-61.8-1.1-92.4c0-55.6,21.5-77.1,76-77.1c83.3,0,166.4-1.1,250.9,0c20.7,0,30.9-5.1,41.1-24.7
				c60.7-114,157.3-174.6,285.7-175.7c130.4-1.1,228.2,60.7,289.7,175.7c10.2,19.6,21.5,23.5,41.1,23.5c83.3-1.1,166.4-1.1,250.9,0
				c53.6,0,75.1,21.5,75.1,74c0,30.9,2,61.8,0,92.4c-2,26.6,5.1,34.9,32.9,34c159.3-1.1,318.6-1.1,477.9-1.1
				c149.1,0,237.3,87.3,237.3,236.4c0,629,1.4,1270.2,0.3,1899.2c0,31.7,6,29.8,38.8,34.9c305.3,52.4,521,261.1,579.7,560.1
				c75.1,377-199.3,757.4-581.7,807.6C3937.3,5704.5,3848.8,5690.9,3768.1,5673.4L3768.1,5673.4z M3300.3,5291.2
				c-6.2-16.4-10.2-27.8-15.3-40c-45.4-116.2-60.7-236.4-38-358.6c55.6-312.4,279.5-530.4,593.9-577.4c24.7-4.3,27.8-12.5,27.8-32.9
				V2374.7c0-66.9-36-103.7-100.6-103.7c-164.4,0-328.8,0-493.2-1.1c-22.7,0-31.7,4.3-29.8,28.9c2,34.9,1.1,68.9,0,103.7
				c-1.1,44.2-23.5,67.7-66.9,67.7H2002.6c-43.1,0-66.9-23.5-67.7-66.9c-1.1-31.7-2-64.6,0-96.7c2-28.9-5.1-39.1-37.1-38
				c-156.2,2-313.5,1.1-469.7,1.1c-85.3,0-118.2,32.9-118.2,119.3V5171c0,88.4,31.7,120.2,120.2,120.2h1830.1L3300.3,5291.2z
				 M3927.4,5568.8c312.4,1.1,569.2-252.9,571.5-565.2c1.1-314.4-253.7-571.5-568.3-571.5c-313.5,0-568.3,253.7-569.2,566.4
				C3360.1,5311.6,3615.8,5568.8,3927.4,5568.8L3927.4,5568.8z M2585.2,2347.2c166.4,0,333.9-1.1,500.3,1.1c25.8,0,34.9-4.3,34-32.9
				c-2-70.9-2-140.9,0-211.7c1.1-26.6-5.1-34.9-32.9-34c-78.2,2-156.2,0-235.3,1.1c-38,0-59.5-17.6-70.9-52.4
				c-31.7-94.7-101.8-148-192.2-149.1c-90.4,0-163.3,54.4-193.3,146.8c-12.5,37.1-34.9,53.6-74,53.6c-78.2-1.1-157.3,1.1-235.3-1.1
				c-25.8-1.1-31.7,7.1-30.9,31.7c2,70.9,2,141.7,0,211.7c-1.1,30.9,9.4,34.9,37.1,34.9L2585.2,2347.2z"/>
			<path id="path919" fill="#797979" d="M1685.2,3056.1c0-57.5,0-115.1,0-172.6c0-46.2,22.7-68.9,67.7-68.9
				c115.1-1.1,231.3-1.1,346.4,0c48.2,0,70.9,22.7,70.9,70.9c1.1,114,1.1,228.2,0,342.1c0,46.2-21.5,70.9-66.9,72
				c-117.1,1.1-233.3,1.1-350.4,0c-48.2-1.1-67.7-23.5-67.7-74C1685.2,3169.2,1685.2,3112.5,1685.2,3056.1L1685.2,3056.1z
				 M1919.3,3176.3c38,0,70.9-1.1,102.9,0c19.6,1.1,26.6-5.1,26.6-25.8c-1.1-62.6-1.1-125.3,0-189.1c0-21.5-8.2-25.8-26.6-25.8
				c-62.6,1.1-125.3,1.1-189.1,0c-17.6,0-24.7,4.3-24.7,23.5c2,32.9,0,66.9,0,99.8c0,37.1-13.3,87.3,6.2,108
				C1836.2,3193.9,1887.5,3173.2,1919.3,3176.3z"/>
			<path id="path921" fill="#797979" d="M1685.2,3879.3c0-56.4,0-113.1,0-169.5c0-48.2,21.5-70.9,70.9-70.9
				c114-1.1,228.2-1.1,342.1,0c50.5,0,72,22.7,72.9,72.9c0,113.1,0,226.2,0,338.2c0,49.3-22.7,72.9-72.9,74
				c-113.1,1.1-226.2,1.1-338.2,0c-53.6,0-74-22.7-74-76C1685.2,3992.4,1685.2,3935.7,1685.2,3879.3z M1933.8,3761.9
				c-39.1,0-70.9,1.1-102.9,0c-16.4,0-22.7,4.3-22.7,21.5c1.1,65.8,1.1,130.4,0,196.2c0,17.6,6.2,21.5,22.7,21.5
				c63.8-1.1,128.4-1.1,192.2,0c21.5,0,25.8-9.4,24.7-27.8c-1.1-30.9,0-61.8,0-92.4c-1.1-38,13.3-89.3-6.2-111.1
				C2019.1,3744.7,1966.6,3766.2,1933.8,3761.9z"/>
			<path id="path923" fill="#797979" d="M1685.2,4706.4c0-56.4,0-113.1,0-169.5c0-51.3,20.7-74,70.9-74c114-1.1,228.2-1.1,342.1,0
				c50.5,0,72,22.7,72,74c0,113.1,0,226.2,0,338.2c0,48.2-22.7,72-70,72.9c-115.1,1.1-231.3,1.1-346.4,0
				c-48.2-1.1-68.9-23.5-68.9-72.9C1685.2,4819.6,1685.2,4762.9,1685.2,4706.4z M2047.7,4706.4c0-31.7-1.1-64.6,0-96.7
				c1.1-19.6-6.2-23.5-24.7-23.5c-63.8,1.1-128.4,1.1-192.2,0c-15.3,0-22.7,3.1-22.7,20.7c1.1,65.8,1.1,130.4,0,196.2
				c0,16.4,5.1,22.7,21.5,22.7c63.8-1.1,128.4-1.1,192.2,0c21.5,0,25.8-8.2,24.7-26.6C2046.9,4768.2,2047.7,4737.3,2047.7,4706.4z"
				/>
			<path id="path925" fill="#797979" d="M2972.7,2813.5c149.1,0,297.9,0,445.9,0c45.4,0,70.9,20.7,72,57.5
				c1.1,34-14.5,56.4-48.2,63.8c-13.3,3.1-27.8,3.1-42.2,3.1c-287.7,0-574.3,0-862.3,0c-12.5,0-25.8,0-38-2
				c-34-6.2-52.4-27.8-51.3-61.8c1.1-34,20.7-55.6,54.4-58.7c25.8-3.1,51.3-1.1,77.1-1.1C2711.6,2813.5,2842.3,2813.5,2972.7,2813.5
				z"/>
			<path id="path927" fill="#797979" d="M2970.7,3176.3c149.1,0,297.9,0,445.9,0c28.9,0,53.6,6.2,67.7,34c17.6,34,0,76-37.1,86.5
				c-14.5,4.3-30.9,4.3-46.2,4.3c-288.9,0-577.4,0-865.1,0c-7.1,0-15.3,0-22.7,0c-42.2-4.3-66.9-28.9-64.6-65.8
				c2-34.9,26.6-57.5,67.7-57.5C2668.5,3176.3,2819.6,3176.3,2970.7,3176.3L2970.7,3176.3z"/>
			<path id="path929" fill="#797979" d="M2969.5,3638.6c150,0,300.2,0,450.1,0c45.4,0,70.9,20.7,72,57.5c1.1,34-15.3,56.4-49.3,62.6
				c-13.3,3.1-27.8,3.1-42.2,3.1c-285.7,0-572.3,0-858,0c-63.8,0-92.4-18.4-93.5-60.7c-1.1-44.2,27.8-62.6,93.5-62.6
				C2684.9,3638.6,2826.7,3638.6,2969.5,3638.6L2969.5,3638.6z"/>
			<path id="path931" fill="#797979" d="M2972.7,4000.6c144,0,287.7,0,430.6,0c14.5,0,28.9,0,42.2,3.1c27.8,6.2,44.2,25.8,45.4,54.4
				c2,30.9-12.5,52.4-41.1,61.8c-15.3,5.1-32.9,5.1-49.3,5.1c-287.7,0-574.3,0-862.3,0c-11.3,0-23.5,0-34.9-2
				c-34.9-5.1-56.4-28.9-55.6-61.8c1.1-32.9,23.5-56.4,58.7-59.5c10.2-1.1,20.7,0,30.9,0C2682.9,4000.6,2827.8,4000.6,2972.7,4000.6
				L2972.7,4000.6z"/>
			<path id="path933" fill="#797979" d="M2776.5,4463c84.2,0,169.5,0,253.7,0c49.3,0,76,21.5,76,60.7s-26.6,61.8-76,62.6
				c-169.5,1.1-338.2,1.1-507.7,0c-48.2,0-75.1-24.7-74-63.8c1.1-38,26.6-59.5,74-59.5C2606.7,4463,2692,4463,2776.5,4463z"/>
			<path id="path935" fill="#797979" d="M2776.5,4825.8c84.2,0,169.5,0,253.7,0c49.3,0,76,22.7,76,61.8s-26.6,61.8-76,61.8
				c-167.5,1.1-335.9,0-503.4,0c-6.2,0-12.5,0-19.6-1.1c-38-5.1-59.5-28.9-58.7-62.6c1.1-34,24.7-58.7,62.6-58.7
				C2599.6,4824.7,2688.1,4825.8,2776.5,4825.8L2776.5,4825.8z"/>
			<path id="path937" fill="#797979" d="M4317.7,4787.5c0,20.7-9.4,37.1-23.5,51.3c-135.8,136.6-270.1,273.3-405.9,409.9
				c-36,36-66.9,36-102.9,0c-72.9-72-146-144.9-218-218c-31.7-31.7-34-68.9-7.1-94.7c26.6-26.6,62.6-23.5,94.7,8.2
				c52.4,51.3,104.9,102.9,155.1,155.1c19.6,20.7,30.9,23.5,52.4,1.1c111.1-114,223.1-227.1,335.1-340.2
				c16.4-16.4,31.7-32.9,58.7-32.9C4289.9,4728,4316.8,4753.8,4317.7,4787.5L4317.7,4787.5z"/>
		</g>
	</g>
</g>
</svg>
