<?xml version="1.0" encoding="utf-8"?>
<!-- Generator: Adobe Illustrator 18.1.1, SVG Export Plug-In . SVG Version: 6.00 Build 0)  -->
<svg version="1.1"
	 id="svg8" xmlns:dc="http://purl.org/dc/elements/1.1/" xmlns:cc="http://creativecommons.org/ns#" xmlns:rdf="http://www.w3.org/1999/02/22-rdf-syntax-ns#" xmlns:svg="http://www.w3.org/2000/svg" xmlns:sodipodi="http://sodipodi.sourceforge.net/DTD/sodipodi-0.dtd" xmlns:inkscape="http://www.inkscape.org/namespaces/inkscape" sodipodi:docname="Fonds.svg" inkscape:version="1.0.1 (3bc2e813f5, 2020-09-07)"
	 xmlns="http://www.w3.org/2000/svg" xmlns:xlink="http://www.w3.org/1999/xlink" x="0px" y="0px" viewBox="163.5 220.7 276.1 276"
	 enable-background="new 163.5 220.7 276.1 276" xml:space="preserve">
<sodipodi:namedview  id="base" inkscape:cy="575.03712" inkscape:cx="407.82984" inkscape:zoom="0.49497475" borderopacity="1.0" showgrid="false" bordercolor="#666666" pagecolor="#ffffff" inkscape:window-y="0" inkscape:window-x="52" inkscape:window-height="1032" inkscape:window-width="1438" inkscape:current-layer="layer1" inkscape:document-units="mm" inkscape:pageshadow="2" inkscape:pageopacity="0.0" inkscape:window-maximized="0" inkscape:document-rotation="0">
	</sodipodi:namedview>
<g id="layer1" inkscape:label="Calque 1" inkscape:groupmode="layer">
	<g id="layer1-2" transform="matrix(0.26458333,0,0,0.26458333,60.175618,86.644815)" inkscape:label="Calque 1">
		<g id="g884" transform="matrix(0.33783784,0,0,0.33783784,-5.9070148,-27.709621)">
			<path id="path840" fill="#797979" d="M1176,3662.2c17.6-29.8,32-61.8,55.6-87.6c28.1-31.5,69.2-38.6,110.8-38.6
				c115.7,0,230.7,0,346.4,0c18.4,0,28.1-3.1,33.7-23.2c85-316.6,257.1-576,515.1-779.5c4-3.1,7.4-6.5,4.8-4.8
				c-12.8-40.3-31.5-75.4-35.4-112.5c-7.4-56.1,19.3-102,66.6-132.7c18.4-12.2,19.3-22.4,13.6-41.7
				c-42.5-147.1-84.5-294.8-125.3-442.8c-32-118.2,36.3-233.9,153.4-257.1c36.3-7.4,74-2.6,110.8-5.7c12.8-1.7,28.9-8.8,36.3-18.4
				c129.3-180.9,382.4-181.7,511.1,0c10.5,15.3,21.8,20.1,39.4,20.1c36.9,0,75.4-2.6,110.8,5.7c117.4,24.9,183.1,139.7,151.1,258.8
				c-40.3,147.1-81.9,293.4-124.4,439.7c-5.7,21-4,31.5,15.3,43.4c63.5,39.4,100.3,143.7,21.8,237c24.1,20.1,49,40.3,73.1,60.9
				c223.7,195.3,375.6,436.5,452.7,723.4c6.5,24.1,16.2,30.6,41.1,30.6c128.7-1.7,257.1-0.9,385.8-0.9
				c82.8,0,121.3,39.4,121.3,122.2c0,292.5-0.9,584.2,0.9,876.8c0.9,63.5-19.3,109.4-79.7,133.5c-514.2,0-1028.4,0-1542.9,0
				c-6.5-1.7-13.6-3.1-20.1-4.8c-89.9-18.4-179.1-36.9-269.3-57c-21-4.8-41.1-14.5-62.6-22.4c-22.4,46.5-62.6,68.3-106.9,84.5
				c-293.4,0-586.5,0-879.9,0c-64.3-17-104.6-59.5-126.1-120.5c0-22.4,0-44.2,0-66.6c21-34.6,41.7-68.3,64.3-106
				c-3.1-17.6-12.2-43.4-11.3-68.3c0-24.9,8.8-50.7,13.6-77.1c-34.6-22.4-53-58.7-67.5-98.1c0-20.1,0-40.3,0-60.4
				c10.5-21,22.4-41.7,32-62.6c2.6-4.8,1.7-12.8-0.9-18.4c-9.6-21.8-21-42.5-31.5-63.5c0-20.1,0-40.3,0-60.4
				c10.5-21,21.8-41.7,32-63.5c2.6-4.8,3.1-13.6,0.9-18.4c-9.6-21.8-21.8-41.7-32-62.6C1176,3702.5,1176,3682.4,1176,3662.2
				L1176,3662.2z M2288.6,4177.3c8.8,7.9,15.3,13.6,21.8,20.1c64.3,60.9,64.3,162.4,0,223.4c-27.2,25.8-22.4,51.3,13.6,65.8
				c102,41.7,207.2,68.3,317.5,75.4c287.7,18.4,542.3-60.9,753.7-259.7c149.4-139.7,235.6-312.7,247.5-519
				c8.8-154.2-30.6-298.8-92.4-437.1c-102.9-227.3-248.3-420.9-458.1-561.5c-17-11.3-40.3-17.6-60.9-18.4
				c-197.6-1.7-395.4,0.9-593-1.7c-49.9-0.9-88.4,13.6-127,41.7c-182.3,136.6-316.6,311.8-413,516.8
				c-31.5,67.5-54.7,138.9-83.6,213.7c20.1,0,31.5,0,41.7,0c96.4,0,192.8-0.9,289.1,0c89.3,0.9,153.4,58.7,160.7,143.1
				c4,42.5-12.2,80.2-37.7,114.2c52.2,69.2,51.3,137.5,0,206.6C2312.1,4055.4,2319.2,4114.1,2288.6,4177.3L2288.6,4177.3z
				 M2410.8,1841.5c-12.8,0-24.9,0-36.9,0c-90.7,0-134.1,57.8-110,144.6c41.7,148.5,84.5,297.4,125.3,445.9
				c5.7,20.1,13.6,26.6,34.6,26.6c196.2-0.9,391.2-0.9,587.3,0c20.1,0,29.8-4,35.4-25.8c41.7-151.1,85-301.3,127-451.6
				c4.8-17,7.4-36.3,4.8-53c-11.3-68.3-75.4-102-152.8-81.9c0,80.2,0,160.7,0,240.9c0,38.6-19.3,61.8-49.9,62.6
				c-31.5,0.9-52.2-24.1-53-63.5c0-63.5,0-126.1,0-189.6c-0.9-119.6-90.7-210.6-206.6-209.8c-114.2,0.9-203.2,90.7-204.1,208.9
				c-0.9,64.3,0,128.7,0,192.8c0,36.9-21.8,60.9-52.2,60.9c-30.6,0-50.7-24.1-50.7-61.8C2410.8,2007.1,2410.8,1926.9,2410.8,1841.5z
				 M3744.8,3642.4c28.1,431.4-177.4,724-544.8,922.4c237.8,0,471.7,0,707,0c12.8-65.2,41.7-120.5,87.6-166.4
				c45.9-45.9,102.9-71.4,163.8-85.9c0-141.4,0-279.5,0-418.7c-137.5-32-221.1-117.4-252.3-252.3
				C3849.9,3642.4,3797.8,3642.4,3744.8,3642.4z M1741.5,3949.1c128.7,0,257.1,0,385.8,0c9.6,0,20.1,0,29.8-0.9
				c28.1-4,46.5-24.1,47.3-49.9c0.9-26.6-19.3-48.2-49-51.3c-7.9-0.9-16.2-0.9-24.1-0.9c-260.2,0-519.9,0-780.1,0
				c-7.9,0-16.2,0-24.1,0.9c-29.8,3.1-49,24.1-48.2,51.3c0.9,25.8,19.3,45.9,47.3,49.9c9.6,1.7,20.1,0.9,29.8,0.9
				C1485.3,3949.1,1613.7,3949.1,1741.5,3949.1z M1742.4,4463.6c-133.5,0-266.7,0-400.8,0c-38.6,0-61.8,18.4-62.6,49.9
				c-0.9,32,23.2,53,63.5,53c265.9,0,532.1,0,798,0c40.3,0,64.3-20.1,64.3-51.3s-24.1-50.7-65.2-50.7
				C2007.4,4463.6,1875,4463.6,1742.4,4463.6L1742.4,4463.6z M1742.4,3742.7c12.8,0,25.8,0,39.4,0c121.3,0,242.6,0,364.8,0
				c36.3,0,58.7-21,58.7-50.7c0-29.8-22.4-50.7-57.8-52.2c-4.8,0-9.6,0-15.3,0c-260.2,0-519.9,0-780.1,0c-12.8,0-28.9-1.7-37.7,4.8
				c-13.6,9.6-29.8,24.1-32,39.4c-2.6,14.5,7.4,36.3,18.4,46.5c11.3,9.6,31.5,11.3,47.3,12.2
				C1479.6,3743.6,1610.6,3742.7,1742.4,3742.7z M1742.4,4052c-57.8,0-116.5,0-174.3,0c-78,0-156.8-0.9-234.7,0.9
				c-32,0-53,21-53.9,49c-0.9,28.1,20.1,49,51.3,53c5.7,0.9,12.2,0.9,17.6,0.9c261.9,0,523.8,0,785.8,0c12.8,0,26.6-0.9,38.6-4.8
				c22.4-7.9,36.3-28.1,30.6-49c-4-17-20.1-32.9-33.7-45.1c-7.4-6.5-23.2-3.1-35.4-3.1C2003.5,4052,1872.5,4052,1742.4,4052z
				 M1793.1,4258.6c-114.2,0-229,0-343,0c-24.1,0-48.2-0.9-72.3,0.9c-26.6,1.7-42.5,17.6-45.1,44.2c-3.1,27.2,9.6,46.5,36.3,54.7
				c11.3,3.1,24.1,3.1,35.4,3.1c196.2,0,391.2,0,587.3,0c68.3,0,136.6,0,204.9,0c33.7,0,55.6-17,59.5-44.2
				c4.8-34.6-18.4-58.7-58.7-58.7C2062.1,4257.8,1927.2,4258.6,1793.1,4258.6L1793.1,4258.6z M2717.8,2662.7c118.2,0,237,0,355.2,0
				c40.3,0,64.3-28.1,55.6-63.5c-6.5-25.8-27.2-38.6-63.5-39.4c-230.7,0-461.2,0-692.5,0c-8.8,0-18.4,0-26.6,2.6
				c-30.6,7.9-46.5,40.3-33.7,69.2c10.5,24.1,31.5,31.5,56.1,31.5C2484.8,2662.7,2601.3,2662.7,2717.8,2662.7L2717.8,2662.7z
				 M4156.9,3783.6c0-48.2,0-94.7,0-141.4c-48.2,0-94.7,0-141.4,0C4027.7,3709.9,4091.2,3772.5,4156.9,3783.6z M4157.8,4564.8
				c0-48.2,0-94.7,0-141.4c-52.2-1.7-140.6,81.9-141.4,141.4C4062.8,4564.8,4109.6,4564.8,4157.8,4564.8z"/>
			<path id="path874" fill="#797979" d="M2667.3,3991.9c0-16.2,0-27.2,0-37.7c0-60.9-3.1-123,0.9-184c3.1-53-4.8-85-64.3-107.7
				c-95.5-36.9-150.2-143.1-142.3-240.9c8.8-108.6,74.8-195.3,176-229c17-5.7,29.8-9.6,33.7-31.5c4.8-22.4,25.8-36.9,47.3-32
				c17,4,38.6,17,45.1,32c7.9,18.4,17,25.8,34.6,31.5c102,33.7,170.4,123.9,176.9,231.3c1.7,35.4-16.2,59.5-46.5,62.6
				c-29.8,3.1-52.2-17.6-55.6-53.9c-4-47.3-21.8-87.6-59.5-117.4c-11.3-8.8-24.9-15.3-44.2-26.6c0,22.4,0,36.9,0,51.3
				c0,76.3,0.9,152.8-0.9,229c0,20.1,6.5,27.2,24.9,32.9c110,35.4,183.1,134.1,181.7,246.6c-0.9,111.7-73.1,208.9-181.7,243.5
				c-15.3,4.8-24.9,11.3-28.9,28.9c-5.7,23.2-24.9,34.6-47.3,34.6c-23.2,0-42.5-11.3-47.3-34.6c-4-18.4-13.6-23.2-28.9-28.1
				c-103.7-33.7-171.2-119.6-180-229c-3.1-37.7,14.5-63.5,45.1-66.6c31.5-3.1,53,17,57,55.6
				C2570.7,3914.8,2601.3,3961.3,2667.3,3991.9L2667.3,3991.9z M2772.5,3986.2c59.5-16.2,103.7-81.1,100.3-145.4
				c-3.1-64.3-48.2-124.4-100.3-134.1C2772.5,3800.6,2772.5,3893,2772.5,3986.2z M2665.6,3295.2c-57,13.6-102,78.8-100.3,142.3
				c1.7,65.2,47.3,126.1,100.3,136.6C2665.6,3481.7,2665.6,3388.4,2665.6,3295.2z"/>
			<path id="path876" fill="#797979" d="M3952,3950c85,0,153.4,65.8,154.2,151.1c0.9,85.9-66.6,155.1-152.8,156.8
				c-82.8,0.9-154.2-69.2-155.1-151.9C3797.8,4020,3866.9,3950,3952,3950z M4003.6,4102.7c-0.9-28.9-23.2-50.7-52.2-49.9
				c-27.2,0.9-49,23.2-49.9,49.9c0,27.2,24.1,52.2,51.3,51.3C3981.8,4154.9,4004.1,4130.8,4003.6,4102.7z"/>
		</g>
	</g>
</g>
</svg>
