<?xml version="1.0" encoding="utf-8"?>
<!-- Generator: Adobe Illustrator 23.0.2, SVG Export Plug-In . SVG Version: 6.00 Build 0)  -->
<svg version="1.1"
	 id="svg8" inkscape:version="1.0.1 (3bc2e813f5, 2020-09-07)" sodipodi:docname="IRL.svg" xmlns:cc="http://creativecommons.org/ns#" xmlns:dc="http://purl.org/dc/elements/1.1/" xmlns:inkscape="http://www.inkscape.org/namespaces/inkscape" xmlns:rdf="http://www.w3.org/1999/02/22-rdf-syntax-ns#" xmlns:sodipodi="http://sodipodi.sourceforge.net/DTD/sodipodi-0.dtd" xmlns:svg="http://www.w3.org/2000/svg"
	 xmlns="http://www.w3.org/2000/svg" xmlns:xlink="http://www.w3.org/1999/xlink" x="0px" y="0px" viewBox="0 0 302.6 367.7"
	 style="enable-background:new 0 0 302.6 367.7;" xml:space="preserve">
<style type="text/css">
	.st0{fill:#002B54;}
	.st1{fill:#00A4E4;}
</style>
<sodipodi:namedview  bordercolor="#666666" borderopacity="1.0" id="base" inkscape:current-layer="g872" inkscape:cx="505.85101" inkscape:cy="584.73336" inkscape:document-rotation="0" inkscape:document-units="mm" inkscape:pageopacity="0.0" inkscape:pageshadow="2" inkscape:window-height="1017" inkscape:window-maximized="1" inkscape:window-width="1920" inkscape:window-x="-8" inkscape:window-y="-8" inkscape:zoom="0.98994949" pagecolor="#ffffff" showgrid="false">
	</sodipodi:namedview>
<g id="layer1" inkscape:groupmode="layer" inkscape:label="Calque 1">
	<g id="g872" transform="matrix(0.26458333,0,0,0.26458333,9.5437956,4.977174)">
		<path id="path840" class="st0" d="M857.3-17.7c40.5,4.7,66.6,30.7,92,59.3c40.2,45.6,81.5,89.7,122,134.9
			c24.6,27.5,35.1,60.8,35.8,97c0.4,15.2,0.4,30.7,0.4,45.9c0,317.3,0,634.9,0,952.1c0,63.3-35.8,99.5-98.8,99.5
			c-315.3,0-630.7,0-946,0c-61.5,0-98.1-36.5-98.1-97.7c0-180.9,0-361.8,0-542.6c0-4.3-0.4-9,0.4-13.4c2.5-11.2,9.4-17.4,21-17
			c10.9,0.7,17.4,6.9,18.8,17.7c0.7,4.7,0.4,9.8,0.4,14.8c0,179.8,0,360,0,539.7c0,39.1,18.1,57.2,57.2,57.2
			c315.7,0,631.8,0,947.5,0c38,0,56.5-18.4,56.5-56.4c0-316.2,0-632,0-948.2c0-4.3,0-9,0-15.2c-5.4-0.4-10.1-0.7-14.8-0.7
			c-49.6,0-99.6,0-149.2,0c-58.3,0-95.9-37.6-95.9-95.9s0-116.5,0-175.1c0-4.7,0-9.8,0-15.9c-6.2,0-11.2,0-15.9,0
			c-242.9,0-485.9,0-728.8,0c-38,0-56.5,18.4-56.5,56.8c0,178.7,0,357.1,0,535.8c0,4.3,0.4,9-0.4,13.4c-1.8,10.9-8,17.4-18.8,17.7
			c-11.6,0.7-18.8-5.8-21.4-17c-1.1-4.7-0.4-9.8-0.4-14.8c0-178,0-356.3,0-534.3c0-52.1,21.4-81,71.3-97c0.7-0.4,1.4-1.1,2.2-1.8
			C310.6-17.7,584-17.7,857.3-17.7L857.3-17.7z M1064.4,269.5c0.4-23.9-6.5-43-19.9-59.7c-15.9-19.5-32.9-38.3-50-57.2
			c-31.5-34.7-63.4-69.1-95.2-103.8c-13.8-14.8-29.3-25-51.4-23.5c-0.4,4-0.7,7.6-0.7,10.9c0,60.1-0.4,120.1,0,180.2
			c0,33.3,19.9,52.8,53.6,53.2c23.9,0.4,47.8,0,72,0C1002.9,269.5,1032.9,269.5,1064.4,269.5L1064.4,269.5z"/>
		<path id="path842" class="st0" d="M771.2,377.7c0,138.9-112.6,252.1-251.6,252.5S266.8,516.6,267.2,377.3s113-251.4,252.3-251.4
			C658.6,125.9,771.2,238.4,771.2,377.7L771.2,377.7z M519.2,588.9c116.6,0,211.1-94.8,210.7-211.6
			c-0.4-116.8-94.5-210.9-211.8-210.5c-116.2,0.4-210,94.4-210,210.9S402.6,588.9,519.2,588.9z"/>
		<path id="path844" class="st1" d="M675.2,755.4c86.5,0,172.7,0,259.2,0c4,0,8.3-0.4,12.3,0.4c11.6,1.1,18.1,8.3,18.5,19.5
			c0.4,10.9-5.8,17.7-16.3,20.3c-4.3,1.1-9.1,0.7-13.4,0.7c-173.8,0-347.2,0-521,0c-5.1,0-10.1,0.4-14.8-1.1
			c-10.1-2.9-15.9-10.1-15.2-21.3c0.7-10.9,7.2-17,18.1-18.4c4-0.4,8-0.4,12.3-0.4C501.8,755.4,588.3,755.4,675.2,755.4z"/>
		<path id="path846" class="st1" d="M674.9,1185.1c-86.2,0-172.7,0-258.9,0c-5.1,0-11.2,1.4-14.5-0.7c-6.5-4.3-14.8-10.9-15.6-17.4
			c-0.7-6.5,5.8-15.2,11.2-20.3c3.3-3.3,11.2-2.5,17-2.5c174.1,0,347.9,0,522.1,0c5.1,0,10.1,0,14.8,1.4
			c9.8,2.9,15.2,10.1,14.5,20.3c-0.7,10.5-6.9,17.7-17.7,18.8c-4.3,0.4-9.1,0.4-13.4,0.4C847.5,1185.1,761,1185.1,674.9,1185.1
			L674.9,1185.1z"/>
		<path id="path848" class="st1" d="M219.8,1037.9c-20.3,0-40.5,0.4-61.2,0c-19.9-0.4-33.3-13-34-32.9c-0.7-23.9-0.7-47.8,0-72
			c0.4-19.9,13.4-33.3,33.7-33.3c41.3-0.4,82.2-0.4,123.5,0c19.9,0.4,32.9,12.3,33.7,31.5c1.1,25,1.1,49.6,0,74.5
			c-0.7,20.3-13.8,31.8-34.8,31.8C260.3,1038.2,240,1037.9,219.8,1037.9L219.8,1037.9z M273.7,996.6c0-19.2,0-36.9,0-55
			c-36.2,0-71.7,0-107.2,0c0,18.8,0,36.5,0,55C202.4,996.6,237.5,996.6,273.7,996.6z"/>
		<path id="path850" class="st1" d="M221.2,704c19.9,0,39.8-0.4,59.7,0c21.4,0.4,34,11.9,34.8,33.3c0.7,23.9,0.7,47.8,0,72
			c-0.7,21-13.8,32.9-35.1,32.9c-40.2,0.4-80.4,0.4-120.9,0c-21.4,0-34.8-13.4-35.1-34.7c-0.4-23.2-0.4-45.9,0-69.1
			c0.4-21.3,13.8-34,35.5-34.4C180.3,704,200.9,704,221.2,704z M166.2,800.9c36.6,0,71.7,0,107.2,0c0-18.8,0-36.9,0-55
			c-36.2,0-71.3,0-107.2,0C166.2,764.4,166.2,782.1,166.2,800.9L166.2,800.9z"/>
		<path id="path852" class="st1" d="M220.5,1234c-19.9,0-39.8,0.4-59.7,0c-23.5-0.4-36.2-12.7-36.2-36.2c-0.4-22.1-0.4-44.1,0-66.6
			s13-35.5,35.5-35.8c40.2-0.4,80.4-0.4,120.9,0c21.7,0.4,34.4,12.7,34.8,34.7c0.7,23.2,0.7,45.9,0,69.1
			c-0.7,22.1-13,33.6-35.5,34.4c-0.7,0-1.8,0-2.5,0C258.5,1234,239.7,1234,220.5,1234L220.5,1234z M273.7,1137.4
			c-36.2,0-71.7,0-107.5,0c0,18.8,0,36.5,0,54.6c36.2,0,71.7,0,107.5,0C273.7,1173.5,273.7,1155.8,273.7,1137.4z"/>
		<path id="path854" class="st1" d="M515.9,989.4c-34.8,0-69.5,0-104.3,0c-18.1,0-27.5-7.2-27.2-20.6c0.4-13,9.4-20.3,26.4-20.3
			c70.6,0,140.8,0,211.4,0c1.8,0,3.6,0,5.4,0c12.7,0.7,21,8.7,21,20.3c0,12.3-8,20.6-21.7,20.6C590.1,989.4,552.8,989.4,515.9,989.4
			L515.9,989.4z"/>
		<path id="path856" class="st1" d="M832.7,948.5c36.2,0,72.4-0.4,108.6,0c18.8,0,30.4,16.6,20.6,30.4c-3.6,5.4-12.3,10.1-18.8,10.1
			c-72.8,0.7-145.5,0.7-218.3,0.4c-13.8,0-22.4-8-22.4-19.9c0-12.3,8.7-20.6,23.2-20.6C761.4,948.2,797.2,948.5,832.7,948.5
			L832.7,948.5z"/>
		<path id="path874" class="st1" d="M502.5,499c0-5.6,0-9.5,0-13.1c0-21.2-1.1-42.6,0.3-63.8c1.1-18.4-1.7-29.5-22.3-37.3
			c-33.1-12.8-52.1-49.6-49.3-83.5c3.1-37.6,25.9-67.7,61-79.3c5.8-1.9,10.3-3.3,11.7-10.9c1.7-7.8,8.9-12.8,16.4-11.1
			c5.8,1.4,13.4,5.8,15.6,11.1c2.8,6.4,5.8,8.9,12,10.9c35.4,11.7,59,42.9,61.3,80.2c0.6,12.3-5.6,20.6-16.1,21.7
			c-10.3,1.1-18.1-6.1-19.2-18.7c-1.4-16.4-7.5-30.3-20.6-40.6c-3.9-3.1-8.6-5.3-15.3-9.2c0,7.8,0,12.8,0,17.8
			c0,26.5,0.3,52.9-0.3,79.3c0,7,2.2,9.5,8.6,11.4c38.1,12.3,63.5,46.5,62.9,85.5c-0.3,38.7-25.3,72.4-62.9,84.4
			c-5.3,1.7-8.6,3.9-10,10c-1.9,8.1-8.6,12-16.4,12c-8.1,0-14.8-3.9-16.4-12c-1.4-6.4-4.7-8.1-10-9.7
			c-35.9-11.7-59.3-41.5-62.4-79.3c-1.1-13.1,5-22,15.6-23.1c10.9-1.1,18.4,5.8,19.8,19.2C469.1,472.3,479.7,488.5,502.5,499
			L502.5,499z M539,497.1c20.6-5.6,35.9-28.1,34.8-50.4c-1.1-22.3-16.7-43.2-34.8-46.5C539,432.8,539,464.8,539,497.1z M502,257.6
			c-19.8,4.7-35.4,27.3-34.8,49.3c0.6,22.6,16.4,43.7,34.8,47.3C502,322.2,502,289.9,502,257.6L502,257.6z"/>
	</g>
</g>
</svg>
