<?xml version="1.0" encoding="utf-8"?>
<!-- Generator: Adobe Illustrator 23.0.2, SVG Export Plug-In . SVG Version: 6.00 Build 0)  -->
<svg version="1.1"
	 id="svg8" inkscape:version="1.0.1 (3bc2e813f5, 2020-09-07)" sodipodi:docname="Marché.svg" xmlns:cc="http://creativecommons.org/ns#" xmlns:dc="http://purl.org/dc/elements/1.1/" xmlns:inkscape="http://www.inkscape.org/namespaces/inkscape" xmlns:rdf="http://www.w3.org/1999/02/22-rdf-syntax-ns#" xmlns:sodipodi="http://sodipodi.sourceforge.net/DTD/sodipodi-0.dtd" xmlns:svg="http://www.w3.org/2000/svg"
	 xmlns="http://www.w3.org/2000/svg" xmlns:xlink="http://www.w3.org/1999/xlink" x="0px" y="0px" viewBox="0 0 344.8 344.8"
	 style="enable-background:new 0 0 344.8 344.8;" xml:space="preserve">
<style type="text/css">
	.st0{fill:#002B54;}
	.st1{fill:#00A4E4;}
</style>
<sodipodi:namedview  bordercolor="#666666" borderopacity="1.0" id="base" inkscape:current-layer="g1084" inkscape:cx="346.89641" inkscape:cy="478.53341" inkscape:document-rotation="0" inkscape:document-units="mm" inkscape:pageopacity="0.0" inkscape:pageshadow="2" inkscape:window-height="1017" inkscape:window-maximized="1" inkscape:window-width="1920" inkscape:window-x="-8" inkscape:window-y="-8" inkscape:zoom="0.98994949" pagecolor="#ffffff" showgrid="false">
	</sodipodi:namedview>
<g id="layer1" inkscape:groupmode="layer" inkscape:label="Calque 1">
	<g id="g1084" transform="matrix(0.33792564,0,0,0.33801351,13.915684,3.1983178)">
		<path id="path1068" class="st0" d="M486.1,975.3c11.9,0,22.7,0,34,0c0-24.4,0-48.5,0-72.6c0-3.4,0-7.1,0-10.5
			c0.6-11.1,7.1-18.1,16.7-18.4c9.9-0.3,17,7.1,17.3,18.7c0.3,23.2,0,46.8,0,70c0,4,0,7.7,0,12.2c11.3,0,22.1,0,34,0
			c0-21.3-0.6-42.5,0.3-63.5c0.3-5.7,2.6-13,6.8-16.7c3.7-3.1,12.5-4.5,16.2-2c5.1,3.1,9.9,10.5,10.2,16.4
			c1.1,21.5,0.6,43.1,0.6,65.5c11.1,0,21.8,0,34,0c0-13.3,0-27.2,0-40.8c0-7.7,0-15.6,0-23.2c0.3-12.5,6.8-20.1,17.3-19.8
			c10.2,0,16.7,7.7,16.7,20.4c0,21.3,0,42.2,0,64.1c17,0,33.2,0,51,0c0-9.9,0-20.1,0-30c0.3-12.5,6.5-20.1,17-20.1
			c10.2,0,17,7.7,17,20.1c0,9.9,0,19.8,0,30.3c11.3,0,22.1,0,34,0c0-8.8,0-17,0-25.5c0-35.4,0-70.9,0-106.3
			c0-12.8,6.2-20.1,16.4-20.4c10.5-0.3,17.3,7.7,17.3,20.7c0,43.7,0,87,0,131.5c11.3,0,22.1,0,34,0c0-20.7,0-41.7,0-62.4
			c0-6.2,0-12.8,0-19c0.3-12.5,7.1-19.8,17.3-19.8c9.9,0.3,16.4,7.7,16.4,19.6c0.3,23,0,45.9,0,69.2c0,4,0,7.7,0,12.5
			c11.1,0,21.8,0,34,0c0-3.4,0-7.1,0-10.8c0-18.7-0.3-37.7,0.3-56.4c0.3-9.6,7.1-16.2,15.9-16.7c8.8-0.6,17.6,5.7,17.6,15
			c0.6,29.8,0.6,59.5,0,89.3c-0.3,8.8-6.8,13.6-15.6,14.7c-3.4,0.3-7.1,0.3-10.5,0.3c-322.3,0-644.9,0-967.2,0
			c-22.4,0-26.4-4.3-26.4-26.6c0-322.3,0-644.9,0-967.2c0-4-0.3-7.9,0.3-11.6c1.7-9.1,7.4-14.7,16.7-14.7s15,5.7,16.7,14.7
			c0.6,3.7,0.3,7.7,0.3,11.6c0,159.3,0,318.9,0,478.2c0,4.3,0,8.5,0,14.5c4-1.4,7.4-2.3,10.2-3.4c32.3-12.2,64.9-24.1,97.2-36.6
			c10.2-4,18.1-2.8,26.4,4c22.4,18.4,45.4,36.3,68.6,55c2.8-2.8,5.7-5.4,8.5-7.9c37.7-37.7,75.1-75.1,112.8-112.8
			c6-6,12.2-11.3,21.3-8.5c9.1,2.8,11.3,10.5,12.8,19c8.8,53.9,17.9,107.4,26.9,161.3c0.3,1.7,0.6,3.1,0.9,4.8
			c1.4,0,2.3,0.3,2.6-0.3c30.6-26.6,61.8-53,91.8-80.5c6.2-5.7,9.1-15,12.5-23c3.7-7.9,8.2-14.2,17.9-13.9s13.6,6.8,17.3,14.7
			c2,4.3,6.2,8.5,10.5,10.2c19.3,7.1,38.8,12.8,58.1,19.8c6.8,2.6,9.9,0.9,13.6-4.8C636,453.7,669.7,401,703.5,348
			c1.4-2.3,3.1-4.8,4.5-7.1c9.6-14.2,23.5-13.9,32,0.9c8.2,14.2,15.6,28.6,23.5,42.8c1.7,3.1,3.4,6,5.7,9.9
			c7.1-11.1,13.9-21,20.4-30.9c12.8-19.3,18.1-20.4,37.4-6.8c11.9,8.5,23.5,16.7,36.3,25.8c4.8-13,9.4-25.5,13.9-37.4
			c4.5-11.6,13.3-16.7,22.7-13c9.6,3.7,13.3,12.8,9.1,24.7c-4.5,13-9.4,26.1-14.2,38.8c-2,5.4-2.3,9.1,3.4,12.2
			c6.2,3.7,12.2,8.5,19.6,13.6c5.1-20.4,9.9-39.4,14.7-58.4c4.3-16.7,8.2-33.7,12.8-50.5c3.1-11.9,11.6-17.9,21.5-15
			c9.9,2.8,14.2,11.6,11.3,23.8c-10.5,42.5-21.3,85-32,127.6c-4.8,19-15.9,23-32,11.9c-10.5-7.4-20.7-14.7-31.2-22.1
			c-0.6-0.3-1.4-0.6-2.8-1.1c-7.9,21.8-15.9,43.7-23.8,65.2c-4.3,11.9-8.8,23.8-13,36c-2.8,7.7-7.9,14.2-16.2,12.8
			c-6-1.1-13.3-5.4-16.4-10.8c-13.3-22.4-25.5-45.6-38-68.9c-1.7-3.1-3.4-6-6-9.6c-2.8,4-5.1,7.1-7.1,10.2
			c-51,78.5-102.3,157.3-153.6,235.8c-3.1,4.8-7.7,9.6-12.5,12.2c-9.1,4.5-17.9-0.9-22.4-13c-19.8-51.6-39.7-102.9-59.5-154.5
			c-2.8-7.7-6-15-9.6-24.4c-2.3,4.5-4,7.9-5.4,11.1c-48.2,105.7-96.1,211.2-144,316.9c-0.6,1.4-1.1,2.6-1.7,4
			c-3.1,8.2-7.9,14.5-17.6,14.5s-14.2-6.2-17.6-14.5c-15.9-37.7-32.3-75.4-48.5-113.1c-13.6-31.7-27.2-63.8-41.4-96.7
			c-2.8,2.3-5.1,4.3-7.4,6.2c-13.9,13.6-27.5,27.8-41.4,41.4c-12.2,11.9-25.8,8.2-30.9-8.2c-13-42.2-25.5-84.8-38.3-127
			c-0.6-2.3-1.7-4.5-2.8-8.2c-2.8,3.1-5.1,5.7-7.1,8.2c-33.2,41.4-66.3,83.1-99.5,124.7c-2.8,3.7-5.1,8.8-5.1,13
			c-0.3,89.9-0.3,180-0.3,269.9c0,1.7,0.3,3.4,0.3,5.7c11.1,0,21.8,0,33.7,0c0-21.8,0-43.4,0-64.9c0-8.2,2.6-14.5,10.5-17.9
			c11.6-5.1,23.2,3.1,23.5,17.3c0.3,11.1,0,21.8,0,32.9c0,10.5,0,21.3,0,32.6c11.3,0,22.1,0,34,0c0-3.7,0-7.7,0-11.3
			c0-34.3,0-68.6,0-103.2c0-13.3,6.8-21,17.3-20.7c10.2,0.3,16.4,7.9,16.7,20.4c0,38,0,75.7,0,114.5c11.1,0,21.8,0,34,0
			c0-3.4,0-7.1,0-10.8c0-45.9,0-92.1,0-138c0-13,8.2-21.5,19.3-19.8c9.4,1.4,14.7,8.5,14.7,20.1c0,45.6,0,91.3,0,137.2
			c0,3.7,0,7.7,0,12.2c11.3,0,21.8,0,34,0c0-7.7,0-15.6,0-23.5c0-18.7,0-37.4,0-56.4c0-13.6,6.2-21.3,16.7-21.3
			c10.5,0,17.3,7.7,17.3,21c0,26.6,0,53,0,80.2c11.3,0,22.1,0,34,0c0-10.5,0-20.4,0-30.6c0.3-11.9,6.5-19.3,16.4-19.6
			c10.2-0.3,17.3,7.4,17.6,19.6c0.3,9.9,0,19.8,0,30.6c16.7,0,33.2,0,51,0c0-9.1,0-18.1,0-27.2c0-15,6.2-23.2,17.3-23
			c10.8,0.3,16.7,7.9,16.7,22.4c0,8.5,0,17,0.3,25.5c0,0.6,0.6,1.1,0.9,2.3c10.2,0,20.7,0,32.9,0c0-3.7,0-7.4,0-11.1
			c0-40.3,0-80.8,0-121c0-11.6,5.4-18.7,14.7-20.1c11.1-1.4,19,6.8,19,20.1c0,40,0,79.9,0,120.2
			C486.1,966.8,486.1,970.5,486.1,975.3L486.1,975.3z M130.3,519.2c13.9,46.5,26.9,90.1,40.8,135.8c16.4-16.7,31.2-32,46.2-46.8
			c11.1-10.8,23.2-8.2,30,5.7c0.9,2,1.7,4,2.6,6c26.1,60.9,52.4,122.2,78.5,183.1c1.4,3.4,3.1,6.5,5.1,11.1
			c36-79.4,71.1-156.5,106.3-233.9c-21,15.6-40,32.6-59.2,49c-13.9,11.9-27.5,6.8-30.9-11.3c-3.7-20.4-7.1-41.1-10.5-61.8
			c-6-34.6-11.6-69.4-17.6-105.7c-4,3.7-6.8,6.2-9.4,9.1c-33.4,33.2-66.6,66.6-99.8,99.8c-10.8,10.8-17.9,11.1-29.5,1.7
			C166,547.5,149.6,534.5,130.3,519.2L130.3,519.2z M723,380c-3.1,4.8-5.4,7.9-7.4,11.3C684.2,440.7,653,490,621.6,539
			c-7.4,11.6-13,13.6-25.8,9.4c-5.4-1.7-10.8-3.7-16.2-5.4c-12.5-4.3-25.2-8.2-40.3-13.3c17.9,46.8,34.9,90.4,51.9,134.9
			c1.7-1.4,2.8-2,3.1-2.8c50.2-77.1,100.3-154.2,150.2-231.3c1.4-2.3,1.7-6.8,0.3-9.4C738.6,407.8,731,394.5,723,380L723,380z
			 M-7.2,638C28.6,593.5,62.3,551.2,96,509c-34.3,10.5-66.9,22.7-99.5,35.1c-1.7,0.6-3.7,3.4-3.7,5.4C-7.2,577.9-7.2,606.5-7.2,638
			L-7.2,638z M814,387.7c-3.4,5.1-5.7,9.6-9.1,13.3c-17,17.6-17.3,34.9-2.3,54.4c8.2,10.5,13.3,23.2,20.7,36.6
			c9.4-25.5,17.9-48.8,26.1-72c0.9-2.3-0.6-7.1-2.6-8.5C836.4,403.3,825.7,396.2,814,387.7L814,387.7z"/>
		<path id="path1070" class="st1" d="M265,193.2C264.7,81.5,356.5-10.6,468.2-10.6c112.5,0,204.7,90.7,204.9,202.1
			c0.3,114.2-90.4,205.8-204.1,206.1C356.5,397.6,265.2,306,265,193.2z M469.6,23.1C375.2,23.1,299,99.4,299,193.2
			c0.3,94.1,76.3,170.1,170.6,170.1c93.5,0,169.8-76.8,169.5-171.2C638.9,99.7,562.3,23.1,469.6,23.1z"/>
		<path id="path874" class="st1" d="M456.4,288.4c0-4.4,0-7.4,0-10.2c0-16.6-0.9-33.3,0.2-49.9c0.9-14.4-1.3-23.1-17.4-29.2
			c-25.9-10-40.8-38.8-38.6-65.4c2.4-29.4,20.3-53,47.7-62.1c4.6-1.5,8.1-2.6,9.2-8.5c1.3-6.1,7-10,12.9-8.7
			c4.6,1.1,10.5,4.6,12.2,8.7c2.2,5,4.6,7,9.4,8.5c27.7,9.2,46.2,33.6,48,62.8c0.4,9.6-4.4,16.1-12.6,17c-8.1,0.9-14.2-4.8-15-14.6
			c-1.1-12.9-5.9-23.8-16.1-31.8c-3.1-2.4-6.8-4.1-12-7.2c0,6.1,0,10,0,13.9c0,20.7,0.2,41.4-0.2,62.1c0,5.4,1.7,7.4,6.8,8.9
			c29.9,9.6,49.7,36.4,49.3,66.9c-0.2,30.3-19.8,56.7-49.3,66c-4.1,1.3-6.8,3.1-7.8,7.8c-1.5,6.3-6.8,9.4-12.9,9.4
			c-6.3,0-11.6-3.1-12.9-9.4c-1.1-5-3.7-6.3-7.8-7.6c-28.1-9.2-46.4-32.5-48.8-62.1c-0.9-10.2,3.9-17.2,12.2-18.1
			c8.5-0.9,14.4,4.6,15.5,15C430.2,267.5,438.5,280.1,456.4,288.4z M484.9,286.9c16.1-4.4,28.1-22,27.2-39.4
			c-0.9-17.4-13.1-33.8-27.2-36.4C484.9,236.5,484.9,261.6,484.9,286.9z M455.9,99.4c-15.5,3.7-27.7,21.4-27.2,38.6
			c0.4,17.7,12.9,34.2,27.2,37C455.9,150,455.9,124.7,455.9,99.4z"/>
	</g>
</g>
</svg>
