<?xml version="1.0" encoding="utf-8"?>
<!-- Generator: Adobe Illustrator 18.1.1, SVG Export Plug-In . SVG Version: 6.00 Build 0)  -->
<svg version="1.1"
	 id="svg8" xmlns:dc="http://purl.org/dc/elements/1.1/" xmlns:cc="http://creativecommons.org/ns#" xmlns:rdf="http://www.w3.org/1999/02/22-rdf-syntax-ns#" xmlns:svg="http://www.w3.org/2000/svg" xmlns:sodipodi="http://sodipodi.sourceforge.net/DTD/sodipodi-0.dtd" xmlns:inkscape="http://www.inkscape.org/namespaces/inkscape" sodipodi:docname="Poches.svg" inkscape:version="1.0.1 (3bc2e813f5, 2020-09-07)"
	 xmlns="http://www.w3.org/2000/svg" xmlns:xlink="http://www.w3.org/1999/xlink" x="0px" y="0px"
	 viewBox="136.3 165.1 275.4 275.8" enable-background="new 136.3 165.1 275.4 275.8" xml:space="preserve">
<sodipodi:namedview  id="base" inkscape:cy="560" inkscape:cx="400" inkscape:zoom="0.35" borderopacity="1.0" showgrid="false" bordercolor="#666666" pagecolor="#ffffff" inkscape:window-y="0" inkscape:window-x="52" inkscape:window-height="1032" inkscape:window-width="1438" inkscape:current-layer="layer1" inkscape:document-units="mm" inkscape:pageshadow="2" inkscape:pageopacity="0.0" inkscape:window-maximized="0" inkscape:document-rotation="0">
	</sodipodi:namedview>
<g id="layer1" inkscape:label="Calque 1" inkscape:groupmode="layer">
	<g id="layer1-7" transform="matrix(0.26458333,0,0,0.26458333,50.351458,67.261715)" inkscape:label="Calque 1">
		<g id="g878" transform="matrix(0.33783784,0,0,0.33783784,17.463964,-4.7942416)">
			<path id="path840" fill="#797979" d="M3990.4,3403.9c-4,9.6-7.9,20.1-12.8,29.8c-27.2,55.6-70.6,86.7-131.8,89.9
				c-62.6,3.1-111.7-23.2-142.3-78c-10.5-19.3-21.8-26.6-41.7-24.1c-1.7,0-4,0-5.7,0c-59.5-7.9-98.1,5.7-131.8,66.6
				c-53,96.4-147.1,138.9-258,138.9c-241.8,0.9-483.6,0-726.5,0c-12.2,0-24.1,0-38.6,0c-0.9,11.3-2.6,21-2.6,30.6
				c0,69.2,0.9,138.3-0.9,208.1c0,19.3,4.8,29.8,22.4,39.4c63.5,33.7,93.3,106,74.8,174.3c-17.6,66.6-78.8,114.2-148.5,114.2
				c-70,0-131.8-46.5-149.4-113.4c-18.4-69.2,11.3-140.6,74.8-174.3c18.4-9.6,23.2-20.1,23.2-39.4c-0.9-78,0-156.8,0-238.7
				c-14.5,0-26.6,0-37.7,0c-254.8,0-510.2,0-765.1,0c-168.7,0-277.2-107.7-277.2-276.4c0-43.4,0-85.9,0-134.1
				c-34.6,0-68.3-1.7-102,0.9c-7.4,0.9-15.3,13.6-20.1,21.8c-31.5,53.9-92.4,86.7-151.9,78c-65.2-9.6-110.8-45.9-131-109.4
				c-23.2-74.8,14.5-153.4,85-184.8c72.3-31.5,157.6-4.8,195.3,64.3c10.5,19.3,21.8,28.1,43.4,25.8c24.9-2.6,49.9-0.9,78-0.9
				c0-137.5,0-273.3,0-411.3c-32.9,0-65.2-1.7-96.4,0.9c-7.9,0.9-17.6,13.6-23.2,22.4c-32,54.7-90.7,85-151.9,77.1
				c-64.3-7.9-114.2-50.7-131-111.7c-21-74.8,17.6-153.4,89.3-183.1c70.6-28.9,153.4-3.1,190.5,64.3c12.2,22.4,25.8,28.9,49,27.2
				c24.1-1.7,48.2,0,74.8,0c0-137.5,0-272.4,0-411.3c-32,0-65.2-1.7-98.1,0.9c-7.9,0.9-17,14.5-22.4,23.2
				c-32.9,55.6-93.3,85-158.2,76.3c-60.9-7.9-110.8-55.6-126.1-118.2c-14.5-59.5,8.8-123,60.4-159c75.4-54.7,180-31.5,225.1,51.3
				c8.8,17,18.4,23.2,36.9,21.8c26.6-1.7,53.9-0.9,85.9-0.9c0-12.2,0-22.4,0-32.9c0-71.4,0-142.3,0-213.7
				c0.9-99.5,65.2-163,164.7-163c197.6,0,395.4,0.9,593.9,0c55.6,0,104.6,16.2,147.1,51.3c49,40.3,98.9,79.7,148,119.1
				c7.4,6.5,15.3,12.2,26.6,20.1c0.9-10.5,2.6-17,2.6-23.2c-0.9-135.8-1.7-270.7-2.6-406.5c0-16.2-2.6-27.2-19.3-35.4
				c-57-29.8-85.9-78.8-82.8-142.3c3.1-67.5,39.4-114.2,102-139.7c5.7-2.6,10.5-5.7,15.3-7.9c24.1,0,48.2,0,72.3,0
				c4.8,2.6,9.6,5.7,15.3,7.9c62.6,25.8,98.9,71.4,102,139.7c2.6,63.5-25.8,112.5-82.8,142.3c-17,8.8-19.3,20.1-18.4,36.3
				c0.9,140.6,1.7,281.2,2.6,421.8c0,7.4,1.7,15.3,2.6,24.1c10.5,0,17.6,0,25.8,0c159.9,0,318.9,0,478.8,0
				c89.9,0,153.4,61.8,158.2,151.9c0.9,17,0,33.7,0,53.9c13.6,0,23.2,0,32.9,0c57.8,0,116.5-0.9,174.3,0
				c94.1,1.7,173.5,63.5,196.7,152.8c4,16.2,6.5,32.9,9.6,52.2c27.2,0,54.7-0.9,81.1,0c19.3,0.9,29.8-4.8,39.4-22.4
				c29.8-54.7,78.8-82.8,141.4-79.7c63.5,3.1,109.4,36.3,134.9,94.7c3.1,7.9,7.4,16.2,11.3,24.1c0,22.4,0,44.2,0,66.6
				c-0.9,0.9-1.7,1.7-2.6,2.6c-20.1,65.8-61.8,110-132.7,118.2c-73.1,7.9-126.1-23.2-159.9-88.4c-3.1-5.7-11.3-12.2-17.6-12.2
				c-32-1.7-63.5-0.9-97.2-0.9c0,138.3,0,274.1,0,412.2c28.1,0,55.6-1.7,81.9,0.9c20.1,1.7,28.9-6.5,39.4-23.2
				c32-57,81.9-83.6,148-78.8c64.3,5.7,106.9,41.1,131.8,99.5c3.1,7.4,5.7,14.5,8.8,21.8c0,22.4,0,44.2,0,66.6c-1.7,1.7-4,2.6-4,4
				c-21.8,68.3-68.3,109.4-138.9,114.2c-68.3,4.8-119.1-28.1-151.1-89.3c-3.1-5.7-11.3-11.3-17.6-12.2c-32-0.9-63.5-0.9-96.4-0.9
				c0,138.9,0,274.1,0,410.7c30.6,0,58.7-0.9,86.7,0.9c17,0.9,24.1-5.7,32-20.1c44.2-81.9,142.3-107.7,219.4-59.5
				c36.9,23.2,55.6,58.7,70.6,97.2C3990.4,3359.6,3990.4,3382.3,3990.4,3403.9z M1779.6,3523.8c12.8,0.9,21,1.7,28.9,1.7
				c485.3,0,969.7,0,1455.3,0c13.6,0,28.1-0.9,41.7-3.1c105.2-20.1,171.2-102,171.2-216.3c0-330.2,0-660.5,0-990.7
				c0-89.9-37.7-127-128.7-127c-462.9,0-925.8,0-1388.4,0c-91.6,0-127.8,36.3-127.8,127c0,323.1,0,646.9,0,969.7
				C1831.2,3367,1836.9,3449.8,1779.6,3523.8L1779.6,3523.8z M3062.3,2084.6c7.4-74,1.7-105.2-87.6-103.7
				c-172.6,2.6-345.5,0.9-518.2,0.9c-52.2,0-98.1-16.2-138.9-48.2c-51.3-41.7-103.7-81.9-155.1-124.4
				c-27.2-22.4-57.8-32.9-94.1-32.9c-190.5,0.9-381.5,0-572,0.9c-63.5,0-77.1,13.6-77.1,78c0,498,0,996.4,0,1494.4
				c0,16.2,0.9,32,3.1,48.2c16.2,96.4,116.5,153.4,208.1,116.5c64.3-25.8,98.1-80.2,98.1-160.7c0-345.5,0-691.1,0-1036.6
				c0-24.9,0.9-50.7,6.5-74.8c23.2-96.4,104.6-156.8,208.9-156.8c360.9,0,720.9,0,1081.4,0
				C3036.5,2084.6,3048.4,2084.6,3062.3,2084.6z M1059.1,2187.2c28.9,0,51.3-22.4,51.3-50.7c0-28.1-24.1-52.2-52.2-51.3
				c-26.6,0.9-49.9,23.2-50.7,49.9C1007.5,2163.1,1030.1,2187.2,1059.1,2187.2z M1060.5,2701.7c28.9-0.9,50.7-24.1,49.9-53
				c-0.9-28.9-24.9-50.7-53-49c-27.2,1.4-49,24.1-49,51.3C1008.3,2679,1031.6,2702.3,1060.5,2701.7z M3887.5,2855.9
				c-0.9-28.9-24.1-50.7-53-49.9c-28.9,0.9-50.7,24.1-49,53c0.9,26.6,24.1,49,51.3,49C3863.9,2908.1,3888.3,2883.1,3887.5,2855.9z
				 M1058.2,3216.8c28.1,0,51.3-23.2,51.3-51.3c0-27.2-21-49.9-49-50.7c-28.9-0.9-53,21-53.9,49
				C1007.5,3191.8,1031,3216.8,1058.2,3216.8z M2448.3,4091c28.1-0.9,50.7-24.1,50.7-53c-0.9-28.9-24.1-50.7-53-49.9
				c-27.2,0.9-49,23.2-49,50.7C2396.7,4067.7,2420.3,4091,2448.3,4091L2448.3,4091z M2446.6,1313c28.9,0.9,51.3-21.8,51.3-50.7
				c0-27.2-21-49.9-48.2-51.3c-28.1-1.7-52.2,21-53,49.9C2396.2,1288.9,2418.6,1313,2446.6,1313z M3887.5,2342.6
				c0-28.1-24.1-52.2-51.3-52.2c-28.1,0-50.7,24.1-50.7,53c0.9,28.1,21.8,49,49.9,49.9C3863.9,2393,3887.5,2371.5,3887.5,2342.6z
				 M3887.5,3370.1c0-28.1-24.1-51.3-52.2-50.7c-27.2,0.9-49,22.4-49.9,49.9c-0.9,28.9,22.4,52.2,50.7,52.2
				C3863.9,3422.3,3888.3,3398.2,3887.5,3370.1z"/>
			<path id="path868" fill="#797979" d="M3013.8,3318.8c35.4,0,67.5,0,102.9,0c0-12.8,0-24.9,0-36.3c0-288.6,0-576,0-864.6
				c0-9.6-0.9-20.1,0.9-29.8c3.1-25.8,24.1-43.4,49-44.2c25.8-0.9,47.3,16.2,51.3,41.7c1.7,10.5,0.9,21.8,0.9,32.9
				c0,286.9,0,574.6,0,861.4c0,12.2,0,24.1,0,40.3c18.4,0,34.6-0.9,51.3,0c29.8,1.7,49.9,21.8,50.7,49c0.9,28.1-20.1,50.7-49.9,53
				c-7.9,0.9-16.2,0-24.1,0c-395.4,0-791.4,0-1186.9,0c-49,0-74-16.2-75.4-49.9c-1.7-34.6,24.1-52.2,74.8-53c7.9,0,16.2,0,27.2,0
				c0-51.3,0-100.3,0-148.5c0-32.9-0.9-66.6,0-99.5c0.9-38.6,21-60.4,53-59.5c31.5,0.9,49,21.8,49.9,58.7c0.9,81.1,0,162.4,0,245.8
				c34.6,0,66.6,0,102.9,0c0-53.9,0-107.7,0-161.6c0-12.8-0.9-26.6,0-39.4c2.6-32.9,24.1-54.7,53-53.9c28.1,0.9,48.2,21.8,49,53.9
				c0.9,56.1,0.9,112.5,0.9,168.7c0,10.5,0,21.8,0,32.9c36.3,0,67.5,0,102.9,0c0-35.4,0-69.2,0-102.9c0-48.2-0.9-96.4,0-144.6
				c0.9-37.7,19.3-58.7,49.9-58.7c32-0.9,52.2,21,53,59.5c0.9,70,0,140.6,0,210.6c0,11.3,0,21.8,0,35.4c34.6,0,66.6,0,102.9,0
				c0-12.8,0-24.1,0-36.3c0-123.9,0-246.6,0-370.5c0-32,21-53,49-53.9c27.2-0.9,49.9,20.1,53,50.7c0.9,8.8,0.9,17.6,0.9,27.2
				c0,111.7,0,222.5,0,334.2c0,16.2,0,31.5,0,49c34.6,0,66.6,0,102.9,0c0-12.2,0-23.2,0-35.4c0-254,0-507.7,0-762.5
				c0-9.6-0.9-20.1,0.9-29.8c3.1-24.9,17.6-40.3,42.5-44.2c25.8-4,45.9,7.4,54.7,32c4,12.2,4.8,25.8,4.8,38.6c0,254,0,507.7,0,762.5
				C3013.8,3291.3,3013.8,3303.5,3013.8,3318.8L3013.8,3318.8z"/>
			<path id="path870" fill="#797979" d="M2396.2,2958.8c-172.1-0.9-310.1-140.6-308.7-311c1.7-167.8,140.6-305.3,309.3-304.4
				c170.4,0.9,308.7,138.3,308.7,308.7C2704.6,2821.3,2565.7,2959.7,2396.2,2958.8z M2222.4,2753c39.4-39.4,78-78,116.5-117.4
				c3.1-3.1,6.5-8.8,6.5-12.8c0.9-55.6,0-110.8,0-167.2C2218.4,2480.6,2146.1,2642.2,2222.4,2753z M2294.1,2827
				c130.1,78,280.3-14.5,297.4-123.9c-55.6,0-110,0-165.5,0c-5.7,0-12.2,3.1-15.3,7.4C2372.1,2748.2,2333.2,2786.8,2294.1,2827
				L2294.1,2827z M2591.2,2597.1c-12.2-66.6-74.8-129.3-141.4-141.4c0,46.5,0,93.3,0,141.4
				C2497.4,2597.1,2543.8,2597.1,2591.2,2597.1z"/>
		</g>
	</g>
</g>
</svg>
