<?xml version="1.0" encoding="utf-8"?>
<!-- Generator: Adobe Illustrator 18.1.1, SVG Export Plug-In . SVG Version: 6.00 Build 0)  -->
<svg version="1.1"
	 id="svg8" xmlns:dc="http://purl.org/dc/elements/1.1/" xmlns:cc="http://creativecommons.org/ns#" xmlns:rdf="http://www.w3.org/1999/02/22-rdf-syntax-ns#" xmlns:svg="http://www.w3.org/2000/svg" xmlns:sodipodi="http://sodipodi.sourceforge.net/DTD/sodipodi-0.dtd" xmlns:inkscape="http://www.inkscape.org/namespaces/inkscape" sodipodi:docname="Portefeuille.svg" inkscape:version="1.0.1 (3bc2e813f5, 2020-09-07)"
	 xmlns="http://www.w3.org/2000/svg" xmlns:xlink="http://www.w3.org/1999/xlink" x="0px" y="0px"
	 viewBox="146.5 195.1 275.8 275.8" enable-background="new 146.5 195.1 275.8 275.8" xml:space="preserve">
<sodipodi:namedview  id="base" inkscape:cy="560" inkscape:cx="400" inkscape:zoom="0.35" borderopacity="1.0" showgrid="false" bordercolor="#666666" pagecolor="#ffffff" inkscape:window-y="0" inkscape:window-x="130" inkscape:window-height="1032" inkscape:window-width="1438" inkscape:current-layer="layer1" inkscape:document-units="mm" inkscape:pageshadow="2" inkscape:pageopacity="0.0" inkscape:window-maximized="0" inkscape:document-rotation="0">
	</sodipodi:namedview>
<g id="layer1" inkscape:label="Calque 1" inkscape:groupmode="layer">
	<g id="g876" transform="matrix(0.08938626,0,0,0.08938626,54.558821,77.220153)">
		<path id="path840" fill="#797979" d="M2559.5,1318.7c43.4,14.5,74.8,45.1,105.2,77.1c109.4,118.2,219.4,235.6,328.5,352.6
			c28.9,30.6,44.2,65.8,43.4,108.6c-0.9,73.1,0,146.3,0,220.3c0,37.7-18.4,60.4-48.2,59.5s-48.2-23.2-48.2-60.9
			c0-60.4,0-119.6,0-183.1c-28.9,0-54.7,0-81.1,0c-61.8,0-124.4,0.9-186.5-0.9c-99.5-3.1-178.3-82.8-179.2-182.3
			c-0.9-96.4,0-192.8,0-294c-12.2,0-22.4,0-32.9,0c-422.6,0-845.3,0-1268.8,0c-51.3,0-66.6,15.3-66.6,65.8
			c0,795.4,0,1591.1,0,2386.5c0,51.3,15.3,66.6,65.8,66.6c121.3,0,242.6,0,364.8,0c32.9,0,53,20.1,52.2,49
			c-0.9,28.1-20.1,45.9-51.3,47.3c-7.4,0-13.6,0-21,0c-107.7,0-215.4-3.1-322.3,0.9c-90.7,3.1-153.4-28.1-184.8-114.8
			c0-827.7,0-1655.2,0-2482.9c19.6-57.5,57.3-96.1,114.2-115.4C1615.2,1318.7,2087.8,1318.7,2559.5,1318.7z M2871,1796
			c-95.5-103.7-185.7-201.5-281.2-304.4c0,80.2-1.7,152.8,0.9,224.2c1.7,42.5,36.9,78,80.2,79.7
			C2734.6,1797.5,2798.7,1796,2871,1796L2871,1796z"/>
		<path id="path842" fill="#797979" d="M3403.1,1318.7c10.5,20.1,24.9,39.4,31.5,60.9c12.2,41.1,20.1,83.6,27.2,126.1
			c3.1,17.6,12.2,24.1,27.2,29.8c32.9,12.2,65.8,24.9,97.2,40.3c17,7.9,28.9,7.4,43.4-3.1c38.6-26.6,78.8-52.2,118.2-78
			c28.9-18.4,48.2-17,73.1,7.4c36.9,36.3,74,74,110.8,110.8c21,21,21.8,44.2,6.5,68.3c-26.6,40.3-51.3,81.1-79.7,120.5
			c-10.5,15.3-11.3,26.6-3.1,43.4c16.2,32,26.6,66.6,42.5,99.5c4.8,9.6,15.3,21,25.8,23.2c46.5,12.2,94.1,21,140.6,30.6
			c36.9,7.9,49,22.4,49,60.4c0,49.9,0,100.3,0,150.2c0,30.6-13.6,49-44.2,55.6c-47.3,9.6-94.1,20.1-141.4,29.8
			c-17.6,3.1-25.8,10.5-32.9,28.1c-18.4,47.3-40.3,94.1-63.5,138.9c-15.3,29.8-44.2,36.3-68.3,21.8c-24.9-15.3-27.2-40.3-13.6-71.4
			c23.2-51.3,45.9-104.6,65.2-157.6c9.6-25.8,23.2-40.3,49.9-45.1c49.9-9.6,99.5-21,151.1-31.5c0-30.6,0-59.5,0-90.7
			c-50.7-11.3-101.2-23.2-151.9-32c-28.9-5.7-41.1-22.4-50.7-48.2c-18.4-50.7-38.6-100.3-61.8-149.4c-12.2-25.8-14.5-46.5,1.7-70
			c28.9-42.5,56.1-85,85-129.3c-21.8-21.8-42.5-42.5-65.2-64.3c-42.5,28.1-85.9,55.6-128.7,84.5c-23.2,16.2-44.2,14.5-70,2.6
			c-49.9-24.1-100.3-44.2-151.9-63.5c-24.9-8.8-41.1-21.8-45.9-49c-9.6-50.7-21.8-101.2-32.9-152.8c-31.5,0-60.4,0-90.7,0
			c-10.5,50.7-21,100.3-31.5,150.2c-7.9,36.9-28.9,53.9-59.5,48.2c-28.1-5.7-42.5-30.6-35.4-65.8c12.2-58.7,23.2-118.2,38.6-176
			c4.8-19.3,21.8-36.3,32.9-53.9C3266.4,1318.7,3334.7,1318.7,3403.1,1318.7L3403.1,1318.7z"/>
		<path id="path846" fill="#797979" d="M3481,2637.9c15.3,0,25.8,0,36.9,0c125.3,0,250.6,0,376.7,0c130.1,0,219.4,89.3,220.3,219.4
			c0,441.9,0,883.8,0,1325.8c0,131-89.9,221.1-221.7,221.1c-652.5,0-1305.6,0-1958.2,0c-138.3,0-226.5-87.6-226.5-225.1
			c-0.9-282,0-564.1,0-847c0-156.8,0-313.5,0-470c0-138.9,87.6-225.1,226.5-225.1c123.9,0,246.6,0,370.5,0c11.3,0,21.8,0,35.4,0
			c0.9-12.8,1.7-24.1,1.7-34.6c0-65.8-0.9-132.7,0-198.4c1.7-98.1,71.4-168.7,170.4-169.5c265.9-0.9,532.1-0.9,798.8,0
			c98.9,0,170.4,73.1,171.2,172.1C3481.9,2482.9,3481,2557.7,3481,2637.9L3481,2637.9z M4017.6,3323.3c-34.6,12.2-65.8,25.8-98.9,32
			c-154.2,31.5-309.3,60.4-463.7,89.9c-97.2,18.4-194.5,36.9-293.4,56.1c0,28.9,1.7,56.1-0.9,82.8c-2.6,29.8-4.8,60.4-13.6,88.4
			c-36.9,114.2-154.2,185.7-270.7,168.7c-120.5-17.6-211.5-118.2-215.4-238.7c-0.9-33.7,0-67.5,0-102c-14.5-3.1-24.9-5.7-36.3-7.9
			c-205.8-39.4-412.2-78-618-118.2c-67.5-12.8-134.9-30.6-203.2-46.5c0,0.9-0.9,5.7-0.9,10.5c0,282-0.9,564.1,0,847
			c0,75.4,47.3,121.3,123.9,121.3c654.8,0,1309.6,0,1964.7,0c78.8,0,125.3-46.5,126.1-125.3c0-108.6,0-216.9,0-325.4
			C4017.6,3679.4,4017.6,3501.9,4017.6,3323.3z M2655.8,3402.1c2.6-4.8,4-6.5,4-7.9c0-47.3,0.9-94.1,0.9-141.4
			c0.9-65.8,36.3-102,102.9-102c96.4,0,192.8,0,289.1,0c74,0,109.4,34.6,109.4,108.6c0,48.2,0,95.5,0,143.7c6.5,0,9.6,0.9,12.2,0
			c197.6-37.7,396-75.4,593.9-114.2c57.8-11.3,116.5-22.4,172.6-40.3c53-17,79.7-56.1,78-114.8c-1.7-87.6-0.9-174.3-0.9-261.9
			c0-95.5-41.7-137.5-137.5-137.5c-246.6,0-494.1,0-741,0c-394.6,0-789.2,0-1183.5,0c-13.6,0-28.1,0-41.7,0.9
			c-60.4,3.1-107.7,46.5-108.6,107.7c-2.6,103.7,0,206.6,0,310.1c0,38.6,18.4,65.8,49.9,83.6c24.9,13.6,53,24.1,81.1,29.8
			c175.2,34.6,350.4,67.5,526.4,100.3C2527.1,3378.1,2591.5,3390.2,2655.8,3402.1z M3385.5,2634c0-71.4,0-140.6,0-209.8
			c0-68.3-24.1-93.3-91.6-93.3c-169.5,0-339,0-508.5,0c-89.3,0-178.3,0-267.6,0c-43.4,0-75.4,23.2-77.1,60.4
			c-2.6,80.2-0.9,159.9-0.9,242.6c35.4,0,68.3,0,106,0c0-67.5,0-133.5,0-199.3c245.8,0,488.4,0,732.8,0c0,67.5,0,131.8,0,199.3
			C3313.8,2634,3348.3,2634,3385.5,2634L3385.5,2634z M2758.7,3247.9c0,123.9,0,244.3,0,364c0,7.4,1.7,13.6,4,21
			c20.1,75.4,90.7,123.9,168.7,114.2c74.8-8.8,133.5-74,134.1-153.4c0.9-110,0-221.1,0-331.1c0-4.8-1.7-9.6-2.6-14.5
			C2961.1,3247.9,2861.4,3247.9,2758.7,3247.9L2758.7,3247.9z M3178.8,2530.2c-180,0-356.9,0-536,0c0,36.3,0,70.6,0,106
			c180,0,356.9,0,536,0C3178.8,2601.1,3178.8,2567.3,3178.8,2530.2z"/>
		<path id="path848" sodipodi:nodetypes="cscccccc" fill="#797979" d="M3595.8,2322.1c-26.6-11.3-34.6-37.7-21.8-71.4
			c70.6-185.7-32.9-376.2-225.1-411.3c-16.2-3.1-32-2.6-48.2-4c-33.7-4-51.3-23.2-49.9-52.2c1.7-27.2,21.8-43.4,53.9-43.4
			c210.6-2.6,390.9,177.7,390.9,394C3697,2172.2,3664.1,2349.9,3595.8,2322.1L3595.8,2322.1z"/>
		<path id="path850" fill="#797979" d="M1922.2,1968.7c107.7,0,214.6,0,322.3,0c38.6,0,60.9,17,60.9,46.5
			c0.9,29.8-23.2,49.9-62.6,49.9c-215.4,0-431.4,0-646.9,0c-39.4,0-64.3-23.2-59.5-54.7c4-25.8,23.2-41.1,53.9-41.1
			C1701.1,1968.7,1811.4,1968.7,1922.2,1968.7z"/>
		<path id="path852" fill="#797979" d="M1920.5,1749.3c105.2,0,210.6,0,315.8,0c12.2,0,27.2-2.6,35.4,4
			c13.6,12.2,31.5,29.8,31.5,45.1s-18.4,32.9-32.9,43.4c-8.8,6.5-24.9,3.1-37.7,3.1c-207.2,0-415.6,0-622.8,0
			c-49,0-72.3-15.3-73.1-47.3c-0.9-32.9,24.1-49,74.8-49C1714.2,1749.3,1817.6,1749.3,1920.5,1749.3z"/>
		<path id="path854" fill="#797979" d="M1762.9,2282.7c-56.1,0-112.5,0-168.7,0c-35.4,0-57-18.4-57.8-47.3c0-28.9,21.8-49,57-49
			c112.5,0,225.1,0,337.6,0c36.3,0,57,17.6,57,47.3s-20.1,48.2-56.1,48.2C1875.5,2283.6,1819.3,2282.7,1762.9,2282.7z"/>
		<path id="path860" fill="#797979" d="M1339.7,1749.3c41.1,0.9,62.6,17.6,62.6,48.2c0,31.5-22.4,48.2-65.8,48.2
			c-42.5,0-65.8-17-66.6-48.2C1270.5,1766.3,1294.6,1749.3,1339.7,1749.3z"/>
		<path id="path874" fill="#797979" d="M2862.2,3587.8c0-25.8,21.8-47.3,48.2-47.3c26.6,0,47.3,21,47.3,47.3
			c0,26.6-21,47.3-47.3,47.3C2884.9,3635.2,2862.2,3613.6,2862.2,3587.8z"/>
		<path id="path860-9" fill="#797979" d="M1339.7,1968.7c41.1,0.9,62.6,17.6,62.6,48.2c0,31.5-22.4,48.2-65.8,48.2
			c-42.5,0-65.8-17-66.6-48.2C1270.5,1985.7,1294.6,1968.7,1339.7,1968.7z"/>
		<path id="path860-9-6-2" fill="#797979" d="M1339.7,2186.4c41.1,0.9,62.6,17.6,62.6,48.2c0,31.5-22.4,48.2-65.8,48.2
			c-42.5,0-65.8-17-66.6-48.2C1270.5,2203.4,1294.6,2186.4,1339.7,2186.4z"/>
	</g>
</g>
</svg>
