<?xml version="1.0" encoding="UTF-8" standalone="no"?>
<svg
   xmlns:dc="http://purl.org/dc/elements/1.1/"
   xmlns:cc="http://creativecommons.org/ns#"
   xmlns:rdf="http://www.w3.org/1999/02/22-rdf-syntax-ns#"
   xmlns:svg="http://www.w3.org/2000/svg"
   xmlns="http://www.w3.org/2000/svg"
   xmlns:sodipodi="http://sodipodi.sourceforge.net/DTD/sodipodi-0.dtd"
   xmlns:inkscape="http://www.inkscape.org/namespaces/inkscape"
   width="210mm"
   height="297mm"
   viewBox="0 0 210 297"
   version="1.1"
   id="svg8"
   inkscape:version="1.0.1 (3bc2e813f5, 2020-09-07)"
   sodipodi:docname="Portefeuille.svg">
  <style
     id="style833"></style>
  <defs
     id="defs2" />
  <sodipodi:namedview
     id="base"
     pagecolor="#ffffff"
     bordercolor="#666666"
     borderopacity="1.0"
     inkscape:pageopacity="0.0"
     inkscape:pageshadow="2"
     inkscape:zoom="0.35"
     inkscape:cx="400"
     inkscape:cy="560"
     inkscape:document-units="mm"
     inkscape:current-layer="layer1"
     inkscape:document-rotation="0"
     showgrid="false"
     inkscape:window-width="1920"
     inkscape:window-height="1017"
     inkscape:window-x="-8"
     inkscape:window-y="-8"
     inkscape:window-maximized="1" />
  <metadata
     id="metadata5">
    <rdf:RDF>
      <cc:Work
         rdf:about="">
        <dc:format>image/svg+xml</dc:format>
        <dc:type
           rdf:resource="http://purl.org/dc/dcmitype/StillImage" />
        <dc:title></dc:title>
      </cc:Work>
    </rdf:RDF>
  </metadata>
  <g
     inkscape:label="Calque 1"
     inkscape:groupmode="layer"
     id="layer1">
    <g
       id="layer1-2"
       inkscape:label="Calque 1"
       transform="matrix(0.26458333,0,0,0.26458333,53.396799,108.59686)">
	<g
   id="g876"
   transform="matrix(0.33783784,0,0,0.33783784,1.5347482,-1.4462686)">
		<path
   id="path840"
   class="st0"
   d="m 535.5,4.3 c 15.3,5.1 26.4,15.9 37.1,27.2 38.6,41.7 77.4,83.1 115.9,124.4 10.2,10.8 15.6,23.2 15.3,38.3 -0.3,25.8 0,51.6 0,77.7 0,13.3 -6.5,21.3 -17,21 -10.5,-0.3 -17,-8.2 -17,-21.5 0,-21.3 0,-42.2 0,-64.6 -10.2,0 -19.3,0 -28.6,0 -21.8,0 -43.9,0.3 -65.8,-0.3 -35.1,-1.1 -62.9,-29.2 -63.2,-64.3 -0.3,-34 0,-68 0,-103.7 -4.3,0 -7.9,0 -11.6,0 -149.1,0 -298.2,0 -447.6,0 -18.1,0 -23.5,5.4 -23.5,23.2 0,280.6 0,561.3 0,841.9 0,18.1 5.4,23.5 23.2,23.5 42.8,0 85.6,0 128.7,0 11.6,0 18.7,7.1 18.4,17.3 -0.3,9.9 -7.1,16.2 -18.1,16.7 -2.6,0 -4.8,0 -7.4,0 -38,0 -76,-1.1 -113.7,0.3 -32,1.1 -54.1,-9.9 -65.2,-40.5 0,-292 0,-583.9 0,-875.9 6.9,-20.3 20.2,-33.9 40.3,-40.7 166.7,0 333.4,0 499.8,0 z m 109.9,168.4 c -33.7,-36.6 -65.5,-71.1 -99.2,-107.4 0,28.3 -0.6,53.9 0.3,79.1 0.6,15 13,27.5 28.3,28.1 22.5,0.7 45.1,0.2 70.6,0.2 z" />

		<path
   id="path842"
   class="st1"
   d="m 833.1,4.3 c 3.7,7.1 8.8,13.9 11.1,21.5 4.3,14.5 7.1,29.5 9.6,44.5 1.1,6.2 4.3,8.5 9.6,10.5 11.6,4.3 23.2,8.8 34.3,14.2 6,2.8 10.2,2.6 15.3,-1.1 13.6,-9.4 27.8,-18.4 41.7,-27.5 10.2,-6.5 17,-6 25.8,2.6 13,12.8 26.1,26.1 39.1,39.1 7.4,7.4 7.7,15.6 2.3,24.1 -9.4,14.2 -18.1,28.6 -28.1,42.5 -3.7,5.4 -4,9.4 -1.1,15.3 5.7,11.3 9.4,23.5 15,35.1 1.7,3.4 5.4,7.4 9.1,8.2 16.4,4.3 33.2,7.4 49.6,10.8 13,2.8 17.3,7.9 17.3,21.3 0,17.6 0,35.4 0,53 0,10.8 -4.8,17.3 -15.6,19.6 -16.7,3.4 -33.2,7.1 -49.9,10.5 -6.2,1.1 -9.1,3.7 -11.6,9.9 -6.5,16.7 -14.2,33.2 -22.4,49 -5.4,10.5 -15.6,12.8 -24.1,7.7 -8.8,-5.4 -9.6,-14.2 -4.8,-25.2 8.2,-18.1 16.2,-36.9 23,-55.6 3.4,-9.1 8.2,-14.2 17.6,-15.9 17.6,-3.4 35.1,-7.4 53.3,-11.1 0,-10.8 0,-21 0,-32 -17.9,-4 -35.7,-8.2 -53.6,-11.3 -10.2,-2 -14.5,-7.9 -17.9,-17 -6.5,-17.9 -13.6,-35.4 -21.8,-52.7 -4.3,-9.1 -5.1,-16.4 0.6,-24.7 10.2,-15 19.8,-30 30,-45.6 -7.7,-7.7 -15,-15 -23,-22.7 -15,9.9 -30.3,19.6 -45.4,29.8 -8.2,5.7 -15.6,5.1 -24.7,0.9 -17.6,-8.5 -35.4,-15.6 -53.6,-22.4 -8.8,-3.1 -14.5,-7.7 -16.2,-17.3 -3.4,-17.9 -7.7,-35.7 -11.6,-53.9 -11.1,0 -21.3,0 -32,0 -3.7,17.9 -7.4,35.4 -11.1,53 -2.8,13 -10.2,19 -21,17 -9.9,-2 -15,-10.8 -12.5,-23.2 4.3,-20.7 8.2,-41.7 13.6,-62.1 1.7,-6.8 7.7,-12.8 11.6,-19 24.3,0.2 48.4,0.2 72.5,0.2 z" />

		<path
   id="path846"
   class="st0"
   d="m 860.6,469.7 c 5.4,0 9.1,0 13,0 44.2,0 88.4,0 132.9,0 45.9,0 77.4,31.5 77.7,77.4 0,155.9 0,311.8 0,467.7 0,46.2 -31.7,78 -78.2,78 -230.2,0 -460.6,0 -690.8,0 -48.8,0 -79.9,-30.9 -79.9,-79.4 -0.3,-99.5 0,-199 0,-298.8 0,-55.3 0,-110.6 0,-165.8 0,-49 30.9,-79.4 79.9,-79.4 43.7,0 87,0 130.7,0 4,0 7.7,0 12.5,0 0.3,-4.5 0.6,-8.5 0.6,-12.2 0,-23.2 -0.3,-46.8 0,-70 0.6,-34.6 25.2,-59.5 60.1,-59.8 93.8,-0.3 187.7,-0.3 281.8,0 34.9,0 60.1,25.8 60.4,60.7 -0.4,26.9 -0.7,53.3 -0.7,81.6 z m 189.3,241.8 c -12.2,4.3 -23.2,9.1 -34.9,11.3 -54.4,11.1 -109.1,21.3 -163.6,31.7 -34.3,6.5 -68.6,13 -103.5,19.8 0,10.2 0.6,19.8 -0.3,29.2 -0.9,10.5 -1.7,21.3 -4.8,31.2 -13,40.3 -54.4,65.5 -95.5,59.5 -42.5,-6.2 -74.6,-41.7 -76,-84.2 -0.3,-11.9 0,-23.8 0,-36 -5.1,-1.1 -8.8,-2 -12.8,-2.8 -72.6,-13.9 -145.4,-27.5 -218,-41.7 -23.8,-4.5 -47.6,-10.8 -71.7,-16.4 0,0.3 -0.3,2 -0.3,3.7 0,99.5 -0.3,199 0,298.8 0,26.6 16.7,42.8 43.7,42.8 231,0 462,0 693.1,0 27.8,0 44.2,-16.4 44.5,-44.2 0,-38.3 0,-76.5 0,-114.8 0.1,-62.3 0.1,-124.9 0.1,-187.9 z m -480.4,27.8 c 0.9,-1.7 1.4,-2.3 1.4,-2.8 0,-16.7 0.3,-33.2 0.3,-49.9 0.3,-23.2 12.8,-36 36.3,-36 34,0 68,0 102,0 26.1,0 38.6,12.2 38.6,38.3 0,17 0,33.7 0,50.7 2.3,0 3.4,0.3 4.3,0 69.7,-13.3 139.7,-26.6 209.5,-40.3 20.4,-4 41.1,-7.9 60.9,-14.2 18.7,-6 28.1,-19.8 27.5,-40.5 -0.6,-30.9 -0.3,-61.5 -0.3,-92.4 0,-33.7 -14.7,-48.5 -48.5,-48.5 -87,0 -174.3,0 -261.4,0 -139.2,0 -278.4,0 -417.5,0 -4.8,0 -9.9,0 -14.7,0.3 -21.3,1.1 -38,16.4 -38.3,38 -0.9,36.6 0,72.9 0,109.4 0,13.6 6.5,23.2 17.6,29.5 8.8,4.8 18.7,8.5 28.6,10.5 61.8,12.2 123.6,23.8 185.7,35.4 22.6,4 45.3,8.3 68,12.5 z m 257.4,-271 c 0,-25.2 0,-49.6 0,-74 0,-24.1 -8.5,-32.9 -32.3,-32.9 -59.8,0 -119.6,0 -179.4,0 -31.5,0 -62.9,0 -94.4,0 -15.3,0 -26.6,8.2 -27.2,21.3 -0.9,28.3 -0.3,56.4 -0.3,85.6 12.5,0 24.1,0 37.4,0 0,-23.8 0,-47.1 0,-70.3 86.7,0 172.3,0 258.5,0 0,23.8 0,46.5 0,70.3 12.4,0 24.6,0 37.7,0 z M 605.8,684.9 c 0,43.7 0,86.2 0,128.4 0,2.6 0.6,4.8 1.4,7.4 7.1,26.6 32,43.7 59.5,40.3 26.4,-3.1 47.1,-26.1 47.3,-54.1 0.3,-38.8 0,-78 0,-116.8 0,-1.7 -0.6,-3.4 -0.9,-5.1 -35.9,-0.1 -71.1,-0.1 -107.3,-0.1 z M 754,431.7 c -63.5,0 -125.9,0 -189.1,0 0,12.8 0,24.9 0,37.4 63.5,0 125.9,0 189.1,0 0,-12.4 0,-24.3 0,-37.4 z" />

		<path
   id="path848"
   sodipodi:nodetypes="cscccccc"
   class="st1"
   d="m 901.1,358.3 c -9.4,-4 -12.2,-13.3 -7.7,-25.2 C 918.3,267.6 881.8,200.4 814,188 c -5.7,-1.1 -11.3,-0.9 -17,-1.4 -11.9,-1.4 -18.1,-8.2 -17.6,-18.4 0.6,-9.6 7.7,-15.3 19,-15.3 74.3,-0.9 137.9,62.7 137.9,139 0.5,13.5 -11.1,76.2 -35.2,66.4 z" />

		<path
   id="path850"
   class="st1"
   d="m 310.7,233.6 c 38,0 75.7,0 113.7,0 13.6,0 21.5,6 21.5,16.4 0.3,10.5 -8.2,17.6 -22.1,17.6 -76,0 -152.2,0 -228.2,0 -13.9,0 -22.7,-8.2 -21,-19.3 1.4,-9.1 8.2,-14.5 19,-14.5 39.1,-0.2 78,-0.2 117.1,-0.2 z" />

		<path
   id="path852"
   class="st1"
   d="m 310.1,156.2 c 37.1,0 74.3,0 111.4,0 4.3,0 9.6,-0.9 12.5,1.4 4.8,4.3 11.1,10.5 11.1,15.9 0,5.4 -6.5,11.6 -11.6,15.3 -3.1,2.3 -8.8,1.1 -13.3,1.1 -73.1,0 -146.6,0 -219.7,0 -17.3,0 -25.5,-5.4 -25.8,-16.7 -0.3,-11.6 8.5,-17.3 26.4,-17.3 36.2,0.3 72.7,0.3 109,0.3 z" />

		<path
   id="path854"
   class="st1"
   d="m 254.5,344.4 c -19.8,0 -39.7,0 -59.5,0 -12.5,0 -20.1,-6.5 -20.4,-16.7 0,-10.2 7.7,-17.3 20.1,-17.3 39.7,0 79.4,0 119.1,0 12.8,0 20.1,6.2 20.1,16.7 0,10.5 -7.1,17 -19.8,17 -19.9,0.6 -39.7,0.3 -59.6,0.3 z" />

		<path
   id="path860"
   class="st1"
   d="m 105.2,156.2 c 14.5,0.3 22.1,6.2 22.1,17 0,11.1 -7.9,17 -23.2,17 -15,0 -23.2,-6 -23.5,-17 0.2,-11 8.7,-17 24.6,-17 z" />

		<path
   id="path874"
   class="st0"
   d="m 642.3,804.8 c 0,-9.1 7.7,-16.7 17,-16.7 9.4,0 16.7,7.4 16.7,16.7 0,9.4 -7.4,16.7 -16.7,16.7 -9,0 -17,-7.6 -17,-16.7 z" />

		<path
   id="path860-9"
   class="st1"
   d="m 105.2,233.6 c 14.5,0.3 22.1,6.2 22.1,17 0,11.1 -7.9,17 -23.2,17 -15,0 -23.2,-6 -23.5,-17 0.2,-11 8.7,-17 24.6,-17 z" />

		<path
   id="path860-9-6-2"
   class="st1"
   d="m 105.2,310.4 c 14.5,0.3 22.1,6.2 22.1,17 0,11.1 -7.9,17 -23.2,17 -15,0 -23.2,-6 -23.5,-17 0.2,-11 8.7,-17 24.6,-17 z" />

	</g>

</g>
  </g>
  <style
     type="text/css"
     id="style835">
	.st0{fill:#002B54;}
	.st1{fill:#00A4E4;}
</style>
</svg>
