<?xml version="1.0" encoding="utf-8"?>
<!-- Generator: Adobe Illustrator 18.1.1, SVG Export Plug-In . SVG Version: 6.00 Build 0)  -->
<svg version="1.1"
     id="svg8" xmlns:dc="http://purl.org/dc/elements/1.1/" xmlns:cc="http://creativecommons.org/ns#" xmlns:rdf="http://www.w3.org/1999/02/22-rdf-syntax-ns#" xmlns:svg="http://www.w3.org/2000/svg" xmlns:sodipodi="http://sodipodi.sourceforge.net/DTD/sodipodi-0.dtd" xmlns:inkscape="http://www.inkscape.org/namespaces/inkscape" sodipodi:docname="9 - Transaction Mngt.svg" inkscape:version="1.0.1 (3bc2e813f5, 2020-09-07)"
     xmlns="http://www.w3.org/2000/svg" xmlns:xlink="http://www.w3.org/1999/xlink" x="0px" y="0px" viewBox="59.1 122.4 459.3 459.8"
     enable-background="new 59.1 122.4 459.3 459.8" xml:space="preserve">
<sodipodi:namedview  id="base" inkscape:window-maximized="1" inkscape:document-rotation="0" inkscape:cy="560" inkscape:cx="400" inkscape:zoom="0.35" borderopacity="1.0" showgrid="false" bordercolor="#666666" pagecolor="#ffffff" inkscape:window-y="-8" inkscape:window-x="-8" inkscape:window-height="1009" inkscape:window-width="1920" inkscape:current-layer="layer1-4" inkscape:document-units="mm" inkscape:pageshadow="2" inkscape:pageopacity="0.0">
	</sodipodi:namedview>
  <g id="layer1" inkscape:label="Calque 1" inkscape:groupmode="layer">
	<g id="layer1-4" transform="matrix(0.26458333,0,0,0.26458333,23.438305,28.27262)" inkscape:label="Calque 1">
		<g id="layer1-7" transform="matrix(0.26458334,0,0,0.26458334,-5.492317,39.290508)" inkscape:label="Calque 1">
			<g id="layer1-3" transform="matrix(0.26458334,0,0,0.26458334,65.497612,79.763451)" inkscape:label="Calque 1">
				<g id="g854" transform="matrix(0.33783784,0,0,0.33783784,-6.9543121,-31.535233)">
				</g>
			</g>
		</g>
    <path id="path917" fill=" var(--principal)" d="M1131.3,2093.3H876.2c-45.4,0-81.9-36.3-81.9-81.9v-102.3c-43.1-13.3-85-31.5-125.6-53
			l-72.9,72.9c-32.3,31.5-83.6,31.5-115.7,0l-180.9-180.9c-31.5-32.3-31.5-83.6,0-115.7l72-73.7c-21.5-39.7-38-81.9-51.3-124.7
			H216.6c-45.4,0-81.9-36.3-81.9-81.9v-255.1c0-44.8,36.3-81.1,81.9-81.9H320c13.3-43.1,30.6-85,51.3-125.6l-72.9-73.1
			c-31.5-32.3-31.5-83.6,0-115.7l180.9-180.6c32.3-31.5,83.6-31.5,114.8,0l73.7,72c40.5-21.5,81.9-38.8,125.6-53V437.6
			c0-44.8,36.3-81.1,81.9-81.9h255.1c45.4,0,81.9,36.3,81.9,81.9v103.5c43.1,13.3,85,30.6,124.7,51.3l72.9-72.9
			c15-15.6,35.4-24.1,57.8-24.1l0,0c21.5,0,42.2,8.2,57.8,24.1l180.9,180.9c31.5,32.3,31.5,83.6,0,115.7l-73.1,72.6
			c21.5,39.7,38.8,81.9,52.2,125.6h103.2c44.8,0,81.1,36.3,81.9,81.9v256c0,45.4-36.3,81.9-81.9,81.9h-103.5
			c-13.3,43.1-30.6,85-51.3,124.7l72.9,72.9c31.5,32.3,31.5,83.6,0,114.8l-180.9,181.7c-15,15-35.4,24.1-57.8,24.1l0,0
			c-21.5,0-42.2-8.2-57.8-24.1l-73.7-72.9c-39.7,21.5-81.9,38.8-125.6,52.2V2010C1212.1,2056.2,1175.8,2092.5,1131.3,2093.3
			L1131.3,2093.3z M661,1796l15.6,9.1c46.2,26.4,96.7,47.9,148,62.1l18.1,5.1v138.9c0,18.1,15,33.2,33.2,33.2H1131
			c18.1,0,33.2-15,33.2-33.2v-139.7l17.3-5.1c52.2-14.2,101.8-34.9,148.8-61.2l15-8.2l0,0h1.7l19.8,19.8l0,0l78.5,78.5
			c5.7,6.5,14.2,9.9,23.2,9.9l0,0c9.1,0,17.3-3.4,23.2-9.9l180.9-180.9c13.3-13.3,13.3-34,0-47.1l-98.4-98.4l9.1-15.6
			c26.4-47.1,47.1-96.7,62.1-148.8l4.3-15v-13.3l13.3-6.5l8.2,17.3h118.2c18.1,0,33.2-15,33.2-33.2v-255.1c0-18.1-15-33.2-33.2-33.2
			h-138.9l-5.1-18.1c-14.2-52.2-34.9-101.8-61.2-148.8l-9.9-15.6l99.2-99.2c13.3-13.3,13.3-34,0-47.1l-180-180.9
			c-6.5-5.7-15-9.9-23.2-9.9l0,0c-9.1,0-17.3,3.4-24.1,9.9L1347,655l-15.6-9.1c-47.1-26.4-96.7-47.1-148.8-61.2l-15-4.3h-4.3
			l-5.7-3.4l7.4-13.3V439.9c0-18.1-15-33.2-33.2-33.2H877.6c-18.1,0-33.2,15-33.2,33.2l0,0v124.7l5.7,13.3l0,0l-5.7-13.3v14.2
			l-18.1,5.1c-52.2,15-101.8,35.4-148.8,62.1l-15.6,9.1l-98.4-99.2c-13.3-13.3-34-13.3-47.1,0L335.6,736.7
			c-13.3,13.3-13.3,34,0,47.1l98.4,99.2l-9.1,15.6c-26.4,47.1-47.1,96.7-61.2,148l-5.1,18.1H219.1c-18.1,0-33.2,15-33.2,33.2l0,0
			v255.1c0,18.1,15,33.2,33.2,33.2l0,0h139.7l5.1,18.1c14.2,52.2,34.9,101.8,61.2,148.8l9.1,15.6l-98.6,98.6
			c-13.3,13.3-13.3,34,0,47.1l180.9,180.9c13.3,12.5,34,12.5,47.1,0L661,1796z"/>
    <path id="path840" fill=" var(--principal)" d="M776.7,1060.4c19.8,0,35.4,0,50.5,0c169.5,0,339.6,0,509.1,0c43.1,0,71.1,36.3,57.8,73.7
			c-8.2,21.5-24.1,33.2-46.2,37.1c-4.3,0.9-8.2,0.9-12.5,0.9c-218.8,0-438,0-656.8,0c-23.2,0-42.2-8.2-53.9-28.1s-9.9-39.7,2.6-59.5
			c36.3-56.1,73.7-111.7,110.8-166.1c18.1-26.4,51.3-32.3,76.8-15.6c25.5,16.4,32.3,49.6,15.6,76.8c-8.2,13.3-17.3,26.4-26.4,38.8
			C795.7,1030.6,786.6,1043.9,776.7,1060.4L776.7,1060.4z"/>
    <path id="path842" fill=" var(--principal)" d="M1237,1395.1c-28.9,0-53.9,0-78.5,0c-158.7,0-317.2,0-475.1,0c-9.1,0-19-0.9-27.2-2.6
			c-26.4-8.2-42.2-32.3-38.8-58.7c2.6-27.2,24.9-47.9,53-49.6c2.6,0,5.7,0,9.1,0c218.8,0,438.8,0,657.6,0c19.8,0,36.3,5.7,49.6,21.5
			c15.6,19,16.4,43.1,2.6,65.2c-36.3,56.1-73.7,112.5-112.5,167.8c-18.1,26.4-51.3,32.3-76.8,15c-25.5-16.4-32.3-49.6-15.6-76.8
			C1199.9,1449.6,1217.2,1424.1,1237,1395.1L1237,1395.1z"/>
	</g>
</g>
</svg>
