<?xml version="1.0" encoding="utf-8"?>
<!-- Generator: Adobe Illustrator 23.0.2, SVG Export Plug-In . SVG Version: 6.00 Build 0)  -->
<svg version="1.1"
	 id="svg8" inkscape:version="1.0.1 (3bc2e813f5, 2020-09-07)" sodipodi:docname="Trésorerie.svg" xmlns:cc="http://creativecommons.org/ns#" xmlns:dc="http://purl.org/dc/elements/1.1/" xmlns:inkscape="http://www.inkscape.org/namespaces/inkscape" xmlns:rdf="http://www.w3.org/1999/02/22-rdf-syntax-ns#" xmlns:sodipodi="http://sodipodi.sourceforge.net/DTD/sodipodi-0.dtd" xmlns:svg="http://www.w3.org/2000/svg"
	 xmlns="http://www.w3.org/2000/svg" xmlns:xlink="http://www.w3.org/1999/xlink" x="0px" y="0px" viewBox="0 0 367.9 367.1"
	 style="enable-background:new 0 0 367.9 367.1;" xml:space="preserve">
<style type="text/css">
	.st0{fill:#002B54;}
	.st1{fill:#00A4E4;}
</style>
<sodipodi:namedview  bordercolor="#666666" borderopacity="1.0" id="base" inkscape:current-layer="g882" inkscape:cx="379.88703" inkscape:cy="566.99083" inkscape:document-rotation="0" inkscape:document-units="mm" inkscape:pageopacity="0.0" inkscape:pageshadow="2" inkscape:window-height="1017" inkscape:window-maximized="1" inkscape:window-width="1920" inkscape:window-x="-8" inkscape:window-y="-8" inkscape:zoom="0.7" pagecolor="#ffffff" showgrid="false">
	</sodipodi:namedview>
<g id="layer1" inkscape:groupmode="layer" inkscape:label="Calque 1">
	<g id="g882" transform="matrix(0.26458333,0,0,0.26458333,12.448544,53.042517)">
		<path id="path838" class="st0" d="M-47,879.7c0-341.2,0-682.1,0-1023c8.3-29.7,27.5-48.5,57.2-57.2c116.5,0,233.5,0,350,0
			c42,13.4,59.4,43.1,56.5,85.8c0,1.8,0,3.6,0,5.4c0.7,15.2,8.3,23.2,23.5,24.6c4.3,0.4,9,0,13.4,0c262.4,0,524.8,0.7,787.2-0.7
			c63.3-0.4,102.8,46,102.8,102c-1.1,279.4-0.4,559.1-0.7,838.4c0,64-38,102-102.4,102c-68.8,0-137.5,0.4-206.3-0.4
			c-9.8,0-14.8,2.9-19.9,11.6c-75.6,134.2-190.7,211.3-344.6,218.2c-171.6,8-301.1-68-387.6-216.8c-5.8-10.1-11.6-13.4-23.2-13.4
			c-69.5,0.4-139.3,0.4-208.8,0.4c-48.5-0.4-82.5-26.4-95.2-73.1C-45.2,882.9-46,881.1-47,879.7L-47,879.7z M1043.9,910.8
			c2.9,0,6.9,0.7,10.9,0.7c63,0,125.6,0,188.6,0c35.5,0,53.6-18.5,53.6-53.6c0-211.7,0-423.4,0-635.1c0-34.7-18.1-52.5-52.8-52.5
			c-397.1,0-794.5,0-1191.5,0c-34.7,0-52.8,18.1-52.8,52.5c0,211.7,0,423.4,0,635.1c0,35.1,18.1,53.6,53.6,53.6
			c63,0,125.6,0,188.6,0c4.3,0,8.3-0.4,11.6-0.7C201.6,722.6,242.1,562.3,396,440.4C530.3,334,714.1,321.7,859.3,412.5
			C1045.3,529.4,1097.8,700.9,1043.9,910.8L1043.9,910.8z M370.3,772.2c-1.1,151.6,122.3,276.1,276.2,278.3
			c151.3,1.8,277.6-122.3,279.1-275.4c1.4-152.3-121.3-279-272.2-280.4C496.6,492.8,371.7,615.1,370.3,772.2L370.3,772.2z
			 M1296.9,136.4c0-41.3-1.4-79.6,0.4-118c1.4-31.1-15.9-57.2-57.2-57.2c-262.4,1.1-524.8,0.4-787.2,0.4c-5.1,0-10.1,0-14.8,0
			c-31.9-1.8-57.9-22.1-65.2-52.1c-2.5-10.9-2.2-22.4-2.2-33.7c-0.7-22.4-8.3-30.4-30.4-30.4c-103.2,0-206.3,0-309.5,0
			c-23.5,0-31.1,7.6-31.1,30.8c0,82.1,0,164.6,0,246.8c0,3.6,0.4,7.6,0.7,13c29.3-17.4,60.1-10.9,91.6-13.4c0-13,0-25.7,0-38.4
			c0-48.5,28.2-76.7,76.7-76.7c320,0,639.6,0,959.5,0c47.8,0,76,28.2,76,75.6c0,13,0,26.1,0,39.4
			C1236.1,124.8,1267.2,119.4,1296.9,136.4z M138.6,122.7c340.2,0,679,0,1019.6,0c0-11.6,0-22.4,0-33.3c0-28.9-6.2-35.1-34.7-35.1
			c-316.7,0-633.4,0-950.1,0c-3.6,0-7.2,0-10.9,0c-13.4,0.7-22.8,8.3-23.5,21.3C137.9,91.2,138.6,106.4,138.6,122.7L138.6,122.7z
			 M920.1,588.4c10.5-6.2,23.2-13.4,36.6-21.3c-28.2-41.6-61.9-76-103.5-103.5c-8,14.1-15.2,26.8-21,36.5
			C861.8,530.1,890.4,558.7,920.1,588.4L920.1,588.4z M321.1,796.1c-11.9,0-26.8,0-42.3,0c3.6,49.6,15.6,96.3,38.4,140.4
			c13.8-8,26.4-15.2,36.2-21C342.4,875.3,331.9,836.6,321.1,796.1z M464.4,1043.9c-30-30-58.3-58.6-88.3-88.3
			c-10.5,6.2-23.2,13.4-36.6,21.3c28.2,42,62.3,76,103.5,103.1C451,1067.1,458.2,1054.4,464.4,1043.9z M1017.4,748.7
			c-3.6-49.9-15.6-96.3-38.4-140.8c-14.1,8.3-26.8,15.6-36.2,21c11.2,41.3,21.4,80,32.2,119.8
			C986.7,748.7,1000.8,748.7,1017.4,748.7z M853.1,1080.5c41.6-28.2,76-61.9,103.2-103.9c-14.1-8-26.4-15.2-36.2-20.6
			c-30,30-58.6,58.6-88,87.9C837.5,1054.1,844.8,1066.4,853.1,1080.5L853.1,1080.5z M316.7,607.5c-22.4,45.2-35.1,91.5-37.6,140.8
			c16.3,0,30.8,0,42,0c10.9-40.5,21.4-78.9,32.2-119.4C343.1,623.1,330.8,615.9,316.7,607.5z M975.1,796.1
			c-10.9,40.2-21.4,78.9-32.2,119.4c10.5,6.2,23.2,13.4,36.6,21c22.4-44.9,34.4-91.2,38-140.4C1001.5,796.1,987,796.1,975.1,796.1z
			 M464.4,500.4c-6.2-10.5-13.8-23.2-21.4-36.5c-41.6,28.2-75.6,61.9-103.2,103.5c14.1,8,26.8,15.6,36.2,21
			C406.1,558.3,434.7,530.1,464.4,500.4L464.4,500.4z M506.7,480.9c35.5-16.6,71.7-27.5,109.7-30.8c2.9-0.4,7.6-3.3,7.6-5.4
			c0.7-13.8,0.4-27.5,0.4-41.6c-50.7,3.6-96.6,15.6-140.8,38C491.5,454.8,498.8,467.5,506.7,480.9L506.7,480.9z M671.4,1140.9
			c50.7-2.9,96.3-15.6,141.2-37.6c-8-13.8-15.6-26.8-23.2-39.8c-35.8,16.6-71.7,27.1-109.3,30.8c-3.3,0.4-8.3,4.7-8.3,7.2
			C671.1,1114.1,671.4,1126.8,671.4,1140.9L671.4,1140.9z M671.4,403.1c0,6.5,0,11.6,0,16.6c0,27.9,0.4,26.8,26.8,32.9
			c31.1,7.2,61.5,16.3,93.4,25c6.2-10.5,13.4-23.2,21.4-36.5C767.7,418.7,721.7,406,671.4,403.1z M624.7,1139.8
			c0-11.9-0.4-23.2,0-34.4c0.4-8.3-3.3-10.5-10.9-11.2c-13.4-1.4-27.1-3.3-39.8-6.9c-22.8-6.5-45.2-14.1-68.4-21.7
			c-6.9,12.3-14.1,25-21.4,37.6C523.4,1124.6,589.3,1142,624.7,1139.8L624.7,1139.8z"/>
		<path id="path876" class="st1" d="M671.4,615.9c0,18.5,0,35.5,0,52.5c0,24.2,0.4,48.9,0,73.1c0,6.9,2.2,10.1,9,12.3
			c52.1,17.7,84,59.7,84,110.7c0,51.4-31.9,93.4-84.7,111.8c-3.6,1.4-7.6,5.8-9,9.4c-3.6,11.6-11.2,17.7-22.8,17.7
			c-10.9,0-19.5-5.8-21.4-17c-1.4-8.3-6.9-9.4-12.7-11.2c-47.1-15.2-78.2-55.7-81.1-104.6c-1.1-15.9,7.2-27.1,20.6-28.6
			c13.4-1.4,23.5,7.6,25.3,23.5c0.7,4.3,0.7,9,1.8,13.4c5.8,23.5,19.2,40.2,43.4,50.7c0.4-5.4,1.1-9.8,1.1-13.8
			c0-36.5-0.4-73.1,0.4-110c0-9-2.2-13-11.6-16.3c-49.6-15.6-82.2-60.4-81.4-111.1c0.4-50.3,32.9-94.1,81.8-109.6
			c7.2-2.2,10.9-5.4,12.7-13c2.5-10.1,10.9-15.6,21.4-15.2c10.5,0,18.8,5.4,21.4,15.6c1.8,8,5.8,10.5,13,13
			c46.7,15.2,77.1,53.6,81.1,103.1c1.4,17-6.2,28.2-20.3,30c-13.4,1.8-23.5-8-25.7-25C713.8,645.5,698.9,625.3,671.4,615.9
			L671.4,615.9z M624,616.6c-25,5.8-45.2,34-45.2,62.6c0,28.9,20.6,57.9,45.2,63C624,700.5,624,658.6,624,616.6z M671.8,928.1
			c28.2-8.3,47.8-38.4,45.6-67.3c-2.5-28.9-22.8-55.4-45.6-58.3C671.8,843.8,671.8,885.4,671.8,928.1z"/>
	</g>
</g>
</svg>
