<?xml version="1.0" encoding="utf-8"?>
<!-- Generator: Adobe Illustrator 18.1.1, SVG Export Plug-In . SVG Version: 6.00 Build 0)  -->
<svg version="1.1"
     id="svg8" xmlns:dc="http://purl.org/dc/elements/1.1/" xmlns:cc="http://creativecommons.org/ns#" xmlns:rdf="http://www.w3.org/1999/02/22-rdf-syntax-ns#" xmlns:svg="http://www.w3.org/2000/svg" xmlns:sodipodi="http://sodipodi.sourceforge.net/DTD/sodipodi-0.dtd" xmlns:inkscape="http://www.inkscape.org/namespaces/inkscape" sodipodi:docname="4 - Portefeuille Mngt.svg" inkscape:version="1.0.1 (3bc2e813f5, 2020-09-07)"
     xmlns="http://www.w3.org/2000/svg" xmlns:xlink="http://www.w3.org/1999/xlink" x="0px" y="0px"
     viewBox="146.6 176.2 288.1 248.6" enable-background="new 146.6 176.2 288.1 248.6" xml:space="preserve">
<sodipodi:namedview  id="base" inkscape:window-maximized="1" inkscape:document-rotation="0" inkscape:cy="417.60822" inkscape:cx="205.78601" inkscape:zoom="0.7" borderopacity="1.0" showgrid="false" bordercolor="#666666" pagecolor="#ffffff" inkscape:window-y="-8" inkscape:window-x="-8" inkscape:window-height="1009" inkscape:window-width="1920" inkscape:current-layer="g846" inkscape:document-units="mm" inkscape:pageshadow="2" inkscape:pageopacity="0.0">
	</sodipodi:namedview>
  <g id="layer1" inkscape:label="Calque 1" inkscape:groupmode="layer">
	<g id="layer1-0" transform="matrix(0.26458333,0,0,0.26458333,21.045715,-17.717633)" inkscape:label="Calque 1">
		<g id="g848">
			<g id="g846">
				<path id="path836" fill=" var(--principal)" d="M474.7,969.1c4.8-16.2,10.5-31.5,23.2-43.4c17-15.6,37.7-19.8,59.8-19.8
					c173.2,0,346.4,0,519.6,0c134.4,0,268.4,0,402.8,0c18.7,0,36.9,2.6,52.4,13.9c20.4,15,30.3,35.4,30.3,60.1
					c0.3,53,0.6,106.3,0,159.3c-0.6,35.4-24.4,63.8-59.8,71.7c-124.2,27.8-248.6,55.6-372.8,82.8c-10.2,2.3-13,6-12.5,15.9
					c0.9,20.1,0.3,40.3,0.3,60.7c-0.3,22.1-8.5,30.3-30.3,30.3c-45.9,0-92.1,0-138,0c-20.7,0-29.2-8.2-29.5-28.9
					c-0.3-21.8-0.3-43.9,0-65.8c0.3-7.1-2.3-9.9-9.1-11.3c-93.3-20.7-186.5-41.4-279.8-62.1c-32-7.1-64.3-14.2-96.4-21.5
					c-29.8-6.8-49.3-24.9-58.1-54.4c-0.6-2.3-1.7-4.5-2.6-6.8C474.7,1089.6,474.7,1029.2,474.7,969.1L474.7,969.1z M1117.8,1246.9
					c5.1-0.9,8.8-1.4,12.5-2.3c119.1-26.6,238.1-53.3,357.2-79.9c19.8-4.5,26.1-11.9,26.1-32.3c0-48.5,0-96.9,0-145.7
					c0-22.7-8.2-31.2-30.3-31.2c-309.5,0-619.4,0-928.9,0c-22.4,0-30.3,8.2-30.6,30.9c0,48.5,0,96.9,0,145.7
					c0,20.4,6.2,27.8,26.1,32.3c93.8,21,187.7,42,281.8,63.2c28.9,6.5,57.8,12.8,88.2,19.6c0-5.7,0-10.2,0-14.7
					c0.6-21.3,8.5-29.5,29.8-29.5c18.4,0,36.9,0,55.3,0c28.1,0,55.8,0,83.9,0c19.6,0,27.8,7.9,28.9,27.5
					C1118.1,1235.5,1117.8,1240.6,1117.8,1246.9z M1067.7,1350.9c0-32.9,0-65.2,0-98.1c-32.6,0-64.6,0-97.2,0c0,32.9,0,65.2,0,98.1
					C1003,1350.9,1035.1,1350.9,1067.7,1350.9z"/>
        <path id="path838" fill=" var(--principal)" d="M1019.2,1672.6c-147.1,0-294,0-441.1,0c-32.3,0-57.5-12.2-71.1-42.2
					c-4.8-10.8-7.1-23.8-7.1-36c-0.6-104-0.3-208.3-0.3-312.4c0-22.4,11.9-32.9,31.5-28.6c8.5,2,13.9,7.1,16.2,15
					c1.4,5.4,1.7,11.1,2,16.7c0,101.8,0,203.2,0,305c0,25.2,7.7,33.2,32.9,33.2c291.7,0,583.1,0,874.8,0c24.7,0,32.3-7.9,32.3-32.3
					c0-101.8,0-203.2,0-305c0-4.8,0.3-9.9,1.1-14.7c2.6-12.2,12.2-19.3,24.4-19c13,0.6,21.8,8.5,23.2,21.5c0.3,3.1,0.6,6.2,0.6,9.6
					c0,103.2,0,206.1,0,309.3c0,32.6-11.6,58.7-42.2,72.3c-11.9,5.4-26.1,7.4-39.1,7.4C1311.2,1672.9,1165.2,1672.6,1019.2,1672.6
					L1019.2,1672.6z"/>
        <path id="path840" fill=" var(--principal)" d="M1019.8,733c39.4,0,78.5,0,117.9,0c48.8,0,78.8,30,79.1,78.8c0,6.8,0.3,13.6,0,20.1
					c-0.9,15.6-10.5,24.7-24.9,24.4c-14.2-0.3-23.2-9.4-23.8-24.4c-0.6-9.1,0.3-18.4-0.9-27.5c-1.7-13.3-7.9-19.3-21-21.3
					c-3.7-0.6-7.7-0.6-11.6-0.6c-76.5,0-153.1,0-229.6,0c-26.4,0-34,7.7-34.3,34c0,7.1,0.3,14.2-0.9,21.3
					c-1.7,11.1-10.8,18.1-22.4,19c-11.6,0.6-22.7-5.7-24.1-16.4c-3.7-26.6-4.5-53.3,12.2-76.5c15.3-21,36.9-30.3,62.4-30.3
					C938.1,733,978.9,733,1019.8,733L1019.8,733z"/>
			</g>
		</g>
	</g>
</g>
</svg>
