<?xml version="1.0" encoding="utf-8"?>
<!-- Generator: Adobe Illustrator 23.0.2, SVG Export Plug-In . SVG Version: 6.00 Build 0)  -->
<svg version="1.1"
	 id="svg8" inkscape:version="1.0.1 (3bc2e813f5, 2020-09-07)" sodipodi:docname="Bourse.svg" xmlns:cc="http://creativecommons.org/ns#" xmlns:dc="http://purl.org/dc/elements/1.1/" xmlns:inkscape="http://www.inkscape.org/namespaces/inkscape" xmlns:rdf="http://www.w3.org/1999/02/22-rdf-syntax-ns#" xmlns:sodipodi="http://sodipodi.sourceforge.net/DTD/sodipodi-0.dtd" xmlns:svg="http://www.w3.org/2000/svg"
	 xmlns="http://www.w3.org/2000/svg" xmlns:xlink="http://www.w3.org/1999/xlink" x="0px" y="0px" viewBox="0 0 368.5 367.5"
	 style="enable-background:new 0 0 368.5 367.5;" xml:space="preserve">
<style type="text/css">
	.st0{fill:#6a7187;}
	.st1{fill:#6a7187;}
	.st2{fill:none;stroke:#6a7187;stroke-width:2.7513;stroke-miterlimit:10;}
</style>
<sodipodi:namedview  bordercolor="#666666" borderopacity="1.0" id="base" inkscape:current-layer="layer1" inkscape:cx="400" inkscape:cy="560" inkscape:document-rotation="0" inkscape:document-units="mm" inkscape:pageopacity="0.0" inkscape:pageshadow="2" inkscape:window-height="1017" inkscape:window-maximized="1" inkscape:window-width="1920" inkscape:window-x="-8" inkscape:window-y="-8" inkscape:zoom="0.35" pagecolor="#ffffff" showgrid="false">
	</sodipodi:namedview>
<g id="layer1" inkscape:groupmode="layer" inkscape:label="Calque 1">
	<path id="path1521" class="st0" d="M129.4,239.8c-1,0-1.8-0.8-1.9-1.8c0-0.5,0.2-1,0.6-1.3l17.8-15.8c0.8-0.7,1.9-0.6,2.6,0.1
		c0.7,0.7,0.6,1.9-0.1,2.5c0,0,0,0,0,0l-17.8,15.8C130.3,239.6,129.8,239.8,129.4,239.8L129.4,239.8z"/>
	<path id="path1523" class="st0" d="M170.4,230c-0.3,0-0.6-0.1-0.9-0.2l-13.5-7c-1-0.4-1.4-1.4-1-2.4c0.4-0.9,1.5-1.4,2.4-1
		c0.1,0,0.2,0.1,0.3,0.2l13.5,7c0.9,0.4,1.3,1.5,0.8,2.4C171.7,229.6,171.1,230,170.4,230L170.4,230z"/>
	<path id="path1525" class="st0" d="M179.2,228.9c-0.5,0-0.9-0.2-1.2-0.5c-0.7-0.7-0.8-1.8-0.1-2.5c0,0,0,0,0,0l16.2-16.9
		c0.8-0.7,1.9-0.6,2.6,0.1c0.6,0.7,0.7,1.7,0.1,2.4l-16.2,16.9C180.2,228.6,179.7,228.9,179.2,228.9L179.2,228.9z"/>
	<path id="path1527" class="st0" d="M216.8,220.6c-0.4,0-0.8-0.1-1.1-0.3l-12.8-9c-0.8-0.6-1-1.7-0.4-2.5c0,0,0,0,0,0
		c0.6-0.8,1.8-1,2.6-0.4l12.8,9c0.8,0.6,1,1.7,0.4,2.5C217.9,220.4,217.4,220.6,216.8,220.6L216.8,220.6z"/>
	<path id="path1529" class="st0" d="M225.7,220.3c-0.5,0-1-0.2-1.3-0.5c-0.7-0.7-0.7-1.8,0-2.5l14.5-14.1c0.7-0.7,1.9-0.7,2.6,0
		c0.7,0.7,0.7,1.8,0,2.5c0,0,0,0,0,0L227,219.7C226.7,220.1,226.2,220.3,225.7,220.3z"/>
	<path id="path1531" class="st0" d="M199.5,213.3c-4.1,0-7.4-3.2-7.4-7.2s3.3-7.2,7.4-7.2c4.1,0,7.4,3.2,7.4,7.2c0,0,0,0,0,0
		C206.9,210.1,203.6,213.3,199.5,213.3z M199.5,202.6c-2,0-3.7,1.6-3.7,3.6c0,2,1.6,3.6,3.7,3.6c2,0,3.7-1.6,3.7-3.6c0,0,0,0,0,0
		C203.2,204.2,201.6,202.6,199.5,202.6z"/>
	<path id="path1533" class="st0" d="M221.7,229.5c-4.1,0-7.4-3.2-7.4-7.2s3.3-7.2,7.4-7.2c4.1,0,7.4,3.2,7.4,7.2c0,0,0,0,0,0
		C229.1,226.3,225.8,229.5,221.7,229.5z M221.7,218.7c-2,0-3.7,1.6-3.7,3.6c0,2,1.6,3.6,3.7,3.6c2,0,3.7-1.6,3.7-3.6c0,0,0,0,0,0
		C225.4,220.3,223.8,218.7,221.7,218.7z"/>
	<path id="path1535" class="st0" d="M175.5,238.4c-4.1,0-7.4-3.2-7.4-7.2s3.3-7.2,7.4-7.2c4.1,0,7.4,3.2,7.4,7.2c0,0,0,0,0,0
		C182.9,235.2,179.6,238.4,175.5,238.4z M175.5,227.7c-2,0-3.7,1.6-3.7,3.6c0,2,1.7,3.6,3.7,3.6c2,0,3.7-1.6,3.7-3.6v0
		C179.2,229.3,177.6,227.7,175.5,227.7z"/>
	<path id="path1537" class="st0" d="M151.5,225.9c-4.1,0-7.4-3.2-7.4-7.2c0-4,3.3-7.2,7.4-7.1c4.1,0,7.4,3.2,7.4,7.2
		C158.9,222.7,155.6,225.9,151.5,225.9z M151.5,215.1c-2,0-3.7,1.6-3.7,3.6c0,2,1.7,3.6,3.7,3.6c2,0,3.7-1.6,3.7-3.6
		S153.6,215.1,151.5,215.1L151.5,215.1z"/>
	<path id="path1539" class="st0" d="M240.2,215.1c-1,0-1.8-0.8-1.8-1.8v-7.2H231c-1-0.1-1.8-1-1.7-2c0.1-0.9,0.8-1.5,1.7-1.6h9.2
		c1,0,1.8,0.8,1.9,1.8v9C242.1,214.3,241.2,215.1,240.2,215.1C240.2,215.1,240.2,215.1,240.2,215.1z"/>
	<path id="path1541" class="st1" d="M151.5,272.5L151.5,272.5c-1,0-1.8-0.8-1.8-1.8v-39.4c0-1,0.8-1.8,1.8-1.8l0,0
		c1,0,1.9,0.8,1.9,1.8v39.4C153.4,271.7,152.5,272.5,151.5,272.5z"/>
	<path id="path1543" class="st1" d="M175.5,272.5L175.5,272.5c-1,0-1.8-0.8-1.8-1.8c0,0,0,0,0,0v-26.9c0-1,0.8-1.8,1.8-1.8
		c0,0,0,0,0,0l0,0c1,0,1.8,0.8,1.8,1.8v26.9C177.4,271.7,176.6,272.5,175.5,272.5z"/>
	<path id="path1545" class="st1" d="M199.5,272.5L199.5,272.5c-1,0-1.9-0.8-1.9-1.8v-52c0-1,0.8-1.8,1.9-1.8l0,0
		c1,0,1.8,0.8,1.8,1.8v52C201.4,271.7,200.5,272.5,199.5,272.5z"/>
	<path id="path1547" class="st1" d="M221.7,272.5L221.7,272.5c-1,0-1.9-0.8-1.9-1.8v-35.9c0-1,0.8-1.8,1.9-1.8l0,0
		c1,0,1.8,0.8,1.8,1.8c0,0,0,0,0,0v35.9C223.6,271.7,222.8,272.5,221.7,272.5z"/>
	<path id="path1549" class="st1" d="M240.2,272.5H127.5v-84.3c0.1-1,1-1.7,2-1.6c0.9,0.1,1.6,0.8,1.7,1.6v80.7h109
		c1-0.1,1.9,0.6,2,1.6c0.1,1-0.6,1.9-1.7,2C240.5,272.5,240.3,272.5,240.2,272.5L240.2,272.5z"/>
	<path id="path1551" class="st0" d="M357.1,325.3H10.8c-3.9,0-7,3-7,6.8v28.7c0,3.7,3.1,6.8,7,6.8c0,0,0,0,0,0h346.3
		c4,0.2,7.4-2.9,7.6-6.8v-28.7C364.5,328.2,361.1,325.1,357.1,325.3z M349.5,354H17.7v-15.1h331.8V354z"/>
	<path id="path1553" class="st1" d="M342,296.9h-9.9V165.8h9.9c3.9,0,7-3,7-6.8c0-3.7-3.1-6.8-7-6.8h-88.8c-3.9,0-7,3-7,6.8
		c0,3.7,3.1,6.8,7,6.8h9.9v131.1h-9.9c-3.8,0.5-6.5,3.9-6,7.6c0.4,3,2.9,5.4,6,5.8H342c3.8,0.5,7.3-2.1,7.8-5.8
		c0.5-3.7-2.2-7.1-6-7.6C343.2,296.8,342.6,296.8,342,296.9z M277.2,296.8V166.2h40.9v130.6H277.2z"/>
	<path id="path1555" class="st1" d="M115.2,296.9h-9.9V165.8h9.9c3.9,0,7-3,7-6.8c0-3.7-3.1-6.8-7-6.8l0,0H26.6c-3.9,0-7,3-7,6.8
		c0,3.7,3.1,6.8,7,6.8h9.9v131.1h-9.9c-3.8-0.5-7.3,2.1-7.8,5.8c-0.5,3.7,2.2,7.1,6,7.6c0.6,0.1,1.2,0.1,1.8,0h88.7
		c3.8,0.5,7.3-2.1,7.8-5.8c0.5-3.7-2.2-7.1-6-7.6C116.5,296.8,115.9,296.8,115.2,296.9z M50.4,296.8v-131h40.9v131L50.4,296.8z"/>
	<path id="path1557" class="st1" d="M361.5,138.5H7c-3.8,0-7-3-7-6.8c0,0,0,0,0,0v-23.6c0-2.4,1.3-4.6,3.4-5.8L180.7,0
		c2.2-1.3,4.9-1.3,7.1,0l177.3,102.3c2.1,1.2,3.4,3.4,3.4,5.8v23.6C368.5,135.5,365.4,138.5,361.5,138.5L361.5,138.5z M14,124.9
		h340.6v-13L184.4,13.7L14,112L14,124.9z"/>
	<ellipse id="circle1559" class="st2" cx="184.3" cy="74.3" rx="28.8" ry="27.9"/>
</g>
</svg>
