<?xml version="1.0" encoding="UTF-8" standalone="no"?>
<svg
   xmlns:dc="http://purl.org/dc/elements/1.1/"
   xmlns:cc="http://creativecommons.org/ns#"
   xmlns:rdf="http://www.w3.org/1999/02/22-rdf-syntax-ns#"
   xmlns:svg="http://www.w3.org/2000/svg"
   xmlns="http://www.w3.org/2000/svg"
   xmlns:sodipodi="http://sodipodi.sourceforge.net/DTD/sodipodi-0.dtd"
   xmlns:inkscape="http://www.inkscape.org/namespaces/inkscape"
   width="210mm"
   height="297mm"
   viewBox="0 0 210 297"
   version="1.1"
   id="svg8"
   inkscape:version="1.0.1 (3bc2e813f5, 2020-09-07)"
   sodipodi:docname="Dérivés.svg">
  <style
     id="style833"></style>
  <defs
     id="defs2" />
  <sodipodi:namedview
     id="base"
     pagecolor="#ffffff"
     bordercolor="#666666"
     borderopacity="1.0"
     inkscape:pageopacity="0.0"
     inkscape:pageshadow="2"
     inkscape:zoom="0.35"
     inkscape:cx="400"
     inkscape:cy="560"
     inkscape:document-units="mm"
     inkscape:current-layer="layer1"
     inkscape:document-rotation="0"
     showgrid="false"
     inkscape:window-width="1438"
     inkscape:window-height="967"
     inkscape:window-x="26"
     inkscape:window-y="26"
     inkscape:window-maximized="0" />
  <metadata
     id="metadata5">
    <rdf:RDF>
      <cc:Work
         rdf:about="">
        <dc:format>image/svg+xml</dc:format>
        <dc:type
           rdf:resource="http://purl.org/dc/dcmitype/StillImage" />
        <dc:title></dc:title>
      </cc:Work>
    </rdf:RDF>
  </metadata>
  <g
     inkscape:label="Calque 1"
     inkscape:groupmode="layer"
     id="layer1">
    <g
       id="layer1-2"
       inkscape:label="Calque 1"
       transform="matrix(0.26458334,0,0,0.26458334,81.412881,45.09834)">
	<g
   id="g852"
   transform="matrix(0.33792566,0,0,0.33801352,-10.79567,-30.258062)">
		<path
   id="path840"
   class="st0"
   d="m 830.5,684.9 c -24.7,0 -48.5,-2 -72,0.6 -37.4,4 -68,-6.5 -96.1,-30.9 -17.6,-15.3 -38,-27.2 -56.7,-41.4 -6.5,-5.1 -11.1,-4.5 -17.3,0.3 -21.8,16.2 -43.9,32.3 -66.6,47.6 -5.7,4 -13.6,6.5 -20.4,6.8 -52.7,0.6 -105.4,0.3 -158.5,0.3 -17.6,0 -23,-5.4 -23,-22.7 0,-19 0,-38.3 0,-57.3 0,-16.2 5.7,-21.8 21.5,-21.8 37.1,0 74.3,-0.3 111.7,0.3 10.2,0 18.4,-2 26.4,-8.5 7.1,-6 14.7,-10.8 23.8,-17.3 -18.4,-11.3 -31.5,-27.8 -56.1,-26.1 -34.9,2.3 -70,0.6 -105.2,0.6 -16.2,0 -21.8,-5.7 -21.8,-21.8 0,-19.8 0,-39.7 0,-59.5 0,-14.7 6,-20.7 20.7,-20.7 54.1,0 108.3,-0.3 162.7,0.3 6,0 12.5,2.6 17.6,6 23.2,16.2 46.5,32.6 69.2,49.3 5.4,4 9.1,4 14.7,0 30.3,-22.1 60.7,-43.9 91.8,-65.5 6,-4 14.2,-6.8 21.3,-6.8 67.2,-0.6 134.6,-0.3 201.8,-0.3 3.7,0 7.7,0 12.8,0 0,-11.1 -1.1,-21.3 0.3,-31.2 0.9,-6.2 4.5,-14.5 9.4,-17 4.8,-2.6 14.2,-1.1 19.3,2.3 38.6,26.6 76.3,53.9 114.2,81.1 13.6,9.6 13.3,21.8 -0.3,31.7 -37.7,26.9 -75.4,54.1 -113.4,80.5 -5.1,3.4 -13.3,4.5 -19.6,3.1 -7.9,-2 -10.2,-9.9 -9.9,-17.9 0.3,-9.9 0,-19.8 0,-30.3 -4,-0.3 -6.8,-0.6 -9.9,-0.6 -54.1,0 -108.3,-0.3 -162.7,0.3 -5.4,0 -11.6,2.3 -16.4,5.4 -17.3,11.6 -34,24.1 -52.2,36.9 19.8,14.2 38.8,27.8 57.8,41.1 1.1,0.9 2.6,1.1 4,1.1 25.5,0 50.7,0 77.4,0 0,-11.1 -1.1,-21.5 0.3,-31.5 0.9,-6.2 4.5,-14.2 9.6,-17 4.5,-2.6 13.6,-1.1 18.1,2 39.1,26.9 77.7,54.7 115.9,82.5 11.9,8.8 12.2,21.3 0,29.8 -38.6,27.8 -77.1,55.6 -115.9,82.5 -4.5,3.1 -13.9,4.5 -18.1,2 -4.8,-2.8 -8.5,-10.8 -9.6,-17 -1.8,-9.8 -0.6,-20.3 -0.6,-31.3 z M 354.8,480.8 c 37.4,0 74.3,-0.6 111.1,0.3 7.9,0.3 17,2.8 23.2,7.4 73.4,51.9 146.6,104.3 220,156.5 4.8,3.4 11.6,5.7 17.3,5.7 38.8,0.6 78,0.3 116.8,0.3 15.3,0 21,6 21.3,21.3 0,4 0,7.9 0,13.6 25.2,-18.1 48.5,-34.6 72.9,-52.2 -24.7,-17.6 -47.9,-34.3 -72.9,-51.9 0,5.1 0,7.9 0,10.8 0,19.6 -5.1,24.4 -24.7,24.4 -28.6,0 -57.5,-0.3 -86.2,0.3 -9.9,0.3 -17.6,-2.8 -25.5,-8.2 -72.9,-52.2 -145.7,-104.3 -218.8,-156.2 -4.8,-3.4 -11.6,-5.4 -17.3,-5.4 -30,-0.6 -60.1,-0.3 -90.4,-0.3 -15.6,0 -30.9,0 -47.1,0 0.3,10.9 0.3,21.4 0.3,33.6 z m 307.3,38.5 c 23.5,-16.7 46.2,-33.2 69.4,-49.3 4.3,-2.8 9.4,-6 14.2,-6 67.7,-0.3 135.2,-0.3 203,-0.3 10.8,0 17,6.8 17.6,17.3 0.3,5.1 0,10.2 0,17.6 25.2,-17.9 48.5,-34.6 72.9,-52.2 -24.7,-17.6 -47.9,-34.3 -72.9,-51.9 0,4.3 0,6 0,7.7 -0.3,23.5 -4,27.2 -26.9,27.2 -70.9,0 -141.7,-0.3 -212.6,0.3 -6.2,0 -13,2.6 -18.1,6 -19.3,13 -38.3,26.9 -57.3,40.5 -7.9,5.7 -15.9,11.6 -24.4,17.9 12.4,9.1 23.5,17 35.1,25.2 z m -93.8,67.2 c -11.3,-7.9 -20.7,-15.3 -30.9,-21.8 -2.3,-1.4 -7.4,-0.9 -9.9,0.9 -13.6,9.1 -26.4,19.3 -40,27.8 -5.7,3.7 -12.8,6.2 -19.6,6.2 -34,0.6 -68,0.3 -101.8,0.3 -3.7,0 -7.4,0 -11.1,0 0,12.2 0,23 0,34 47.9,0 95,0 142,0 2.3,0 5.1,-0.3 7.1,-1.7 20.8,-14.8 41.8,-29.8 64.2,-45.7 z" />

		<path
   id="path842"
   class="st1"
   d="m 184.5,266.8 c 8.2,-7.9 15.6,-15.6 23.8,-23.5 -6.2,-11.1 -13,-22.4 -19.3,-33.7 -7.4,-13 -5.4,-21 7.4,-28.3 37.1,-21.5 74,-42.8 111.1,-64.3 12.8,-7.4 20.7,-5.1 28.3,7.4 5.7,9.4 10.8,19.3 16.7,28.3 1.7,2.6 6.8,4.5 9.9,4 25.5,-5.7 25.5,-6 25.5,-32 0,-33.7 1.1,-34.9 34.3,-34.9 29.8,0 59.5,0.3 89.3,0 48.2,-0.3 47.1,-2.3 46.5,45.9 0,2.6 -0.9,5.4 0.3,7.4 1.4,3.1 3.7,7.4 6.5,8.2 25.2,7.7 25.5,7.7 38.8,-15.6 16.4,-28.1 18.1,-28.6 46.5,-12.2 32.6,18.7 64.9,37.4 97.5,56.4 15.6,9.1 17.3,16.2 8.2,32 -6,10.5 -11.9,21 -19,33.2 6.8,6.2 13.3,12.8 20.7,18.1 2.3,1.7 7.1,1.7 9.9,0.3 10.2,-5.4 20.1,-11.3 31.2,-17.9 5.7,9.6 10.8,18.7 17.3,29.8 -18.4,10.2 -36,20.7 -54.7,29.5 -4,2 -12.5,-1.7 -16.7,-5.7 -13.6,-12.2 -26.4,-25.8 -39.4,-38.8 -7.1,-6.8 -8.2,-14.5 -3.1,-23 6.2,-11.1 12.5,-22.1 18.7,-33.2 -2,-1.4 -2.8,-2.6 -4,-3.1 -27.5,-15.9 -55,-31.7 -83.6,-48.5 -6.2,10.8 -12.2,21 -18.1,31.2 -7.1,11.6 -12.8,13.6 -25.5,9.9 -16.4,-4.5 -32.9,-8.8 -49.3,-13 -11.1,-2.8 -15.6,-7.9 -15.9,-19.3 -0.3,-12.2 0,-24.7 0,-38.3 -17.3,0 -33.7,0 -50.5,0 -16.8,0 -33.2,0 -51.6,0 0,11.9 0,23.2 0,34.9 0,15.6 -3.7,19.6 -19,23.2 -15.9,4 -31.5,8.2 -47.1,12.8 -11.9,3.4 -17.6,1.4 -24.1,-9.1 -6.2,-10.5 -12.5,-21.3 -19,-32.3 -29.5,17 -58.1,33.7 -88.2,51 6.2,10.8 12.5,21.3 18.1,31.5 6.8,11.9 5.4,17.9 -4.3,27.2 -11.9,11.6 -23.8,23.2 -35.1,35.1 -9.1,9.4 -15,10.5 -26.4,4.3 -10.5,-6 -20.7,-11.9 -32,-18.4 -17,29.5 -33.7,58.4 -51,88.2 10.5,6.2 20.7,11.9 31.2,18.1 12.2,7.1 13.9,12.8 9.9,26.4 -4.5,15.6 -8.8,31.5 -12.5,47.1 -3.1,13 -7.9,17 -21.3,17.3 -11.6,0 -23.2,0 -35.7,0 0,34 0,67.5 0,102 11.9,0 23.2,0 34.9,0 14.5,0 18.7,4 22.4,18.7 3.7,15 7.7,30 12.2,45.1 4.3,14.7 2.6,19.8 -11.1,27.8 -9.6,5.7 -19.6,11.3 -29.8,17.6 17,29.5 33.4,58.1 51,88.2 9.6,-5.4 18.7,-10.8 27.8,-15.9 16.7,-9.6 20.7,-8.8 33.7,5.1 10.2,10.8 21,21.3 31.7,31.5 10.5,9.9 11.6,15.6 4.8,28.1 -5.7,10.2 -11.6,20.1 -17.9,31.5 29.5,17 58.4,33.7 88.2,51 6.2,-10.8 11.9,-20.7 17.9,-30.9 7.4,-12.5 12.8,-14.2 26.4,-10.2 15.9,4.5 32,8.8 48.2,12.8 11.6,2.8 16.2,7.9 16.4,19.8 0.3,11.9 0,24.1 0,36.9 33.7,0 67.2,0 102,0 0,-11.6 0,-23.5 0,-35.4 0,-13.3 4.3,-18.1 17.3,-21.3 16.2,-4 32,-8.2 48.2,-12.8 12.5,-3.4 18.1,-1.7 24.9,9.4 6.2,10.2 12.2,20.7 18.7,32 29.5,-17 58.4,-33.7 88.2,-51 -6.2,-11.1 -12.2,-21 -17.9,-31.2 -7.1,-12.8 -6,-18.1 4.3,-28.1 11.6,-11.3 23.2,-23 34.6,-34.6 9.4,-9.9 15.3,-11.1 27.2,-4.3 15.3,8.8 30.6,17.6 46.2,26.6 -5.7,9.9 -11.1,19 -16.7,29.2 -12.8,-7.1 -24.9,-13.9 -39.1,-21.8 -6,6.8 -12.5,13.3 -18.1,20.4 -1.7,2 -2,6.5 -0.9,8.8 5.4,10.5 11.6,20.4 17.3,30.6 6.2,11.3 4,19.6 -7.1,26.1 -38,22.1 -76,44.2 -114,65.8 -11.1,6.2 -19.6,3.7 -26.1,-7.1 -6,-9.6 -11.1,-19.8 -17.3,-29.2 -1.7,-2.6 -6.8,-4.8 -9.6,-4.3 -25.8,5.7 -25.8,5.7 -25.8,32.9 0,32.6 -1.4,34 -34,34 -38,0 -75.7,0 -113.7,0 -16.7,0 -22.4,-5.7 -22.4,-22.4 0,-9.6 0,-19 0,-28.6 0,-1.7 0.6,-4 0,-5.4 -5.7,-10.8 -18.1,-6.2 -26.6,-11.1 -1.7,-0.9 -6.8,1.4 -8.2,3.7 -6.2,9.9 -11.9,20.1 -17.9,30 -6.5,10.8 -15.3,13.3 -26.1,7.1 -38,-21.8 -76,-43.7 -114,-65.8 -11.1,-6.5 -13.3,-14.7 -7.1,-26.1 5.7,-10.2 11.9,-20.1 17,-30.6 1.1,-2.3 0.9,-6.8 -0.6,-8.8 -5.7,-7.1 -12.2,-13.9 -18.4,-20.7 -12.8,7.4 -23.8,13.6 -34.9,19.8 -13.6,7.7 -21.5,5.7 -29.2,-7.4 -21.5,-37.1 -42.8,-74 -64.3,-111.1 -7.1,-12.2 -4.8,-20.4 7.1,-27.5 8.8,-5.4 17.9,-10.5 26.6,-15.6 0.9,-0.6 1.7,-1.1 2.8,-1.7 6.8,-2.8 5.4,-8.2 2.6,-12.2 -4.8,-7.4 2.6,-21.8 -12.5,-23 -11.3,-0.9 -22.7,0 -34,-0.3 -13,-0.3 -19.3,-6.5 -19.6,-19.8 0,-43.7 0,-87 0,-130.7 0,-13 6.5,-19.3 19.8,-19.6 11.1,-0.3 22.1,-0.3 32.9,0 5.4,0.3 7.9,-1.1 9.4,-7.1 C 100,414.1 100.3,414.1 77.9,401 49,384.3 48.7,382.6 65.4,353.7 c 18.7,-32.6 37.4,-64.9 56.4,-97.5 8.8,-15.3 15.9,-17 31.2,-8.2 10.5,6.6 21,12.8 31.5,18.8 z" />

		<path
   id="path844"
   class="st1"
   d="m 651,690.8 c 8.2,7.4 16.2,14.5 24.1,21.5 C 621.3,778.4 511,826 397,792.9 287.6,761.1 207.1,659.9 201.7,546 196,427.5 265.8,320.6 377.2,277.3 c 102.9,-40 229,-9.4 298.8,73.1 -7.9,7.4 -15.9,14.5 -24.4,22.1 -54.1,-56.7 -119.6,-84.2 -197.6,-78 -64.6,5.1 -118.8,33.2 -161,82.5 -82.2,95.8 -75.1,238.1 15.9,326 92.4,89.9 245.2,91.9 342.1,-12.2 z" />

	</g>

</g>
  </g>
  <style
     type="text/css"
     id="style835">
	.st0{fill:#6a7187;}
	.st1{fill:#6a7187;}
</style>
</svg>
