<?xml version="1.0" encoding="utf-8"?>
<!-- Generator: Adobe Illustrator 23.0.2, SVG Export Plug-In . SVG Version: 6.00 Build 0)  -->
<svg version="1.1"
	 id="svg8" inkscape:version="1.0.1 (3bc2e813f5, 2020-09-07)" sodipodi:docname="Forex.svg" xmlns:cc="http://creativecommons.org/ns#" xmlns:dc="http://purl.org/dc/elements/1.1/" xmlns:inkscape="http://www.inkscape.org/namespaces/inkscape" xmlns:rdf="http://www.w3.org/1999/02/22-rdf-syntax-ns#" xmlns:sodipodi="http://sodipodi.sourceforge.net/DTD/sodipodi-0.dtd" xmlns:svg="http://www.w3.org/2000/svg"
	 xmlns="http://www.w3.org/2000/svg" xmlns:xlink="http://www.w3.org/1999/xlink" x="0px" y="0px" viewBox="0 0 429.3 429.2"
	 style="enable-background:new 0 0 429.3 429.2;" xml:space="preserve">
<style type="text/css">
	.st0{fill:#6a7187;}
	.st1{fill:#6a7187;}
</style>
<sodipodi:namedview  bordercolor="#666666" borderopacity="1.0" id="base" inkscape:current-layer="g862" inkscape:cx="540.17455" inkscape:cy="498.47112" inkscape:document-rotation="0" inkscape:document-units="mm" inkscape:lockguides="false" inkscape:pageopacity="0.0" inkscape:pageshadow="2" inkscape:window-height="1017" inkscape:window-maximized="1" inkscape:window-width="1920" inkscape:window-x="-8" inkscape:window-y="-8" inkscape:zoom="0.98994949" pagecolor="#ffffff" showgrid="false">
	</sodipodi:namedview>
<g id="layer1" inkscape:groupmode="layer" inkscape:label="Calque 1">
	<g id="g862" transform="matrix(0.33792566,0,0,0.33783784,9.895613,2.4993554)">
		<path id="path842" class="st0" d="M360.4-7.4c23.5,4.6,47.3,7.9,70.1,14.2c140.9,40,242.8,162.1,258,307.7
			c18.2,175-91,336.1-260.7,383.8c-9.9,2.6-12.9,6.6-12.9,16.5c0.3,100.6,0.3,200.8,0.3,301.4c0,4,0.3,7.9,0.7,13.2
			c13.6,0,26.1,0,39,0c18.9,0,33.1,7.9,41,24.8c7.9,16.9,5.6,33.4-6.6,47.6c-42,49-84.4,97.6-127,145.9
			c-17.9,20.2-45.3,19.8-63.2-0.3c-42.7-48.3-85-97.3-127-146.2c-12.2-14.2-14.2-30.4-6-47.3c7.9-16.5,21.8-24.2,40-24.5
			c12.9,0,25.5,0,39.4,0c0.3-4.6,0.7-8.6,0.7-12.6c0-100.9,0-201.8,0.3-302.7c0-9.6-2.6-12.9-11.9-15.9
			C86.2,651.3-2.5,550.7-25.6,396.5C-53.8,207.3,84.2,25.7,274.1-3.1c8.9-1.3,17.9-3,26.5-4.6C320.7-7.4,340.6-7.4,360.4-7.4
			L360.4-7.4z M648.3,352.5c0-175-142.3-317.3-316.9-317.3C157,34.9,14.1,177.9,13.7,352.5c-0.3,175,142.3,317.9,317.9,317.6
			C506.3,669.8,648.3,527.9,648.3,352.5z M288.6,711.2c0,5,0,9.9,0,14.6c0,106.2,0,212.4,0,318.9c0,20.5-6.9,27.5-27.5,27.5
			c-18.2,0-36.7,0-58.6,0c44,50.6,85.7,98.9,128.4,147.9c43-49.3,84.7-97.3,127-145.9c-2.6-1-3.3-1.7-4-1.7c-16.9,0-33.7,0-50.9,0
			c-23.5,0-29.8-6.3-29.8-30.4c0-105.5,0-210.7,0-316.3c0-5,0-9.6,0-14.2C344.6,711.2,317.4,711.2,288.6,711.2L288.6,711.2z"/>
		<path id="path844" class="st0" d="M883.8-7.4c17.5,3.6,29.4,14.9,40.7,28.1c36.4,42.7,74.1,84.7,110.2,127.7
			c7.3,8.6,13.6,20.5,14.9,31.4c3,24.5-16.5,45-41.4,46c-13.6,0.7-27.1,0-42.7,0c0,4.6,0,8.6,0,12.6c0,101.2,0,202.5,0,303.7
			c0,7.9,1,12.2,10.3,14.6c146.2,40.4,248.1,162.4,263.3,313.6c0.3,2.6,1.3,5.6,2,8.3c0,16.5,0,33.1,0,49.6
			c-5,25.1-7.9,50.6-14.9,75.1c-46.3,165.7-208.4,275.6-379.5,258C679.4,1244.1,547,1117.4,524.5,952
			c-24.2-177.7,86-345.7,259.7-394.7c9.9-3,12.6-6.6,12.6-16.9c-0.3-100.6-0.3-200.8-0.3-301.4c0-4-0.3-7.9-0.7-13.2
			c-13.6,0-26.1,0-39,0c-18.9,0-33.1-7.9-41-24.8c-7.9-17.2-5.3-34.1,7.3-48.6c41-47.6,82-95.3,124.1-141.9
			c7.6-8.6,20.8-11.9,31.4-17.9C880.5-7.4,882.2-7.4,883.8-7.4L883.8-7.4z M880.8,585.4c-175,0-316.9,141.9-316.9,316.9
			s141.9,317.3,316.9,317.6c174.7,0.3,318.6-143.2,317.9-317.9C1198.4,727.4,1056.2,585.4,880.8,585.4L880.8,585.4z M923.5,544.4
			c0-5,0-9.6,0-14.6c0-106.2,0-212.4,0-318.6c0-20.5,6.9-27.5,27.5-27.5c18.5,0,36.7,0,58.6,0c-44-50.6-85.7-98.9-128-147.9
			c-43,49.3-84.7,97.3-128.7,147.9c21.2,0,38.7,0,56.2,0c23.5,0,29.8,6.3,29.8,30.4c0,105.9,0,211.7,0,317.6c0,4.6,0,9.3,0,13.2
			C867.9,544.4,894.7,544.4,923.5,544.4z"/>
		<path id="path854" class="st1" d="M309.5,497.1c0-41.7,0-82.7,0-123.7c-56.9-14.6-105.2-40.7-104.2-107.2
			c1-64.2,48.6-89.7,104.9-103.9c0-13.6-0.3-27.5,0-41c0.3-14.2,8.3-22.5,20.8-22.5c12.2,0,20.8,8.6,21.2,22.5
			c0.3,13.6,0,27.1,0,40.7c12.6,4,24.8,6.6,35.7,11.6c38.7,17.2,65.5,44.3,69.1,89c1.3,15.9-6.6,25.5-19.8,26.1
			c-12.6,0.7-20.8-7.9-22.5-22.8c-3.3-30.1-31.4-56.2-62.9-57.2c0,26.1,0,51.9,0,78.1c0,13.9-4.6,30.8,1.7,41.4
			c5.3,8.9,23.2,10.3,35.1,15.5c44.3,18.9,70.5,55.9,68.5,98.3c-2.3,42-27.1,68.8-62.9,86.7c-12.9,6.3-27.1,9.6-42.3,15.2
			c0,12.6,0.7,26.5,0,40.4c-0.7,17.9-17.2,28.8-30.8,19.5c-5.6-4-8.9-12.9-11.2-20.2c-2-6.6-0.3-13.9-0.3-20.8
			c0-6.6,0-13.2-2.6-16.5c-21.2-10.6-43.7-19.2-63.2-32.1c-24.5-16.2-38-41-40-70.8c-1-15.2,6.3-24.8,18.5-25.8
			c13.6-1.3,21.8,6.9,23.5,22.5C249.3,468.7,274.8,492.8,309.5,497.1L309.5,497.1z M308.8,327.1c0-39.7,0-79.1,0-118.8
			c-35.4,4-63.9,32.4-62.5,61.9C247.6,298.3,278.1,326.1,308.8,327.1L308.8,327.1z M353.2,497.4c36.7-5.3,63.2-32.1,62.2-62.2
			c-1-27.8-30.1-55.2-62.2-57.6C353.2,417.4,353.2,456.8,353.2,497.4L353.2,497.4z"/>
		<path id="path856" class="st1" d="M766.4,965.9c18.9,45.7,50,73.4,95.9,82.4c44,8.3,80.1-8.3,109.2-41.4c2.6-3,5-6.6,7.3-9.9
			c8.3-10.6,20.5-13.2,30.4-6.3c9.9,7.3,11.9,19.2,4,30.8c-24.2,35.4-56.9,58.6-98.9,67.5c-78.4,17.2-161.8-32.1-188.6-111.2
			c-3.3-9.9-7.6-12.9-17.5-12.2c-12.9,0.7-25.5,0.3-38.4,0c-12.6-0.3-20.8-8.6-21.5-19.5c-0.7-11.6,7.6-21.2,20.5-22.2
			c13.9-1,28.1-0.3,43-0.3c0-14.2,0-27.5,0-42.3c-12.9,0-25.5,0-38.4,0c-15.9-0.3-25.1-8.3-25.1-21.2c0-12.6,9.9-20.8,25.5-21.2
			c12.9-0.3,25.8-0.3,38.4,0c6.9,0.3,9.9-2,12.2-8.6c24.5-68.2,73.1-107.2,144.6-117.4c51.9-7.3,120.4,27.1,145.6,72.8
			c6,10.9,3.3,22.8-6.9,29.4c-9.9,6.3-21.2,3.6-29.1-7.3c-17.9-25.5-41.4-42.3-71.5-50c-56.2-14.2-125.1,25.1-139.3,81.1
			c15.9,0,31.4,0,47,0c21.5,0,43-0.3,64.5,0c13.9,0.3,22.5,8.9,22.5,21.2c0,12.6-8.6,20.5-22.8,20.8c-36.4,0.3-72.8,0-109.2,0
			c-4.3,0-8.9,0-14.6,0c0,14.2,0,27.1,0,41.4c5,0.3,9.3,0.7,13.6,0.7c35.4,0,71.1,0,106.5,0c11.2,0,20.8,3,25.1,14.2
			c5.3,14.2-5,27.8-21.5,28.1c-32.1,0.3-64.5,0-96.6,0C777.9,965.9,773.3,965.9,766.4,965.9L766.4,965.9z"/>
	</g>
</g>
</svg>
