<?xml version="1.0" encoding="utf-8"?>
<!-- Generator: Adobe Illustrator 23.0.2, SVG Export Plug-In . SVG Version: 6.00 Build 0)  -->
<svg version="1.1"
	 id="svg8" inkscape:version="1.0.1 (3bc2e813f5, 2020-09-07)" sodipodi:docname="Poches.svg" xmlns:cc="http://creativecommons.org/ns#" xmlns:dc="http://purl.org/dc/elements/1.1/" xmlns:inkscape="http://www.inkscape.org/namespaces/inkscape" xmlns:rdf="http://www.w3.org/1999/02/22-rdf-syntax-ns#" xmlns:sodipodi="http://sodipodi.sourceforge.net/DTD/sodipodi-0.dtd" xmlns:svg="http://www.w3.org/2000/svg"
	 xmlns="http://www.w3.org/2000/svg" xmlns:xlink="http://www.w3.org/1999/xlink" x="0px" y="0px" viewBox="0 0 367.9 366.8"
	 style="enable-background:new 0 0 367.9 366.8;" xml:space="preserve">
<style type="text/css">
	.st0{fill:#6a7187;}
	.st1{fill:#6a7187;}
</style>
<sodipodi:namedview  bordercolor="#666666" borderopacity="1.0" id="base" inkscape:current-layer="g878" inkscape:cx="421.12683" inkscape:cy="458.51144" inkscape:document-rotation="0" inkscape:document-units="mm" inkscape:pageopacity="0.0" inkscape:pageshadow="2" inkscape:window-height="1017" inkscape:window-maximized="1" inkscape:window-width="1920" inkscape:window-x="-8" inkscape:window-y="-8" inkscape:zoom="0.98994949" pagecolor="#ffffff" showgrid="false">
	</sodipodi:namedview>
<g id="layer1" inkscape:groupmode="layer" inkscape:label="Calque 1">
	<g id="g878" transform="matrix(0.33783784,0,0,0.33783784,17.463964,-4.7942416)">
		<path id="path840" class="st0" d="M1037.3,821.2c-1.4,3.4-2.8,7.1-4.5,10.5c-9.6,19.6-24.9,30.6-46.5,31.7
			c-22.1,1.1-39.4-8.2-50.2-27.5c-3.7-6.8-7.7-9.4-14.7-8.5c-0.6,0-1.4,0-2,0c-21-2.8-34.6,2-46.5,23.5c-18.7,34-51.9,49-91,49
			c-85.3,0.3-170.6,0-256.3,0c-4.3,0-8.5,0-13.6,0c-0.3,4-0.9,7.4-0.9,10.8c0,24.4,0.3,48.8-0.3,73.4c0,6.8,1.7,10.5,7.9,13.9
			c22.4,11.9,32.9,37.4,26.4,61.5c-6.2,23.5-27.8,40.3-52.4,40.3c-24.7,0-46.5-16.4-52.7-40c-6.5-24.4,4-49.6,26.4-61.5
			c6.5-3.4,8.2-7.1,8.2-13.9c-0.3-27.5,0-55.3,0-84.2c-5.1,0-9.4,0-13.3,0c-89.9,0-180,0-269.9,0c-59.5,0-97.8-38-97.8-97.5
			c0-15.3,0-30.3,0-47.3c-12.2,0-24.1-0.6-36,0.3c-2.6,0.3-5.4,4.8-7.1,7.7c-11.1,19-32.6,30.6-53.6,27.5
			c-23-3.4-39.1-16.2-46.2-38.6c-8.2-26.4,5.1-54.1,30-65.2c25.5-11.1,55.6-1.7,68.9,22.7c3.7,6.8,7.7,9.9,15.3,9.1
			c8.8-0.9,17.6-0.3,27.5-0.3c0-48.5,0-96.4,0-145.1c-11.6,0-23-0.6-34,0.3c-2.8,0.3-6.2,4.8-8.2,7.9c-11.3,19.3-32,30-53.6,27.2
			c-22.7-2.8-40.3-17.9-46.2-39.4c-7.4-26.4,6.2-54.1,31.5-64.6c24.9-10.2,54.1-1.1,67.2,22.7c4.3,7.9,9.1,10.2,17.3,9.6
			c8.5-0.6,17,0,26.4,0c0-48.5,0-96.1,0-145.1c-11.3,0-23-0.6-34.6,0.3c-2.8,0.3-6,5.1-7.9,8.2c-11.6,19.6-32.9,30-55.8,26.9
			c-21.5-2.8-39.1-19.6-44.5-41.7c-5.1-21,3.1-43.4,21.3-56.1c26.6-19.3,63.5-11.1,79.4,18.1c3.1,6,6.5,8.2,13,7.7
			c9.4-0.6,19-0.3,30.3-0.3c0-4.3,0-7.9,0-11.6c0-25.2,0-50.2,0-75.4c0.3-35.1,23-57.5,58.1-57.5c69.7,0,139.5,0.3,209.5,0
			c19.6,0,36.9,5.7,51.9,18.1c17.3,14.2,34.9,28.1,52.2,42c2.6,2.3,5.4,4.3,9.4,7.1c0.3-3.7,0.9-6,0.9-8.2
			c-0.3-47.9-0.6-95.5-0.9-143.4c0-5.7-0.9-9.6-6.8-12.5c-20.1-10.5-30.3-27.8-29.2-50.2c1.1-23.8,13.9-40.3,36-49.3
			c2-0.9,3.7-2,5.4-2.8c8.5,0,17,0,25.5,0c1.7,0.9,3.4,2,5.4,2.8c22.1,9.1,34.9,25.2,36,49.3c0.9,22.4-9.1,39.7-29.2,50.2
			c-6,3.1-6.8,7.1-6.5,12.8c0.3,49.6,0.6,99.2,0.9,148.8c0,2.6,0.6,5.4,0.9,8.5c3.7,0,6.2,0,9.1,0c56.4,0,112.5,0,168.9,0
			c31.7,0,54.1,21.8,55.8,53.6c0.3,6,0,11.9,0,19c4.8,0,8.2,0,11.6,0c20.4,0,41.1-0.3,61.5,0c33.2,0.6,61.2,22.4,69.4,53.9
			c1.4,5.7,2.3,11.6,3.4,18.4c9.6,0,19.3-0.3,28.6,0c6.8,0.3,10.5-1.7,13.9-7.9c10.5-19.3,27.8-29.2,49.9-28.1
			c22.4,1.1,38.6,12.8,47.6,33.4c1.1,2.8,2.6,5.7,4,8.5c0,7.9,0,15.6,0,23.5c-0.3,0.3-0.6,0.6-0.9,0.9
			c-7.1,23.2-21.8,38.8-46.8,41.7c-25.8,2.8-44.5-8.2-56.4-31.2c-1.1-2-4-4.3-6.2-4.3c-11.3-0.6-22.4-0.3-34.3-0.3
			c0,48.8,0,96.7,0,145.4c9.9,0,19.6-0.6,28.9,0.3c7.1,0.6,10.2-2.3,13.9-8.2c11.3-20.1,28.9-29.5,52.2-27.8
			c22.7,2,37.7,14.5,46.5,35.1c1.1,2.6,2,5.1,3.1,7.7c0,7.9,0,15.6,0,23.5c-0.6,0.6-1.4,0.9-1.4,1.4c-7.7,24.1-24.1,38.6-49,40.3
			c-24.1,1.7-42-9.9-53.3-31.5c-1.1-2-4-4-6.2-4.3c-11.3-0.3-22.4-0.3-34-0.3c0,49,0,96.7,0,144.9c10.8,0,20.7-0.3,30.6,0.3
			c6,0.3,8.5-2,11.3-7.1c15.6-28.9,50.2-38,77.4-21c13,8.2,19.6,20.7,24.9,34.3C1037.3,805.6,1037.3,813.6,1037.3,821.2
			L1037.3,821.2z M257.4,863.5c4.5,0.3,7.4,0.6,10.2,0.6c171.2,0,342.1,0,513.4,0c4.8,0,9.9-0.3,14.7-1.1
			c37.1-7.1,60.4-36,60.4-76.3c0-116.5,0-233,0-349.5c0-31.7-13.3-44.8-45.4-44.8c-163.3,0-326.6,0-489.8,0
			c-32.3,0-45.1,12.8-45.1,44.8c0,114,0,228.2,0,342.1C275.6,808.2,277.6,837.4,257.4,863.5L257.4,863.5z M709.9,355.8
			c2.6-26.1,0.6-37.1-30.9-36.6c-60.9,0.9-121.9,0.3-182.8,0.3c-18.4,0-34.6-5.7-49-17c-18.1-14.7-36.6-28.9-54.7-43.9
			c-9.6-7.9-20.4-11.6-33.2-11.6c-67.2,0.3-134.6,0-201.8,0.3c-22.4,0-27.2,4.8-27.2,27.5c0,175.7,0,351.5,0,527.2
			c0,5.7,0.3,11.3,1.1,17c5.7,34,41.1,54.1,73.4,41.1c22.7-9.1,34.6-28.3,34.6-56.7c0-121.9,0-243.8,0-365.7
			c0-8.8,0.3-17.9,2.3-26.4c8.2-34,36.9-55.3,73.7-55.3c127.3,0,254.3,0,381.5,0C700.8,355.8,705,355.8,709.9,355.8L709.9,355.8z
			 M3.2,392c10.2,0,18.1-7.9,18.1-17.9c0-9.9-8.5-18.4-18.4-18.1c-9.4,0.3-17.6,8.2-17.9,17.6C-15,383.5-7,392,3.2,392L3.2,392z
			 M3.7,573.5c10.2-0.3,17.9-8.5,17.6-18.7c-0.3-10.2-8.8-17.9-18.7-17.3C-7,538-14.7,546-14.7,555.6
			C-14.7,565.5-6.5,573.7,3.7,573.5L3.7,573.5z M1001,627.9c-0.3-10.2-8.5-17.9-18.7-17.6c-10.2,0.3-17.9,8.5-17.3,18.7
			c0.3,9.4,8.5,17.3,18.1,17.3S1001.3,637.5,1001,627.9L1001,627.9z M2.9,755.2c9.9,0,18.1-8.2,18.1-18.1c0-9.6-7.4-17.6-17.3-17.9
			c-10.2-0.3-18.7,7.4-19,17.3C-15,746.4-6.7,755.2,2.9,755.2L2.9,755.2z M493.3,1063.6c9.9-0.3,17.9-8.5,17.9-18.7
			c-0.3-10.2-8.5-17.9-18.7-17.6c-9.6,0.3-17.3,8.2-17.3,17.9C475.1,1055.4,483.4,1063.6,493.3,1063.6L493.3,1063.6z M492.7,83.6
			c10.2,0.3,18.1-7.7,18.1-17.9c0-9.6-7.4-17.6-17-18.1c-9.9-0.6-18.4,7.4-18.7,17.6C474.9,75.1,482.8,83.6,492.7,83.6z M1001,446.8
			c0-9.9-8.5-18.4-18.1-18.4c-9.9,0-17.9,8.5-17.9,18.7c0.3,9.9,7.7,17.3,17.6,17.6C992.7,464.6,1001,457,1001,446.8L1001,446.8z
			 M1001,809.3c0-9.9-8.5-18.1-18.4-17.9c-9.6,0.3-17.3,7.9-17.6,17.6c-0.3,10.2,7.9,18.4,17.9,18.4
			C992.7,827.7,1001.3,819.2,1001,809.3L1001,809.3z"/>
		<path id="path868" class="st1" d="M692.8,791.2c12.5,0,23.8,0,36.3,0c0-4.5,0-8.8,0-12.8c0-101.8,0-203.2,0-305
			c0-3.4-0.3-7.1,0.3-10.5c1.1-9.1,8.5-15.3,17.3-15.6c9.1-0.3,16.7,5.7,18.1,14.7c0.6,3.7,0.3,7.7,0.3,11.6
			c0,101.2,0,202.7,0,303.9c0,4.3,0,8.5,0,14.2c6.5,0,12.2-0.3,18.1,0c10.5,0.6,17.6,7.7,17.9,17.3c0.3,9.9-7.1,17.9-17.6,18.7
			c-2.8,0.3-5.7,0-8.5,0c-139.5,0-279.2,0-418.7,0c-17.3,0-26.1-5.7-26.6-17.6c-0.6-12.2,8.5-18.4,26.4-18.7c2.8,0,5.7,0,9.6,0
			c0-18.1,0-35.4,0-52.4c0-11.6-0.3-23.5,0-35.1c0.3-13.6,7.4-21.3,18.7-21c11.1,0.3,17.3,7.7,17.6,20.7c0.3,28.6,0,57.3,0,86.7
			c12.2,0,23.5,0,36.3,0c0-19,0-38,0-57c0-4.5-0.3-9.4,0-13.9c0.9-11.6,8.5-19.3,18.7-19c9.9,0.3,17,7.7,17.3,19
			c0.3,19.8,0.3,39.7,0.3,59.5c0,3.7,0,7.7,0,11.6c12.8,0,23.8,0,36.3,0c0-12.5,0-24.4,0-36.3c0-17-0.3-34,0-51
			c0.3-13.3,6.8-20.7,17.6-20.7c11.3-0.3,18.4,7.4,18.7,21c0.3,24.7,0,49.6,0,74.3c0,4,0,7.7,0,12.5c12.2,0,23.5,0,36.3,0
			c0-4.5,0-8.5,0-12.8c0-43.7,0-87,0-130.7c0-11.3,7.4-18.7,17.3-19c9.6-0.3,17.6,7.1,18.7,17.9c0.3,3.1,0.3,6.2,0.3,9.6
			c0,39.4,0,78.5,0,117.9c0,5.7,0,11.1,0,17.3c12.2,0,23.5,0,36.3,0c0-4.3,0-8.2,0-12.5c0-89.6,0-179.1,0-269
			c0-3.4-0.3-7.1,0.3-10.5c1.1-8.8,6.2-14.2,15-15.6c9.1-1.4,16.2,2.6,19.3,11.3c1.4,4.3,1.7,9.1,1.7,13.6c0,89.6,0,179.1,0,269
			C692.8,781.5,692.8,785.8,692.8,791.2z"/>
		<path id="path870" class="st1" d="M474.9,664.2c-60.7-0.3-109.4-49.6-108.9-109.7c0.6-59.2,49.6-107.7,109.1-107.4
			c60.1,0.3,108.9,48.8,108.9,108.9C583.7,615.7,534.7,664.5,474.9,664.2z M413.6,591.6c13.9-13.9,27.5-27.5,41.1-41.4
			c1.1-1.1,2.3-3.1,2.3-4.5c0.3-19.6,0-39.1,0-59C412.2,495.5,386.7,552.5,413.6,591.6z M438.9,617.7c45.9,27.5,98.9-5.1,104.9-43.7
			c-19.6,0-38.8,0-58.4,0c-2,0-4.3,1.1-5.4,2.6C466.4,589.9,452.7,603.5,438.9,617.7z M543.7,536.6c-4.3-23.5-26.4-45.6-49.9-49.9
			c0,16.4,0,32.9,0,49.9C510.6,536.6,527,536.6,543.7,536.6z"/>
	</g>
</g>
</svg>
