<?xml version="1.0" encoding="utf-8"?>
<!-- Generator: Adobe Illustrator 23.0.2, SVG Export Plug-In . SVG Version: 6.00 Build 0)  -->
<svg version="1.1"
	 id="svg8" inkscape:version="1.0.1 (3bc2e813f5, 2020-09-07)" sodipodi:docname="Support en ligne.svg" xmlns:cc="http://creativecommons.org/ns#" xmlns:dc="http://purl.org/dc/elements/1.1/" xmlns:inkscape="http://www.inkscape.org/namespaces/inkscape" xmlns:rdf="http://www.w3.org/1999/02/22-rdf-syntax-ns#" xmlns:sodipodi="http://sodipodi.sourceforge.net/DTD/sodipodi-0.dtd" xmlns:svg="http://www.w3.org/2000/svg"
	 xmlns="http://www.w3.org/2000/svg" xmlns:xlink="http://www.w3.org/1999/xlink" x="0px" y="0px" viewBox="0 0 341.7 341.6"
	 style="enable-background:new 0 0 341.7 341.6;" xml:space="preserve">
<style type="text/css">
	.st0{fill:#6a7187;}
	.st1{fill:#6a7187;}
</style>
<sodipodi:namedview  bordercolor="#666666" borderopacity="1.0" id="base" inkscape:current-layer="g870" inkscape:cx="315.39105" inkscape:cy="397.70599" inkscape:document-rotation="0" inkscape:document-units="mm" inkscape:pageopacity="0.0" inkscape:pageshadow="2" inkscape:window-height="1017" inkscape:window-maximized="1" inkscape:window-width="1920" inkscape:window-x="-8" inkscape:window-y="-8" inkscape:zoom="1.4" pagecolor="#ffffff" showgrid="false">
	</sodipodi:namedview>
<g id="layer1" inkscape:groupmode="layer" inkscape:label="Calque 1">
	<g id="g860" transform="matrix(0.35211268,0,0,0.35211268,-16.623995,-1.3690492)">
		<g id="g950" transform="matrix(0.95970886,0,0,0.95970886,34.069661,-118.61765)">
			<g id="g870" transform="translate(42.963649,35.081857)">
				<path id="path840" class="st0" d="M86.7,489.1c0.6-118.2,42.5-218.8,131-298.2c72.9-65.5,159.3-98.4,256.8-98.4
					c108.9-0.3,202.7,39.1,279.2,116.8c76,77.7,111.7,172.1,111.7,281.5c9.6,0,18.4-0.3,27.2,0c13.3,0.3,18.1,4.8,17.9,18.1
					c-0.3,8.8,2.8,12.5,10.8,14.7c15.6,4.8,30.6,11.1,46.2,16.2c10.2,3.4,14.7,9.6,14.7,20.4c-0.3,81.9-0.3,163.6,0,245.5
					c0,10.2-4,16.4-13.9,19.8c-16.4,5.4-32.6,11.6-49,17c-5.7,2-8.5,4.5-8.5,11.1c0,17.9-3.7,21-21.3,21c-15.6,0-31.2,0-47.9,0
					c-0.3,4.5-0.6,8.2-0.6,11.9c-0.3,28.1,0.6,56.1-0.6,83.9c-2.3,49.9-42.2,91.3-92.1,92.7c-60.1,1.7-120.5,0.9-180.6,0.6
					c-8.8,0-13.3,2.3-17.6,10.8c-9.4,19-26.4,28.1-47.6,28.6c-17.3,0.6-34.9,0.6-52.2,0c-30.9-0.9-54.4-24.7-54.1-54.1
					c0.3-30,24.4-53.3,55.8-53.6c16.2-0.3,32.6-0.3,48.8,0c23.5,0.3,40.8,10.5,50.7,32c2.6,5.4,5.7,7.1,11.3,7.1
					c58.7-0.3,117.6,0.3,176.3-0.3c42-0.3,70.9-29.2,71.7-70.9c0.6-28.9,0-58.1,0-88.2c-5.7-0.3-10.5-0.6-15.3-0.9
					c-29.5-1.7-51.6-23-54.1-52.7c-0.3-4.5-0.6-9.1-0.6-13.9c0-83.6,0.3-167.2-0.3-250.9c-0.3-30.9,10.8-53.6,41.1-64.6
					c2.6-0.9,4.5-6.5,4.5-9.9c-0.3-58.7-15.3-113.4-46.5-163.3c-67.5-108.6-193-164.4-317.8-142.3
					c-124.2,22.1-222.8,116.8-249.2,240.4c-4.5,21.5-4.8,44.2-7.1,66.3c-0.6,5.4,1.4,7.9,6.8,9.9c24.9,9.4,38.6,27.8,38.8,54.1
					c0.6,89.6,0.6,179.1,0,269c-0.3,34-24.1,57.3-57.8,57.8c-31.2,0.6-62.4,0.3-93.5,0c-13.3,0-18.4-4.8-17.9-18.1
					c0.3-8.5-2.6-12.5-10.8-15c-15.6-4.8-30.6-11.1-45.9-16.2c-10.5-3.4-14.7-9.4-14.7-20.1c0.3-81.9,0.3-163.6,0-245.5
					c0-10.2,3.7-16.4,13.9-19.8c16.4-5.4,32.6-11.6,49-17c6.2-2,8.8-5.4,8.8-12.2c-0.3-16.4,4-19.8,20.1-20.1
					c7.4,0,14.7-0.3,22.4-0.3C84.7,490.3,85.3,489.7,86.7,489.1L86.7,489.1z M71.9,844.9c27.5,0,53.6,0.3,79.7,0
					c19.3-0.3,29.8-10.5,30-29.5c0.3-88.4,0.3-176.9,0-265.3c0-19-11.1-29.2-30-29.5c-24.1-0.3-48.2,0-72.3,0
					c-2.3,0-4.5,0.6-7.4,1.1C71.9,629.2,71.9,736.3,71.9,844.9z M880.1,521.7c-1.7-0.6-2.3-1.1-3.1-1.1c-23.8,0-47.3-0.3-71.1-0.3
					c-26.6,0-35.7,9.1-35.7,35.7c0,63.8,0,127.6,0,191.1c0,22.7-0.3,45.4,0,68c0.3,19.3,10.8,29.2,30,29.5c13,0.3,26.1,0,39.4,0
					c13.3,0,26.6,0,40.3,0C880.1,736.3,880.1,629.2,880.1,521.7z M835.9,490c-1.7-130.1-51.6-235.6-160.4-306.7
					c-126.4-82.8-259.7-85-388.6-6.5c-115.1,70.3-168.1,178.3-170.6,312.9c7.4,0,13.3,0,19.6,0c-0.3-45.1,6.5-88.2,22.4-129.5
					c16.2-42,39.4-79.1,70-111.7c30.3-32.3,65.8-57.8,106.3-76.5c40.8-18.7,83.6-29.2,128.1-30.6c80.8-2.8,154.2,19.6,218.3,68.9
					c91.3,70.3,134.6,165,135.8,279.8C823.1,490,828.5,490,835.9,490L835.9,490z M911,813.7c13-4.5,24.7-7.9,35.7-12.8
					c2.6-1.1,4.8-5.7,4.8-8.8c0.3-73.1,0.3-146.6,0-219.7c0-2.6-1.1-6.5-2.6-7.1c-12.2-4.8-24.9-9.1-38-13.6
					C911,639.9,911,725.8,911,813.7L911,813.7z M40.5,813.7c0-88.2,0-174.3,0-261.9c-14.2,5.1-27.2,9.6-40.3,14.5
					c0,78,0,155.3,0,233.3C13.5,804.1,26.3,808.6,40.5,813.7z M475.6,1073.6c8.8,0,17.9,0.3,26.6,0c14.5-0.9,24.7-11.3,24.4-24.4
					c-0.3-13-10.8-23.2-25.2-23.5c-17-0.3-34-0.3-51,0c-14.5,0.3-24.7,10.8-24.9,23.8c0,13,10.2,23.5,24.7,24.1
					C458.6,1073.9,467.1,1073.6,475.6,1073.6L475.6,1073.6z"/>
				<path id="path842" class="st0" d="M476.4,464.8c112.8,0.6,208.9,89.6,216.3,201c7.7,116.5-73.7,217.1-187.7,232.2
					c-46.8,6.2-91-2-132.4-24.4c-6.2-3.4-11.3-3.7-17.9-1.1c-23.2,8.5-46.5,16.7-70,24.9c-7.7,2.6-15,5.1-21.8-1.7
					c-6.2-6.5-4-13.6-1.4-21c8.5-24.1,17.3-47.9,25.2-72c1.4-4.3,1.1-10.5-1.1-14.7C214.8,655.2,291,496.2,438.4,469
					C450.9,466.5,463.7,465.9,476.4,464.8L476.4,464.8z M298.1,860.8c20.1-7.1,38-12.8,55.3-19.6c9.9-4,17.9-3.1,26.9,2.3
					c38,23,79.4,30.9,123.3,24.4c99.2-14.2,171.5-107.7,159-206.1C649.3,557.7,557.5,484,456,495.9c-136.9,15.9-210.6,165-140,283.7
					c4.8,8.2,5.7,15.3,2.3,24.1C311.5,821.6,305.5,839.8,298.1,860.8L298.1,860.8z"/>
				<path id="path858" class="st1" d="M630.6,682.2c0.3,23.8-19.3,43.9-43.4,44.8c-23.5,0.6-44.2-19.3-44.8-43.1
					c-0.6-24.1,19.6-45.1,43.9-45.1C610.2,638.2,630.4,658.4,630.6,682.2L630.6,682.2z M587,668.3c-7.4-0.3-14.5,6.2-14.7,13.6
					c-0.3,7.4,6,14.5,13.3,15c7.9,0.6,15-6.2,15.3-14.2C601.2,675.4,594.4,668.6,587,668.3L587,668.3z"/>
				<path id="path860" class="st1" d="M409.5,682.7c-0.3,24.1-20.1,43.9-44.2,43.9c-24.1,0.3-44.8-20.7-44.2-44.8
					c0.6-24.1,20.7-43.7,44.5-43.7C389.7,638.5,409.8,659.2,409.5,682.7L409.5,682.7z M365.9,697.2c7.4-0.3,14.2-7.1,14.2-14.5
					c0-7.4-6.8-14.2-14.2-14.2c-7.9,0-14.7,6.8-14.5,15C351.4,690.7,358.5,697.2,365.9,697.2L365.9,697.2z"/>
				<path id="path862" class="st1" d="M520.1,682.7c0,23.8-20.1,44.2-43.9,44.2s-43.9-19.8-44.5-43.7c-0.3-24.1,20.4-45.1,44.5-44.8
					C500.2,638.8,520.1,658.6,520.1,682.7L520.1,682.7z M490.3,683c0-7.7-6.2-14.2-13.9-14.5c-7.9-0.3-15,6.8-14.7,14.7
					c0.3,7.4,6.8,14.2,14.5,13.9C483.5,696.9,490.3,690.4,490.3,683z"/>
			</g>
		</g>
	</g>
</g>
</svg>
