<?xml version="1.0" encoding="utf-8"?>
<!-- Generator: Adobe Illustrator 18.1.1, SVG Export Plug-In . SVG Version: 6.00 Build 0)  -->
<svg version="1.1"
	 id="svg8" xmlns:dc="http://purl.org/dc/elements/1.1/" xmlns:cc="http://creativecommons.org/ns#" xmlns:rdf="http://www.w3.org/1999/02/22-rdf-syntax-ns#" xmlns:svg="http://www.w3.org/2000/svg" xmlns:sodipodi="http://sodipodi.sourceforge.net/DTD/sodipodi-0.dtd" xmlns:inkscape="http://www.inkscape.org/namespaces/inkscape" sodipodi:docname="DEP.svg" inkscape:version="1.0.1 (3bc2e813f5, 2020-09-07)"
	 xmlns="http://www.w3.org/2000/svg" xmlns:xlink="http://www.w3.org/1999/xlink" x="0px" y="0px" viewBox="279.8 244.8 60.6 60.6"
	 enable-background="new 279.8 244.8 60.6 60.6" xml:space="preserve">
<sodipodi:namedview  id="base" inkscape:cy="560" inkscape:cx="400" inkscape:zoom="0.35" borderopacity="1.0" showgrid="false" bordercolor="#666666" pagecolor="#ffffff" inkscape:window-y="0" inkscape:window-x="156" inkscape:window-height="1032" inkscape:window-width="1438" inkscape:current-layer="layer1" inkscape:document-units="mm" inkscape:pageshadow="2" inkscape:pageopacity="0.0" inkscape:window-maximized="0" inkscape:document-rotation="0">
	</sodipodi:namedview>
<g id="layer1" inkscape:label="Calque 1" inkscape:groupmode="layer">
	<g id="Calque_1-2" transform="matrix(0.26458333,0,0,0.26458333,101.18914,95.136229)">
		<path id="path837" fill="#797979" d="M806.7,794.8h-33.8c-6,0-10.8-4.8-10.8-10.8v-13.5c-5.7-1.8-11.3-4.1-16.6-7l-9.6,9.6
			c-4.2,4.2-11,4.2-15.3,0l-23.9-23.9c-4.2-4.2-4.2-11,0-15.3l9.6-9.7c-2.8-5.3-5.1-10.8-6.8-16.5H686c-6,0-10.8-4.8-10.8-10.8
			v-33.8c0-5.9,4.8-10.8,10.8-10.8h13.6c1.7-5.7,4-11.3,6.8-16.6l-9.6-9.6c-4.2-4.2-4.2-11,0-15.3l23.9-23.9c4.2-4.2,11-4.2,15.2,0
			l9.8,9.6c5.3-2.8,10.8-5.1,16.6-7v-13.4c0-5.9,4.8-10.8,10.8-10.8h33.8c6,0,10.8,4.8,10.8,10.8V590c5.7,1.7,11.2,4,16.5,6.8
			l9.6-9.6c2-2,4.7-3.2,7.6-3.1l0,0c2.9,0,5.6,1.1,7.6,3.1l23.9,23.9c4.2,4.2,4.2,11,0,15.3l-9.6,9.6c2.8,5.3,5.1,10.8,6.9,16.6
			h13.6c5.9,0,10.8,4.8,10.8,10.8v33.8c0,6-4.8,10.8-10.8,10.8h-13.6c-1.7,5.7-4,11.2-6.8,16.5l9.6,9.6c4.2,4.2,4.2,11,0,15.2
			l-23.9,24c-2,2-4.7,3.1-7.6,3.1l0,0c-2.9,0-5.6-1.1-7.6-3.2l-9.8-9.6c-5.3,2.8-10.8,5.1-16.6,6.9V784
			C817.4,789.9,812.6,794.8,806.7,794.8z M744.5,755.5l2.1,1.2c6.2,3.5,12.7,6.3,19.6,8.2l2.4,0.6V784c0,2.4,1.9,4.4,4.4,4.4h33.8
			c2.4,0,4.4-2,4.4-4.4v-18.4l2.3-0.7c6.8-1.9,13.4-4.6,19.6-8.1l2-1.1l0,0h0.2l2.6,2.6l0,0l10.3,10.4c0.8,0.8,1.9,1.3,3.1,1.3l0,0
			c1.2,0,2.3-0.5,3.1-1.3l23.9-23.9c1.7-1.7,1.7-4.5,0-6.2l-13-13l1.2-2.1c3.5-6.2,6.2-12.8,8.2-19.6l0.5-2v-1.7l1.8-0.9l1.1,2.2
			h15.6c2.4,0,4.3-2,4.4-4.4v-33.8c0-2.4-2-4.3-4.4-4.4h-18.4l-0.7-2.4c-1.9-6.8-4.6-13.4-8.1-19.6l-1.3-2.1l13.1-13.1
			c1.7-1.7,1.7-4.5,0-6.2l-23.8-23.9c-0.8-0.8-1.9-1.3-3.1-1.3l0,0c-1.2,0-2.3,0.4-3.2,1.3L835,604.8l-2.1-1.2
			c-6.2-3.5-12.8-6.3-19.6-8.1l-2-0.6h-0.6l-0.8-0.5l1-1.7v-16.4c0-2.4-2-4.4-4.4-4.4h-33.7c-2.4,0-4.4,2-4.4,4.4c0,0,0,0,0,0v16.5
			l0.7,1.7l0,0l-0.7-1.7v1.9l-2.4,0.7c-6.8,2-13.4,4.7-19.6,8.2l-2.1,1.2l-13-13.1c-1.7-1.7-4.5-1.7-6.2,0l-23.9,23.9
			c-1.7,1.7-1.7,4.5,0,6.2l13,13.1l-1.2,2.1c-3.5,6.2-6.2,12.8-8.1,19.6l-0.7,2.4H686c-2.4,0-4.4,2-4.4,4.4l0,0v33.8
			c0,2.4,2,4.4,4.4,4.4c0,0,0,0,0,0h18.5l0.7,2.4c1.9,6.9,4.6,13.4,8.1,19.6l1.2,2.1l-13,13c-1.7,1.7-1.7,4.5,0,6.2l23.9,23.9
			c1.7,1.7,4.5,1.7,6.2,0L744.5,755.5z"/>
		<path id="path839" fill="#797979" d="M829,715.5h-78.5c-2.2,0.2-3.8,2.1-3.6,4.3c0.2,1.9,1.7,3.4,3.6,3.6H829
			c2.2,0.2,4.1-1.4,4.3-3.6c0.2-2.2-1.4-4.1-3.6-4.3C829.5,715.5,829.3,715.5,829,715.5z"/>
		<path id="path841" fill="#797979" d="M755.4,705.3c-2.2,0.2-3.8,2.1-3.6,4.3c0.2,1.9,1.7,3.4,3.6,3.6h68.7
			c2.2,0.2,4.1-1.4,4.3-3.6c0.2-2.2-1.4-4.1-3.6-4.3c-0.2,0-0.4,0-0.7,0h-1V670h1c1.1-0.1,1.9-1.1,1.7-2.2c-0.1-0.9-0.8-1.6-1.7-1.7
			h-68.7c-1.1,0.1-1.9,1.1-1.7,2.2c0.1,0.9,0.8,1.6,1.7,1.7h1v35.3H755.4z M815.3,670v35.3h-11.8V670H815.3z M795.7,670v35.3h-11.8
			V670H795.7z M764.3,670H776v35.3h-11.8V670z"/>
		<path id="path843" fill="#797979" d="M750.5,662.6h78.5c2.2,0,3.9-1.8,3.9-4c0-1.7-1.1-3.1-2.6-3.7l-38.9-17.5
			c-1-0.5-2.2-0.5-3.2,0L748.9,655c-2,0.9-2.8,3.3-1.9,5.2C747.6,661.7,749,662.5,750.5,662.6z"/>
	</g>
</g>
</svg>
