<?xml version="1.0" encoding="UTF-8"?> <svg xmlns="http://www.w3.org/2000/svg" viewBox="0 0 113.06 84.08"><defs><style>.cls-1{fill:#1f3057;}.cls-2{fill:#1ba1db;}</style></defs><g id="Calque_2" data-name="Calque 2"><g id="Calque_1-2" data-name="Calque 1"><path class="cls-1" d="M40.58,13a1.27,1.27,0,1,0-1.22-2.23,35.45,35.45,0,0,0-7.12,5.17L26.17,9.88a6.31,6.31,0,0,0,1.06-3.51,6.37,6.37,0,1,0-6.37,6.37,6.31,6.31,0,0,0,3.51-1.06l6.06,6.06a35.68,35.68,0,0,0-9.52,23h-8.3a6.37,6.37,0,0,0-6.24-5.09,6.37,6.37,0,1,0,4.5,10.87,6.22,6.22,0,0,0,1.74-3.23h8.3a35.64,35.64,0,0,0,9.52,23l-6,6a6.31,6.31,0,0,0-3.51-1.06,6.37,6.37,0,1,0,6.37,6.37,6.29,6.29,0,0,0-1.06-3.51l6-6a35.32,35.32,0,0,0,7.11,5.18,1.38,1.38,0,0,0,.62.15,1.27,1.27,0,0,0,.61-2.39,33.13,33.13,0,0,1,0-58.07ZM20.93,81.46a3.82,3.82,0,1,1,3.82-3.82A3.83,3.83,0,0,1,20.93,81.46ZM9.07,44.74a3.92,3.92,0,0,1-5.4,0,3.81,3.81,0,0,1,0-5.4,3.81,3.81,0,0,1,5.4,0,3.81,3.81,0,0,1,0,5.4ZM17,6.37a3.82,3.82,0,1,1,3.82,3.82A3.82,3.82,0,0,1,17,6.37Z"></path><path class="cls-1" d="M111.2,37.6a6.37,6.37,0,0,0-10.75,3.23H92.16a35.69,35.69,0,0,0-9.53-23l6.06-6.06a6.31,6.31,0,0,0,3.51,1.06A6.38,6.38,0,1,0,86.89,10L80.82,16a35.67,35.67,0,0,0-7.11-5.17,1.27,1.27,0,1,0-1.23,2.23,33.13,33.13,0,0,1,0,58.07,1.27,1.27,0,0,0-.5,1.73,1.24,1.24,0,0,0,1.11.66,1.38,1.38,0,0,0,.62-.15,35.71,35.71,0,0,0,7.11-5.18l6,6a6.29,6.29,0,0,0-1.06,3.51,6.37,6.37,0,1,0,6.37-6.37,6.31,6.31,0,0,0-3.51,1.06l-6-6a35.65,35.65,0,0,0,9.53-23h8.29a6.22,6.22,0,0,0,1.74,3.23,6.37,6.37,0,0,0,9-9Zm-19-35a3.82,3.82,0,1,1-3.82,3.82A3.82,3.82,0,0,1,92.2,2.62ZM96,77.71a3.82,3.82,0,1,1-3.82-3.82A3.83,3.83,0,0,1,96,77.71Zm13.44-32.9a3.82,3.82,0,1,1-5.4-5.4,3.82,3.82,0,1,1,5.4,5.4Z"></path><path class="cls-2" d="M82.15,29.37a1.27,1.27,0,0,0-1.27-1.27H33.2a1.28,1.28,0,1,0,0,2.55H59l7.75,7.75a2,2,0,0,1-2.89,2.88l-6.18-6.19a1.28,1.28,0,0,0-.9-.37H52.35a1.23,1.23,0,0,0-1,.46l-.09,0L39.41,47.08a4.46,4.46,0,0,0-1.16,2h-4a1.27,1.27,0,0,0,0,2.54h4a4.48,4.48,0,0,0,1.13,2,4.59,4.59,0,0,0,6.48,0l.81-.81a4.39,4.39,0,0,0,1.08,1.77A4.63,4.63,0,0,0,51,56.05h.1a3.77,3.77,0,0,0,2-.65,4.5,4.5,0,0,0,1.12,1.9,4.56,4.56,0,0,0,3.21,1.34h.12a4.3,4.3,0,0,0,2.55-.91,4.46,4.46,0,0,0,1.11,1.88,4.6,4.6,0,0,0,3.21,1.34h.12a4.24,4.24,0,0,0,3-1.36l8.48-8H80.1a1.27,1.27,0,1,0,0-2.54H75.53a1.29,1.29,0,0,0-.87.34l-8.92,8.37a1.76,1.76,0,0,1-1.28.59A1.94,1.94,0,0,1,63,57.79a2.05,2.05,0,0,1-.59-1.44A2,2,0,0,1,63,54.92l1.5-1.44a1.28,1.28,0,0,0,0-1.8s0,0,0,0l0,0a1.27,1.27,0,0,0-1.8,0l-3.89,3.89a1.78,1.78,0,0,1-1.28.59A2.15,2.15,0,0,1,56,55.49a2.06,2.06,0,0,1-.6-1.44,2,2,0,0,1,.51-1.33l1.55-1.55,2.45-2.42a1.28,1.28,0,0,0,0-1.8h0v0a1.27,1.27,0,0,0-1.8,0l-2.32,2.32L54.21,50.8a.58.58,0,0,1-.1.12l-1.8,1.81A1.92,1.92,0,0,1,51,53.5h0a2.33,2.33,0,0,1-1.43-.77,2,2,0,0,1-.6-1.44A2,2,0,0,1,49.42,50l5.72-5.72h0l.27-.27a1.27,1.27,0,0,0-1.79-1.81L47.77,48a1.3,1.3,0,0,1-.15.18l-3.54,3.55a2,2,0,0,1-2.88,0,2,2,0,0,1-.58-1.3s0-.08,0-.12,0-.09,0-.14a2,2,0,0,1,.59-1.32L52.87,37.27h3.36L62,43.08a4.59,4.59,0,1,0,6.49-6.48l-6-6h18.3A1.27,1.27,0,0,0,82.15,29.37Z"></path></g></g></svg> 